<svg xmlns="http://www.w3.org/2000/svg" xmlns:xlink="http://www.w3.org/1999/xlink" viewBox="0 0 541.53 541.53"><defs><style>.cls-1,.cls-10,.cls-21{fill:none;}.cls-2,.cls-35{fill:#fff;}.cls-3{fill:#d18464;}.cls-4{fill:#a34d31;}.cls-5{fill:#893c27;}.cls-6{fill:#af5e48;}.cls-7{fill:#e6e6e6;}.cls-8{fill:#d37359;}.cls-9{fill:#c46955;}.cls-10{stroke:#f58220;stroke-width:66.65px;}.cls-10,.cls-35{stroke-miterlimit:10;}.cls-11{fill:#ffeaae;}.cls-12{opacity:0.2;}.cls-13{clip-path:url(#clip-path);}.cls-14{fill:#1c1b1b;}.cls-15{fill:#6a2a1f;}.cls-16{fill:#722f22;}.cls-17{opacity:0.52;}.cls-18{clip-path:url(#clip-path-2);}.cls-19{fill:#e2c7c3;}.cls-20{fill:#066d12;}.cls-21{stroke:#c46955;stroke-linecap:round;stroke-linejoin:round;stroke-width:1.72px;}.cls-22{fill:#9b392f;}.cls-23{opacity:0.71;}.cls-24{clip-path:url(#clip-path-3);}.cls-25{clip-path:url(#clip-path-4);}.cls-26{clip-path:url(#clip-path-5);}.cls-27{clip-path:url(#clip-path-6);}.cls-28{clip-path:url(#clip-path-7);}.cls-29{clip-path:url(#clip-path-8);}.cls-30{clip-path:url(#clip-path-9);}.cls-31{clip-path:url(#clip-path-10);}.cls-32{clip-path:url(#clip-path-11);}.cls-33{fill:#69bf4c;}.cls-34{clip-path:url(#clip-path-12);}.cls-35{stroke:#000;stroke-width:4.31px;}</style><clipPath id="clip-path"><rect class="cls-1" x="112.26" y="54.28" width="26.36" height="76.21"/></clipPath><clipPath id="clip-path-2"><rect class="cls-1" x="135.49" y="171.5" width="42.68" height="129.26"/></clipPath><clipPath id="clip-path-3"><rect class="cls-1" x="152.44" y="126.16" width="18.15" height="6.34"/></clipPath><clipPath id="clip-path-4"><rect class="cls-1" x="176.52" y="128.02" width="11.98" height="4.4"/></clipPath><clipPath id="clip-path-5"><rect class="cls-1" x="192.05" y="125.31" width="10.93" height="4.82"/></clipPath><clipPath id="clip-path-6"><rect class="cls-1" x="151.25" y="134.94" width="15.86" height="19.68"/></clipPath><clipPath id="clip-path-7"><rect class="cls-1" x="177.4" y="133.64" width="16.98" height="26.25"/></clipPath><clipPath id="clip-path-8"><rect class="cls-1" x="193.9" y="128.77" width="18.39" height="27.88"/></clipPath><clipPath id="clip-path-9"><rect class="cls-1" x="148.96" y="107.05" width="55.18" height="15.39"/></clipPath><clipPath id="clip-path-10"><rect class="cls-1" x="337.38" y="383.06" width="101.11" height="135"/></clipPath><clipPath id="clip-path-11"><rect class="cls-1" x="267.28" y="114.04" width="160.99" height="402.94"/></clipPath><clipPath id="clip-path-12"><rect class="cls-1" x="145.66" y="97.52" width="65.01" height="66.26"/></clipPath></defs><title>Asset 44DOBRILA-KRATKI-ORANGE</title><g id="Layer_2" data-name="Layer 2"><g id="Layer_1-2" data-name="Layer 1"><path class="cls-2" d="M468.37,269.34c0,109.26-88.57,197.83-197.83,197.83S72.71,378.6,72.71,269.34,161.28,71.51,270.54,71.51s197.83,88.57,197.83,197.83"/><path class="cls-3" d="M128.64,316.86c-5.84,9.53-18.64,21.95-6.56,32.16,5.44,4.6,14.57,4.22,18.64-1.68,7.48-10.85-5.43-44.2-12.08-30.48"/><path class="cls-4" d="M223.63,296.54a99.86,99.86,0,0,0,4.28,11.7c4.38,10.43,8.15,21.17,12.85,31.32,2.91,6.29,5.85,12.24,8.12,18.82,2.51,7.26,3,15.9,3.73,23.53,1.41,15.66,2.15,30.43.27,46-.79,6.63-2,13.29-3,19.86-.72,5-3.35,8.21-4.74,12.72-1.93,6.29,1.42,5.41,7,6.32,12.41,2,25.08-.22,37.68-1.58,10.36-1.12,17.44-1.41,27.38-3.18,5.45-1,12.2-3.71,17.65-5.54,9.74-3.26,17-9.78,26-14.41,5.55-2.86,11.2-5.09,16.74-7.87,9.73-4.88,20.67-8.13,28.59-15.74,6.86-6.59,16-13.83,17.55-23.72.66-4.06-.22-8-.59-12-.74-8.08-.44-15.85-1.4-24.06-1-8.88-3.84-16.75-6.93-25.08-1.08-2.92-1.95-6.43-3.41-9.17-1.11-2.06-4-4.28-4.73-6.41-1.17-3.57-.45-7.69-1.36-11.52-2.46-10.34-7.41-20.08-13.48-28.73-10.27-14.61-22.22-28.41-31.63-43.53-4.26-6.85-6.68-14.43-11.62-20.82C340,202.46,331.1,192,323,180.61s-16.88-22.12-28.69-29.79c-9.45-6.14-22.53-37.35-32.92-28-17.4,15.61-15.24,70.83-16.69,91.34-.78,11.09-2.13,22.31-5.65,32.91S228.11,265.92,224,276c-2.79,6.86-2.23,13.77-.35,20.5"/><path class="cls-5" d="M226.33,303.64c6,11.16,11.95,22.42,17.65,33.46,4,7.81,7.23,5.58,14.52,8.62,5.68,2.36,11.72,7.79,15.83,12.22a43.33,43.33,0,0,1,4.9,6.94c3.56,5.9,12.64,2.41,11.3-4.35-2.68-13.61-12.43-30.7-15.23-38.51-14.68-41,4.17-83-2.56-125.09-2-12.59-6.24-23.86-10.24-35.76-1.76-5.24-5-20.59-11.46-21.88-4.73,6.52-.91,18,.57,25.16,2,9.62,4.37,18.83,5.75,28.57,2.38,16.93,6,34.77,4.06,51.86C260,257.41,253.59,271,246.61,281.7c-4,6.19-4.41,6.13-10.4,8.87-5,2.27-11.24,7.51-9.88,13.07"/><path class="cls-6" d="M147.6,128.38c-5.74,6.26-9.22,15.79-11.42,23.89-2.36,8.69-1.6,18.06-7.12,24.84-5.72,7-11.79,14.34-13,23.67-1.17,8.75,7.28,12.87,9.59,20.28a108.69,108.69,0,0,1,4.74,30.87c0,13.55-.54,27-1.13,40.44-.31,6.91.19,14.37-.6,21.16a90.21,90.21,0,0,0-.57,20c1.25,12.3,5.8,14.45,15.29,22.12,5.48,4.43,7.5,10.85,12.27,15.39,4.4,4.2,11.71,4.31,17.26,3.32,7-1.27,12.51-5.29,17.58-10.08,2.07-2,3-3.89,5.87-4.64,2.52-.67,5,1.23,7.63-.13,3.43-1.79,5.47-6.43,6.31-9.89,3.42-14.07,3.26-28.77,13.18-41,4.44-5.49,10.08-10.16,14.73-15.55,20.46-23.75,29.49-57.35,26-88.3-1.9-16.94-4.77-36.23-11.45-52-4.05-9.58-4.56-7.3,1.17-15.75,3.35-4.94,7.77-15.51,7.42-21.61-12.67-4-23.7-11.93-36.63-15.81a130,130,0,0,0-24.12-5c-21.44-2.1-52.4,12.14-61.08,32.91,3.06-1.47,9.83-4.69,8.09.94"/><path class="cls-7" d="M221.73,201.36c-4.7,1.39-9.37,7-12.84,10.47-2.34,2.32-9.14,7.85-6.71,11.09,1.34,1.8,5.86,1.21,7.77,1.71,3.06.81,5.42,1.73,8.68,1.73,9.26,0,14.92-2.88,20.06-10.63,2.58-3.89,4-13.27-1.69-14.77-6-1.59-9.5.34-15.27.4"/><path class="cls-8" d="M216.84,203.66c-3.78,2.47-6.78,6.79-5.52,11.2A11.64,11.64,0,0,0,220,223c9.41,1.82,21.79-8.8,14.09-18.31-5.07-6.25-13-2.43-17.25-1"/><path class="cls-9" d="M135.53,336.4c-8.61-1.86-4.41,7.86-.57,10.65,4.92,3.58,10.89,2.77,16.38,1.1,3.68-1.11,11.35-2.53,13.5-6,1.75-2.81,2.92-13.62,1.41-15-3.87-3.45-9.53.18-12.83,2.23-6.61,4.1-12.6,7.71-17.89,7"/><path class="cls-9" d="M184.38,210.55c-3.5,3.76-4.56,10-6.76,14.66-2.38,5-5.19,9.59-7.19,14.66-3.61,9.12-6,18.9-8.9,28.15-1.65,5.21-3,10.6-4.14,16-.61,2.77-4.14,13.61-2,15.95,7.63,8.36,31.73-44.13,34-50.32,1.59-4.42,13.8-47.36-5-39.06"/><path class="cls-9" d="M263.68,203.66c2.25,16.1-8.48,27.89-20.45,36.18-13.38,9.25-26.71,16.29-37,29.34-8.93,11.28-12,33.48,9.22,29.59,17.69-3.25,31.49-19.89,40.37-34.22,5.59-9,8.65-19,10.92-29.29,1.67-7.58,4.76-26.08-3-31.6"/><circle class="cls-10" cx="270.77" cy="270.76" r="232.64" transform="translate(-112.15 270.77) rotate(-45)"/><path d="M535.65,270.76A264.83,264.83,0,0,1,125.29,492.17a267.12,267.12,0,0,1-58.83-52.79,263.54,263.54,0,0,1-59.8-148,267.06,267.06,0,0,1,6.75-83.57,264,264,0,0,1,30.68-74.18A266,266,0,0,1,161.48,29.39,262.12,262.12,0,0,1,240.16,7.61a268.25,268.25,0,0,1,83.62,3.57A263.81,263.81,0,0,1,399.65,39.3a264.27,264.27,0,0,1,136,231.46c0,3.79,5.88,3.79,5.88,0A271,271,0,0,0,196.82,10.22a271,271,0,0,0-135,88.31,272.63,272.63,0,0,0-41.79,69.84A269.47,269.47,0,0,0,.81,249.76a272.65,272.65,0,0,0,6.84,85.16A269.25,269.25,0,0,0,39,410.86,271.06,271.06,0,0,0,325,536.09a269,269,0,0,0,77.32-28.61,271.83,271.83,0,0,0,111-116.13,269,269,0,0,0,25.07-79,277.49,277.49,0,0,0,3.2-41.62c0-3.78-5.87-3.78-5.88,0"/><path d="M465,270.76A194.17,194.17,0,0,1,164.15,433.14a195.81,195.81,0,0,1-43.25-38.8A193.2,193.2,0,0,1,77.11,285.83,196.13,196.13,0,0,1,82,224.66,194.13,194.13,0,0,1,248.28,77.81a196.59,196.59,0,0,1,61.46,2.63,194.28,194.28,0,0,1,153,160.6A195.86,195.86,0,0,1,465,270.76c0,3.33,5.18,3.34,5.17,0A199.4,199.4,0,1,0,77,318a198.21,198.21,0,0,0,23.15,56,199.63,199.63,0,0,0,210.69,92.13,198.25,198.25,0,0,0,56.8-21,200.43,200.43,0,0,0,81.71-85.53,198,198,0,0,0,18.44-58,203.74,203.74,0,0,0,2.38-30.81c0-3.32-5.16-3.33-5.17,0"/><path class="cls-2" d="M96.14,115.59a13.1,13.1,0,1,1-18.41,2.07,13.1,13.1,0,0,1,18.41-2.07"/><path d="M94.77,117a11.38,11.38,0,0,1,3.83,12.29A11.16,11.16,0,1,1,94.77,117a2,2,0,0,0,2.74,0,2,2,0,0,0,0-2.74,15,15,0,0,0-24.25,14.66,15,15,0,1,0,24.25-14.66,2,2,0,0,0-2.74,0,2,2,0,0,0,0,2.74"/><path class="cls-2" d="M39.91,310.86a13.09,13.09,0,1,1-9.85,15.68,13.1,13.1,0,0,1,9.85-15.68"/><path d="M40.43,312.73A11.16,11.16,0,1,1,31.67,324a11.23,11.23,0,0,1,8.76-11.31c2.42-.59,1.4-4.33-1-3.74a15,15,0,1,0,17.15,8.51A15.16,15.16,0,0,0,39.4,309c-2.44.52-1.41,4.26,1,3.74"/><path class="cls-2" d="M157.52,476.56a13.1,13.1,0,1,1,6.12,17.49,13.11,13.11,0,0,1-6.12-17.49"/><path d="M159.2,477.54a11.16,11.16,0,0,1,20.93,1.93,11.16,11.16,0,1,1-20.93-1.93,2,2,0,0,0-.7-2.65,2,2,0,0,0-2.65.69,15,15,0,0,0,19.78,20.3,15,15,0,1,0-19.78-20.3c-1.11,2.23,2.23,4.2,3.35,2"/><path class="cls-11" d="M360.41,487.93a13.1,13.1,0,1,1,17.48,6.12,13.09,13.09,0,0,1-17.48-6.12"/><path d="M362.08,487a11.17,11.17,0,1,1,12.84,6.12A11.26,11.26,0,0,1,362.08,487c-1.11-2.23-4.46-.27-3.35,2a15,15,0,1,0,4.39-18.63,15.14,15.14,0,0,0-4.39,18.63,2,2,0,0,0,2.66.69,2,2,0,0,0,.69-2.65"/><path class="cls-2" d="M495.79,336.39a13.09,13.09,0,1,1,15.68-9.85,13.09,13.09,0,0,1-15.68,9.85"/><path d="M496.3,334.52A11.15,11.15,0,1,1,509,328a11.32,11.32,0,0,1-12.71,6.57c-2.43-.52-3.47,3.22-1,3.74A15,15,0,1,0,483.68,323a15.28,15.28,0,0,0,11.59,15.23c2.43.59,3.46-3.15,1-3.74"/><path class="cls-2" d="M461.72,136.07a13.1,13.1,0,1,1,2.08-18.41,13.09,13.09,0,0,1-2.08,18.41"/><path d="M460.35,134.7a11.18,11.18,0,1,1,3.18-13.89,11.28,11.28,0,0,1-3.18,13.89,2,2,0,0,0,0,2.74,2,2,0,0,0,2.75,0,15,15,0,1,0-19.24-.13,15.13,15.13,0,0,0,19.24.13,2,2,0,0,0,0-2.74,2,2,0,0,0-2.75,0"/><g class="cls-12"><g class="cls-13"><path class="cls-14" d="M130.24,54.28c-.55,7.5-6.44,13.3-10.57,19.59a46.61,46.61,0,0,0-4.13,42.38,27.34,27.34,0,0,0,6.49,10,15.21,15.21,0,0,0,10.86,4.26c-1.93-7.43-3.87-14.93-4-22.6a37.81,37.81,0,0,1,2.52-15.07c1.65-4,6.56-7.86,7.19-12.07.56-3.66-2.92-6.84-4.49-9.85a35.77,35.77,0,0,1-3.82-16.6"/></g></g><path class="cls-6" d="M159.33,102.77c-.44-2.56.59-5.6.3-8.32-.45-4.31-2.57-7.88-5-11.33-4.14-5.86-9.45-11.07-13.06-17.31-1.59-2.74-1.43-6.1-2.92-8.81-1.9-3.45-3,0-3.79,2.23-1.63,4.83-4.16,8.86-6.77,13.28-9.39,15.87-7.77,35.34.67,51.5,1.47,2.81,4.06,5.22,5.2,8.09,1.58,4,.72,7.73.13,12.47-1,7.91-3,16.71.57,24.36,8.71,18.67,45.12,22.2,62.62,21.81a71.88,71.88,0,0,0,35-9.53,65.45,65.45,0,0,0,14.43-11.62c2-2.15,4.14-4.19,6-6.51,2.26-2.9,3.23-3.7,2.07-7.35-1.59-5-3.82-9.65-3.56-15.14.26-5.32,7.76-8.25,10.73-11.89,6.84-8.36,10.38-20.14,13.07-30.41,2-7.79,1.06-15.92,1.9-23.85.41-3.92,1.43-7.77,1.46-11.71,0-2.36.65-7-1.3-8.7a70.83,70.83,0,0,1-8.4,10.7c-3.7,3.69-6.73,7.63-11.64,9.65-9.49,3.91-18.33,9.23-27.17,14.4-3.46,2-6.94,3.85-10.27,6.11-2.34,1.6-3.76,4.64-6.52,4-2.58-.65-4.83-2.44-7.53-2.87s-5.64-.53-8.39-1a74.87,74.87,0,0,0-8.33-.71c-6.92-.33-13.28,1.6-19.59,4.3-3.05,1.3-6.62,3.59-9.84,4.25v-.08"/><path class="cls-15" d="M222,129.23c-2.07-.85-2.5-5.74-2.54-7.79a24.21,24.21,0,0,1,2.72-11.26c6.36-12.48,20.56-16.43,31.64-23.51A63.12,63.12,0,0,0,261.7,81c1.49-1.31,2.68-3.62,4.13-4.63-.21,2.69-1.51,5.31-2.22,7.91a85,85,0,0,0-1.81,8.56c-1.2,7.4-2.83,15.07-7.8,20.92-5.9,6.93-15.26,19.06-25.46,18.09,3.12-3.05,5.38-8.17,4.21-12.48-1.19,1.59-1.73,4.26-2.58,6.11-1.13-2.57-1.15-6.08-4.77-6.34a46.75,46.75,0,0,1-.19,8.21c-.6-1.4-1-2.82-2.34-3.68.76,1.73.1,3.58-.88,5.57"/><path class="cls-16" d="M243.45,188.73c-11.86-5-25.52-6.23-37.68-2a9.38,9.38,0,0,0-3.88,2.15,3.76,3.76,0,0,0-.9,4.1,3.85,3.85,0,0,0,3.37,1.87,12.32,12.32,0,0,0,4-.81c11.07-3.5,22.82-5.24,34.34-3.83"/><path class="cls-9" d="M228.05,168c-1.46-1.81-5.84-2.71-8.08-3.23a31.43,31.43,0,0,0-11.23-.42c-6.34.83-13.05,4.47-13,11.74,0,8.62,11,5.6,16.17,4.58a61.6,61.6,0,0,1,21.33-.18c4.17.66,10.18,1.45,6.87-4.87-2.42-4.65-5.59-6.33-12-7.62"/><path class="cls-9" d="M149.6,158.85a29.31,29.31,0,0,0-3.38,3.06c-8.22,8.7-10.21,21-8.42,32.49,1.26,8.08,4.75,15.81,5.2,24,.6,10.65-1.34,21.29-2.17,31.73-.85,10.8-2.14,21.46-3,32.21-.49,6-4.81,26.22,0,31,6.13,6.13,13.51-21,15.1-26.05,4.88-15.57,6.68-32.19,12.05-47.55,6.18-17.66,19.81-35.33,19.71-54.54-.1-18.23-18.27-39.16-35.08-26.38"/><g class="cls-17"><g class="cls-18"><path class="cls-19" d="M155.07,195.61c-3.3-3.13-6-11.54-9.91-5.17-2.47,4-.25,12.95.09,17.48a214.56,214.56,0,0,1-.23,36.82c-1.22,12.22-3.69,24.38-6.06,36.49-.79,4.08-4.86,13.47-3,17.24,3.61,7.22,7.81-4.55,8.75-8.35,2-8,3-16.05,5.46-24.09s3.83-26,10.32-31.13c7.42,10.17,12.9-25.49,13.68-29.65,1.58-8.46,8.5-27.91-.72-33.75-2,1.88-12.45,33.89-18.4,24.11"/></g></g><path class="cls-20" d="M116.66,373.81a53.08,53.08,0,0,1,22.47-17.87c1.29-.55.18-2.43-1.1-1.88a55.15,55.15,0,0,0-23.25,18.65c-.82,1.14,1.07,2.23,1.88,1.1"/><path class="cls-20" d="M217.66,361.6l.78,7.19a1.12,1.12,0,0,0,1.09,1.09,1.09,1.09,0,0,0,1.09-1.09q-.39-3.59-.79-7.19a1.12,1.12,0,0,0-1.08-1.09c-.54,0-1.16.49-1.09,1.09"/><path class="cls-20" d="M234,374.69l3.45-.27a1.17,1.17,0,0,0,.77-.31,1.09,1.09,0,0,0-.77-1.86l-3.45.26a1.19,1.19,0,0,0-.77.32,1.12,1.12,0,0,0-.32.77,1.09,1.09,0,0,0,1.09,1.09"/><path d="M155.81,370.6a39.64,39.64,0,0,0,41.32-27c.45-1.34-1.66-1.91-2.1-.58a37.47,37.47,0,0,1-39.22,25.36c-1.39-.14-1.38,2,0,2.18"/><path class="cls-2" d="M221.05,209.59a2.95,2.95,0,1,1-3-3,2.95,2.95,0,0,1,3,3"/><path class="cls-2" d="M231,216.09a1.55,1.55,0,1,1-1.55-1.55,1.54,1.54,0,0,1,1.55,1.55"/><path class="cls-21" d="M202,216.09c4.93-10.48,12-19.37,23.22-21.29,4.09-.7,9.28.24,13.36-.77"/><path class="cls-22" d="M144.87,127.34l3.13-3.45a7.35,7.35,0,0,1-3.12-3.41c-.88.74-2.65,2.67-2.81,3.85-.08.62,2.56,3.27,2.8,3"/><g class="cls-23"><g class="cls-24"><path class="cls-22" d="M153.17,126.16a6.83,6.83,0,0,0-.7,3.71c.07.85,0,.9.86,1.35a9.71,9.71,0,0,0,2,.78c1.86.53,4,.3,5.89.3,2.22,0,4.81.56,6.95-.21,1-.36.69-.64,1.13-1.64.36-.8,1-1.57,1.27-2.34a34.38,34.38,0,0,1-9.82.39c-2.25-.19-5.3-.57-7.6-2.34"/></g></g><g class="cls-23"><g class="cls-25"><path class="cls-22" d="M176.87,128.53c-.11.71-.65,2.94-.09,3.56s3.17.16,3.93.09a24.53,24.53,0,0,0,7.79-1.6c-.22-.84-.48-1.73-.68-2.56-2.6,1.59-7.71,1.76-10.95.51"/></g></g><g class="cls-23"><g class="cls-26"><path class="cls-22" d="M192.06,127.77a3.2,3.2,0,0,0,.52,2c.47.47.85.28,1.56.21a25.67,25.67,0,0,0,4.28-.62,27.35,27.35,0,0,0,3.34-1.13c.86-.35.73-.18,1-1,.17-.62.12-1.32.26-2-2,0-4.68,1.21-6.67,1.75a12.25,12.25,0,0,1-4.26.71"/></g></g><g class="cls-23"><g class="cls-27"><path class="cls-22" d="M151.66,135.74c-.7,2.17-.32,4.54-.21,6.79.13,2.51.16,5.13.41,7.64a41.31,41.31,0,0,0,.66,4.46c.78-3.08,8.92-7.51,11.56-3.91a13.36,13.36,0,0,0,.08-3.47,29.71,29.71,0,0,1,.71-5.64,21,21,0,0,1,2.25-6.67,13.23,13.23,0,0,1-9.21,2.61c-2.21-.15-4.07-1.16-6.25-1.81"/></g></g><g class="cls-23"><g class="cls-28"><path class="cls-22" d="M177.41,137.47c0,5.53,2.24,10,4.65,14.86a50.55,50.55,0,0,1,2.68,5.36c.15.44.22,1.53.55,1.84.67.63,2.61.27,3.35.11,1.7-.36,5-1.53,5.58-3.42.45-1.61-.16-4.05-.4-5.66a52.89,52.89,0,0,0-1.65-7.36c-.59-2-1.18-4-1.86-6-.23-.68-.85-3.05-1.42-3.47-.38-.29-.86.05-1.36.16-1.37.31-2.8.33-4.18.57a10,10,0,0,0-5.94,3"/></g></g><g class="cls-23"><g class="cls-29"><path class="cls-22" d="M193.9,134.45A49.57,49.57,0,0,0,198,147.17a57.29,57.29,0,0,0,3.44,6.06c1.18,1.74,1.84,3.47,4.24,3.42a9.18,9.18,0,0,0,6.64-2.91c-7.85-6.14-8.07-16.05-9.37-25-1.83.71-3.44,2.21-5.12,3.21-1.07.64-2.42.94-3.9,2.47"/></g></g><g class="cls-23"><g class="cls-30"><path class="cls-22" d="M154.35,109.35c1.49,3.49,6.71,5.2,10.23,5.38,7.36.4,13.33-4.94,19.74-7.68,2.28,3.06,3.91,6.12,8.14,6.8,4,.66,7.77-1,11.42-2.32.57,2.68,0,5.46,0,8.19-1.8,0-3.92-1-5.79-1.32a85.05,85.05,0,0,0-12.85-1.09c-6.79-.13-13.27.4-18.42,5.14C163.06,116.94,155.11,116,149,116"/></g></g><path class="cls-22" d="M138,132c-2.1,3.15-4.18,9.19-3.91,12.9a8.44,8.44,0,0,0,1.77.18,44.11,44.11,0,0,1,2.61-7.69c1-1.9,2.47-3.67,3.17-5.56A19.21,19.21,0,0,0,138,132"/><path class="cls-15" d="M428.31,407.69c0,9.31-.24,17.55-4,26.17-3.71,8.45-8.93,18.84-18.45,21.75a9.81,9.81,0,0,1-10.43-2.53c-5.5-5.36-8-16.38-10.08-22.17-2.59-7.32-4.47-14.81-7.36-22.05a129.55,129.55,0,0,1-7.14-22.41,184.44,184.44,0,0,1-3.27-23.63c-.52-7.81-.94-15.76-3.66-23.14-1.33-3.53-5.38-14.08-9.95-14.74-3.06-.43-4,3.66-4.56,6.12-.64,2.73-.54,5.5-1.16,8.21a94.06,94.06,0,0,1-3.17,9.19c-1.88,5.48-3.57,11.45-6.74,16.38-2.55,4-6,8.08-7.66,12.55-1.41,3.77-1.77,8.46-2.08,12.46a93.58,93.58,0,0,0,.05,13.5c.16,2.57-.5,11.06,1.09,12.93-9.18-10.76-10.21-29.88-10.3-43.29-.12-15.08,2.63-30.38,4.33-45.36,2.4-21.1,1.53-42.9-1-63.95-1.56-12.81-2.74-31.41-9.05-42.93-6.12,8.76-9.17,23.16-12.06,33.55-4,14.2-2,31.34,6.13,43.89-11.53-6.95-18.53-29.62-19.11-41.94-1.23-25.79,4-46.46-2.11-71.44-4.61-18.82-8.41-40.13-23.5-53.76-3.28-3-1.4-4,.43-7.17,1.71-3,2.68-6.23,4.47-9.17,2.17-3.55,4.47-2.28,7.54-.58,3.5,1.94,7,3.19,10.11,5.7s6,5,8.89,7.67c5.6,5.29,11.1,11.25,14.32,18.33,2.1,4.61,6.46,10.16,8.48,14.59,2.67,5.91,4.91,8.08,9.6,12.77,14,14,22.27,27.89,29.93,46,6.55,15.52,13.91,31,24.29,44.27A208.4,208.4,0,0,1,403.7,298.6c1.32,2.64.13,12.67,1.61,15.52.95,1.83,2.73.6,3.59,2.69,5.33,12.91,11.12,17.17,12.7,30.05,1.2,9.61-.15,20.08,1.09,29.3,1.47,10.88,5.62,20.41,5.62,31.53"/><g class="cls-12"><g class="cls-31"><path class="cls-14" d="M350.41,507.86l5-6.71c-.55,7.34,5.36,14.15,12.44,16.14s14.83-.1,21.06-4a22.61,22.61,0,0,0,7.51-7.14c1.9-3.14,2.65-6.81,3.87-10.27,4.73-13.48,16.23-23.25,24.38-35,15.55-22.38,18.22-53.09,6.77-77.82a107.06,107.06,0,0,1-62.13,54.37c-15.55,5.12-28.15,11-31.18,28.31-2.61,14.9,1.73,31.14,12.29,42.12"/></g></g><path class="cls-15" d="M305,207.59c18.24,32.89,22.69,72.13,18.31,109.49-2.14,18.25-6.29,36.33-6.48,54.71s4.11,37.7,16.61,51.18c-10.2-13.81-5.72-33.4,1.48-49,7.37-15.94,13.53-29.84,16.46-47,5.6,18.49,10.78,38,11.73,57.36,1.55,32-42.11,84-5.71,109.61-3.67-26.06,5.59-47.89,30.65-59.28-20.56,22.12-36,56.7-13,83.73,5.32,6.26,13.34,11,20.63,14-5.52-15.46-9.42-31.23-.93-46.7,6-11,15.76-20,23.49-29.77,18.19-23,14.92-54.49,4.47-79.45"/><path d="M303.57,208.41c14.17,25.71,19.91,55.19,19.64,84.37-.14,15.57-2.37,30.85-4.72,46.21-2.28,14.89-4.36,30-2.74,45.12,1.58,14.62,6.45,29,16.52,40,1.23,1.34,3.66-.46,2.56-2-7.39-10.26-6.59-23.34-3.2-34.94,1.85-6.32,4.63-12.21,7.35-18.19,2.78-6.14,5.47-12.34,7.78-18.68a134,134,0,0,0,6.18-22.86h-3.16c4.9,16.19,9.41,32.66,11.12,49.55a61.92,61.92,0,0,1,0,16.32,99.75,99.75,0,0,1-3.62,14.32C354,418,349.81,428,346.48,438.34c-3.08,9.55-5.77,19.71-5.18,29.83a35.11,35.11,0,0,0,15.26,27.24c1.32.94,2.57-.61,2.4-1.85-1.57-11.48-.74-23.61,4.51-34.12,5.35-10.72,14.63-18.36,25.39-23.31l-2-2.57C376.31,445,367.44,458.76,363.69,474s-1.2,31,8.53,43.59c5.91,7.63,14.17,12.77,23,16.44,1.14.48,2.4-.91,2-2-4-11.38-7.64-23.74-4.78-35.85C395.24,484.29,404,475,411.82,466c7.13-8.1,13.62-16.21,17.23-26.53a73.87,73.87,0,0,0,3.5-30.07,109.23,109.23,0,0,0-8.31-33.33c-.79-1.92-4-1.08-3.15.87,7.9,19,11.77,41.1,5,61-3.65,10.76-10.68,19-18.07,27.37s-15.48,17.58-18.49,28.8c-3.48,13,.13,26.38,4.51,38.7l2-2c-7.41-3.09-14.63-7.43-19.9-13.58a45.44,45.44,0,0,1-10-20.2c-3-14.26,1.51-29,8.48-41.39a105.7,105.7,0,0,1,14.58-19.84,1.64,1.64,0,0,0-2-2.56c-9,4.13-17.06,10.13-22.83,18.24a52.79,52.79,0,0,0-9.13,25.77,74.76,74.76,0,0,0,.56,17.11l2.4-1.84a31.58,31.58,0,0,1-13.62-24c-.68-10,2-20,5-29.42,6.18-19.15,16.45-38.27,14.83-58.91-1.44-18.33-6.22-36.17-11.52-53.7-.44-1.44-2.86-1.68-3.16,0C347.28,341,342,354.48,336,367.72c-5.34,11.75-10.61,23.85-10.15,37a34.3,34.3,0,0,0,6.17,19l2.57-2c-20.27-22.14-17.12-54.65-12.94-81.95,2.3-15,4.54-30,4.81-45.2a198.23,198.23,0,0,0-3.68-42.52,158.45,158.45,0,0,0-16.38-45.38c-1-1.84-3.84-.19-2.82,1.65"/><g class="cls-23"><g class="cls-32"><path class="cls-22" d="M428.28,407.69A84.9,84.9,0,0,1,426.84,422c-1.17,7-2.42,14.1-6,20.38-5.26,9.25-13.14,15.45-19.92,23.36-6.11,7.12-9.75,16.37-11.63,25.5a69.22,69.22,0,0,0-1.51,14.05c0,3.76,1,8,.52,11.66-8.78-16-6.11-35,.94-51.43,5.66-13.14,14.33-24.76,19.8-37.91,2.92-7,5.94-14.47,5.84-22-2.44,4.82-9.05,9.24-14.22,10.31,2.26-4.65,5-8.76,6.45-14.05,3.32-12.17,6.32-25.26,5.73-37.86-.33-7.21-2.8-13.83-3.78-20.88-2.34,8.48-3,17.35-5.4,25.85a214,214,0,0,1-6.78,20.56c-2,5.22-6,14.58-10.75,17.68-.16-14.33,4.53-28.78,3.08-43.15-1.62-16-4.26-33.59-10.91-48.32-4-8.78-7.74-16.78-9.21-26.48a75.44,75.44,0,0,0-3.35-15c-5.8-15.87-12.48-32.47-23-45.84s-29.48-25-30.38-43.63A46.47,46.47,0,0,0,304,203.18c-1,4.7-1.8,9.35-2.38,14.12-.54,4.39.18,10-.77,13.9-1.87-9.48-3.42-17.68-3.43-27.45A123.69,123.69,0,0,0,295,177.57c-2.47-11.18-7.6-22.5-13-32.59-2.92-5.48-6-11.36-9.78-16.33-2-2.66-5.8-5.65-4.76-8.9.48-1.47,3-5.41,4.54-5.69,1.24-.24,4.75,1.67,6,2.1,6.28,2.11,12.21,7.33,17,11.81,5.49,5.16,10.62,10.95,13.77,17.86,2.1,4.61,6.46,10.16,8.48,14.59,2.67,5.91,4.91,8.08,9.6,12.77,14,14,22.27,27.89,29.93,46,6.55,15.52,13.91,31,24.29,44.27a208.34,208.34,0,0,1,22.61,35.15c1.33,2.64.14,12.67,1.62,15.52.95,1.83,2.73.6,3.59,2.69,5.33,12.91,11.12,17.17,12.71,30.05,1.18,9.61-.16,20.08,1.08,29.3,1.13,8.4,4.05,16.44,5.15,24.84a49.75,49.75,0,0,1,.44,6.69"/></g></g><path d="M404.64,316.4c7.82,9.91,12.09,22.63,14.48,34.89s3.11,25.59-.53,37.68c-.61,2,2.54,2.88,3.15.87,2.93-9.73,3.06-20.23,1.93-30.25a106.4,106.4,0,0,0-8.33-31.4,66.07,66.07,0,0,0-8.39-14.1c-1.3-1.65-3.6.67-2.31,2.31"/><path d="M360.26,234.64C367,246,374.37,256.91,381.9,267.75c5.64,8.12,11.34,16.31,15.58,25.28,4.59,9.71,6.8,20.08,7.6,30.75A139.6,139.6,0,0,1,385,406.7c1,.42,2,.85,3,1.26a166.36,166.36,0,0,0-12-100.35c-.87-1.91-3.69-.25-2.82,1.65a164.4,164.4,0,0,1,14.29,75.8,161.71,161.71,0,0,1-2.66,22,1.64,1.64,0,0,0,3,1.26,143.28,143.28,0,0,0,20.82-79c-.39-11.29-2-22.57-6.23-33.08-3.75-9.31-9.18-17.75-14.83-26C379.17,258,370.64,245.83,363.08,233a1.63,1.63,0,0,0-2.82,1.65"/><path d="M311.85,157.14c27,27.44,46.66,62.4,54.7,100.13a174.32,174.32,0,0,1,3.78,32.44c0,2.1,3.31,2.1,3.26,0-.85-39.39-15.26-77.85-38.18-109.67a215.7,215.7,0,0,0-21.25-25.21c-1.47-1.5-3.78.81-2.31,2.31"/><path d="M328.59,208.83a211.09,211.09,0,0,1,41.52,83.45c.5,2.05,3.65,1.18,3.15-.87a214.14,214.14,0,0,0-29.76-67.9q-5.88-8.81-12.6-17c-1.33-1.63-3.63.69-2.31,2.31"/><path class="cls-15" d="M213.82,98c-21-8.45-44.5-3.4-61.67,11.41S127,148.85,132.28,170.9A70.83,70.83,0,0,1,151,124c-2.32,12.47-2.83,25.51.7,37.69s11.45,23.44,22.81,29.07c-12.4-21.5-11.16-50.12,3.07-70.45-4.13,7.25-3.43,16.35-.88,24.3s6.77,15.26,9.55,23.13,4,16.82.54,24.41c7.48-8.37,10.25-20.13,9.87-31.35s-3.61-22.13-6.8-32.9c2.31,9.63,4.73,19.54,10.51,27.58s15.8,13.88,25.47,11.77c-7.31-8-14.8-16.2-18.54-26.34s-4.17-19.89,0-29.65"/><path d="M214.26,96.4c-17.27-6.82-36.77-4.86-52.78,4.35a64.92,64.92,0,0,0-30.72,41.53,64.19,64.19,0,0,0,0,29.05c.42,1.83,3.18,1.38,3.21-.43a69.53,69.53,0,0,1,18.2-45.7l-2.73-1.59c-2.54,13.85-3.07,28.57,1.81,42,4.06,11.17,11.71,21.17,22.45,26.61a1.65,1.65,0,0,0,2.23-2.24c-12.08-21.21-10.8-48.74,3.08-68.8l-2.83-1.65c-6,11-2.33,23.6,2.37,34.33,5,11.45,12.37,24.88,6.84,37.52-.68,1.55,1.23,3.5,2.56,2,16.3-18.62,9.8-44.6,3.49-65.84a1.63,1.63,0,0,0-3.15.86c2.53,10.54,5.25,21.64,12.36,30.14,6.21,7.43,15.87,12.3,25.64,10.35a1.65,1.65,0,0,0,.72-2.73c-6.63-7.21-13.48-14.64-17.38-23.76-4.24-9.89-4.9-20.63-.75-30.63.8-1.95-2.36-2.79-3.15-.87-4.34,10.47-3.63,21.86.68,32.23,4,9.75,11.23,17.66,18.29,25.34l.72-2.73c-9.12,1.82-18.13-3.6-23.43-10.75-5.92-8-8.27-18-10.55-27.45l-3.15.86c5.91,19.92,12.75,45.08-2.65,62.66l2.57,2c5.15-11.76.68-24.12-4.27-35.1-5-11.19-11.48-24.78-4.93-36.75a1.64,1.64,0,0,0-2.83-1.65c-14.52,21-15.7,49.94-3.07,72.1l2.24-2.23c-10.17-5.15-17.44-14.63-21.17-25.28-4.45-12.71-4-26.55-1.59-39.63.27-1.49-1.54-2.89-2.73-1.59a73,73,0,0,0-19.16,48l3.21-.44a62.2,62.2,0,0,1,8.71-47.64,61.4,61.4,0,0,1,41.71-26.69,56.4,56.4,0,0,1,29.11,3.42c2,.77,2.81-2.39.87-3.15"/><path d="M132.66,170.6c-9.27,10.08-20.14,22.86-16.34,37.68,1.79,6.94,6.76,12.42,9.53,18.92,3,7,3.82,14.67,3.91,22.2.1,8-.52,16-.94,24l-1.29,24.81q-.66,12.82-1.33,25.66c-.37,7.06-.91,14.55,2.35,21.07,5.73,11.43,20.74,14.17,26,25.85.78,1.72,3.31.23,2.54-1.48-4.53-10.05-15.81-13.55-22.86-21.3-4.92-5.43-5.57-12.41-5.32-19.43.28-8,.81-16,1.23-24,.83-16,1.89-31.95,2.45-47.93a92.94,92.94,0,0,0-1.18-21.14c-1.37-7-4.43-12.85-8-18.9-2.06-3.46-4-7-4.61-11.07a25.25,25.25,0,0,1,1.42-12.11c2.85-8.09,8.86-14.54,14.56-20.74,1.28-1.39-.79-3.48-2.08-2.08"/><path d="M155.68,372.12c10.82,5.35,23.9,3.25,33.42-3.86s15.42-18.32,18.06-29.85a104.37,104.37,0,0,0,2.23-23.59,1.47,1.47,0,0,0-2.94,0c0,15.22-2,31.34-11.62,43.72-8.68,11.16-24.22,17.69-37.67,11-1.69-.83-3.18,1.7-1.48,2.54"/><path d="M205.79,315.06l4.72,2.36a1.47,1.47,0,0,0,1.49-2.54l-4.73-2.36a1.51,1.51,0,0,0-2,.53,1.49,1.49,0,0,0,.53,2"/><path d="M126.78,316.4c-5.74,6.89-12,15-10,24.6,2,9.18,11.27,11.81,19.36,13.2,1.85.32,2.64-2.51.78-2.83-7-1.2-15.59-3.06-17.31-11.16-1.78-8.39,4.21-15.74,9.2-21.73,1.2-1.45-.87-3.54-2.08-2.08"/><path d="M122.57,217.12l-.46.08-.14,0a8.84,8.84,0,0,1-1.68,0c-.07,0-.34,0-.14,0l-.45-.08a8,8,0,0,1-2.93-1.13,8.16,8.16,0,0,1-3.68-4.65,1.47,1.47,0,0,0-2.83.78A11.45,11.45,0,0,0,123.35,220a1.49,1.49,0,0,0,1-1.81,1.5,1.5,0,0,0-1.81-1"/><path d="M121.36,217.78a5.84,5.84,0,0,1-7.89-1.56,7.31,7.31,0,0,1-.43-.7c-.07-.12-.13-.24-.19-.36s-.13-.32-.08-.18c-.09-.23-.16-.47-.23-.7l-.09-.4s-.08-.47,0-.26a1.52,1.52,0,0,0-1.47-1.47,1.48,1.48,0,0,0-1.47,1.47,8.8,8.8,0,0,0,13.38,6.69,1.47,1.47,0,0,0-1.48-2.53"/><path d="M120.84,220a5.2,5.2,0,0,1-2.24,1.4,5.93,5.93,0,0,1-.83.21l-.23,0-.23,0a8.38,8.38,0,0,1-1.66,0c-.16,0,.16,0-.11,0l-.42-.09a7.34,7.34,0,0,1-.77-.21l-.34-.12c-.43-.16.24.12-.17-.07-.24-.11-.47-.23-.7-.36a5.06,5.06,0,0,1-1.91-1.93,1.47,1.47,0,0,0-2.54,1.49c2.82,4.86,10.32,5.8,14.22,1.73,1.31-1.37-.76-3.45-2.07-2.08"/><path d="M135.76,338.82a18.56,18.56,0,0,0,16.53-3.69,1.47,1.47,0,0,0,0-2.08,1.49,1.49,0,0,0-2.07,0A15.5,15.5,0,0,1,136.54,336a1.47,1.47,0,0,0-.78,2.83"/><path class="cls-15" d="M175.11,327.19h0c-.06-3.18-4.45-4.76-5-7.91-.4-2.54,2-4.71,4.48-5.51a12.75,12.75,0,0,1,13.89,4.77c7.26,10.23-2.4,21-12.55,23.36-3.21.73-7.38,1.27-8.81-2.44-2.57-6.63,8-6.77,7.94-12.27"/><path d="M176.74,327.19c-.05-2.88-2.42-4.47-4.08-6.49-2.29-2.79.85-5.11,3.57-5.66,6.37-1.28,12.88,3.94,13.19,10.39.29,6.21-4.89,11.24-10.15,13.65-2.36,1.08-5.62,2.11-8.25,1.63-1.83-.33-3.28-2.44-2.35-4.22s3.08-2.58,4.54-3.64c1.94-1.4,3.5-3.13,3.53-5.66,0-2.1-3.25-2.1-3.27,0s-2.31,3.13-3.77,4.1c-2,1.29-4,2.81-4.47,5.28a6.43,6.43,0,0,0,4.45,7.18c3.21.93,7.14-.14,10.12-1.36,6.55-2.7,12.77-8.7,12.89-16.21.14-7.93-6.85-14.69-14.71-14.58-3.95,0-9.3,2.27-9.49,6.89a7,7,0,0,0,2.31,5c.92,1,2.64,2.2,2.67,3.68,0,2.11,3.31,2.11,3.27,0"/><path d="M197.74,360.7c5.93,1.37,11.29-2.87,13.53-8.14A37.13,37.13,0,0,0,213.5,342a81.33,81.33,0,0,1,1.94-11.28,72.42,72.42,0,0,1,8.85-20.54,59.71,59.71,0,0,1,6.89-9.09c2.51-2.67,5.26-5.12,7.78-7.79,6-6.35,10.79-14,14.92-21.6.9-1.66-1.64-3.15-2.54-1.48A112,112,0,0,1,238.83,289c-4.34,5.18-9.69,9.36-13.75,14.81a76,76,0,0,0-14.43,37.41c-.45,4-.79,8.43-3,12-1.91,3.07-5.41,5.54-9.14,4.67-1.84-.42-2.63,2.41-.78,2.84"/><path d="M217.06,300.56a87.53,87.53,0,0,0,27.29-17.89,74.59,74.59,0,0,0,16.86-26.3c8.09-21,7.57-44,3.51-65.84-2.63-14.13-6.7-27.95-10.76-41.72-.53-1.81-3.37-1-2.83.78,6.77,23,13.77,46.5,13.58,70.7-.16,20.52-5.72,41.9-19.71,57.44-8.08,9-18.39,15.55-29.42,20.29-1.73.74-.24,3.28,1.48,2.54"/><path d="M206.35,119.41c2.27-13,12.31-22.61,23.07-29.36C241,82.78,254,77.75,264.77,69.19a49.24,49.24,0,0,0,13.66-16.13l-2.74-.74c.67,31.65-1.6,69.48-31,88.62a44.65,44.65,0,0,1-22.55,7.45c-1.88.07-1.89,3,0,2.94,15-.6,28.48-8.91,37.89-20.34,10.88-13.21,15.78-29.79,17.63-46.58a245.5,245.5,0,0,0,.94-32.09c0-1.39-2.06-2.1-2.74-.75-12.8,25.35-45.93,28.18-63.45,48.9a38.59,38.59,0,0,0-8.93,18.16c-.32,1.85,2.52,2.64,2.84.78"/><path d="M222.66,126.25c-3.91-12.89,7.1-23.43,17-29.61,10.07-6.32,21.5-11.4,28.06-21.86L265,73.65c-1.72,12.57-3.43,25.76-9.74,37-5.32,9.47-14,17.38-25,19.13-1.86.3-1.07,3.13.79,2.83,11.25-1.78,20.41-9.8,26.1-19.36,7-11.7,8.87-25.56,10.68-38.82a1.47,1.47,0,0,0-2.68-1.13c-7.19,11.47-20.68,16-31.23,23.63-9.38,6.75-17.77,17.93-14.07,30.1.55,1.81,3.38,1,2.83-.78"/><path d="M159.09,103.73c3.35-9.68-1.85-19.46-7.3-27.26-5.6-8-13.27-17.13-11.29-27.64.34-1.85-2.49-2.64-2.84-.78-2.32,12.36-11,22.07-15.56,33.57a48.66,48.66,0,0,0,9.38,49.77c1.28,1.4,3.35-.68,2.08-2.08A45.9,45.9,0,0,1,121.88,98.9a44,44,0,0,1,3.06-16.5c2.17-5.52,5.35-10.58,8.26-15.73,3.18-5.62,6.09-11.44,7.3-17.84l-2.84-.78c-1.85,9.85,3.56,18.64,9,26.34,5.77,8.11,13.19,18.07,9.56,28.56-.62,1.79,2.22,2.56,2.83.78"/><path d="M159.71,296.22a285.66,285.66,0,0,1,23.92-61.56c.89-1.66-1.65-3.15-2.53-1.48a289.26,289.26,0,0,0-24.23,62.26,1.47,1.47,0,0,0,2.84.78"/><path d="M202.39,224.06c3.47-8.58,8.89-17.3,17.9-20.83,9.81-3.86,19.32,1.22,27.59,6.31,1.62,1,3.1-1.55,1.49-2.54-9.21-5.66-19.71-10.82-30.5-6.35-9.75,4-15.52,13.24-19.31,22.63-.71,1.75,2.13,2.52,2.83.78"/><path d="M229.54,201.79a17.54,17.54,0,0,0,15.78-3.67,1.48,1.48,0,0,0,0-2.07,1.5,1.5,0,0,0-2.08,0A14.48,14.48,0,0,1,230.32,199a1.47,1.47,0,0,0-.78,2.83"/><path d="M236.26,202.23a13.62,13.62,0,0,0,13.16,0,1.47,1.47,0,0,0-1.48-2.54,10.54,10.54,0,0,1-10.2,0c-1.65-.92-3.14,1.61-1.48,2.54"/><path d="M211.41,206.9c-3.78,4.59-2.69,11.45,1.8,15.16a15.71,15.71,0,0,0,16,2,13.62,13.62,0,0,0,8.65-12.56,11.69,11.69,0,0,0-9.7-11.58c-7.1-1.23-13.29,2.79-18.25,7.42-1.38,1.29.7,3.37,2.08,2.08,3.54-3.31,7.82-6.56,12.87-6.79,4.52-.2,8.66,2.1,9.79,6.66,2.37,9.61-9.29,15.78-17.23,12a9.19,9.19,0,0,1-4.94-5.21,7.48,7.48,0,0,1,1-7.08c1.2-1.45-.87-3.54-2.08-2.08"/><path d="M218.93,207.35a7,7,0,0,0-2.22,6,7.06,7.06,0,0,0,3.72,5.37,7.56,7.56,0,0,0,10.79-5.3,8.12,8.12,0,0,0-1.78-6.78,7,7,0,0,0-6.32-2.4,6.23,6.23,0,0,0-5,4.3,9.59,9.59,0,0,0,.61,6.62,5.21,5.21,0,0,0,5.75,3.37A6,6,0,0,0,229,213.6a6.59,6.59,0,0,0-2.32-6.52,5,5,0,0,0-6.35.28c-1.71,1.64-1.8,4.41-.92,6.48s3.15,3.95,5.57,3.1a5.19,5.19,0,0,0,3.09-5.31,4.36,4.36,0,0,0-1.34-3,3.1,3.1,0,0,0-3.67-.26c-2.19,1.38-2.38,5.42,0,6.71a2.68,2.68,0,0,0,3.56-1.24,5,5,0,0,0,0-3.89c-.47-1.38-2-2.52-3.43-1.69-1.22.69-1.38,2.2-1.52,3.46s-.11,2.74,1.14,3.45a2.5,2.5,0,0,0,3.25-1c.79-1.25.27-2.69-.37-3.87-.91-1.66-3.45-.18-2.54,1.49a3.81,3.81,0,0,1,.29.57.78.78,0,0,0,.09.27c.06.07.06-.13.14-.13s-.26.06,0,0,.35-.31.79.18c.25.28.08.39.13.15.09-.41,0-.88.07-1.29,0-.09.26-1,.23-1s-1.24,1.08-1.07.15a2.11,2.11,0,0,0,.15.53c0,.21.11.42.13.63,0,0,0,.68-.06.62a3.53,3.53,0,0,1,.41-.05c.1-.06.09.38,0-.1l-.08-.3a1.07,1.07,0,0,1,.37-1.24c-.08,0,.26.06,0,0,.25.09,0-.07.17.13-.16-.19.11.19.11.2s-.08-.24,0,.08a4.64,4.64,0,0,1,.12.47c0-.24,0,.26,0,.25a2.68,2.68,0,0,1,0,.49,3.08,3.08,0,0,1-.54,1.29,1.09,1.09,0,0,1-.89.48,1,1,0,0,1-.53-.18,2.12,2.12,0,0,1-.51-.43,3.51,3.51,0,0,1-.77-1.57,2.59,2.59,0,0,1,.76-2.77,2.24,2.24,0,0,1,1.18-.24,2.31,2.31,0,0,1,1.42.67c1.54,1.54,1.23,5.14-1.09,5.86a2,2,0,0,1-1.35,0,2.66,2.66,0,0,1-1.24-1.3,7.13,7.13,0,0,1-.83-3.66,3.68,3.68,0,0,1,1.32-2.86,3.62,3.62,0,0,1,3.44-.43,5,5,0,0,1,2.66,6.26,4.61,4.61,0,0,1-2.79,2.77,4.2,4.2,0,0,1-3.81-.39,4,4,0,0,1-.53-6.5,1.47,1.47,0,1,0-2.08-2.08"/><path d="M201.5,225.08c5.15-1.82,10.21,1.75,15.24,2.49A22.18,22.18,0,0,0,229,225.86,21.9,21.9,0,0,0,241.64,205c0-.83-1.32-.83-1.29,0a20.59,20.59,0,0,1-14.18,20.54,21.29,21.29,0,0,1-12.81-.11c-4-1.25-8-3.08-12.2-1.6-.78.27-.45,1.52.34,1.24"/><path d="M259.75,130.9c16.64,15.35,24.69,37.39,27.39,59.45,1.46,11.89,1.29,23.79.6,35.74-.77,13.4-1.8,27,.69,40.29,2.3,12.32,7.72,24.42,17.5,32.57a1.47,1.47,0,0,0,2.08-2.08c-8.32-9.8-8.88-23.72-6.54-35.81,2.64-13.67,9-26.29,11.3-40.06.31-1.85-2.52-2.65-2.83-.78-2.42,14.64-9.5,28-11.77,42.69-1.93,12.5-.71,26.06,7.76,36l2.08-2.08c-20.53-17.11-18.75-46.35-17.36-70.36,1.33-22.94.35-46.33-8.52-67.85a83.44,83.44,0,0,0-20.31-29.84c-1.38-1.28-3.47.79-2.07,2.08"/><path d="M270.15,114.15c23,8.38,39.54,29.9,44.89,53.47a77.35,77.35,0,0,1,1.65,22.86c-.14,1.89,2.8,1.88,2.94,0,2-26.16-9.72-53.49-30.7-69.51a67.68,67.68,0,0,0-18-9.66c-1.78-.65-2.54,2.19-.78,2.84"/><path d="M225,306.55c22.15,36,31.28,79.46,26.22,121.4a183.64,183.64,0,0,1-7.79,35c-.59,1.8,2.24,2.57,2.83.78,13.38-40.85,12.11-86.17-3-126.39a186.71,186.71,0,0,0-15.76-32.23c-1-1.61-3.53-.14-2.53,1.48"/><path d="M137.89,185.55q-.85,29.76-1.7,59.51c-.06,1.89,2.88,1.89,2.94,0q.84-29.76,1.7-59.51c.06-1.89-2.88-1.89-2.94,0"/><path class="cls-16" d="M130.71,199a5.91,5.91,0,0,0-2.32-3.42,5.56,5.56,0,0,0-2.94-.9c-8.06-.57-14.39,4.07-18.12,11.58l1,1.07c5.19-4.24,11.92-5.73,19.11-5.49a4.52,4.52,0,0,0,2.37-.3,2.29,2.29,0,0,0,.85-2.54"/><path class="cls-20" d="M200.26,352.9a76,76,0,0,1,39.42,31c.75,1.18,2.63.09,1.88-1.1a78.37,78.37,0,0,0-40.73-32c-1.33-.45-1.9,1.65-.57,2.1"/><path class="cls-33" d="M219.88,370a11.21,11.21,0,0,0-12.52,11.29c0,3.38,1.6,6.55,2.09,9.9a16.09,16.09,0,0,1-4.64,13.64c6.39,2.63,14.17-.51,18.23-6.11s4.85-13,3.74-19.84a14.42,14.42,0,0,0-1.77-5.37,6.35,6.35,0,0,0-4.54-3.1"/><path class="cls-20" d="M219.88,368.91a12.45,12.45,0,0,0-13.6,12.68c.15,4,2.21,7.69,2.24,11.72A15.22,15.22,0,0,1,204,404.06a1.11,1.11,0,0,0,.48,1.82c8.84,3.44,18.29-2.55,21.75-10.73A29.36,29.36,0,0,0,228,380c-.56-4.41-2.15-9.84-7.27-10.63-1.37-.21-2,1.89-.58,2.1,4.87.75,5.63,6.77,5.9,10.78a26.07,26.07,0,0,1-2,12.58c-3.23,7-11.32,11.93-19,9l.48,1.82a17.32,17.32,0,0,0,4.65-8.29,19.93,19.93,0,0,0-.61-10.19c-1.07-3.8-1.87-7.49.23-11.09a10.31,10.31,0,0,1,10-4.94c1.4.13,1.39-2,0-2.18"/><path class="cls-33" d="M240.25,384.15c-4.41.44-7.33,5-8.17,9.3s-.28,8.87-1.14,13.21-3.86,8.83-8.27,9.19c3.27,3.25,8.56,4,12.87,2.4a17,17,0,0,0,9.37-9.65A27.46,27.46,0,0,0,246.35,395c-.49-4.06-1.9-8.44-5.43-10.52"/><path class="cls-20" d="M240.25,383.06c-6.46.87-9.14,7.43-9.63,13.2-.33,3.9,0,8-1.16,11.74-1,3.12-3.29,6.36-6.79,6.76a1.11,1.11,0,0,0-.77,1.86,13.48,13.48,0,0,0,12.51,3.12A17.18,17.18,0,0,0,245,411c2.61-4.87,3.12-10.61,2.46-16-.53-4.42-2-9-6-11.46-1.19-.75-2.28,1.14-1.1,1.88,3.51,2.21,4.61,6.6,5,10.48a25.06,25.06,0,0,1-2,13.57,15.38,15.38,0,0,1-8.55,7.9,11.34,11.34,0,0,1-11.34-2.28l-.77,1.86c6.48-.75,9.23-7.33,9.74-13.09.35-3.9,0-8,1.13-11.74,1-3.12,3.23-6.4,6.71-6.87,1.37-.18,1.39-2.36,0-2.18"/><path class="cls-33" d="M238.05,372.6a11.27,11.27,0,0,1,12-2.48c2.08.85,3.89,2.33,6,3s5,.17,5.84-1.91c1.43,4.09-1.06,8.86-4.9,10.87s-8.57,1.65-12.57,0c-3.34-1.37-6.56-4-7-7.55"/><path class="cls-20" d="M238.82,373.37a10.16,10.16,0,0,1,6.11-2.87,11.35,11.35,0,0,1,7,1.81c1.95,1.11,4,2.28,6.31,2.17a5.19,5.19,0,0,0,4.61-2.72l-2-.26a7.81,7.81,0,0,1-1.47,7.19,10.07,10.07,0,0,1-7.39,3.65c-5.13.33-12.63-2.29-13.52-8.1-.22-1.38-2.32-.8-2.11.58,1.08,7,10.21,10.33,16.44,9.62a12,12,0,0,0,8.5-4.71,9.86,9.86,0,0,0,1.65-8.81,1.1,1.1,0,0,0-2-.26c-.9,1.88-3.29,1.9-5,1.27-2.38-.86-4.34-2.59-6.82-3.26a12.52,12.52,0,0,0-11.86,3.16c-1,1,.54,2.52,1.54,1.54"/><path class="cls-22" d="M369.41,381.51c1.94,6.29.07,15.67-.84,21.95s-2.09,12.64-4.86,18.65c-5.62,12.2-14.6,23.67-14.56,37.84,0,7,0,15.31,3.8,21.23-1-10.44-.13-20.87,4.49-30.49,4.36-9.1,11.44-16.1,16.3-24.8,6.56-11.75,7.07-34-4.33-44.38"/><path class="cls-22" d="M381,411.67c1.36-11.78-.37-21.11-5.29-31.88-2.21-4.84-5.37-9.22-7.9-14-3.28-6.2-4.74-12.91-5.66-19.79-1-7.61-3.23-18.09-.09-25.33a85.47,85.47,0,0,0,10.22,41.13c6,11.16,11,19.53,12.21,32.24.55,5.73-1.52,10-3.49,17.65"/><path class="cls-22" d="M383.63,450C372.6,465.36,367,483.7,374.2,502c1.76,4.47,4.33,8.18,6.55,12.26-7.27-21.76-10.67-47.83,7.58-66.07a44.58,44.58,0,0,1-4.7,1.88"/><path class="cls-22" d="M319.42,222.05c6.92,17.26,12.09,33.64,14.19,52.07,2.57,22.45-2.26,42.15-6.56,64.28-3,15.58-5.82,32-1.6,47.53.32-5.71-.8-11.38-.23-17.14a196.38,196.38,0,0,1,3.69-20.68c3-14.21,6.81-28.08,9-42.46,3.73-24.08.76-45.5-8.61-67.76a53,53,0,0,0-9.92-15.84"/><path class="cls-22" d="M340.1,250.49c5.4,6.2,7,21.1,8.21,28.88,1.87,12.05-.3,23.21-3.48,35-1.83,6.79-2.48,14.2-5.12,20.69,11.2-14.13,17.71-31.39,16.77-49.67-.72-14-7-24.94-16.38-34.91"/><g class="cls-23"><g class="cls-34"><path class="cls-22" d="M209.34,99.44c-4.71-2.67-13.67-1.91-19-1.5-10.59.81-22.92,5.06-31.58,11.19-5,3.54-8.77,7.79-13.14,12a46.52,46.52,0,0,1,21.48-12.37c-7.26,6-10.67,12.34-11.85,21.74-1,8-2.17,18,.33,25.74.41-4.36.23-8.44,1.48-12.73A78.3,78.3,0,0,1,164.54,126c2.53-4.3,5.61-8.78,9.46-12,1.81-1.51,4-2.68,5.71-4.32-1.44,1.94-3.11,3.6-4.43,5.64,3.2-3.2,6.64-6.78,11-8.48-1.51,2.46-3.56,4.47-4.81,7.13-1.54,3.27-1.85,6.94-2.05,10.5-.33,6,0,11.92,2.07,17.56,1.55,4.15,3.38,8.14,5.23,12.18,1.46,3.17,1.79,6.44,2.88,9.59,1.81-1.69.73-6.8.48-8.95a117,117,0,0,0-2.73-13.45c-2.9-12.27-.33-24.31,9.89-32.17-2.87,7.7-3.76,15.75,0,23.38.26-5.93-1-11.71,2.41-17.1,2.1-3.33,5.48-6.14,8.49-8.64,1.73-1.44,4-5.35,1.19-7.41"/></g></g><path class="cls-35" d="M152.32,47.84a39.58,39.58,0,0,1,5.82-4.1A28.64,28.64,0,0,1,164.55,41a21,21,0,0,1,6.65-.87,15.85,15.85,0,0,1,6.51,1.63,19.89,19.89,0,0,1,6,4.75,32.52,32.52,0,0,1,5.19,8.41q3.18,7.08,2.88,12.42a17,17,0,0,1-2.94,9.07,19.19,19.19,0,0,1-7.1,6,35.21,35.21,0,0,1-9.61,3.22c-.42-.13-1-.74-1.7-1.82a44.18,44.18,0,0,1-2.37-4.15c-.86-1.67-1.78-3.55-2.73-5.64s-1.9-4.22-2.83-6.39-1.79-4.28-2.6-6.34-1.51-3.89-2.09-5.49a4.13,4.13,0,0,0-.65.36c-.18.12-.36.24-.56.35a4,4,0,0,0-.5.32c-.38.27-.85,0-1.41-.72a14,14,0,0,1-1.56-2.71,15.18,15.18,0,0,1-1-3.21A3.09,3.09,0,0,1,152.32,47.84Zm25.22,27.74a6.07,6.07,0,0,0,3-1.16,5.94,5.94,0,0,0,2.09-2.91,11.16,11.16,0,0,0,.45-4.85,23,23,0,0,0-2.09-7,26.77,26.77,0,0,0-4.14-7A9.56,9.56,0,0,0,173,49.91a4.67,4.67,0,0,0-3.28,0A14.82,14.82,0,0,0,167,51.38c.46.93,1,2.06,1.59,3.4s1.23,2.79,1.88,4.36,1.32,3.17,2,4.82,1.31,3.22,1.91,4.72,1.18,2.85,1.72,4.06A31.19,31.19,0,0,0,177.54,75.58Z"/><path class="cls-35" d="M210.13,26.56a17.37,17.37,0,0,1,6.65,5,27.58,27.58,0,0,1,4.44,7.66,35.47,35.47,0,0,1,2.18,9,32.93,32.93,0,0,1-.19,9,22.86,22.86,0,0,1-2.61,7.6,11.49,11.49,0,0,1-5,4.85A13.83,13.83,0,0,1,210,71,11.88,11.88,0,0,1,204,69.54a16.78,16.78,0,0,1-5.42-4.89,27.32,27.32,0,0,1-4.14-9q-.66-2.4-1.28-4.9a32,32,0,0,1-.83-4.92,20.91,20.91,0,0,1,.1-4.69A10,10,0,0,1,194,37a2,2,0,0,1,.83-.74c.37-.19.74-.35,1.09-.49a7.25,7.25,0,0,1,1.31-.36,10.67,10.67,0,0,1,2-6.09,9.16,9.16,0,0,1,3.81-2.88,8.68,8.68,0,0,1,4.09-.57A8.85,8.85,0,0,1,210.13,26.56Zm3,20a27.91,27.91,0,0,0-1.7-6,10.3,10.3,0,0,0-3.62-4.54,7.53,7.53,0,0,1,1,1.53,7.84,7.84,0,0,1,.64,2.31,6,6,0,0,1-.19,2.36A2.71,2.71,0,0,1,207.76,44a3.85,3.85,0,0,1-1.25.5,3.53,3.53,0,0,1-1.37.06,3.25,3.25,0,0,1-1.26-.49c-.39-.26-.89-1.2-.89-1a35,35,0,0,0,.46,5.06,41.21,41.21,0,0,0,.93,4.47q1.71,6.22,3.73,8.7c1.35,1.64,2.53,2.15,3.54,1.51s1.69-2.34,2.07-5.11A38.21,38.21,0,0,0,213.1,46.59Z"/><path class="cls-35" d="M248.29,37.64a9.61,9.61,0,0,1,4.78.55,8.84,8.84,0,0,1,3.44,2.55,11,11,0,0,1,2,4,14.62,14.62,0,0,1,.54,4.78,15.88,15.88,0,0,1-1.09,5A14.83,14.83,0,0,1,255.2,59a16.4,16.4,0,0,1-4.6,3.52,19.25,19.25,0,0,1-6.53,1.95,46,46,0,0,1-5.18.3,20.6,20.6,0,0,1-4.61-.45,8.88,8.88,0,0,1-3.41-1.42,3.84,3.84,0,0,1-1.57-2.64q-.75-7.15-1.64-15t-2-17.35a5,5,0,0,1,1-3.61,9.89,9.89,0,0,1,3.25-2.77,16.38,16.38,0,0,1,4.71-1.68,21.91,21.91,0,0,1,5.35-.45,17.85,17.85,0,0,1,5.17.95,10.24,10.24,0,0,1,4.16,2.59A8.27,8.27,0,0,1,251.1,26a10.61,10.61,0,0,1,.59,3.87,11.41,11.41,0,0,1-.88,4.06A11.57,11.57,0,0,1,248.29,37.64Zm-11.94-8.46c.11,1.36.26,2.62.45,3.79s.35,2.43.46,3.79A5.64,5.64,0,0,0,241,35.05a3.93,3.93,0,0,0,1.14-2.9,3.3,3.3,0,0,0-1.57-2.51A5.44,5.44,0,0,0,236.35,29.18Zm2.9,26.28a15.9,15.9,0,0,0,6.23-.92,7.93,7.93,0,0,0,3.39-2.38,3.68,3.68,0,0,0,.76-2.9,4.21,4.21,0,0,0-1.7-2.62A8.15,8.15,0,0,0,244,45.18a15.26,15.26,0,0,0-5.87.54,17.77,17.77,0,0,0,.1,2.26c.08.93.18,1.87.28,2.81s.22,1.85.34,2.71A13,13,0,0,0,239.25,55.46Z"/><path class="cls-35" d="M283.9,48.4c.78,1.35,1.58,2.53,2.46,3.88l2.56,3.94a1.65,1.65,0,0,1,.16,1.68,6.07,6.07,0,0,1-1.21,1.82,12.08,12.08,0,0,1-4.42,2.92,5.81,5.81,0,0,1-2.12.42,1.39,1.39,0,0,1-1.32-.63c-.93-1.65-1.88-3.27-2.84-4.88l-2.84-4.76c0,1.16-.09,2.32-.15,3.47s-.16,2.4-.29,3.72a2.64,2.64,0,0,1-1.8,1.77,9.22,9.22,0,0,1-3.44.69,7.89,7.89,0,0,1-3.42-.68,2.66,2.66,0,0,1-1.69-2.33q-.29-4.23-.29-8.54c0-2.88.05-5.64.16-8.29s.25-5.08.41-7.31.31-4.11.45-5.64c-.12,0-.75,1-1.31,1a2.89,2.89,0,0,1-1.75-.59,7.76,7.76,0,0,1-1.74-1.67,8.34,8.34,0,0,1-1.29-2.22,5.33,5.33,0,0,1-.39-2.28,2.3,2.3,0,0,1,1-1.77,23.26,23.26,0,0,1,15.2-4.9,21.59,21.59,0,0,1,7.15,1.52A20,20,0,0,1,287,22.43a16.91,16.91,0,0,1,4,5.45,14.88,14.88,0,0,1,1.31,6.85,15.93,15.93,0,0,1-2.25,7.68,15.45,15.45,0,0,1-6.29,5.81Zm-9.15-6a7.68,7.68,0,0,0,4-1.39,8.87,8.87,0,0,0,2.65-3,9.49,9.49,0,0,0,1.16-3.68,7.3,7.3,0,0,0-.53-3.62A6.06,6.06,0,0,0,279.57,28,8.35,8.35,0,0,0,275,26.92a24.5,24.5,0,0,1,.14,3.14c0,1.31,0,2.69-.08,4.16s-.11,2.93-.18,4.37S274.79,41.3,274.75,42.38Z"/><path class="cls-35" d="M320.11,56.79A1.68,1.68,0,0,1,321,58a6.47,6.47,0,0,1,.19,2.18,14.68,14.68,0,0,1-.38,2.61,13.58,13.58,0,0,1-.83,2.5,6.18,6.18,0,0,1-1.19,1.8,1.57,1.57,0,0,1-1.45.53l-4.85-.89-6.2-1.14L300,64.4l-5.13-.94a2.12,2.12,0,0,1-1.51-1.09,5.36,5.36,0,0,1-.64-2.17,10.68,10.68,0,0,1,.1-2.63,12.47,12.47,0,0,1,.69-2.56,6.21,6.21,0,0,1,1.15-1.93,1.66,1.66,0,0,1,1.41-.69c1.2.14,2.37.33,3.53.58s2.31.49,3.49.71c.32-1.75.67-3.63,1-5.62s.73-4,1.1-6,.7-3.95,1-5.87.59-3.68.84-5.28l-3.46-.41a10.5,10.5,0,0,1-2.89-.75,1.61,1.61,0,0,1-.86-1.17,6.33,6.33,0,0,1-.2-2.15,15.37,15.37,0,0,1,.38-2.61,12.32,12.32,0,0,1,.83-2.49,5.92,5.92,0,0,1,1.21-1.77,1.66,1.66,0,0,1,1.48-.52L326,23.16a2.12,2.12,0,0,1,1.5,1.1,5.27,5.27,0,0,1,.65,2.14A10.29,10.29,0,0,1,328,29a11.57,11.57,0,0,1-.69,2.55,7,7,0,0,1-1.11,1.91,1.63,1.63,0,0,1-1.39.7,23.59,23.59,0,0,1-3.46-.54c-1.11-.27-2.26-.51-3.44-.73-.32,1.75-.65,3.63-1,5.62s-.7,4-1.07,6-.71,3.95-1,5.87-.6,3.67-.81,5.28l3.37.39A10.44,10.44,0,0,1,320.11,56.79Z"/><path class="cls-35" d="M348.63,66.5a1.91,1.91,0,0,1,1.14,1.27,4.72,4.72,0,0,1,.13,2,8.62,8.62,0,0,1-.68,2.33A11.78,11.78,0,0,1,348,74.25a5.31,5.31,0,0,1-1.5,1.43,1.82,1.82,0,0,1-1.59.25l-20.81-7c-.24-.08-.21-.73.07-2s.71-2.79,1.3-4.73,1.3-4.13,2.13-6.58,1.69-5,2.61-7.54S332,43,333,40.55s1.76-4.69,2.51-6.66,1.39-3.58,1.9-4.83.8-1.92.88-2a4.28,4.28,0,0,1,2.29-.07,19.82,19.82,0,0,1,3.1.78,20.83,20.83,0,0,1,2.87,1.2,4.57,4.57,0,0,1,1.64,1.18Q347,34,345.56,38.45c-1,3-2,5.92-3,8.86s-2.06,5.78-3.06,8.5-1.89,5.08-2.66,7.09a27.22,27.22,0,0,0,2.63.76c.85.2,1.73.42,2.65.67s1.91.53,3,.86S347.28,66,348.63,66.5Z"/><path class="cls-35" d="M384.62,44.29a22.08,22.08,0,0,1,4.08,2.65,9.22,9.22,0,0,1,2.67,3.63,12.63,12.63,0,0,1,.82,5.27,30,30,0,0,1-1.41,7.54,84.46,84.46,0,0,1-4.08,10.46q-2.73,6-7.2,14.06a3.9,3.9,0,0,1-1.93,1.66,5.28,5.28,0,0,1-2.43.33,6.66,6.66,0,0,1-2.46-.78,6.94,6.94,0,0,1-2-1.59,4.82,4.82,0,0,1-1.08-2.12,3.77,3.77,0,0,1,.3-2.42l.95-1.85c.27-.54.53-1,.77-1.49l.7-1.38.78-1.52a22.69,22.69,0,0,1-5.21-2q-2.08-1.17-4.07-2.33a24.53,24.53,0,0,0-1.9,2.83c-.58,1-1.11,1.86-1.6,2.63a4.48,4.48,0,0,1-1.93,1.8,4.71,4.71,0,0,1-2.29.46,4.86,4.86,0,0,1-2.2-.67,4.7,4.7,0,0,1-1.67-1.58,4.94,4.94,0,0,1-.7-2.32,5.6,5.6,0,0,1,.71-2.87,156.92,156.92,0,0,1,9.09-15.78,50.41,50.41,0,0,1,8.19-9.79,16.07,16.07,0,0,1,7.64-4.1A11.7,11.7,0,0,1,384.62,44.29ZM368.31,66.2a22.29,22.29,0,0,0,3.67,2,31.82,31.82,0,0,0,4.31,1.58,86.87,86.87,0,0,0,5.21-11.66q1.33-4.1-.6-5.09c-1.36-.69-3.16.06-5.38,2.27S370.89,61.15,368.31,66.2Z"/></g></g></svg>