<svg xmlns="http://www.w3.org/2000/svg" viewBox="0 0 541.53 541.53"><defs><style>.cls-1{fill:#87c541;}.cls-2,.cls-3{fill:#fff;}.cls-3{stroke:#000;stroke-miterlimit:10;stroke-width:4.31px;}.cls-4{fill:#231f20;}.cls-4,.cls-5{opacity:0.2;}.cls-6{fill:#fefefe;}.cls-7{fill:#d0b679;}.cls-8{fill:#d0b67a;}.cls-9{fill:#ad9677;}.cls-10{fill:#6dbd46;}.cls-11{fill:#e72127;}.cls-12{fill:#fcfdfe;}.cls-13{fill:#876c44;}.cls-14{fill:#6cbc45;}.cls-15{fill:#010100;}.cls-16{fill:#fdfdfd;}.cls-17{fill:#2c9742;}.cls-18{fill:#fbfbfb;}.cls-19{fill:#ac9576;}.cls-20{fill:#67bc3c;}.cls-21{fill:#6fb64a;}.cls-22{fill:#6ead4c;}.cls-23{fill:#70b84f;}.cls-24{fill:#65b43a;}.cls-25{fill:#6fa754;}.cls-26{fill:#62b636;}.cls-27{fill:#6fb755;}.cls-28{fill:#6d8857;}.cls-29{fill:#77a462;}.cls-30{fill:#6ead5b;}.cls-31{fill:#010000;}.cls-32{fill:#010101;}.cls-33{fill:#76a562;}.cls-34{fill:#ad9676;}.cls-35{fill:#a99272;}.cls-36{fill:#fcfcfc;}.cls-37{fill:#3f884c;}.cls-38{fill:#44834b;}.cls-39{fill:#4f815a;}</style></defs><title>CISTOAsset 39MILISAV</title><g id="Layer_2" data-name="Layer 2"><g id="Layer_1-2" data-name="Layer 1"><g id="Milisav"><circle class="cls-1" cx="270.96" cy="269.29" r="266.22"/><circle class="cls-2" cx="269.1" cy="268.9" r="195.79"/><path d="M535.65,270.76A264.83,264.83,0,0,1,125.29,492.17a267.12,267.12,0,0,1-58.83-52.79,263.54,263.54,0,0,1-59.8-148,267.36,267.36,0,0,1,6.74-83.57A265.62,265.62,0,0,1,161.48,29.39,262.12,262.12,0,0,1,240.16,7.61a268.25,268.25,0,0,1,83.62,3.57A263.81,263.81,0,0,1,399.65,39.3a264.27,264.27,0,0,1,136,231.46c0,3.79,5.88,3.79,5.88,0A271,271,0,0,0,196.82,10.22a271,271,0,0,0-135,88.31,272.63,272.63,0,0,0-41.79,69.84A269.47,269.47,0,0,0,.81,249.76a272.65,272.65,0,0,0,6.84,85.16,270.59,270.59,0,0,0,231.78,204.8A272.77,272.77,0,0,0,325,536.09a269,269,0,0,0,77.32-28.61,271.83,271.83,0,0,0,111-116.13,269,269,0,0,0,25.07-79,277.49,277.49,0,0,0,3.2-41.62c0-3.78-5.87-3.78-5.88,0"/><path d="M464.53,269.29A194.35,194.35,0,0,1,217.19,456.16a193.72,193.72,0,0,1-53.5-24.49,195.78,195.78,0,0,1-43.24-38.8,193.2,193.2,0,0,1-43.8-108.51,196.11,196.11,0,0,1,4.93-61.17A194.13,194.13,0,0,1,247.82,76.34,196.29,196.29,0,0,1,309.28,79,193.87,193.87,0,0,1,464.53,269.29c0,3.33,5.18,3.34,5.18,0A201,201,0,0,0,460,207.6,198.92,198.92,0,0,0,433,154a202.08,202.08,0,0,0-41.49-43A199.51,199.51,0,1,0,467.32,300.1a205,205,0,0,0,2.39-30.81c0-3.33-5.17-3.33-5.18,0"/><path class="cls-2" d="M157.56,476.55A13.1,13.1,0,1,1,163.68,494a13.09,13.09,0,0,1-6.12-17.48"/><path class="cls-2" d="M360.44,476.55A13.1,13.1,0,1,1,366.55,494a13.09,13.09,0,0,1-6.11-17.48"/><path class="cls-2" d="M486.89,318A13.1,13.1,0,1,1,493,335.43,13.09,13.09,0,0,1,486.89,318"/><path class="cls-2" d="M31,318a13.1,13.1,0,1,1,6.12,17.48A13.1,13.1,0,0,1,31,318"/><path class="cls-2" d="M76.17,119.52A13.1,13.1,0,1,1,82.29,137a13.09,13.09,0,0,1-6.12-17.48"/><path class="cls-2" d="M441.76,119.52A13.1,13.1,0,1,1,447.88,137a13.09,13.09,0,0,1-6.12-17.48"/><path d="M94.77,117a11.38,11.38,0,0,1,3.83,12.29A11.16,11.16,0,1,1,94.77,117a2,2,0,0,0,2.74,0,2,2,0,0,0,0-2.74,15,15,0,0,0-24.25,14.66,15,15,0,1,0,24.25-14.66,2,2,0,0,0-2.74,0,2,2,0,0,0,0,2.74"/><path d="M40.43,312.73A11.16,11.16,0,1,1,31.67,324a11.22,11.22,0,0,1,8.76-11.31c2.42-.59,1.4-4.33-1-3.74a15,15,0,1,0,17.15,8.51A15.16,15.16,0,0,0,39.4,309c-2.44.52-1.41,4.26,1,3.74"/><path d="M159.2,477.54a11.16,11.16,0,0,1,20.93,1.93,11.16,11.16,0,1,1-20.93-1.93,2,2,0,0,0-.7-2.65,2,2,0,0,0-2.65.69,15,15,0,0,0,19.78,20.3,15.05,15.05,0,0,0,8.68-14.78,15,15,0,0,0-28.46-5.52c-1.11,2.23,2.23,4.2,3.35,2"/><path d="M362.08,487a11.17,11.17,0,1,1,12.84,6.12A11.26,11.26,0,0,1,362.08,487c-1.11-2.24-4.46-.27-3.34,2a15,15,0,1,0,4.38-18.63,15.11,15.11,0,0,0-4.38,18.63,1.94,1.94,0,0,0,2.65.69,2,2,0,0,0,.69-2.65"/><path d="M496.31,334.52A11.15,11.15,0,1,1,509,328a11.32,11.32,0,0,1-12.7,6.57c-2.44-.52-3.48,3.22-1,3.74A15,15,0,1,0,483.68,323a15.28,15.28,0,0,0,11.59,15.23c2.43.59,3.46-3.15,1-3.74"/><path d="M460.35,134.7a11.18,11.18,0,1,1,3.18-13.89,11.28,11.28,0,0,1-3.18,13.89,2,2,0,0,0,0,2.74,2,2,0,0,0,2.75,0,15,15,0,1,0-19.24-.13,15.13,15.13,0,0,0,19.24.13,2,2,0,0,0,0-2.74,2,2,0,0,0-2.75,0"/><path class="cls-3" d="M143.54,53.44a1.64,1.64,0,0,1,.51-1.42,10,10,0,0,1,1.85-1.67,19.74,19.74,0,0,1,2.6-1.59c1-.49,1.88-.9,2.75-1.24a10.88,10.88,0,0,1,2.33-.66c.69-.11,1.13,0,1.33.17.5.64,1.21,1.59,2.13,2.86s2,2.73,3.11,4.36,2.36,3.32,3.66,5.08,3.84,5,3.94,5-1.16-3.73-1.72-5.69-1.1-3.86-1.6-5.71-.92-3.58-1.29-5.18-.65-3-.84-4.11a1.69,1.69,0,0,1,.62-1.48,9.49,9.49,0,0,1,2-1.52,21.56,21.56,0,0,1,5.5-2.32,12.93,12.93,0,0,1,2.32-.42c.65,0,1.06.08,1.25.36.4.73,1.05,2,1.95,3.71s1.93,3.79,3.08,6.13,2.35,4.82,3.62,7.45,2.48,5.15,3.65,7.58l3.18,6.63q1.44,3,2.2,4.55a2.4,2.4,0,0,1,.11,2,4.72,4.72,0,0,1-1.3,1.78,9.51,9.51,0,0,1-2.19,1.38,9.24,9.24,0,0,1-2.49.77,5.26,5.26,0,0,1-2.22-.08A2.13,2.13,0,0,1,182.12,79q-1.62-2.86-2.73-5.15t-2-4.25c-.62-1.31-1.21-2.61-1.78-3.9s-1.88-4.15-1.91-4.11.81,4.75,1.14,6.84.6,3.85.79,5.28a2.67,2.67,0,0,1-.82,1.13,6.16,6.16,0,0,1-1.41.93,7.85,7.85,0,0,1-1.64.6,4,4,0,0,1-1.53.13q-1.68-1.45-3.21-3l-2.81-2.91c-.85-.9-1.64-1.62-2.18-2.32a6.27,6.27,0,0,0-1.28-1.34c1.52,2.8,2.75,5.15,3.7,7s1.72,3.48,2.33,4.77,1.1,2.39,1.45,3.3.7,1.81,1,2.7a3.42,3.42,0,0,1,.24,2.4,4.31,4.31,0,0,1-1.2,1.91,6.42,6.42,0,0,1-2.14,1.28,8.63,8.63,0,0,1-2.49.57,5.35,5.35,0,0,1-2.28-.3,2.61,2.61,0,0,1-1.52-1.33l-2.61-5.32q-1.54-3.15-3.22-6.64t-3.41-7.15c-1.14-2.43-2.2-4.72-3.16-6.88s-1.8-4.09-2.51-5.82A29.44,29.44,0,0,1,143.54,53.44Z"/><path class="cls-3" d="M217.73,57.93a1.64,1.64,0,0,1,1.3.65,6.45,6.45,0,0,1,1.16,1.85,14.78,14.78,0,0,1,.84,2.51,12.32,12.32,0,0,1,.39,2.6,6.31,6.31,0,0,1-.24,2.14,1.58,1.58,0,0,1-1.06,1.13l-4.73,1.4-6,1.79-6.12,1.82-5,1.48a2.13,2.13,0,0,1-1.84-.29,5.32,5.32,0,0,1-1.55-1.64,10.16,10.16,0,0,1-1.1-2.4,11.29,11.29,0,0,1-.54-2.59,6.47,6.47,0,0,1,.14-2.24,1.7,1.7,0,0,1,.95-1.26c1.13-.42,2.27-.77,3.41-1.07s2.28-.61,3.44-1c-.51-1.7-1-3.53-1.63-5.47s-1.15-3.89-1.73-5.83-1.16-3.84-1.75-5.69-1.14-3.55-1.64-5.08L191.12,42a10.64,10.64,0,0,1-2.92.64,1.62,1.62,0,0,1-1.29-.65,6.33,6.33,0,0,1-1.16-1.82,15.37,15.37,0,0,1-.84-2.51,12.71,12.71,0,0,1-.39-2.6,6,6,0,0,1,.28-2.12,1.67,1.67,0,0,1,1.09-1.14l21.83-6.48a2.14,2.14,0,0,1,1.84.3,5.44,5.44,0,0,1,1.55,1.61,10.64,10.64,0,0,1,1.1,2.4,11.75,11.75,0,0,1,.54,2.59,7.09,7.09,0,0,1-.12,2.2,1.62,1.62,0,0,1-.93,1.25,22.22,22.22,0,0,1-3.33,1.08c-1.11.27-2.24.57-3.39.91.5,1.71,1.06,3.53,1.65,5.47s1.19,3.87,1.76,5.82,1.15,3.84,1.73,5.7,1.13,3.55,1.67,5.07L215,58.52A10,10,0,0,1,217.73,57.93Z"/><path class="cls-3" d="M247.55,53.68a1.91,1.91,0,0,1,1.6.61,4.84,4.84,0,0,1,1,1.76,8.75,8.75,0,0,1,.44,2.38,12,12,0,0,1-.12,2.44,5.25,5.25,0,0,1-.69,2,1.83,1.83,0,0,1-1.3.94l-21.75,3.15c-.24,0-.52-.55-.82-1.76s-.62-2.81-1-4.81-.71-4.27-1.08-6.83-.74-5.2-1.09-7.91-.67-5.36-1-8-.55-5-.77-7.06-.39-3.82-.5-5.17a19.64,19.64,0,0,1-.13-2.2,4.22,4.22,0,0,1,2-1.11,19.64,19.64,0,0,1,3.13-.7,21.67,21.67,0,0,1,3.1-.24,4.7,4.7,0,0,1,2,.31c.51,2.65,1,5.51,1.47,8.6s.9,6.18,1.31,9.28.78,6.08,1.11,9,.62,5.39.85,7.53c.94-.14,1.83-.31,2.68-.52s1.74-.41,2.67-.6,1.94-.39,3-.57S246.11,53.8,247.55,53.68Z"/><path class="cls-3" d="M280,51.53a1.62,1.62,0,0,1,1.07,1,6.5,6.5,0,0,1,.63,2.1,15.92,15.92,0,0,1,.13,2.63,12,12,0,0,1-.33,2.62,6.21,6.21,0,0,1-.8,2,1.57,1.57,0,0,1-1.32.8l-4.94.08-6.29.1-6.4.11-5.21.08a2.13,2.13,0,0,1-1.69-.78,5.28,5.28,0,0,1-1.05-2,10.63,10.63,0,0,1-.42-2.6,11.92,11.92,0,0,1,.18-2.64,6.53,6.53,0,0,1,.74-2.12,1.69,1.69,0,0,1,1.25-1,35.68,35.68,0,0,1,3.57-.12q1.77,0,3.57,0c0-1.78-.06-3.68-.09-5.71s-.07-4.05-.1-6.08-.09-4-.16-6-.14-3.72-.21-5.34l-3.47.28a11.29,11.29,0,0,1-3-.17,1.6,1.6,0,0,1-1.07-1,6.47,6.47,0,0,1-.63-2.07,15.7,15.7,0,0,1-.13-2.63,11.65,11.65,0,0,1,.33-2.62,5.88,5.88,0,0,1,.83-2,1.65,1.65,0,0,1,1.36-.8l22.77-.37a2.13,2.13,0,0,1,1.69.78,5.38,5.38,0,0,1,1.05,2,10.32,10.32,0,0,1,.42,2.6,11.75,11.75,0,0,1-.18,2.64,7,7,0,0,1-.71,2.09,1.61,1.61,0,0,1-1.22,1,23.24,23.24,0,0,1-3.51.15c-1.14,0-2.31-.06-3.5,0,0,1.78.06,3.69.12,5.71s.1,4.06.13,6.08.07,4,.13,6,.13,3.72.24,5.33l3.38-.27A9.79,9.79,0,0,1,280,51.53Z"/><path class="cls-3" d="M319.59,37.25a1.65,1.65,0,0,1-1.1,1.21,5.26,5.26,0,0,1-2.15.33,13.32,13.32,0,0,1-2.59-.33,14.68,14.68,0,0,1-2.45-.76,6.15,6.15,0,0,1-1.82-1.06c-.46-.41-.64-.79-.54-1.15a5,5,0,0,0,.43-3.86,3.2,3.2,0,0,0-1.93-2,3.83,3.83,0,0,0-2.82.2,4,4,0,0,0-2.17,2.49,3.29,3.29,0,0,0,.32,3.44,9.85,9.85,0,0,0,3.09,2.33c1.34.68,2.8,1.4,4.38,2.14a15.58,15.58,0,0,1,4.23,2.94,10.38,10.38,0,0,1,2.65,4.62,14,14,0,0,1-.39,7.25,13,13,0,0,1-2.8,5.35,13.49,13.49,0,0,1-4.46,3.3,16,16,0,0,1-5.42,1.37,17.93,17.93,0,0,1-10.84-2.64,12.78,12.78,0,0,1-6.07-9.09,15.35,15.35,0,0,1,.56-6.76q.15-.91,1.89-.84a16.41,16.41,0,0,1,3.82.68,19.68,19.68,0,0,1,3.7,1.45c1.09.56,1.6,1.05,1.54,1.46q-.58,3,.37,4.54a3.64,3.64,0,0,0,2.41,1.85,4.28,4.28,0,0,0,3-.55,4.49,4.49,0,0,0,2.11-2.69,2.8,2.8,0,0,0-.7-3,14.84,14.84,0,0,0-3.32-2.3L298,44.86a16.28,16.28,0,0,1-4.26-3.16A10.78,10.78,0,0,1,291.12,37a13.1,13.1,0,0,1,.45-7,12.46,12.46,0,0,1,4.13-6.49,15.58,15.58,0,0,1,6.54-3.11,17.15,17.15,0,0,1,7.34.06,15.5,15.5,0,0,1,6.44,3,11.87,11.87,0,0,1,3.87,5.68A13.11,13.11,0,0,1,319.59,37.25Z"/><path class="cls-3" d="M346.77,29.17a22.22,22.22,0,0,1,4.46,1.95,9.36,9.36,0,0,1,3.22,3.16,12.63,12.63,0,0,1,1.67,5.06,30.25,30.25,0,0,1-.19,7.67,83.91,83.91,0,0,1-2.32,11q-1.73,6.38-4.84,15a3.92,3.92,0,0,1-1.63,2,5.38,5.38,0,0,1-2.35.72,6.55,6.55,0,0,1-2.56-.37A7.15,7.15,0,0,1,340,74.09a4.82,4.82,0,0,1-1.4-1.92,3.75,3.75,0,0,1-.1-2.44c.25-.75.46-1.41.64-2s.36-1.1.51-1.6l.48-1.47.52-1.63a22.32,22.32,0,0,1-5.47-1.14q-2.25-.81-4.39-1.64a27.09,27.09,0,0,0-1.42,3.1c-.41,1.06-.79,2-1.15,2.86a4.6,4.6,0,0,1-1.61,2.09,4.79,4.79,0,0,1-2.19.82,4.85,4.85,0,0,1-2.28-.31,4.6,4.6,0,0,1-1.9-1.29,4.76,4.76,0,0,1-1.06-2.17,5.48,5.48,0,0,1,.23-3,154.75,154.75,0,0,1,6.42-17,50.75,50.75,0,0,1,6.5-11,16,16,0,0,1,6.88-5.29A11.69,11.69,0,0,1,346.77,29.17ZM334.22,53.43a23,23,0,0,0,3.95,1.4,33,33,0,0,0,4.51.86,86.06,86.06,0,0,0,3.25-12.35q.66-4.26-1.41-4.92c-1.46-.47-3.11.57-4.94,3.1S336,48,334.22,53.43Z"/><path class="cls-3" d="M389.2,49.39a2.59,2.59,0,0,1,1.91-.66,6.48,6.48,0,0,1,2.34.6,9,9,0,0,1,2.31,1.54A9.35,9.35,0,0,1,397.55,53a4.63,4.63,0,0,1,.73,2.26,2.93,2.93,0,0,1-.79,2.1q-1.94,2.15-5,5.36T386,69.34c-2.32,2.3-4.64,4.56-7,6.78s-4.44,4.1-6.3,5.66a11.84,11.84,0,0,1-5.86,2.94,8.13,8.13,0,0,1-4.9-.7,7,7,0,0,1-3.18-3.26,7.42,7.42,0,0,1-.58-4.79c.36-2,.8-4.12,1.3-6.38s1.11-4.77,1.84-7.56,1.61-5.91,2.66-9.37,2.32-7.39,3.82-11.78a2.29,2.29,0,0,1,1.31-1.46,5.38,5.38,0,0,1,2.21-.43,9.51,9.51,0,0,1,2.56.36,10.33,10.33,0,0,1,2.42,1,6.14,6.14,0,0,1,1.72,1.4,2,2,0,0,1,.53,1.56c-.4,1.7-1,3.82-1.76,6.38s-1.59,5.15-2.44,7.78-1.66,5.11-2.41,7.44-1.33,4.17-1.73,5.5c.81-.75,1.76-1.73,2.86-2.93s2.28-2.51,3.53-3.91,2.52-2.85,3.81-4.33L384,55.07c1.13-1.31,2.16-2.47,3.07-3.49A29.22,29.22,0,0,1,389.2,49.39Z"/><path class="cls-4" d="M277.7,438c9.52-.05,17.5,1.36,25,4.91,12,5.69,21,14.61,26.11,26.81,2.61,6.25,2.49,13.13-1.86,19.13a10.48,10.48,0,0,1-6.73,4c-4.35.86-8.74,1.59-13.16.26a14.48,14.48,0,0,1-3.35-1.4,5.13,5.13,0,0,0-6.55.44c-4.74,3.77-9.95,6.68-16,7.36-4.51.51-9,0-13-2.53a23.76,23.76,0,0,0-3-1.69c-1.92-.88-3.47-.44-5.08,1a23.05,23.05,0,0,1-11.24,5.35c-6.35,1.18-11.77-.55-16.65-4.27-4.33-3.3-5.7-8.2-5.9-13.4-.26-6.39,1.51-12.36,4-18.2a47.7,47.7,0,0,1,5.25-9.59c3.35-4.59,7.86-7.85,12.73-10.64a52.86,52.86,0,0,1,19.11-6.5C271.21,438.41,275.08,438.11,277.7,438Z"/><path class="cls-5" d="M424.88,383.4c9.25.1,17.65,2.3,24.85,7.82a24.53,24.53,0,0,1,9.57,14.43c.83,3.84-.49,7.08-3.21,9.8s-5.57,5.16-9.24,6.51a12.25,12.25,0,0,1-3.6.52c-3,.18-4.17,1.38-4.75,4.28a24.74,24.74,0,0,1-3.42,8,21.25,21.25,0,0,1-5.94,6.8,18,18,0,0,1-8.95,3.47,34,34,0,0,0-5.11.43c-1.47.32-1.91,1.24-2.22,2.5-1.9,7.78-6.22,13.49-14.24,15.57-3.13.82-6.34.2-9.47-.76-5.47-1.66-8.74-5.75-11.77-10.17-6.78-9.89-6.93-20.43-2.88-31.28a73.4,73.4,0,0,1,14.37-23.27,40.14,40.14,0,0,1,14.06-10A58.36,58.36,0,0,1,424.88,383.4Z"/><path d="M310.69,430.86c-.08-2-.08-3.92-.29-5.86,0-.51-.42-1.25-1.5-.79a33.52,33.52,0,0,1-12.5,2.66,11.7,11.7,0,0,1-7-2.61c-2.41-1.72-3.58-4.41-5.11-6.81a24.39,24.39,0,0,1-2.82-6.79,8.06,8.06,0,0,1,.25-4.54c1-3.32,1.66-6.8,3.49-9.84a104.71,104.71,0,0,1,6.48-9.82c1.09-1.41,2.16-2.83,3.26-4.23.27-.34.42-.55.11-1a20.46,20.46,0,0,1-1.17-2.1c-.78-1.47-1-1.52-1.8-.08a50.79,50.79,0,0,1-8.87,11.2c-4.27,4.29-9.56,6.92-14.94,9.39a75.84,75.84,0,0,1-10.1,3.73,31.11,31.11,0,0,1-17.06.18,33.76,33.76,0,0,1-7-2.5,26.4,26.4,0,0,1-7.53-5.87,44.81,44.81,0,0,1-7.33-11.08,99.45,99.45,0,0,1-6.67-19.49,91.27,91.27,0,0,1-2.12-12.09c-.29-3.17-.2-6.31-.23-9.45,0-1.07-.44-1.23-1.27-1.08a39.4,39.4,0,0,1-8.87.63c-4-.06-11.85-.08-14.48-.34a74.23,74.23,0,0,1-7.71-1.14c-1-.21-1.45-.08-1.9.83a34.68,34.68,0,0,1-2.35,4.42c-1.46,2.07-4.29,2.35-5.57.25a93.47,93.47,0,0,1-4.84-9,4.15,4.15,0,0,0-2.22-2.34c-5.81-2.55-11.19-5.76-15.37-10.66s-6.37-10.51-5.25-17.27A52.35,52.35,0,0,1,144,294.56a27.54,27.54,0,0,1,7.48-10c4.33-3.71,8.92-7,13.53-10.36,5.11-3.66,10.48-7,15.62-10.56,3.33-2.33,6.47-4.92,9.64-7.45,1.48-1.18,2-5.19.93-6.84a40.89,40.89,0,0,1-5.24-14.37c-.83-4.22-.59-8.46-.61-12.7a12.62,12.62,0,0,1,.39-3.89c.52-1.63-.06-2.77-.87-4.08a116.55,116.55,0,0,0-11.93-16c-.73-.82-1-.84-1.67,0-3.13,4.24-6.79,8-10.32,11.93-2.45,2.71-5.09,5.23-7.62,7.87-3.61,3.78-8,6.65-12.06,9.86-1.87,1.47-3.64,3.08-6,3.86-4.36,1.46-8-.17-9.58-4.5a63.9,63.9,0,0,1-2.73-10.64c-1-6-.84-12.12-.59-18.17.29-6.82,1-13.63.84-20.45a120.62,120.62,0,0,1,.54-13.06c.6-7.59.67-15.17.94-22.75a42.61,42.61,0,0,1,2-11.45c.84-2.62,3-4.33,5.32-5.94,4.15-2.93,8.54-2.71,13.06-1.52.67.18,12.38,1.22,17.61,1.48,3.33.16,14.86-.63,17.24-.92,4.78-.58,9.52-1.49,14.27-2.23a27,27,0,0,1,12.65.5c4,1.28,5.33,5.08,4.61,8.72a33,33,0,0,1-3.83,9.49c-1.62,2.95-2.33,6.25-3.14,9.48a77.28,77.28,0,0,0-2.22,15.66c0,.2,0,.39,0,.66,6.64-4.1,13-8.39,20-11.71a38.86,38.86,0,0,1,11.46-3.17,87.52,87.52,0,0,1,15.26-1,65.06,65.06,0,0,1,9.73,1.24c1,.18,2.06-.08,3.07.38.46.21.53-.15.39-.68-1.48-5.5-1.4-11.14-1.11-16.74.2-4,1-8,1.53-12a105.34,105.34,0,0,1,3.8-17.9,122,122,0,0,1,6.14-16.17c2.69-5.52,4.78-11.31,7.84-16.63,1.28-2.22,2.29-4.53,3.37-6.83a61.72,61.72,0,0,1,4.35-7.75c1.53-2.3,2.88-4.75,4.51-7,1.81-2.5,3.89-4.81,5.6-7.36,1.58-2.34,2.5-5.1,4.46-7.22,1.45-1.57,2.29-3.67,4.35-4.72,2.22-1.13,3.75-.72,5,1.47s1.29,4.43,1.6,6.69c.37,2.68,1.08,5.29,1.23,8a44.71,44.71,0,0,0,.14,5.43c.5,2.89.78,5.81,1.16,8.71.44,3.45,1.09,6.86,1.6,10.29a64,64,0,0,0,2.36,10.7c.82,2.49,1.37,5.07,2.16,7.58a60.42,60.42,0,0,0,3.24,9.09,37.44,37.44,0,0,1,2.43,8.12c1.54,6.53,3.87,12.84,5.83,19.25,2.13,7,4.72,13.83,6.34,21A81.18,81.18,0,0,1,342,158.22c.18,2.19.59,4.37.63,6.56a59.26,59.26,0,0,1-6.71,28.39c-3.43,6.76-6.71,13.6-9.92,20.48A126,126,0,0,0,317.45,237a60.55,60.55,0,0,0-1.7,18.92,6,6,0,0,1,0,2c.49,3.05.23,6.13.51,9.2.43,4.69.89,9.37,1.3,14.05.36,4.08,1,8.13,1.48,12.18.56,4.56,1.37,9.11,2.33,13.61a149.39,149.39,0,0,0,4.95,18.33,160.68,160.68,0,0,0,7.23,17.54C337,340,341.18,338.92,345,337c1.09-.55,2.25-.94,3.34-1.51a7.37,7.37,0,0,1,3.05-1,19.25,19.25,0,0,1,3.31,0c5.84,1.62,9.2,5.75,11.54,11.07,1.26,2.85,2.54,5.68,3.59,8.6a20.51,20.51,0,0,1,1,4.43,7.22,7.22,0,0,1,0,2.32,21.37,21.37,0,0,1-2.54,7.85c-1.68,3.33-2.92,6.87-4.88,10.06-.14.23-.23.49-.37.73-1.65,2.78-1.6,2.71,1.13,4.76s5.78,4.05,8.65,6.1c1,.72,1.62.64,2.28-.31,3.34-4.82,8-8.13,12.85-11.2s10.27-4.7,15.8-5.94a58,58,0,0,1,13.73-1.39,56.88,56.88,0,0,1,14.74,2.65c4.56,1.3,8.3,4,11.73,6.92A30.11,30.11,0,0,1,453,394.77a10.45,10.45,0,0,1,.28,2.42c.44,4.27.75,8.39-3.15,11.76-3.07,2.67-6.06,5.41-9.64,7.33a10.94,10.94,0,0,1-6.88,1.43c-.7-.11-.72.14-.9.73a43.19,43.19,0,0,1-4.84,10.65,22.44,22.44,0,0,1-12.11,9.44,19.05,19.05,0,0,1-7.16,1.12c-1.17,0-1.63.37-1.87,1.4a24.09,24.09,0,0,1-4.89,9.75,19.3,19.3,0,0,1-12.51,7.46,20.73,20.73,0,0,1-15.69-4,43.92,43.92,0,0,1-5.37-5.2,1.68,1.68,0,0,0-2.32-.36c-3.21,1.76-6.33,3.71-9.67,5.18-4.57,2-9.1,4.12-13.8,5.87-5.15,1.92-10.3,3.82-15.6,5.26-1.05.28-.85,1-.84,1.69.08,4.25-.58,8.37-3,11.91a13.46,13.46,0,0,1-10.45,5.8c-1.62.13-3.22.45-4.83.64-4,.48-7.63-.64-11.16-2.27a2.87,2.87,0,0,0-3.3.3,38.88,38.88,0,0,1-12.87,6.81c-2.34.75-4.76.6-7.15.75-4.47.28-8.21-1.74-11.89-3.91a2.06,2.06,0,0,0-2.39.14,39.74,39.74,0,0,1-11.52,5.28c-7.58,1.91-14.14.05-19.81-5.27-5.45-5.1-6.9-11.36-6.08-18.58.32-2.8.11-5.68,1.12-8.37A85.15,85.15,0,0,1,227.87,448a32.69,32.69,0,0,1,6-7.66,55.61,55.61,0,0,1,13.51-9.19,41.9,41.9,0,0,1,8-3,55.91,55.91,0,0,1,9.57-1.8,81.28,81.28,0,0,1,8.39-.66,76.36,76.36,0,0,1,13.39,1.27,51.44,51.44,0,0,1,21.05,9.34c.68.49,1.38,1,2.05,1.47.26.19.24.9.78.51.31-.23.24-.69.11-1.07A28.51,28.51,0,0,0,310.69,430.86Z"/><path class="cls-6" d="M310.69,430.86a18.19,18.19,0,0,1,0,6.33Q310.69,434,310.69,430.86Z"/><path class="cls-6" d="M354.67,334.57l-3.31,0A5.07,5.07,0,0,1,354.67,334.57Z"/><path class="cls-6" d="M370.77,361v-2.32A2.47,2.47,0,0,1,370.77,361Z"/><path class="cls-6" d="M315.76,257.94v-2A1.88,1.88,0,0,1,315.76,257.94Z"/><path class="cls-7" d="M214.27,343a75.58,75.58,0,0,0,2.67,15c1.84,5.75,5.48,10.31,9.89,14.27A24.11,24.11,0,0,0,236.4,378c5.67,1.57,11.09.64,16.39-1.59a48.39,48.39,0,0,0,13.33-7.89,52.36,52.36,0,0,0,9.94-11.27c.83-1.3,2.06-2.35,2.84-3.66A65.23,65.23,0,0,0,285,339c3-10,2.89-20.21,2.37-30.47-.16-3-.24-6.09-.62-9.12a70.92,70.92,0,0,0-3.6-15.06c-.14-.4-.21-.82-.39-1.52,2.46.73,4.08,2.31,5.79,3.7a13.25,13.25,0,0,1,3.95,5c.09.2.21.39.31.59.29.61.8,1,1.44.81s.5-.91.38-1.44a21.84,21.84,0,0,0-4-8.65c-3.4-4.43-11.66-6.08-16.51-3.37a5,5,0,0,0-1.06.76,1,1,0,0,0-.4,1c.17.47.66.31,1,.33a18.17,18.17,0,0,0,2.66,0c1.14-.12,1.35.24,1,1.32-1.23,4-2.54,8-4.11,11.85A104.82,104.82,0,0,1,262.52,315c-6.13,8.9-14.49,14.67-24.55,18.3a90,90,0,0,1-20.78,4.82c-8.48.94-17,2-25.55,1.44-8.81-.55-17.45-1.88-25.57-5.55-5.33-2.4-10.72-4.73-15.13-8.76-3.89-3.54-7.12-7.59-7.51-13a34.75,34.75,0,0,1,1.63-11.58A28,28,0,0,1,155.81,285c2.81-2,5.55-4.17,8.3-6.3.7-.54,1-.55,1.49.32,1,1.76,2.58,2.09,4.39,1.08a16.25,16.25,0,0,0,7.4-9.45,3.08,3.08,0,0,1,1.3-1.77c5.23-3.42,10-7.47,14.88-11.35.65-.52,1-.54,1.44.08,3.56,4.64,8.62,4.87,13.79,4.61,5.53-.29,8.79-4.16,12.16-7.88,3.95-4.36,5.31-9.63,5.68-15.33.4-6.19,1.28-12.37.93-18.58a56,56,0,0,0-2.81-15.73,24.21,24.21,0,0,0-6-8.8c-2.47-2.49-3.41-5.42-4.06-8.67-1.53-7.75-.18-15.32,1.18-22.92a6.37,6.37,0,0,1,3.52-4.79,41.76,41.76,0,0,1,16.55-5.35c3.48-.43,7-.6,10.44-.79a51,51,0,0,1,10.23.87l7.4,1.07c1.44.21,1.93-.53,1.81-1.84-.22-2.37-1-4.64-1.27-7a63.88,63.88,0,0,1,0-14.43c.61-5.56,1.29-11.11,2.35-16.61a83,83,0,0,1,6.47-19.56c.35-.75.66-1.52,1-2.3.16-.41.23-.88.79-.95s.71.37.95.76c1.84,2.83,3.6,5.7,5.25,8.64a36.35,36.35,0,0,0,6.49,8.51,4.14,4.14,0,0,1,1.4,4.38,109.25,109.25,0,0,0-3.12,18.81c-.4,6.58-1.35,13.15-1.1,19.75.16,4,.61,8,3.63,11.07.12.11.15.34.28.41,4.65,2.67,5.51,7.79,7.77,12,1.2,2.23,2.14,4.62,3.92,6.48s3.89,1.59,4.81-1q1.54-4.33,2.86-8.74a80.59,80.59,0,0,0,3.62-17.18,36.21,36.21,0,0,0-.08-6c-.05-.68-.26-1.66.44-1.94s1.11.56,1.59,1c4.44,4.41,9,8.63,14.49,11.82a51.46,51.46,0,0,0,9.61,4.83,1.9,1.9,0,0,1,1.54,2.22c-.09,8-2.52,15.3-5.89,22.37-4.31,9.05-9,17.92-12.9,27.15-3.4,8-6.28,16.27-7.55,24.95a51.48,51.48,0,0,0-.49,10.76c.27,3.92,0,7.88.39,11.81.44,4.68.7,9.37,1.2,14.05q.84,8,2.06,15.91a202.58,202.58,0,0,0,4.85,23.69c3.23,11.5,8,22.37,13.42,33,1.9,3.73,3.92,7.39,6,11a2.15,2.15,0,0,1-.29,3,200.18,200.18,0,0,1-24.89,23.12c-3,2.32-6.26,4.34-9.42,6.48-.93.64-1.53.39-2-.67a50.29,50.29,0,0,1-2.64-7.12,41.6,41.6,0,0,0-5.18-11.41,5.92,5.92,0,0,1-.6-5.18c2.5-9.51,4.19-19.19,6.13-28.81,1.17-5.8,2.38-11.58,3.55-17.38.11-.54.13-1.09.22-1.64a1.48,1.48,0,0,0-1.27-2c-1.12-.17-1.59.68-1.79,1.58-.62,2.79-1.21,5.59-1.75,8.4q-2.27,11.7-4.79,23.35c-1.2,5.55-2.24,11.13-3.56,16.66-.8,3.34-2.89,6-4.75,8.82-5.24,7.84-12.48,13.1-21.19,16.56-3.64,1.44-7.16,3.23-11.06,3.86-9.31,1.51-17.84-.05-25-6.73-4.91-4.61-7.92-10.48-10.26-16.63a106.83,106.83,0,0,1-6.17-23.14,66.54,66.54,0,0,1-.58-9.78,2.83,2.83,0,0,1,.33-1.61A.44.44,0,0,1,214.27,343Z"/><path class="cls-8" d="M125.34,205.23c.37-7.89.83-16.53,1.16-25.18.25-6.37.3-12.76.5-19.14.22-6.93-.11-13.88.69-20.79.42-3.58.83-7.22,3.16-10.26,3.06-4,7.17-5.14,11.94-4.49,6.53.87,13,2,19.61,2.46,3.09.22,6.21.22,9.32.13,1.28,0,1.64.5,1.78,1.53a94.58,94.58,0,0,0,3.33,15.35,9.55,9.55,0,0,0,2.39,4.28c2.63,2.5,3.73,5.79,4.95,9a26.84,26.84,0,0,1,1.36,5.45c0,.16,0,.38.08.48,2.43,2.54.47,4.77-.68,6.84-3.07,5.5-6.36,10.87-9.53,16.31-.48.8-.81,1.69-1.25,2.51a12.14,12.14,0,0,1-3.92,4.9c-1.85,1.24-3,3.46-4.52,5.25-2.8,3.42-5.81,6.66-8.86,9.85a98.76,98.76,0,0,1-8.65,8.59c-3.85,3.14-7.75,6.22-11.78,9.12-4.31,3.08-6.63,2.06-8.21-3A66.58,66.58,0,0,1,125.34,205.23Z"/><path class="cls-8" d="M273.2,429c9-.05,16.62,1.29,23.73,4.66,11.41,5.4,20,13.88,24.8,25.46,2.49,5.94,2.37,12.47-1.76,18.18a9.93,9.93,0,0,1-6.39,3.78c-4.13.82-8.31,1.5-12.51.24A13,13,0,0,1,297.9,480a4.87,4.87,0,0,0-6.22.42c-4.51,3.58-9.45,6.34-15.24,7-4.28.48-8.52,0-12.31-2.41a22.66,22.66,0,0,0-2.89-1.61c-1.82-.84-3.3-.41-4.82.91a21.75,21.75,0,0,1-10.68,5.08c-6,1.13-11.18-.51-15.81-4.05-4.11-3.14-5.42-7.79-5.61-12.73-.24-6.07,1.44-11.73,3.79-17.28a45,45,0,0,1,5-9.11c3.18-4.36,7.46-7.46,12.09-10.11a50.52,50.52,0,0,1,18.15-6.18C267,429.4,270.71,429.11,273.2,429Z"/><path class="cls-7" d="M416,374.94c9.25.1,17.65,2.3,24.85,7.82a24.53,24.53,0,0,1,9.57,14.43c.83,3.84-.49,7.08-3.21,9.8s-5.57,5.16-9.24,6.5a11.94,11.94,0,0,1-3.6.53c-3,.18-4.17,1.38-4.75,4.28a24.74,24.74,0,0,1-3.42,8,21.25,21.25,0,0,1-5.94,6.8,18,18,0,0,1-9,3.47,34,34,0,0,0-5.11.43c-1.47.32-1.91,1.24-2.22,2.5-1.9,7.78-6.22,13.49-14.24,15.57-3.13.81-6.34.19-9.47-.76-5.47-1.66-8.74-5.75-11.77-10.17-6.78-9.89-6.93-20.43-2.88-31.29A73.2,73.2,0,0,1,380,389.61a40,40,0,0,1,14-10A58.36,58.36,0,0,1,416,374.94Z"/><path class="cls-9" d="M339.82,163.67c.15,1.15-.52.8-1.09.56a64.3,64.3,0,0,1-16.8-10.11c-3.25-2.67-6-5.85-9.23-8.56-1.65-1.39-1.71-3.4-2-5.29-1.44-8.63-3.81-17.05-5.71-25.57a163.08,163.08,0,0,1-3.38-22.62,25.68,25.68,0,0,0-1.24-6.5c-.24-.71-.6-1.37-1.43-1.44a1.82,1.82,0,0,0-1.84,1.14c-1.36,2.56-1.92,5.4-2.74,8.14-1.45,4.93-2.83,9.88-3.83,14.93-.24,1.2-.87.71-1.41.28a23.24,23.24,0,0,1-3.74-4.42c-2.41-3.23-4.07-6.93-6.28-10.29-.73-1.11-1.45-2.22-2.21-3.3a3.79,3.79,0,0,1-.38-4c2.89-6.66,6.14-13.13,9.68-19.47,3.89-6.95,8.17-13.67,12.68-20.22,2.38-3.47,4.21-7.27,6.76-10.63a15.55,15.55,0,0,1,2-2.44c1.12-1,1.74-.91,2.11.52.45,1.76.71,3.58,1,5.38,1,6.44,1.5,12.95,2.51,19.4.48,3.1.48,6.27,1.16,9.37,1,4.73,2,9.47,3,14.19,1.36,6.17,3.41,12.11,5.3,18.11,2.09,6.63,4.29,13.23,6.35,19.86s4.2,13.52,6,20.35c1.61,6,3.44,11.88,4.13,18.06C339.39,160.61,339.62,162.14,339.82,163.67Z"/><path class="cls-8" d="M314,440.84a146.29,146.29,0,0,0-.26-16.62c-.12-1.19.21-1.69,1.47-2.22,8.79-3.71,17.39-7.86,24.48-14.42a137.48,137.48,0,0,0,13.48-14.24c1.95-2.4,3.82-4.86,5.65-7.34.47-.63.71-.73,1.4-.23q5.49,3.94,11.08,7.74c.8.54.5,1,.14,1.49A74.86,74.86,0,0,0,364,407.85a49.56,49.56,0,0,0-4,14.08,33.91,33.91,0,0,0,3.31,19.95c.48.95.7,2.06-.13,2.48-5.2,2.62-10.29,5.48-15.61,7.82-3.65,1.6-7.41,3-11.23,4.26-2.65.88-5.33,1.67-8,2.59-2.17.76-2.85-.07-3.76-2.08a53.51,53.51,0,0,0-9.8-14.43C314,441.66,313.93,441.68,314,440.84Z"/><path class="cls-9" d="M196.46,255.53a21.49,21.49,0,0,0,5.52,2.11c4.87.84,8.76-.91,12-4.35,5.05-5.32,7.24-12,8.33-19a50.39,50.39,0,0,0-2.44-25.71c-1.62-4.38-4-8.39-7.66-11.23-5.48-4.19-10.76-4.28-16.53.3-4.19,3.32-6.37,8.09-8.14,13-.17.46-.15,1.12-.72,1.22s-.71-.57-1-.94c-2.57-3.18-4.66-6.72-7.54-9.67-1.53-1.57-2.79-3.41-4.22-5.09-.51-.6-.32-1.08,0-1.66,3.26-6.47,7.14-12.58,10.77-18.83a48.94,48.94,0,0,0,5.6-13.32c1-4.16,2.82-8,4.42-12,.25-.61.43-1.25.65-1.88s.49-1.59-.46-2-1.43.31-1.73,1.08c-.83,2.11-1.65,4.22-2.42,6.36-1,2.79-2,5.6-3.14,8.39a82.72,82.72,0,0,0-2.91-8.6,16.82,16.82,0,0,0-3.58-5.73,12.34,12.34,0,0,1-2.68-4.9,145.13,145.13,0,0,1-3.16-14.44c-.16-.82.11-1.13,1-1.26,6.46-.9,12.91-1.88,19.28-3.31,3.14-.7,6.31-.26,9.44.19,2.71.39,4.29,3.38,3.48,6.42a65.53,65.53,0,0,1-3.14,7.85c-3.49,8.6-5.9,17.46-6.16,26.8-.05,1.56-.11,3.11-.16,4.66,0,1,.43,1.16,1.23.64q6.14-3.92,12.28-7.82c.35-.22.68-.67,1.17-.41s.2.72.12,1.05a101,101,0,0,0-1.9,14c-.5,4.82.43,9.34,1.47,13.93A13.42,13.42,0,0,0,217.8,198c4,3.89,5.71,8.77,6.74,14.1,1.56,8.05.84,16.09.28,24.14-.17,2.48-.54,4.94-.87,7.4-.57,4.32-3.06,7.61-5.8,10.76-.69.78-1.44,1.51-2.19,2.25-4.56,4.48-10,4.12-15.53,2.63A6,6,0,0,1,196.46,255.53Z"/><path class="cls-10" d="M297.31,386.33c.86,1.64.46,2.89-.92,4.13-2.15,1.93-3.06,4.69-4.26,7.22-.95,2-2.06,4-1.83,6.45.17,1.79.89,2.62,2.69,2.66,2.8.06,5.2-1.24,7.72-2.2,6.2-2.34,11.29-6.4,16.17-10.66,5.9-5.13,11.67-10.42,17.22-15.95,4.24-4.22,8.5-8.43,12.68-12.71a38.15,38.15,0,0,0,6-8c.29-.51.54-1.13,1.24-1.26.61.62.31,1.35.23,2.05-.3,2.37.66,4.53,2.33,5.24a6.13,6.13,0,0,0,6.37-1.53c2-2.06,2-4.57,2-7.13.17-.43.29-.95.95-.62a10.87,10.87,0,0,1,.8,9.7,94.68,94.68,0,0,1-9.41,18.53,134.47,134.47,0,0,1-9.69,12.29,97.67,97.67,0,0,1-15.48,14.67A70.81,70.81,0,0,1,318,417.11c-2.89,1.24-5.78,2.47-8.71,3.58a46.35,46.35,0,0,1-9.91,2.59c-4.3.62-7.73-.64-10.15-4.32a64.82,64.82,0,0,1-3.68-6.62c-1.24-2.5-.43-4.89.14-7.39,1.54-6.8,5.8-12,9.65-17.52.27-.38.29-1,.87-1.14A.94.94,0,0,1,297.31,386.33Z"/><path class="cls-11" d="M258.37,338.36c3.66,0,3.87.21,3.88,3a5.57,5.57,0,0,0,0,1c.08.45-.21,1.1.46,1.27a1.57,1.57,0,0,0,1.82-.51,81.38,81.38,0,0,1,6.2-7.76c3.2-3.82,6.67-7.23,12-7.66.69-.06,1.51-1.26,2.07,0a4,4,0,0,1-.18,2.26,73.64,73.64,0,0,1-2.89,11.55,66.08,66.08,0,0,1-5.66,11.55,50.84,50.84,0,0,1-8.6,10.79,47.53,47.53,0,0,1-13.88,9.25,48.75,48.75,0,0,1-7.82,2.68,18.51,18.51,0,0,1-9.75-.58c-3.91-1.18-4.12-1.92-2.77-5.86a72.6,72.6,0,0,1,8.76-18.2c3.14-4.51,6.38-9,11.68-11.41A15.39,15.39,0,0,1,258.37,338.36Z"/><path class="cls-12" d="M217.22,244.51a49.46,49.46,0,0,0-2.28-10.9,7,7,0,0,0-6.22-4.73c-3.12-.34-5.19,1.24-6.62,3.79-1.6,2.86-1.68,6-1.61,9.2a57.54,57.54,0,0,0,2,12.58c.25,1,.23,1.32-1,.94a14.59,14.59,0,0,1-7.38-5.63c-3.6-4.93-5.32-10.57-6.2-16.55a46.64,46.64,0,0,1,2.71-24.41,24.39,24.39,0,0,1,5.36-8.49c5.26-5.28,12-5,16.93.63,4.19,4.84,6.26,10.61,7.31,16.78a47.62,47.62,0,0,1-2,24.22C218,242.81,217.57,243.65,217.22,244.51Z"/><path class="cls-13" d="M298.28,88.86a15.21,15.21,0,0,1,1.07,5.48,191.15,191.15,0,0,0,3.13,20.21c1.55,7.94,3.93,15.69,5.37,23.65.95,5.26,2,10.52,1.88,15.92a60.85,60.85,0,0,1-2.9,15.89c-1,3.48-2.11,6.94-3.23,10.39-.17.55-.32,1.35-.93,1.45s-.87-.7-1.22-1.19a33.25,33.25,0,0,1-4.39-8.49c-1.39-4.15-4.07-7.19-7.25-9.92a6.36,6.36,0,0,1-1.55-2.85c-1.6-4-1-8.2-.82-12.33.09-1.85.18-3.73.4-5.6.52-4.5.37-9.06,1.1-13.53.62-3.8,1.32-7.59,2.17-11.34,1.44-6.32,3-12.63,4.57-18.92C296.4,94.84,297.33,92.05,298.28,88.86Z"/><path class="cls-14" d="M351,338.19a5.68,5.68,0,0,1,5.46.7,15.45,15.45,0,0,1,6.29,7.39,38.73,38.73,0,0,0,2.73,6l0,0c.08.35.3.82-.09,1-.73.37-1.14-.32-1.65-.65a4,4,0,0,1-.38-.32c-1.61-1.32-3.38-1-5.18-.53-.81.21-1.52,1-2.47.53-.23-1.09.47-2,.65-3,.4-2.27-.37-4.34-1.11-6.4-.34-1-1.44-1.09-2.15-1.66.07-.79.9-.48,1.31-.94a2.57,2.57,0,0,0-2.46-.81C350.9,339.57,350.53,339.15,351,338.19Z"/><path class="cls-15" d="M365.32,354.75c.21,2.76,0,5.32-2.19,7.47-1.5,1.46-4.75,2.48-6.66,1.6a5.34,5.34,0,0,1-2.71-5.86,8.16,8.16,0,0,0,.25-2l.67-1.22c.25-.53.56-1,.85-1.53a6.35,6.35,0,0,1,8.1-.86h0A3.72,3.72,0,0,1,365.32,354.75Z"/><path class="cls-6" d="M254.37,327.76a19.68,19.68,0,0,1-3.88,11.93c-.73,1-1.47.89-2.16,0a26.89,26.89,0,0,1-3.16-5.22c-.22-.45-.32-.82.18-1.14Z"/><path class="cls-16" d="M166,337.87a61,61,0,0,1,8.14,2.1c.79.25.32.68.16,1-.64,1.27-1.26,2.54-2,3.74-1,1.63-1.65,1.62-2.73,0-.82-1.28-1.54-2.63-2.26-4C166.83,339.83,166.47,338.93,166,337.87Z"/><path class="cls-17" d="M213.33,250.13a25.28,25.28,0,0,0,.51-8.57,9.23,9.23,0,0,0-2-5.75,4.35,4.35,0,0,0-6.66-.06,2.55,2.55,0,0,1-1.16.86c-.44.13-.75,0-.77-.56-.06-1.51,3.22-5,4.79-5.12,1.23-.08,4.19,2.07,4.66,3.32a35,35,0,0,1,2,13.76C214.67,249.06,213.92,249.47,213.33,250.13Z"/><path class="cls-17" d="M203.49,245c1.15,1.13,1.33,2.65,1.64,3.81.74,2.77,2.21,4.17,5.1,4.39a14.46,14.46,0,0,1-4.34,2.08.83.83,0,0,1-1.06-.76c-.52-3-1.49-6-1.59-9.08C203.24,245.31,203.34,245.21,203.49,245Z"/><path class="cls-18" d="M203,239.86c.14-.9.16-2.05,1.82-1.93a2.44,2.44,0,0,1,2.51,2.67c0,1.65-1,2.71-2.33,2.65C203.83,243.2,202.93,241.76,203,239.86Z"/><path class="cls-19" d="M174.08,272.1a12.43,12.43,0,0,1-5.24,6.14.82.82,0,0,1-1.26-.37c-.29-.59-.87-1.38-.22-1.81A37.07,37.07,0,0,1,174.08,272.1Z"/><path class="cls-20" d="M351,338.19c.11.5-.06,1.21.91.91,1.43-.44,2.41.33,3.3,1.27-.53.9-1.54.34-2.13.88l-.72-.22a2.7,2.7,0,0,0-3,0l0,0a1.8,1.8,0,0,1-.79.16c-.59.08-1.33.39-1.62-.32s.72-.8,1-1.25A10.69,10.69,0,0,1,351,338.19Z"/><path class="cls-21" d="M348,339.6l-1,1.3,2.35.11-6,2.32a6,6,0,0,0-2.06.37c-.49.24-.83,0-1.09-.4a.49.49,0,0,1,.11-.43A69.46,69.46,0,0,1,348,339.6Z"/><path class="cls-22" d="M363.63,352.39a6.5,6.5,0,0,0-7.94,1.28c-.56,0-.58-.28-.34-.69.1-.22.19-.44.29-.67a10.7,10.7,0,0,1,5.9-1.34A2.21,2.21,0,0,1,363.63,352.39Z"/><path class="cls-23" d="M337.21,344.59a1.74,1.74,0,0,1,1.39-.66c.85,0,1.85-.47,2.4.66a11.79,11.79,0,0,1-3,1.8l-.17-.15A6.19,6.19,0,0,0,337.21,344.59Z"/><path class="cls-24" d="M341,344.59c-.71-.54-1.72,0-2.4-.66l.72-.59h1c.83.42,1.48-.54,2.31-.31.26.07.52.06.68.31A5.56,5.56,0,0,1,341,344.59Z"/><path class="cls-22" d="M365.43,352.29a12.75,12.75,0,0,1-2.73-6A39.16,39.16,0,0,1,365.43,352.29Z"/><path class="cls-25" d="M338,346.39a6.52,6.52,0,0,1-1,.63c-.44.19-.8,1.1-1.34.41a1.22,1.22,0,0,1,.26-2c.23-.14.45-.32.67-.48A2.67,2.67,0,0,0,338,346.3Z"/><path class="cls-26" d="M338,346.3c-1,.08-1.94.17-1.32-1.33l.53-.38A1.09,1.09,0,0,1,338,346.3Z"/><path class="cls-22" d="M365.32,354.75l-1.69-2.37c.38-.06.59.17.85.41.75.68.88.13.93-.52a2.12,2.12,0,0,1,.52,1.74C365.46,354,365.36,354.37,365.32,354.75Z"/><path class="cls-27" d="M349.35,341c.85-1.24,2-.68,3.1-.52.2,0,0,.37-.14.52Z"/><path class="cls-28" d="M355.35,353a.75.75,0,0,0,.34.69c-.26.44-.44.95-1,1.11C354.2,353.92,355.12,353.58,355.35,353Z"/><path class="cls-29" d="M297.31,386.33l-1.13,0c.11-.36.25-.72.72-.67S297.32,386,297.31,386.33Z"/><path class="cls-30" d="M340.35,343.33a.59.59,0,0,1-1,0c.18-.47.64-.34,1-.47Z"/><path d="M195.05,275.69c6.83.2,13.64-.37,20.47-.33a13.73,13.73,0,0,1,2.49.09c4.42.84,5.82,2.05,6.53,6.88.78,5.26-1,9.79-4.95,13.46a145.05,145.05,0,0,1-11.1,9.78,19.47,19.47,0,0,1-9,3.92c-2.44.35-4.84-.39-7.19-1-9.41-2.57-15.82-8.57-19.38-17.55a11.19,11.19,0,0,1,7.4-14.73,23.21,23.21,0,0,1,6.44-.49Z"/><path d="M279,224a55.85,55.85,0,0,1-7.48,28.27c-3.1,5.26-7.18,9.76-13.31,11.64a14.6,14.6,0,0,1-14-2.76c-5.62-4.45-8.54-10.57-10.53-17.23a55.64,55.64,0,0,1-2.09-14.19,58.35,58.35,0,0,1,6.17-28.92c2.46-4.84,5.69-9.09,10.43-12,6.56-4,13.43-3.32,19.25,1.82,4.78,4.22,7.28,9.79,9.17,15.66A55.75,55.75,0,0,1,279,224Z"/><path class="cls-15" d="M246.44,386.81a42.49,42.49,0,0,1-16-5.34c-.42-.23-1.1-.48-.64-1.26s.84-.3,1.27-.11c9.21,4.28,18.2,3.21,27-1.13a85,85,0,0,0,16.34-10.09,33.56,33.56,0,0,0,5.94-5.79c.35-.47.62-1.34,1.31-1s.07,1.08-.15,1.6c-3.71,8.74-10.37,14.54-18.57,18.9A32.14,32.14,0,0,1,246.44,386.81Z"/><path class="cls-31" d="M232.54,313.32c-4,.05-6.44-1-8.35-3.29a3,3,0,0,1-.31-3.81,15.09,15.09,0,0,1,9.5-6.88c3.08-.8,6,0,8.88,1a5.38,5.38,0,0,1,3.38,6.09,3.8,3.8,0,0,1-1.51,2.12C240.29,311.13,236.23,313.2,232.54,313.32Z"/><path class="cls-32" d="M251.72,289.26a7.56,7.56,0,0,1-5.71-3.79,3.11,3.11,0,0,1,.46-3.58,36.22,36.22,0,0,1,6-6.64c2.45-2,5.37-2.22,8.32-1.83,2,.26,2.78,1.77,2.16,3.63-1.48,4.43-3.53,8.46-7.8,10.93A8.53,8.53,0,0,1,251.72,289.26Z"/><path class="cls-15" d="M157.94,303.36a7.28,7.28,0,0,1-6.74-5.25c-1.7-4.83,1.23-10,6.07-10.64,3.22-.45,6.13,1.63,7.45,5.31C166.5,297.74,162.9,303.35,157.94,303.36Z"/><path d="M234.16,469.93c0-4.53,1.2-8.61,4.54-11.88a6.73,6.73,0,0,1,2.66-1.64c1.62-.51,2.67.52,2.44,2.22-.93,7-1.82,14.06-1.43,21.17,0,.55.09,1.11.17,1.65.11.74.15,1.54-.55,1.95a2,2,0,0,1-2.32-.31,12.07,12.07,0,0,1-3.43-4.21A17.52,17.52,0,0,1,234.16,469.93Z"/><path d="M278.31,473.94a20.81,20.81,0,0,1-.23,5.46c-.7,2.55-2.65,3.14-4.6,1.35a9.27,9.27,0,0,1-2.54-4.76c-1.13-4.51-.54-9,.14-13.51.25-1.69.64-3.36.87-5.06a1.54,1.54,0,0,1,1.22-1.37c.76-.24,1.05.34,1.4.86,2.66,4,3.49,8.53,3.73,13.2C278.37,471.39,278.31,472.66,278.31,473.94Z"/><path d="M313.48,464c0,4-.74,6.83-2.72,9.27-.63.78-1.29,1.61-2.47,1.32s-1-1.32-1.12-2.17A78.34,78.34,0,0,0,302,455.88c-.46-1.12-1.46-2.38-.27-3.53s2.64-.56,3.9,0C311.11,454.75,313.14,459.33,313.48,464Z"/><path d="M389.7,448a14.57,14.57,0,0,1-7.35-3.14c-5.07-4.17-8.17-9.36-8-16.15a10.27,10.27,0,0,1,1-3.81,1.84,1.84,0,0,1,1.75-1.27,1.75,1.75,0,0,1,1.78,1.19,136.55,136.55,0,0,0,9.55,16.65c.88,1.26,1.84,2.47,2.76,3.7.43.58,1,1.18.56,1.93A1.92,1.92,0,0,1,389.7,448Z"/><path d="M415.8,428c-2.31-.26-4.36-1.74-6.12-3.63-3.45-3.7-5.71-8.14-7.78-12.7a23.69,23.69,0,0,0-1.28-2.51,1.93,1.93,0,0,1,.17-2.46c.69-.76,1.43-.1,2.1.22,5.42,2.56,8.92,7.11,12.27,11.82A26.71,26.71,0,0,1,418.3,424C419.3,426.45,418.43,428,415.8,428Z"/><path class="cls-31" d="M441.18,399.8a9,9,0,0,1-.56,3.75c-.7,1.48-2,1.62-2.93.26-3.53-5.38-8.12-9.77-12.94-13.95a2.14,2.14,0,0,1-1-2.28c.27-1,1.1-1.32,2-1.54,4.79-1.14,10.68,1.67,13.36,6.36A13.81,13.81,0,0,1,441.18,399.8Z"/><path class="cls-32" d="M338.67,387.34c2.88,3.56,1.51,8.18-2.88,9.94-2.19.87-4.33,1.28-6.48,0a4.88,4.88,0,0,1-2.16-5.74,8.32,8.32,0,0,1,8.47-5.36c.55,0,1.1.12,1.65.19C337.78,386.62,338.37,386.77,338.67,387.34Z"/><path class="cls-32" d="M298.35,418.66c-2.13.33-3.79-.83-5.31-2.26a4.28,4.28,0,0,1-.45-4.2,6.28,6.28,0,0,1,6-3.13c2.55.1,5,.69,6.26,3.47a3.4,3.4,0,0,1-.84,4A6.6,6.6,0,0,1,298.35,418.66Z"/><path class="cls-33" d="M338.67,387.34a3.61,3.61,0,0,1-1.4-1C338,386.3,338.62,386.42,338.67,387.34Z"/><path class="cls-6" d="M355.67,358.6a4.87,4.87,0,0,1,4.83-5c2,.05,2.91,1.14,2.88,3.56,0,2.61-2.31,5.08-4.67,5.11C356.78,362.3,355.64,360.92,355.67,358.6Z"/><path class="cls-6" d="M201.39,279.94h6a3.15,3.15,0,0,1,1.89.5,1.27,1.27,0,0,1,.71,1.38c-.14.6-.63.71-1.12.8-6,1.08-12,1.93-18.13,1.39-2.2-.19-4.43.1-6.62-.36-.69-.14-1.42-.28-1.47-1.07s.76-.85,1.43-.94c3.51-.47,7-.92,10.51-1.47C197,279.8,199.38,280.09,201.39,279.94Z"/><path class="cls-34" d="M277,222.87c-.14,9.2-1.71,18.08-6,26.31-2.34,4.46-5.28,8.47-9.67,11.17a13.53,13.53,0,0,1-17.1-1.71c-4.72-4.38-7.28-10-8.83-16.1A59.3,59.3,0,0,1,237.51,206a33,33,0,0,1,9.93-14.29c6.42-5.18,14.54-4.41,20.05,1.75,5.31,6,7.64,13.11,8.78,20.81A48.63,48.63,0,0,1,277,222.87Z"/><path class="cls-35" d="M276.77,369.08a21.89,21.89,0,0,1-5.43,6.29,51.85,51.85,0,0,1-15.54,8.86,19,19,0,0,1-13,.21c6.51-.09,12.34-2.34,18-5.26A102.21,102.21,0,0,0,276.77,369.08Z"/><path class="cls-34" d="M230.63,311.49c-1,.16-2.58-.76-4-1.78s-1.53-2.08-.38-3.48c4-4.91,9.17-6.33,15.1-4.11a3.6,3.6,0,0,1,2.53,3c.14,1.29-.91,1.89-1.87,2.49A22.53,22.53,0,0,1,230.63,311.49Z"/><path class="cls-34" d="M251.92,287.33a6,6,0,0,1-4.09-2.52c-.47-.57-.1-1.33.29-1.85a30.52,30.52,0,0,1,5.86-6.51c1.78-1.33,3.91-1.41,6-1.3.75,0,1.27.43,1,1.32-1.29,4.45-3.52,8.21-7.83,10.39A11.46,11.46,0,0,1,251.92,287.33Z"/><path class="cls-34" d="M163.16,295.36c0,3.17-2.51,6-5.28,6s-5.15-2.89-5.2-5.92,2.56-6,5.32-6S163.16,292.31,163.16,295.36Z"/><path class="cls-6" d="M240.31,480.84c-6.26-6.33-4.76-19.24,1.3-22.11-.39,3.69-.8,7.28-1.16,10.87A94.77,94.77,0,0,0,240.31,480.84Z"/><path class="cls-16" d="M273.73,459.78a16.52,16.52,0,0,1,2,6.17,45.24,45.24,0,0,1,.26,12.73c-.06.38,0,.88-.48,1s-.66-.34-.9-.64c-1.73-2.14-2.11-4.72-2.21-7.34A44.94,44.94,0,0,1,273.73,459.78Z"/><path class="cls-16" d="M309.33,471.34c-1.16-6-3.48-11.51-5.8-17.38a9.49,9.49,0,0,1,6.64,5.68A11.3,11.3,0,0,1,309.33,471.34Z"/><path class="cls-16" d="M388.85,445.7c-8.09-1.86-14.45-12.46-11.74-19.62C380.63,433,384.15,439.53,388.85,445.7Z"/><path class="cls-16" d="M403.82,410.12c3.88,2.18,6.45,5.58,8.95,9a26.17,26.17,0,0,1,3.33,5.35c.17.39.61.83.27,1.21s-1,0-1.35-.14a12.49,12.49,0,0,1-4.88-3.91A42.39,42.39,0,0,1,403.82,410.12Z"/><path class="cls-16" d="M438.82,401.37c-3.6-4.9-8.08-8.9-12.46-13,1.8-.91,4.86-.38,7.39,1.44A11.48,11.48,0,0,1,438.82,401.37Z"/><path class="cls-6" d="M332.4,396c-1.33.05-2.56-.12-3.17-1.54a3.58,3.58,0,0,1,.65-3.85c1.71-2.16,4.51-3.12,6.59-2.3a2.87,2.87,0,0,1,1.77,3.86A6.14,6.14,0,0,1,332.4,396Z"/><path class="cls-16" d="M298.58,416.68a4.85,4.85,0,0,1-3.24-.88,2.15,2.15,0,0,1-.14-3.71,6.31,6.31,0,0,1,7.09.1,2.09,2.09,0,0,1-.1,3.5A5.14,5.14,0,0,1,298.58,416.68Z"/><path d="M273.33,223.39c0,10.64-2,19.56-7.59,27.39-2.89,4-6.57,7.18-11.82,7.44s-8.84-2.39-11.8-6.32c-4-5.36-5.67-11.59-6.34-18.11A50.18,50.18,0,0,1,239,209.63c2.09-5.19,5-9.9,9.95-12.94a12.3,12.3,0,0,1,15.42,1.67c4.26,4,6.41,9.23,7.76,14.8A40.76,40.76,0,0,1,273.33,223.39Z"/><path class="cls-12" d="M266.21,245.62a39.75,39.75,0,0,0-1.52-11.15,6.88,6.88,0,0,0-3.36-4.11,6.51,6.51,0,0,0-8.92,2.12C250.63,235,250.16,238,250,241a57.53,57.53,0,0,0,1.11,13.22,2.68,2.68,0,0,1,0,1.73,13.31,13.31,0,0,1-7.45-5.41,32.18,32.18,0,0,1-5.61-14.69c-1.35-9.8-.26-19.3,4.19-28.25a22,22,0,0,1,6.95-8.57c4.85-3.4,10.46-2.78,14.51,1.59s5.86,9.68,6.88,15.32A48.43,48.43,0,0,1,269,239.66,21.07,21.07,0,0,1,266.21,245.62Z"/><path class="cls-17" d="M259.93,252.91c2.38-1.45,2.8-3.95,3-6.32.26-2.94.5-5.94-.92-8.77s-3.91-3.51-6.39-1.79a6,6,0,0,1-2.18,1.11c-.63.14-.84,0-.78-.58.25-2.5,3-5,5.4-5a5,5,0,0,1,4.58,3.27,36,36,0,0,1,1.22,13.62,5.81,5.81,0,0,1-3.56,4.83C260,253.36,259.84,253.25,259.93,252.91Z"/><path class="cls-17" d="M253.57,255.3a36.86,36.86,0,0,1-1-6.6c0-.74-.69-1.91,1-1.42.58,1.9,1,3.86,2.51,5.35a1.82,1.82,0,0,0,1.19.69c1.65.29,1.65.29,1,1.27l-3.27,1.06A1.16,1.16,0,0,1,253.57,255.3Z"/><path class="cls-36" d="M254.2,238.25a2.62,2.62,0,0,1,2.75,2.59,2.53,2.53,0,0,1-2.41,2.78c-1.33,0-2.27-1.23-2.1-3C252.56,239.53,252.34,238,254.2,238.25Z"/><path class="cls-37" d="M253.61,247.28c-1.14-.1-.94.75-1,1.42a5,5,0,0,1-.22-3.64C253.66,245.38,253.69,246.3,253.61,247.28Z"/><path class="cls-38" d="M258.32,254.59c.77-1.31-.81-.74-1-1.27.87-.2,1.82.19,2.62-.41l.39.39A5.6,5.6,0,0,1,258.32,254.59Z"/><path class="cls-39" d="M253.57,255.3l1.48.35C254.44,256,253.83,256.38,253.57,255.3Z"/></g></g></g></svg>