<svg xmlns="http://www.w3.org/2000/svg" xmlns:xlink="http://www.w3.org/1999/xlink" viewBox="0 0 628.41 772.23"><defs><style>.cls-1,.cls-7{fill:none;}.cls-17,.cls-18,.cls-2{fill:#fff;}.cls-3{fill:#a3b218;}.cls-4{fill:#bfd638;}.cls-5{fill:#fff200;}.cls-6{fill:#45c0dd;}.cls-7{stroke:#249eb2;stroke-width:66.65px;}.cls-17,.cls-18,.cls-7{stroke-miterlimit:10;}.cls-8{fill:#db722c;}.cls-9{fill:#ff9b50;}.cls-10{opacity:0.2;}.cls-11{clip-path:url(#clip-path);}.cls-12{fill:#1c1b1b;}.cls-13{clip-path:url(#clip-path-2);}.cls-14{fill:#0f3135;}.cls-15{fill:#7f4b4b;}.cls-16{fill:#fcb788;}.cls-17,.cls-18{stroke:#000;}.cls-17{stroke-width:4.31px;}.cls-18{stroke-width:4.31px;}</style><clipPath id="clip-path"><rect class="cls-1" x="307.98" y="504.45" width="66.78" height="43.96"/></clipPath><clipPath id="clip-path-2"><rect class="cls-1" x="399.85" y="470.6" width="57.98" height="38.49"/></clipPath></defs><title>transparentniAsset 35KICA</title><g id="Layer_2" data-name="Layer 2"><g id="Layer_1-2" data-name="Layer 1"><g id="Kica"><path class="cls-2" d="M510.07,321.56c0,109.26-88.57,197.83-197.82,197.83S114.42,430.82,114.42,321.56,203,123.73,312.25,123.73s197.82,88.58,197.82,197.83"/><path class="cls-3" d="M356.71,582c13.18,8,30,11.57,45.28,13.47a549.2,549.2,0,0,0,6,105.87,4.74,4.74,0,0,0,8.87,1.5c7.82-15.08,9.75-33.21,9.44-50.45-.39-21.48,1.33-38.61-.69-64.34a348,348,0,0,0,42.1,152c3.47,6.35,8.72,13.5,16.14,12.28a11.67,11.67,0,0,0,8.33-6.62c2.87-5.87,1.93-12.34.91-18.52a797.58,797.58,0,0,0-42.21-155.44c11.64,29.85,23.34,59.85,39.59,87.47,16.87,28.66,39,54.9,67.69,71.85a7.32,7.32,0,0,0,6.8.44c5.09-2.43,3.35-8.73,1.24-13.2a1703.48,1703.48,0,0,0-91.69-168.6,381.29,381.29,0,0,0,63.42,68,11.08,11.08,0,0,0,11.91,1.67c8.15-4,4.1-15.76-1.08-22.81a303.85,303.85,0,0,0-70.18-68.74"/><path d="M355.81,583.57c13.95,8.33,30.24,11.71,46.18,13.72l-1.79-1.79q-1.05,26.54.43,53.08a483,483,0,0,0,5.55,52.85c.84,4.91,6.76,7.7,10.76,4.17,2.39-2.12,3.53-6.1,4.66-9a82.17,82.17,0,0,0,3.4-11c3.61-15.29,2.86-30.75,3.05-46.31.2-17.09.64-34.12-.67-51.19-.18-2.27-3.68-2.32-3.58,0a351.09,351.09,0,0,0,37.29,143.29c2.55,5,5,10.34,8.37,14.9,2.7,3.66,6.25,7.14,10.93,7.87a12.57,12.57,0,0,0,12-5.37c3.4-4.67,3.8-10.74,3.2-16.3-.67-6.24-1.93-12.45-3.06-18.63q-1.8-9.87-3.85-19.69-4.05-19.44-9.07-38.66a800.43,800.43,0,0,0-27-84.17l-3.45.95C459.55,599,470,625.81,483.74,651c12.1,22.21,26.89,43.24,45.47,60.52a171.1,171.1,0,0,0,14,11.74q3.78,2.85,7.73,5.45c2.48,1.64,5.15,3.72,8,4.7,4.84,1.69,10.36-1,11-6.25s-2.55-10.4-4.71-14.93q-18.9-39.63-39.83-78.24-20.82-38.41-43.6-75.73-2.88-4.72-5.8-9.44l-3.09,1.81a389.28,389.28,0,0,0,32.29,38.84q8.75,9.22,18.11,17.85,4.53,4.17,9.2,8.2c2.78,2.41,5.48,5.14,9.1,6.21,5.71,1.69,12.54-.91,14.18-7,1.49-5.49-1-11.65-3.74-16.32-3.89-6.55-9.19-12.55-14.07-18.37q-7.92-9.47-16.6-18.25a308.37,308.37,0,0,0-41.95-35.49c-1.88-1.33-3.67,1.77-1.8,3.09a303.41,303.41,0,0,1,65.18,62.31c3.8,4.92,7.84,9.9,9.35,16.07.59,2.42.85,5.23-.4,7.49-1.44,2.59-4.7,3.66-7.52,3.35-3.78-.4-6.47-3.29-9.2-5.65q-4.38-3.76-8.64-7.68-8.5-7.82-16.54-16.14A381.44,381.44,0,0,1,476,548.85c-1.32-1.82-4.32-.19-3.09,1.81q21.93,35.4,42.11,71.85,20.26,36.62,38.72,74.19,4.51,9.21,8.93,18.47c1.56,3.28,6.06,10.41,2.71,13.9-2.64,2.76-6.21.62-8.78-1s-4.93-3.15-7.32-4.82a158.18,158.18,0,0,1-14.2-11.21c-18-15.92-32.57-35.39-44.54-56.17-13.78-23.92-24.26-49.53-34.31-75.19q-1.85-4.69-3.67-9.4c-.83-2.12-4.28-1.21-3.45.95a798.66,798.66,0,0,1,40.25,144.14c1.09,6,2.5,12.19,2.84,18.32.29,5.3-.7,11.66-5.61,14.7-10.09,6.23-17.2-9.73-20.67-16.41a346.29,346.29,0,0,1-38.57-144.94H423.8c1.1,14.27,1.07,28.53.81,42.83-.26,13.94.6,28-1,41.92a93.34,93.34,0,0,1-4.93,21.44c-.67,1.82-1.42,3.62-2.24,5.38-.59,1.24-1.1,3-2.39,3.63-2.27,1.2-4.07-.72-4.42-2.8a470.1,470.1,0,0,1-5.28-49.37,551.65,551.65,0,0,1-.57-55.61,1.84,1.84,0,0,0-1.79-1.79c-15.3-1.92-31-5.23-44.38-13.23-2-1.18-3.78,1.91-1.8,3.09"/><path class="cls-4" d="M407.1,594.59c-4.9,18.84-2.58,39.77-2.58,59.57,0,12.74,2.61,25,3.87,37.58.39,3.91,3,13.66,3.45,4.15.63-12.38.25-24.72,1.33-37.06.47-5.23,4-67.45-6.07-64.24"/><path class="cls-4" d="M429.51,587.27c-1.63,21.79,6.16,44.14,9.81,65.41,2.71,15.87,6.6,31.76,12.85,46.63,3.3,7.84,6,15.82,9.83,23.43,3.21,6.36,6.21,14.43,10.86,19.89,2.82,3.32,9.89,8.52,12.36,2.37,3-7.54-8-18-14.11-20.49,6.69,2.52,2.12-7.68,1.08-10.08A98.37,98.37,0,0,0,459.9,694c-1.07-1.41-4.84-5.09-4.9-6.9-.06-1.58,2.3-3.34,3-5.16,2.49-6.58-1.2-16.35-2.84-22.76-4.19-16.38-8.5-33-13.55-49.18-1.54-4.94-4.4-24-12.09-22.77"/><path class="cls-4" d="M454.94,570c.62,11.14,6.88,22.69,11.65,32.65,6.25,13.08,12.27,26.58,18.49,39.85,14.86,31.66,36.39,61.81,66.35,80.73,2.92,1.84,7.91,5.79,8.37,1.25.38-3.7-7.57-11.94-9.56-14.79a93.24,93.24,0,0,0-10.82-12.66c-6.91-6.94-13-15.31-21-21-2.07-1.48-8.88-5.22-7.06.69-2.69-4.46-18.73-45.88-25.72-37.56a102.42,102.42,0,0,0-4.46-27.63c-1.24-4.07-3-8.22-6.37-10.91-1-.78-4.61-1.66-5-2.14-2.93-3.69-2.24-14-4.14-19.07-1.48-4-4.37-9.83-10.7-9.36"/><path class="cls-4" d="M479.5,549.34c5.54,9.76,14.09,17.67,21,26.28,8.62,10.71,17.71,23.31,28.87,31.58,5.12,3.78,11.79,10.84,18.68,10.63,1.27-7.31-13.47-17.75-17.76-22.36-9-9.7-16.08-21-24.92-30.8-5.73-6.34-12.14-14.72-19.66-19-2.39-1.36-7.2-3.36-6.24,3.66"/><path class="cls-5" d="M507.52,566.15a10.34,10.34,0,0,0,5.2,5c.1-1.08.63-2.33.11-3.59.52.42,1.17.62,1.68,1.1.58-1.24,1.6-1.18.37-3.13,4,.72,1.07-3.18-.29-4.77a31.67,31.67,0,0,0-10.75-7.84c-1.12,1.41-.26,3.31.52,4.79-3.7-3.77-3.34,2.29-1.91,4.53.15-1,.37-1-.14-2.27a6.4,6.4,0,0,0,1.33,3.57"/><path class="cls-5" d="M441.15,666.57c4.48,13.14,8.81,29.86,17.78,40.7.42-3,0-6.92-.18-10.19,3.14,1.24,4.53,6.1,7.33,7.72.37-3.54-.45-7.16-.33-10.73,2.59.55,4.24,5.75,6.45,7.7,1.42-3.86.36-9.69,1.42-13.93,2.76,3.94,4.29,9.15,7.55,12.48.08-2.63-1-5.46-1.74-8,1.46.91,2.17,3,3.56,4.28.51-4-1.71-9.6-2.63-13.59-1.65-7.23-3.79-14.39-5.78-21.54s-3.45-14.9-5.61-21.93c-2.33,4.56.95,11.23-1.06,15.65-1.49-2.7-2.67-5.72-4.06-8.51-1.22,4.47.2,10.24.1,15-1.42-2.6-2.3-5.51-4.31-7.66-1.47,2.31-1.1,6.29-1.36,9-2.31-3.54-3.61-7.66-6.07-11.12-1.25,5.76.83,12.6,1.43,18.4-1.77-3-3.23-6.2-5.21-9-.9,2.46-.35,5.52-.42,8.15a24.5,24.5,0,0,0-2.62-4.46c0,.74-.48,1.9-.48,2.69-1.08-1.58-2.05-3.26-3.74-4.21a2,2,0,0,0,0,3"/><path class="cls-6" d="M457.09,710.52c1.64,3.89,2.64,10.08,6.47,12.28,1.13-1.71.82-3.72,1.36-5.58,1.25,2,2.27,4.73,4.27,5.77,1.24-2.14.37-4.57,1.35-6.74,4.15,5.49,6.6,5.51,6.44-2.06,1.28,1.89,2.46,3.91,4.37,5.15.5-2.17.55-4.82.9-6.87a10.69,10.69,0,0,0,3.3,3.09c2.39-3.2-.7-10.42-2.93-13.32-3.09-4-3.91-.72-3.53,3.68-.54-2.2-1.41-5.24-3.93-5.75-1.09,2.4-.22,5.05-.46,7.55-1.17-1.87-2-4.48-4.6-4.07-.81,1.68-1.07,3.87-1.55,5.38-2.45-3.7-6.24-2.67-6,1.63-2.13-2.66-7.53-5.07-5.45-.14"/><path class="cls-5" d="M498.47,664.84c5,8.24,13.75,19.78,22.36,24.24-.61-2.91-2.76-5.54-3.26-8.48,1.4,1.31,3.07,3,4.63,3.59.31-1.44-.27-3.15-.42-4.77,2.19.55,3.6,2.94,5.93,3.05-.3-1,0-2.79-.23-3.71,2.06,1,3.48,3.07,5.83,2.85.15-1.68-.51-3.56-.66-5,2.3,1.46,4.38,3.53,6.8,4.6a4.25,4.25,0,0,0-.43-4,20.17,20.17,0,0,0,4.75,4.74c2.15-4.83-3.8-13.61-6.28-17.32C530.66,654.44,522.7,643,514,634.35c-.85,7.2,4.31,13,5.31,19.72-2.16-1.17-4.08-3-6.27-4.22-.79,2.37.69,5.76,1.15,8.37-2-2.15-4.27-4.51-7.15-5.08a50.16,50.16,0,0,0,1.67,7.39c-3.36-2.73-5.8-7.17-10.4-7.91-1,3,1.48,6,2.19,8.73a13.05,13.05,0,0,0-4.54-3c-.42,1.71-.3,3.44,2.47,6.53"/><path class="cls-5" d="M526.48,601.49c2,3.37,8.13,7.9,12,8.13.35-2.89-1.93-6.78-4-8.76,3.91,3.14,7.25,4.35,4.77-1.84a6.66,6.66,0,0,0,4,2,11.22,11.22,0,0,0-1.41-5.08l1.48.38c-2.27-5.9-10.78-13.84-17.61-13.74-.58,3.5,3,7.11,5.31,9.39-4-1.66-8.52-6.28-6.27,1.3-4.32-2.58-4.8,2-1.59,4.31-.16-.07-1.26-.72-1.29-.75.47,1.17,1.18,2,4.64,4.67"/><path class="cls-5" d="M405.81,660.53c-.09,4.36,0,11.56,2.8,14.93a7.2,7.2,0,0,0,1.05-4.7c1,3.09.91,7.44,2.59,10.23,2.24-2.48,2.15-6.07,3.15-9,.47,2.44.89,5,1.23,7.49,5.38-2.57,3.25-23.91.41-28.17-1.8,2-2.33,5.19-3.15,7.64a8.64,8.64,0,0,0-2.49-5.63c-1.43,1.67-1.25,4-1.7,6.08-.1-2.22-1-4.68-2.94-5.74-.48,1-.71,2.3-.95,6.89"/><path class="cls-6" d="M523,697.16c1.29,2.09,3.06,5.44,5.42,6.47,3.87,1.67,4.89-.81,3.28-4.08,1.06,2.68,6.49,8.62,9.57,8.84,4.86.33,1.56-5.62-.12-8.42,6.2,9.24,7.25-.43,3.23-5.83,2.11,4.82,7.18,8.68,5.67.75-.77-4-3.07-8.72-7.26-9.76a23.3,23.3,0,0,0-.1,2.44c-4.68-3.46-8.91-1.69-6.89,4.22-3.58-3.67-9.12-2.43-6.89,3.1-2.05-2-10.62-5.32-5.91,2.27"/><path class="cls-6" d="M536.82,612.26a6.36,6.36,0,0,0,4.25,2.1c-.17-.66,0-1.74-.22-2.39a5.69,5.69,0,0,0,4.09,1.09c0-1,.48-1.3.22-2.37,6.44,2.35,5.66-7.45.86-8.85,0-.07.46,1.31.47,1.35-2.21-1.73-7.24-.67-5.08,2.81-1.7-1.41-3.69-.38-3.15,1.93-1.44-1.67-1.49-.44-2.3,0"/><path class="cls-6" d="M409.26,683.8c-1.2,2.63-.29,6.92.5,9.86.66-.63,1.62-.87,2.1-2.2-.79,4.89,2,6.43,4.52,2,1.48-2.52,2.35-6.63.65-9.23a4.92,4.92,0,0,0-2.63,3.09c.05-1.77-.71-3.21-2.4-3.19a1.17,1.17,0,0,0-.15,1,2.64,2.64,0,0,0-2.59-2.7"/><path class="cls-5" d="M409.26,622.61c0,3.42-1,8.52,1.28,11.17,1.56-.71,2.48-2.43,3-4-.49,3.78,1.53,8.4,4,3.23,1.14-2.43.62-8-.65-10.24a3.78,3.78,0,0,0,.33,2.58c3.62-5.33-5-15.66-5.72-6.6.63-4.1-3.51-3.32-2.68.37"/><path class="cls-5" d="M444.6,623c.56,2.56,1.57,7.26,4.34,8.15.22-.89,1.17-1.91,1.36-2.75.39,1.16,1.47,2,2,2.84,1.48-1.12,1.55-3.14,1.82-5,1.53,5.45,3.79.27,4.31-2.14,2.58,6.52,6.27-4.55,1.93-8.62.14,1,.05,2,.29,3-2-3.72-4.94-5.47-6.27-.46-1.93-2.91-4.05-.58-4.32,2.1-.7-4.29-4.17-1.43-5.5,2.89"/><path class="cls-5" d="M487.69,612.69c.9,1.91,1.94,4.67,3.91,5.13a23.51,23.51,0,0,0,.56-2.75c3.85,4.39,5.83,3.33,6.47-2.22,3.45,2.61,4.89-.87,4.74-3.9.93.86,1.85.67,2.69,1.11,1.61-6.18-5.14-17.86-10.55-19.63a37.38,37.38,0,0,0,.63,5.14c-2.07-3.78-9-7.33-6.43-.34-1.7-2.73-3.81-2.07-5,.59s1,7,2.09,9.37c-2-6.18-5.06.66.9,7.5"/><circle class="cls-7" cx="314.21" cy="318.41" r="232.64"/><path class="cls-3" d="M267.9,440.31c-6.77,4.94-7.9,18.62-6.92,26.28,1.2,9.4,3.65,16.71,9.72,24.36,6.37,8,12.78,13.15,21.31,18.84,2.93,2,12,6.39,9.25-1.16-1.16-3.18-5.69-6.49-7.62-9.39-2.54-3.79-5.19-8.35-6.26-12.84-2.36-9.88.59-19.9-2.5-29.76-2.13-6.78-6.35-17.56-17-16.33"/><path class="cls-4" d="M255,237.75c-11.62,4.56-28.61,25.64-32.83,37.23-6.11,16.75,1.67,42,7.64,58.49s16.29,30.85,22.39,47.34,6.61,34.34,12.09,50.21c2.95,8.53,7.64,13.74,13.95,20.05,4.76,4.77,2,7.3,3,13.46,1.7,10.64,4.8,16.94,8.41,27.23,2.55,7.29,5.53,15.88,11.7,21,7.4,6.07,15.19,2.18,25.18.93,27.54-3.42,55.28-11.67,80.82-22.5,18.21-7.72,32.92-12.29,44.18-29.1,8.29-12.38,7.89-15.81,1-29.3-7.55-14.88-16.64-30.09-29.48-41.05-11.12-9.48-29-18.05-34.75-32.39-3.05-7.66-2.34-17.88-3.4-26a286.24,286.24,0,0,0-7-35.63c-4.68-17.79-14-34-23.79-49.56-17.37-27.66-56.53-26.1-83.22-17-6,2.06-10.92,6.6-15.9,6.68"/><path class="cls-5" d="M237.08,342.43a1.58,1.58,0,0,0-1.55,2c4,14.89,13.05,28.66,17.94,43.49,6.23,18.86,5.43,41.26,19.37,56.92,3.62,4.05,9.38,12,15.76,11.18,4.68-.62,6.79-5.38,8-10.46a1.56,1.56,0,0,0-2.82-1.24c-1.86,2.83-4.24,5-7.54,4.58-4.58-.59-5.54-5.84-5.52-11a1.55,1.55,0,0,0-2.74-1l-.07.08a1.56,1.56,0,0,1-2.46-.08c-3-4.28-2.84-12.56-3.25-17.07-.28-3.11-.4-6.25-.52-9.38a1.56,1.56,0,0,0-3-.52l-.31.76a1.57,1.57,0,0,1-2.8.22c-3.44-6.26-1.88-18.76-3-24.76-.38.62-.71,1.3-1,2a1.55,1.55,0,0,1-2.81,0c-2-4.64-1.56-11.52-3.38-15.7-.44.8-1.32,1.22-1.74,1.82-5.42-4.09-6.59-16.63-8.48-22.62a2.76,2.76,0,0,1-.74.89,1.59,1.59,0,0,1-2.47-.59c-1.68-3.82-1.59-9.43-4.8-9.5"/><path class="cls-3" d="M263.16,253.27c-1.65,3-3.87,5.8-3.45,9.5.65,5.73,3.87,3.34,6.91-.11,6.3-7.16,11.33-15.75,18.54-22,1.59,13.72,15.85-4.53,21-6.77.47,6,5.39,6.72,10.2,4.64,6.26-2.71,5.67-4.91,11.08.07,7.88,7.28,16.71,12.93,20.58,23.49,2,5.42,5.56,25.29,10.89,10.35,1.91,5.2,9.74,34.18,16.25,28.89-1.89,10.79-1.42,21.33-.82,32.36.46,8.39-2.37,24.13,2.19,31.77,2.44,4.09,5.78,4.82,8.09-.4.28,8.42,8.16,38.52,18.46,21.23,1.92,8.32,6.49,17.33,11.49,24.18,4.42,6,8.29,6.6,14.84,4.85,1.17,3.86,2,34.81,11.35,25.93,2.34,4.12,1.57,16.46,8.24,17.31,3.92.5,6.19-5.42,6.91-8.64,2.6-11.7-7.2-24.95-13.06-34.38-3.63-5.85-6.81-11.11-12.06-15.77s-10.52-8-15.14-13.07c-5.05-5.54-11.3-9.72-16.72-14.93-3.36-3.23-7.32-9-11.1-11.06,2.55-6.81.34-14.23-1-21-1.9-9.58-4-19-5.6-28.63-2.77-16.54-8.91-31.51-16.46-46.37C356.29,248,343,233,324.61,227.64c-9.84-2.85-20.5-4.41-30.47-1.72-12.49,3.36-29.81,11.91-30.93,27,.84-1.33,1.69-2.66,0,.32"/><path class="cls-5" d="M300,299c-3.54-7-7.13-14.15-8.14-21.92s1.07-16.41,7.17-21.33c6.83-5.51,17.18-4.93,24.74-.47s12.73,12.09,16.55,20c2.92,6,5.23,12.52,5.07,19.21s-3.17,13.58-8.91,17-13.1,2.5-18.29-1.85"/><path d="M301.13,298.34c-4.68-9.24-9.85-19.51-7.71-30.19A19.28,19.28,0,0,1,300,256.66a18.61,18.61,0,0,1,13.44-3.49c9.82,1,17.26,8.16,22.25,16.19,5.18,8.34,10.13,19.1,8,29.14-1.05,4.95-3.8,9.76-8.38,12.21-5.24,2.8-11.63,1.65-16.15-2-1.28-1-3.12.79-1.82,1.83,8.47,6.82,20.43,5.16,26.11-4.33,6.16-10.29,2.57-22.57-2.4-32.52-4.79-9.61-12-19.15-22.81-22.22-10.05-2.86-21,.66-25.51,10.54-5.81,12.76.41,26.15,6.22,37.63.75,1.48,3,.17,2.23-1.31"/><path class="cls-5" d="M219.77,290.72c1-3.79,2.77-7.68,6.41-9.22s8-.74,11.34,1.34a25.21,25.21,0,0,1,7.92,8.68A67.71,67.71,0,0,1,253,311.3c1.19,5.15,2,10.5,1.21,15.73s-3.31,10.39-7.65,13.41-10.64,3.44-14.85.23"/><path d="M221,291.06c.73-2.69,1.77-5.57,4-7.38,2.57-2.08,6.31-2,9.29-.95,6.13,2.23,9.84,8.52,12.5,14.12a73.17,73.17,0,0,1,5.83,19.08c1.09,6.44,1,13.46-2.69,19.12s-11.56,8.79-17.57,4.5c-1.36-1-2.65,1.28-1.3,2.24,5.49,3.91,13.11,2.73,18-1.67,5.57-5.05,7.22-13,6.68-20.2a70.61,70.61,0,0,0-6.36-23.69c-3-6.55-7.45-13.76-14.69-16.11-3.51-1.14-7.66-1-10.75,1.16s-4.48,5.67-5.42,9.1a1.3,1.3,0,0,0,2.5.68"/><path class="cls-3" d="M280,391.18c4.74,6,11.25,10.73,17.65,14.94,4.5,3,13.89,9.45,19.71,7.41,7.6-2.67,1.29-10.58-2.16-13.29,5.14,4,12.65,5.48,19.11,4.52,7.28-1.08,10.25-11.11,3.88-15.49,6,4,23.94-.29,19.07-10-2.83-5.66-12.23-7.62-17.78-8.16-4.34-.42-13.43,2.75-5.16,6.44-5.4-1.75-18.86,5.94-10.77,10.74-6.59-8.28-26.23,3.88-18.3,9-3.3-6.67-14.44-10.55-21.49-10.35-1.75,0-8.2,1.54-3.76,4.33"/><path class="cls-3" d="M344.61,319.64c2.81,5.63,3.23,13.32,8.18,17.92,8.66,8,6.82-15.94,5.85-19.7,2.37,1.64,4.13,5.24,6.94,6.67,4.87,2.47,6-3.39,5.82-7.3-.17-3.37-1.95-14.25-6.9-14-4,.23-2.06,7.3-1.24,9.56-1.37-3.05-4.55-4-7.14-1.66-2.32,2.06-2,5.57-1.33,8.27-3.8-5.44-9.8-3.15-10.18.22"/><path class="cls-3" d="M307.83,445.48c-3.93,6.47-4.32,16.38-4,23.84.14,3.53.18,7.82,2.09,10.94,3,4.9,7.14.6,9.41-2.9,3.32-5.11,4.58-12.5,5.17-18.45-.09,6,2.52,20.12,11.61,15.18,8.17-4.44,8-19.49,6.08-27.34,4.17,6.81,9,22,20,18.28,13.35-4.53,2.77-19.88-.86-27.49,3.77,7.52,14.76,12.27,22.51,7.95,8.33-4.64,7.3-16.13,0-21.13,3.45,3.63,6.9,6.81,12.17,6.48s10.43-3.61,9.21-9.49c-1.26-6.05-7.24-11.3-12.76-13.46-2.15-.84-5.89-2.19-8-.53-2.34,1.85-1.23,5.42.69,7.16-3.92-1.88-12.46,2.19-9.26,7.26-2.53-2.4-7.33,1-8.76,3.29s-1,5.36-.68,8c-1.82-3.88-4.69-7-9.51-5.28-5.24,1.85-5.42,8.16-4.1,12.69-1.49-2.87-9.38-7.25-9.73-1.78-1.68-3.2-5.06-3-7.31-.38-2.87,3.32-2.3,8.27-2.38,12.27-1.35-2.09-2-4.33-4.59-3.07-1.85.9-2.44,3.5-2.6,5.35-3.82-6.41-8.56-.88-8.85,4.64.64-3,.85-11.24-2.38-13.18-1.2-.72-2.51-1-3.13,1.16"/><path class="cls-5" d="M307.12,451.51c-1.49,8.78-4.34,17.46-1.19,26.29,1.54,4.32,4.88,7.29,9,3.53,2.7-2.48,3-8.37,3.9-11.82-3.74,8-6.84,3.44-8.33-3.13-1.26-5.54-2.83-11.38-3.34-14.87"/><path class="cls-5" d="M323.49,450.22c-5.25,9.26,3,33.4,14.41,20.14-5.43-1.36-8.35-.56-10.92-6.56a54.77,54.77,0,0,1-3.49-13.58"/><path class="cls-5" d="M342.89,441.17c-5.76-3.38-3.55,7.49-2.58,9.92a29.37,29.37,0,0,0,7.74,10.74c3.22,3,7.51,6.56,11.74,3.5,4.69-3.4,4.46-11.08,1.28-15.3.43,7-3.56,13.44-10.9,8.7s-9.24-11.51-7.28-17.56"/><path class="cls-5" d="M358.4,430.83c-4.94,6.26,9.9,17.15,15.32,16.77,8.48-.6,15.13-9.68,10.89-17.6-2.23,1.64-1.51,5.74-3.46,8.16-2.85,3.52-7.82,3.86-11.95,2.78-3.23-.85-6.51-2.37-8.12-5.47-1.18-2.28.11-7.17-2.68-4.64"/><path class="cls-5" d="M380,416.17c-2.39,5,7.43,14.94,12.5,14.67,7.41-.4,11.81-13.9,3.52-15-1.05,4.47,4,9.53-3.52,10.28-6.21.62-11.87-6-12.5-9.91"/><path class="cls-8" d="M286.29,363c4.81,6.85,16.91,2.83,23,.43,7.27-2.87,11.92-8.72,15-15.91,3.71-8.78,5.07-16.41,1.71-25.35-2.23-5.94-7.65-21.56-17.24-17.67-3.38,1.37-2.67,3.09-3.42,6-2,7.78-1.54,15.43-5,23-4,8.72-15.7,17.18-14,29.51"/><path class="cls-9" d="M290.31,300.39c-29.06.14-37.58,29.65-32.21,54,1.17,5.32,12.94,28.59,21.6,23.25,2.1-1.29,1.84-8.33,2.71-10.62,1.51-4,4.64-7.3,7.35-10.49,5.6-6.57,11.58-11.75,15.94-19.38,8.57-15,5.81-46.43-15.39-36.77"/><path d="M579.09,318.41a264.83,264.83,0,0,1-410.36,221.4A267.08,267.08,0,0,1,109.9,487,263.62,263.62,0,0,1,50.1,339a267.39,267.39,0,0,1,6.74-83.58A264.77,264.77,0,0,1,283.6,55.25a268.25,268.25,0,0,1,83.62,3.57A264.92,264.92,0,0,1,576,277.63a267.75,267.75,0,0,1,3.1,40.78c0,3.78,5.88,3.79,5.88,0A270.82,270.82,0,0,0,63.5,216a269.54,269.54,0,0,0-19.25,81.4,272.65,272.65,0,0,0,6.84,85.16A270.59,270.59,0,0,0,282.87,587.36a273.06,273.06,0,0,0,85.56-3.62,270.45,270.45,0,0,0,141.65-78.39A272.05,272.05,0,0,0,556.7,439a268.79,268.79,0,0,0,25.07-79,277.35,277.35,0,0,0,3.2-41.61c0-3.78-5.87-3.79-5.88,0"/><path d="M508.43,318.41A194.23,194.23,0,0,1,164.34,442a193.28,193.28,0,0,1-43.79-108.51,196.08,196.08,0,0,1,4.93-61.17A194.13,194.13,0,0,1,291.72,125.45a196.6,196.6,0,0,1,61.46,2.64,193.22,193.22,0,0,1,55.52,20.59,193.71,193.71,0,0,1,99.73,169.73c0,3.33,5.18,3.33,5.17,0A199.4,199.4,0,1,0,120.43,365.6a198.27,198.27,0,0,0,23.15,56,199.58,199.58,0,0,0,210.69,92.12,199.25,199.25,0,0,0,157-164.56,203.6,203.6,0,0,0,2.38-30.8c0-3.33-5.16-3.34-5.17,0"/><path class="cls-2" d="M139.58,163.23a13.1,13.1,0,1,1-18.41,2.08,13.11,13.11,0,0,1,18.41-2.08"/><path d="M138.21,164.6A11.37,11.37,0,0,1,142,176.89a11.17,11.17,0,0,1-21,.7,11.18,11.18,0,0,1,17.18-13,2,2,0,0,0,2.74,0,2,2,0,0,0,0-2.74,15,15,0,0,0-24.25,14.67A15,15,0,1,0,141,161.86a2,2,0,0,0-2.74,0,2,2,0,0,0,0,2.74"/><path class="cls-2" d="M83.35,358.5a13.1,13.1,0,1,1-9.85,15.68,13.1,13.1,0,0,1,9.85-15.68"/><path d="M83.87,360.37a11.16,11.16,0,1,1-8.76,11.31,11.25,11.25,0,0,1,8.76-11.31c2.42-.59,1.4-4.33-1-3.74A15,15,0,1,0,100,365.15a15.19,15.19,0,0,0-17.15-8.52c-2.44.52-1.41,4.26,1,3.74"/><path class="cls-2" d="M201,524.21a13.1,13.1,0,1,1,6.12,17.48A13.1,13.1,0,0,1,201,524.21"/><path d="M202.64,525.19a11.16,11.16,0,1,1,3.45,13.66,11.34,11.34,0,0,1-3.45-13.66,2,2,0,0,0-.7-2.66,2,2,0,0,0-2.65.7,15,15,0,0,0,19.78,20.3,15,15,0,1,0-19.78-20.3c-1.11,2.23,2.24,4.19,3.35,2"/><path class="cls-2" d="M403.85,535.57a13.1,13.1,0,1,1,17.48,6.12,13.09,13.09,0,0,1-17.48-6.12"/><path d="M405.52,534.59a11.17,11.17,0,1,1,12.84,6.13,11.26,11.26,0,0,1-12.84-6.13c-1.11-2.23-4.46-.27-3.35,2a15,15,0,1,0,4.39-18.62,15.14,15.14,0,0,0-4.39,18.62,2,2,0,0,0,2.66.7,2,2,0,0,0,.69-2.66"/><path class="cls-2" d="M539.23,384a13.1,13.1,0,1,1,15.68-9.86A13.1,13.1,0,0,1,539.23,384"/><path d="M539.74,382.17a11.15,11.15,0,0,1-2.55-20.9,11.17,11.17,0,1,1,2.55,20.9c-2.43-.52-3.47,3.21-1,3.74a15.3,15.3,0,0,0,16-6.36,15,15,0,1,0-16,6.36c2.43.59,3.46-3.15,1-3.74"/><path class="cls-2" d="M505.16,183.71a13.1,13.1,0,1,1,2.08-18.4,13.1,13.1,0,0,1-2.08,18.4"/><path d="M503.79,182.34A11.18,11.18,0,1,1,507,168.45a11.28,11.28,0,0,1-3.18,13.89,1.94,1.94,0,1,0,2.74,2.74A15,15,0,1,0,487.3,185a15.11,15.11,0,0,0,19.23.13,1.94,1.94,0,0,0,0-2.74,2,2,0,0,0-2.74,0"/><g class="cls-10"><g class="cls-11"><path class="cls-12" d="M313,537.35a27,27,0,0,0,22,11.06,19.32,19.32,0,0,1-8-10.47A52,52,0,0,0,359,542.56a40.67,40.67,0,0,1-10.75-9,33.58,33.58,0,0,0,26.49,0c-12-6.11-17.07-21.86-29.46-27.2-5.79-2.5-12.45-2.29-18.55-.67-6.41,1.7-17.05,4.47-18.36,11.63A26.8,26.8,0,0,0,313,537.35"/></g></g><g class="cls-10"><g class="cls-13"><path class="cls-12" d="M425.14,508.72A38.51,38.51,0,0,1,418,497.91a24.33,24.33,0,0,0,24.89-.22l-12-11a22.43,22.43,0,0,0,26.94-1.59c-8.08-1-11.11-12.72-19.09-14.3-3.28-.65-6.6.63-9.65,2-8.23,3.76-26.65,11.62-29,21.49-2.72,11.49,17.1,16.24,25,14.44"/></g></g><path d="M390.24,358.74A408.69,408.69,0,0,0,380.5,305c-3.91-16-9.27-31.66-17.9-45.78-7.75-12.68-17.89-23.71-31.53-30.05-12.43-5.78-26.39-7.45-39.94-5.73-29.77,3.78-61.63,22.1-71,52.09-4.84,15.41-2.73,32.4,2.09,47.54,5.05,15.91,14.25,29.65,21.8,44.39a102.06,102.06,0,0,1,8.94,24.32c1.94,8.69,3,17.55,5,26.25,3,13.56,8.92,27.62,20.7,35.84a33.29,33.29,0,0,0,9,4.36c2.19.69,3.14-2.76.95-3.45-13.15-4.15-21-17-25-29.48-5-15.75-5.19-32.61-11.21-48.08-5.81-15-15.29-28.07-21.91-42.64-6.41-14.1-10.42-30-9.25-45.56,2.44-32.15,31.68-53.23,60.87-60.3,12.89-3.12,26.58-3.34,39.34.53,13.36,4.06,24.52,12.58,32.76,23.75,9.39,12.71,15.8,27.35,20.19,42.47A380.7,380.7,0,0,1,385,345.65q1,6.53,1.66,13.09c.24,2.26,3.82,2.29,3.57,0"/><path d="M266.21,438.3c-5.79,9-9,19.67-7.75,30.37,1.45,12.36,8.25,23.14,17.2,31.53a102.87,102.87,0,0,0,23.5,16.06c2,1,3.86-2,1.81-3.08-12.82-6.6-25.44-15.35-33-27.92a40.55,40.55,0,0,1-5.26-29.71,47.42,47.42,0,0,1,6.61-15.44c1.25-1.94-1.84-3.74-3.08-1.81"/><path d="M279.31,455.15a84.3,84.3,0,0,0,20.93,59.05c1.52,1.73,4-.8,2.53-2.52a80.72,80.72,0,0,1-19.89-56.53c.1-2.3-3.47-2.29-3.57,0"/><path class="cls-5" d="M295.05,404.54c6.27,2,10.07,8.08,17.24,9,11.35,1.51,9.34-6,3.91-12.66,3.73,4.81,14.63,5.09,19.44,2.88,6.42-2.94,9.08-12.74.3-15.49.11,2.29,1.65,4.4.84,6.86-1.13,3.45-5.41,5-8.58,5.1-6.74.29-12.66-3.32-18.89-4.19.92,2.37,5.71,7.17,4.5,9.93-2,4.56-18.39-1.4-18.76-1.45"/><path class="cls-5" d="M342,389.88c5.21,2.79,15.17.58,15.52-6.21.33-6.51-6.78-10.6-12.57-10.22,1.41,3.75,9,5.49,8.26,10.4s-10.6,6.58-11.21,6"/><path class="cls-5" d="M346.33,324.81c1.37,3.37,6.31,15.4,11.23,12.28,4.53-2.87,2.05-15,.09-18.53-1.11,3.06,1,8.83-1.65,11-3.33,2.65-8.12-2.65-8.37-6"/><path class="cls-5" d="M361,317.91c2.71,5.71,10.4,8.86,12.09.85,1.3-6.19-3-14.57-8.23-17.62-.29,1.36,6,22.79-3.86,16.77"/><path d="M280.3,393.27a86.72,86.72,0,0,0,28.62,20.8c4,1.78,9.75,3,12.79-1.24,3.21-4.46-.94-9.39-4.24-12.29l-1.57,2c6.83,3.48,15.61,7.13,22.71,2.15,5.11-3.58,6.27-11.58.82-15.44l-1,2.37c6.28,2.1,14.38,3.32,19.24-2.38,3.58-4.21,2.56-11.07-2.79-13.19-1.55-.61-2.22,1.89-.68,2.49,4.88,1.94,3.16,8.34-.34,10.61-4.49,2.91-10.05,1.55-14.74,0-1.48-.49-2.13,1.57-1,2.36a6.27,6.27,0,0,1,2.19,6.45,8.16,8.16,0,0,1-5.51,5.83c-6.05,2.21-12.26-.72-17.6-3.45-1.24-.64-2.72,1-1.57,2,2.85,2.51,7.8,8.66,1.53,10.56-4.38,1.33-9.85-2.35-13.53-4.41a85.93,85.93,0,0,1-21.51-17.08c-1.13-1.23-2.95.6-1.83,1.83"/><path d="M386.91,359.64a68.37,68.37,0,0,0,14.87,18.82c5.81,5.26,12.19,9.83,18.23,14.8a98.46,98.46,0,0,1,28,36.52,95.5,95.5,0,0,1,7.06,25c.33,2.27,3.77,1.3,3.45-1A99,99,0,0,0,426.33,394c-5.86-5.2-12.26-9.76-18.27-14.78-7.32-6.1-13.58-12.87-18.06-21.34-1.08-2-4.16-.23-3.09,1.8"/><path class="cls-2" d="M305,267.45c-3.11,3-3.75,7.73-3.35,12a24.2,24.2,0,0,0,4,11.76,16,16,0,0,0,10.23,6.71c7,1.12,14.17-3.94,16.32-10.69s-.33-14.49-5.36-19.48c-3.36-3.33-8-5.61-12.74-5.2s-9.49,2.94-11,7.47"/><path d="M303.69,266.18c-5.75,5.85-4.58,16-1.39,22.85,3.41,7.3,11.32,12.51,19.48,10.32a17.88,17.88,0,0,0,13-16.76,22.4,22.4,0,0,0-11.1-19.47c-7.63-4.36-19-2.48-22.32,6.45-.81,2.16,2.64,3.09,3.44.95,2.32-6.22,10.71-7.43,16.07-4.85a18.76,18.76,0,0,1,10.28,15.07,14.41,14.41,0,0,1-8.37,14.49c-6.19,2.76-12.82-.38-16.22-5.9s-5.36-15.48-.3-20.62c1.62-1.64-.91-4.17-2.53-2.53"/><path d="M307.78,307.05a34.83,34.83,0,0,1,1.83,21c-1.68,7.42-5.74,13.37-11.09,18.67s-11.3,10-15.39,16.39a19.74,19.74,0,0,0-3.19,7.68c-.21,1.31-.36,2.64-.62,4-.11.56-.25,2.19-.8,2.48-2,1.1-.22,4.19,1.81,3.09,3.17-1.71,2.62-7.3,3.36-10.27,1.46-5.83,6.8-10.79,11-14.78,4.51-4.27,9.24-8.37,12.8-13.5a37.06,37.06,0,0,0,6.19-16.34,37.65,37.65,0,0,0-2.45-19.3c-.86-2.1-4.33-1.18-3.45.95"/><path d="M279.17,377c-15.64-5.59-21.26-23.65-19.89-38.79a78,78,0,0,1,2.76-14.1,34,34,0,0,1,3.47-9,17,17,0,0,1,5.56-5.1,85.34,85.34,0,0,1,11-5.8c8.09-3.54,18.86-5,25.23,2.52,1.49,1.76,4-.78,2.53-2.53-5.7-6.73-15.32-7.63-23.36-5.37a68.57,68.57,0,0,0-14.14,6.3A29.93,29.93,0,0,0,264.2,311a22.68,22.68,0,0,0-4.3,7.95,85.55,85.55,0,0,0-3.63,14.72c-1.45,9.35-1,18.92,2.7,27.71s10.29,15.89,19.25,19.1c2.17.78,3.11-2.68.95-3.45"/><path class="cls-8" d="M329.58,500.1c-10.18.2-19.58,8.6-20.91,18.7s5.58,20.65,15.37,23.47c-6.24-7.52-5.69-19.77,1.2-26.7"/><path d="M329.58,498.31c-11.09.39-21.2,9.14-22.66,20.25s6,22.2,16.64,25.44c1.87.56,2.77-1.71,1.74-3-5.58-7-4.94-17.79,1.2-24.18,1.59-1.66-.93-4.19-2.53-2.53a22.51,22.51,0,0,0-1.2,29.24l1.74-3c-8.92-2.72-15.29-12.17-14.07-21.51s9.83-16.83,19.14-17.15c2.3-.08,2.31-3.66,0-3.58"/><path class="cls-8" d="M343.05,501.81c-.65-4-6-5.89-9.68-4.26s-5.92,5.57-7.08,9.47a26.42,26.42,0,0,0,1.5,19.63c3.12,6,9.26,10.43,16,10.86-2.47-3.38-5-6.85-6.09-10.88s-.55-8.79,2.48-11.67"/><path d="M344.77,501.34c-1.12-5.34-7.68-7.44-12.3-5.33-5.77,2.63-8.15,9.55-8.91,15.38-1.69,13.06,6.26,26.78,20.21,27.9a1.79,1.79,0,0,0,1.54-2.69c-3.93-5.4-9.95-14.22-3.89-20.37,1.62-1.64-.91-4.17-2.53-2.53a13.28,13.28,0,0,0-3.33,11.49c.74,5,3.76,9.23,6.66,13.22.52-.9,1-1.8,1.55-2.69-10.62-.86-17.09-11.08-16.89-21.06.1-4.69,1.29-10.3,4.72-13.73,2.68-2.68,8.74-3.34,9.73,1.36.47,2.25,3.92,1.29,3.44-1"/><path class="cls-8" d="M360.12,502.22a9.34,9.34,0,0,0-9.59-5,11.87,11.87,0,0,0-8.84,6.75,16.45,16.45,0,0,0-.76,11.32,18.71,18.71,0,0,0,7.27,10.51,15.94,15.94,0,0,0,12.42,2.51,26.55,26.55,0,0,1-10.11-12.15c-.44-1.06-.77-2.4,0-3.26s2.32-.64,3.57-.67a5.71,5.71,0,0,0,4.57-8.93"/><path d="M361.67,501.32a11.15,11.15,0,0,0-9.85-6c-4.37,0-8.36,2.57-10.75,6.1-5.34,7.87-2,19.43,5.08,25A18,18,0,0,0,361.09,530c1.6-.34,1.63-2.48.43-3.27a24.54,24.54,0,0,1-6.53-6.2,27.27,27.27,0,0,1-2.35-4,6.85,6.85,0,0,1-.75-1.94c-.1-.83.35-.66,1.11-.65,2.82,0,5.42-.83,7.1-3.24a7.66,7.66,0,0,0,.09-8.37c-1.21-1.95-4.3-.15-3.09,1.81a4,4,0,0,1-3.45,6.24c-1.38,0-2.74-.07-3.92.78a3.87,3.87,0,0,0-1.37,3.91c.48,2.93,2.47,5.87,4.26,8.19a29,29,0,0,0,7.1,6.53l.42-3.27c-9.66,2-18-6.65-18.07-16,0-4.48,2.08-9,6.29-10.91a7.75,7.75,0,0,1,10.22,3.45c1,2.07,4.1.26,3.09-1.8"/><path class="cls-8" d="M410.5,465.64c-9.65,3.28-16.05,14.14-14.25,24.17s11.59,18,21.77,17.69c-8.23-5.27-11.43-17.11-7-25.8"/><path d="M410,463.92c-10.38,3.7-17.3,14.81-15.59,25.8,1.74,11.16,12.41,19.71,23.59,19.57a1.8,1.8,0,0,0,.9-3.33,18.83,18.83,0,0,1-6.33-23.36c1-2.06-2.07-3.87-3.08-1.81a22.49,22.49,0,0,0,7.61,28.26l.9-3.33c-9.45.11-18.39-7-20-16.39-1.61-9.14,4.34-18.87,13-22,2.15-.76,1.23-4.22-1-3.44"/><path class="cls-8" d="M423.84,463.18c-1.83-3.63-7.46-3.81-10.51-1.12s-3.95,7.1-3.87,11.17a26.46,26.46,0,0,0,7.38,18.25c4.8,4.73,12,7.13,18.53,5.49-3.37-2.47-6.82-5-9.11-8.51s-3.19-8.21-1.18-11.87"/><path d="M425.39,462.28c-2-3.62-6.64-4.62-10.37-3.24-4.41,1.64-6.56,6.19-7.14,10.59-1.32,9.95,3.16,21,11.83,26.34a21.52,21.52,0,0,0,16.13,2.72c1.64-.38,1.59-2.42.43-3.26-5.26-3.85-13.47-10.43-9.64-17.94,1-2-2.05-3.86-3.09-1.8a13.58,13.58,0,0,0,.75,13c2.4,4.17,6.38,7.07,10.18,9.86.14-1.09.28-2.18.43-3.27-10.56,2.47-19.93-5.5-22.66-15.28-1.24-4.43-1.77-10.05.48-14.27a6.56,6.56,0,0,1,4.85-3.64,4.5,4.5,0,0,1,4.73,2c1.12,2,4.21.21,3.09-1.8"/><path class="cls-8" d="M440.24,458.39a9.34,9.34,0,0,0-10.66-1.87,11.9,11.9,0,0,0-6.38,9.12,16.46,16.46,0,0,0,2.72,11,18.69,18.69,0,0,0,10.11,7.8,15.94,15.94,0,0,0,12.6-1.38,26.45,26.45,0,0,1-13.32-8.5c-.75-.88-1.46-2.06-1-3.11s2-1.31,3.19-1.72a5.71,5.71,0,0,0,1.64-9.9"/><path d="M441.5,457.12a11.12,11.12,0,0,0-11.47-2.7,13.26,13.26,0,0,0-8.21,9.12c-2.53,9.13,3.95,18.79,12.3,22.14a17.9,17.9,0,0,0,15.41-1.06,1.8,1.8,0,0,0-.43-3.26,25.43,25.43,0,0,1-8.35-4.07,24.47,24.47,0,0,1-3.3-3c-.41-.44-1.22-1.13-1.36-1.74s.07-.54.71-.75c2.78-.92,5.05-2.33,6-5.28a7.57,7.57,0,0,0-2.38-8c-1.75-1.48-4.29,1-2.53,2.52,2.32,2,2.17,5.68-.85,6.91-1.21.49-2.5.62-3.5,1.55a3.73,3.73,0,0,0-.82,4.21c1.13,2.81,4.19,5.15,6.59,6.86a28.46,28.46,0,0,0,8.84,4.17c-.14-1.09-.28-2.18-.43-3.27-8.59,4.9-19.29-.75-22.15-9.72-1.35-4.22-.76-9,2.57-12.18a7.73,7.73,0,0,1,10.83,0c1.59,1.67,4.12-.86,2.53-2.53"/><path class="cls-14" d="M307.58,293.66a11.18,11.18,0,0,0,7.25,4.23c4.82.49,9.29-3.54,10.23-8.45,1.41-7.42-4-15.21-11-17-6.18-1.6-11,1.88-11,8.63a21,21,0,0,0,4.45,12.58"/><path class="cls-2" d="M218.86,303c-3.11,3-3.75,7.74-3.35,12a24.17,24.17,0,0,0,4,11.75,16,16,0,0,0,10.23,6.71c7,1.12,14.17-3.94,16.32-10.69s-.33-14.49-5.36-19.47c-3.36-3.33-8-5.61-12.74-5.21s-9.49,2.95-11,7.48"/><path d="M217.59,301.76c-5.76,5.85-4.58,16-1.39,22.85,3.41,7.29,11.32,12.5,19.48,10.31a17.87,17.87,0,0,0,13-16.76,22.41,22.41,0,0,0-11.1-19.47c-7.63-4.36-19-2.48-22.33,6.45-.8,2.16,2.65,3.09,3.45.95,2.32-6.22,10.71-7.43,16.07-4.85A18.79,18.79,0,0,1,245,316.32a14.43,14.43,0,0,1-8.37,14.49c-6.19,2.76-12.82-.39-16.22-5.91s-5.36-15.48-.3-20.61c1.62-1.65-.91-4.18-2.53-2.53"/><path class="cls-14" d="M221.18,328.85a11.23,11.23,0,0,0,7.07,4.35c4.53.51,8.42-3.61,8.94-8.65.79-7.6-4.87-15.6-11.46-17.44-5.88-1.65-10.15,1.91-9.62,8.84a24.5,24.5,0,0,0,5.07,12.9"/><path d="M285.5,365c5.68,4.12,13.12,5,19.81,3.18s12.35-6.48,16.28-12.19c8.39-12.17,10.1-30,1.83-42.7a30,30,0,0,0-18.36-13.07c-2.25-.5-3.2,2.95-1,3.45,13,2.86,20.91,15.27,21.11,28.09.19,12.39-5.89,26.73-17.85,31.93a20.41,20.41,0,0,1-20.06-1.78c-1.86-1.36-3.65,1.75-1.8,3.09"/><path class="cls-6" d="M259,265.43c-10.12-26.29,1.11-51.24,10-61.63a61.09,61.09,0,0,1,34.78-20.15,41.33,41.33,0,0,0-22.27,22.8,50,50,0,0,1,45.26-19.72A55.44,55.44,0,0,0,293,215.29c4.79-5.23,9.67-10.54,15.75-14.21s13.61-5.54,20.36-3.35a43.35,43.35,0,0,0-24.51,27.13C282.54,226,262.44,243,259,265.43"/><path d="M260.72,265a61.46,61.46,0,0,1,.14-43.25,55.64,55.64,0,0,1,21.79-27.58,60.25,60.25,0,0,1,21.58-8.75l-1.38-3.27A43.46,43.46,0,0,0,279.76,206c-.82,2,2.16,2.86,3.26,1.38a48.46,48.46,0,0,1,43.72-18.84l-.48-3.51a57.55,57.55,0,0,0-34.8,29.38c-.85,1.73,1.36,3.75,2.81,2.17,8.63-9.42,20.21-21.41,34.38-17.1-.15-1.09-.29-2.18-.43-3.27a45.33,45.33,0,0,0-25.33,28.2l1.72-1.31C281.56,224.37,261,242,257.27,265c-.36,2.26,3.08,3.22,3.45.95,3.44-21.39,22.31-38,43.89-39.25a1.83,1.83,0,0,0,1.73-1.31A41.89,41.89,0,0,1,330,199.28c1.5-.64.9-2.87-.43-3.27-15.54-4.72-28.3,7.58-37.86,18l2.81,2.17a54,54,0,0,1,32.67-27.75,1.8,1.8,0,0,0-.48-3.51,52,52,0,0,0-46.8,20.61l3.26,1.38a40.08,40.08,0,0,1,21.45-21.74c2-.84.49-3.63-1.37-3.26-14,2.73-27.41,10.38-36.38,21.58-7.87,9.85-12.38,22.53-13.46,35a62.28,62.28,0,0,0,3.83,27.37c.8,2.14,4.26,1.21,3.45-.95"/><path d="M306,449a97.16,97.16,0,0,0-2.25,20c0,4.65-.42,11,3.38,14.53s7.52-.16,9-3.74a143.57,143.57,0,0,0,6.27-19.31l-2.53-.35c0,4.57.15,9.77,3.33,13.41,2.62,3,7.21,4.61,10.77,2.25,3.77-2.49,5.06-8,5.84-12.12a41.45,41.45,0,0,0-.36-16.75l-2.16,1.26c3.91,4.86,5.52,11.39,10.19,15.67,3.51,3.23,9.07,5.44,13.57,2.84s5.07-8.06,4.17-12.61c-1.22-6.17-5.9-11.12-6.48-17.47l-2.54.35c4.25,10.08,16.58,15.93,26.05,8.71a13.16,13.16,0,0,0,5.24-12.74,12.81,12.81,0,0,0-9.34-10.36c-1.16-.28-2.33,1.29-1.26,2.16,6.33,5.14,16.08,11.59,23.72,4.79,3.33-3,3.63-7.69,1.95-11.61-1.94-4.52-6.14-7.37-10.1-10-1.39-.93-2.68,1.31-1.3,2.23,3.3,2.19,6.89,4.51,8.74,8.15,1.7,3.33,1.57,7.54-1.71,9.85-6.64,4.67-14.35-1.09-19.47-5.25L377.45,425a10.27,10.27,0,0,1,7.49,8.28,10.7,10.7,0,0,1-5,10.79c-7.94,5.26-17.82.3-21.26-7.86-.51-1.2-2.69-1.26-2.54.34.47,5.26,3.31,9.53,5.34,14.27,1.7,4,2.83,10.27-1.26,13.25-4.3,3.15-10.18-.65-12.83-4.21-3.19-4.27-4.93-9.4-8.29-13.57-.86-1.08-2.42.11-2.16,1.26a38.54,38.54,0,0,1,.72,13c-.44,3.74-1.28,8.18-3.45,11.33-2.41,3.49-6.68,2.79-9.2-.21s-2.55-7.72-2.58-11.58a1.3,1.3,0,0,0-2.54-.34c-1.31,5-2.82,9.93-4.57,14.79-.77,2.16-1.41,5.21-3.13,6.85s-3.62.35-4.56-1.49c-2-4-1.44-9.51-1.28-13.83a94.26,94.26,0,0,1,2.1-16.39c.35-1.62-2.15-2.31-2.5-.69"/><path d="M345.41,324.37a36.28,36.28,0,0,0,5.17,11c1.74,2.49,4.47,6.5,8.05,5.37,3.05-1,3.33-4.84,3.31-7.49-.05-4.82-.25-9.64-.55-14.44l-2.41.65c1.89,2.88,4,6,7.39,7.21,3,1.09,6.64.44,8.4-2.42s1.12-6.8.18-9.86a24.21,24.21,0,0,0-5.88-9.77c-1.16-1.18-3,.64-1.82,1.83a21.46,21.46,0,0,1,4.75,7.31c.91,2.36,1.69,5.22,1.11,7.74-.67,2.88-3.52,3.67-6.05,2.68s-4.35-3.74-5.85-6c-.66-1-2.49-.7-2.41.66q.34,5.4.49,10.82c0,1.63.13,3.27.06,4.9,0,1.05-.14,2.74-1,3.47-2.2,1.79-5.54-3.92-6.44-5.35a34.12,34.12,0,0,1-4-9,1.3,1.3,0,0,0-2.5.69"/><path class="cls-15" d="M284.91,314.49a11.44,11.44,0,0,1,8-1.12,13.87,13.87,0,0,0,3,.6,2.59,2.59,0,0,0,2.5-1.5,2.29,2.29,0,0,0-.4-2,4.72,4.72,0,0,0-1.67-1.33,10.68,10.68,0,0,0-12.49,2.24,2.77,2.77,0,0,0-.92,2.09c.09.78,1.07,1.43,1.69.95"/><path d="M286.22,316.72l.59-.3c.39-.19-.3.11.11-.05a11.53,11.53,0,0,1,1.13-.38c.34-.09.69-.16,1-.23.53-.1.22,0,.1,0,.26,0,.53-.05.79-.06a9.42,9.42,0,0,1,1.19,0c.06,0,.61.05.32,0s.5.09.44.08c.83.16,1.63.44,2.46.58a6,6,0,0,0,5.44-1.41,4.66,4.66,0,0,0,.42-5.85c-1.85-2.65-5.55-3.74-8.66-3.71a13.56,13.56,0,0,0-8.53,3.12c-1.56,1.27-2.95,3.12-2.66,5.24a3.77,3.77,0,0,0,5.54,2.84,2.58,2.58,0,0,0-2.61-4.46c.83-.51,2.33,0,2.17,1.16-.05.35-.11.31.08,0s0,0-.05,0l.3-.34.56-.53c.07-.07.54-.44.33-.29s.38-.25.45-.3l.66-.38.59-.29-.11,0,.41-.16a10.83,10.83,0,0,1,1.38-.38c.19,0,.8-.12.28-.07l.66-.06a13.19,13.19,0,0,1,1.54,0c.51,0-.33-.08.18,0l.75.16a8.19,8.19,0,0,1,1.35.44c-.47-.2.14.08.29.16s.41.24.61.38,0,0-.05,0a3,3,0,0,1,.25.25c.28.3-.25-.25,0,.06s-.17-.18,0-.17,0-.08,0-.11V312a2,2,0,0,1,0-.35,1.42,1.42,0,0,1,.21-.33c-.06.08-.39.32,0,0,0,0-.35.17-.07.05s0,0-.08,0-.41.07-.07,0-.16,0-.22,0c-.29,0-.09,0,0,0a3.66,3.66,0,0,1-.56-.1l-.82-.21a17.29,17.29,0,0,0-1.87-.4,14.49,14.49,0,0,0-8.91,1.56,2.6,2.6,0,0,0-.93,3.54,2.64,2.64,0,0,0,3.54.93"/><path class="cls-2" d="M225.42,309.7l-.16,0-.28.13a.43.43,0,0,0-.12.05l-.13.05-.17.14a1.56,1.56,0,0,0-.85.21l-.37.28a1.8,1.8,0,0,0-.48.79,1.64,1.64,0,0,0-.09.44,2.1,2.1,0,0,0-.05.43,3.07,3.07,0,0,0,.34,1.26,3.7,3.7,0,0,0,.48.69,3,3,0,0,0,.35.36,4.89,4.89,0,0,0,2.47,1.27,2.8,2.8,0,0,0,1,0,2.09,2.09,0,0,0,.76-.3,2.72,2.72,0,0,0,.87-.85.54.54,0,0,0,.05-.11,4,4,0,0,0,.21-.47,2.55,2.55,0,0,0,.11-.68,3.34,3.34,0,0,0-.44-1.72,6.21,6.21,0,0,0-.51-.72,4.17,4.17,0,0,0-.34-.38l-.09-.06,0,0-.07,0a3.19,3.19,0,0,0-.6-.44c-.07,0-.14,0-.21-.05a3.14,3.14,0,0,0-.39-.24,1.59,1.59,0,0,0-.37-.06,2.35,2.35,0,0,0-.37-.05,3.55,3.55,0,0,0-.57.06"/><path class="cls-2" d="M309.64,274.13l-.16,0-.28.13a.43.43,0,0,0-.12.05l-.12,0a1.24,1.24,0,0,0-.18.14,1.55,1.55,0,0,0-.85.2l-.37.28a1.83,1.83,0,0,0-.48.8,1.57,1.57,0,0,0-.09.43,2.2,2.2,0,0,0-.05.44,3.12,3.12,0,0,0,.34,1.26,3.7,3.7,0,0,0,.48.69,2.32,2.32,0,0,0,.35.35,4.91,4.91,0,0,0,2.47,1.28,2.86,2.86,0,0,0,1.05,0,2.09,2.09,0,0,0,.75-.29,2.72,2.72,0,0,0,.87-.85.54.54,0,0,0,.05-.11,4.84,4.84,0,0,0,.21-.47,2.61,2.61,0,0,0,.11-.68,3.34,3.34,0,0,0-.44-1.72,6.34,6.34,0,0,0-.51-.73,4,4,0,0,0-.34-.37l-.09-.06,0,0-.07,0a2.8,2.8,0,0,0-.6-.44,1.6,1.6,0,0,0-.21-.05,3.14,3.14,0,0,0-.39-.24,2.41,2.41,0,0,0-.37-.07,2.33,2.33,0,0,0-.37,0,3.55,3.55,0,0,0-.57.06"/><path class="cls-16" d="M283.7,321.36c-3.92,1.24-6,5-6.61,8.92-.5,3.11-1.07,9.07,1.33,11.63,4.93,5.27,16.4-12.48,16.78-17.25.52-6.77-8.07-5.22-11.5-3.3"/><path class="cls-16" d="M273.36,353c-2.34,2.77-3.8,12.55,2.3,9.56,3.9-1.92,3.67-10.45-1.44-9.84"/><path class="cls-9" d="M319,339.75a31.11,31.11,0,0,0-5.1,6.6c-1.65,3.27-1.11,6.9,3.23,5.19a8.73,8.73,0,0,0,5.05-6.33c.51-2.25.2-7.8-3.18-5.46"/><path class="cls-17" d="M261.73,96.93q4.06,3.36,7.59,6.18T276.2,109a1.59,1.59,0,0,1-.11,1.27,10.3,10.3,0,0,1-1,1.94,22.76,22.76,0,0,1-1.65,2.18,16.36,16.36,0,0,1-1.87,1.92,6,6,0,0,1-1.74,1.12,1,1,0,0,1-1.25-.14q-3.42-3.39-6.89-6.51t-6.56-6.4c-.06-.07,0,.38.27,1.37s.54,2.22.89,3.71.7,3.07,1,4.73.54,3.15.68,4.43c.08.33-.09.67-.52,1a6.49,6.49,0,0,1-1.62,1,12.86,12.86,0,0,1-2.22.72,9,9,0,0,1-2.35.28,5.59,5.59,0,0,1-2-.35,1.65,1.65,0,0,1-1.06-1.18c-.52-1.83-1.09-3.92-1.69-6.27s-1.23-4.78-1.87-7.33-1.25-5.12-1.85-7.7-1.15-5-1.64-7.33-.91-4.4-1.26-6.3-.58-3.42-.69-4.59a1.66,1.66,0,0,1,.73-1.2,11,11,0,0,1,1.85-1.21,16.9,16.9,0,0,1,2.43-1,15.91,15.91,0,0,1,2.53-.64,6.09,6.09,0,0,1,2,0,1.2,1.2,0,0,1,1,.74q.75,3.64,1.77,7.74t1.62,7.65a36.55,36.55,0,0,0,1.52-3.75c.59-1.63,1.21-3.35,1.88-5.17S258,80,258.69,78.22a48.35,48.35,0,0,1,2.08-4.62,1.4,1.4,0,0,1,1.8-.75,8,8,0,0,1,2.65,1.44,19.43,19.43,0,0,1,2.73,2.6A20.51,20.51,0,0,1,270,79.61c-.56,1.58-1.12,3.08-1.7,4.5s-1.18,2.81-1.82,4.2-1.36,2.79-2.15,4.19S262.68,95.38,261.73,96.93Z"/><path class="cls-17" d="M304.82,101.74a1.62,1.62,0,0,1,1.13.9,6.4,6.4,0,0,1,.77,2,16.35,16.35,0,0,1,.31,2.62,12.42,12.42,0,0,1-.15,2.63,6.25,6.25,0,0,1-.67,2,1.58,1.58,0,0,1-1.26.89l-4.92.41-6.28.53-6.37.53-5.19.44a2.16,2.16,0,0,1-1.74-.66,5.23,5.23,0,0,1-1.19-1.93,10.65,10.65,0,0,1-.59-2.56,11.73,11.73,0,0,1,0-2.65,6.44,6.44,0,0,1,.59-2.17,1.7,1.7,0,0,1,1.19-1,33.28,33.28,0,0,1,3.56-.36c1.17-.06,2.36-.14,3.56-.24l-.48-5.69-.51-6.06q-.25-3-.56-5.93t-.57-5.31l-3.45.51a10.65,10.65,0,0,1-3,0,1.65,1.65,0,0,1-1.14-.9,6.4,6.4,0,0,1-.76-2,14.82,14.82,0,0,1-.31-2.62,12.3,12.3,0,0,1,.15-2.63,5.78,5.78,0,0,1,.7-2,1.65,1.65,0,0,1,1.3-.89l22.69-1.91a2.14,2.14,0,0,1,1.74.67,5.45,5.45,0,0,1,1.19,1.89,10.66,10.66,0,0,1,.59,2.57,12.25,12.25,0,0,1,0,2.64,7.19,7.19,0,0,1-.57,2.14,1.61,1.61,0,0,1-1.16,1,22.3,22.3,0,0,1-3.48.38c-1.14,0-2.31.1-3.51.21q.23,2.66.51,5.68T297.5,91q.25,3,.53,5.93t.6,5.31l3.36-.5A10,10,0,0,1,304.82,101.74Z"/><path class="cls-17" d="M331.92,96.43a21.89,21.89,0,0,0,2.87,0c1.16-.08,2.31-.11,3.46-.09a13.73,13.73,0,0,1,3.08.38,2.49,2.49,0,0,1,1.8,1.31,21.18,21.18,0,0,1-2.5,7.35,17.6,17.6,0,0,1-4.29,5.07,15.52,15.52,0,0,1-5.4,2.81,14.7,14.7,0,0,1-5.79.51,13.75,13.75,0,0,1-5.46-1.86,13.9,13.9,0,0,1-4.45-4.24,18.72,18.72,0,0,1-2.72-6.64,28.05,28.05,0,0,1-.31-9,36.76,36.76,0,0,1,2.47-10A27.16,27.16,0,0,1,319,74.71a18.29,18.29,0,0,1,5.45-4.46,16.26,16.26,0,0,1,5.83-1.82,12.22,12.22,0,0,1,5.49.68,11,11,0,0,1,4.47,3.1A13.42,13.42,0,0,1,343,77.57a18.51,18.51,0,0,1,.26,7.55,2.81,2.81,0,0,1-1.76,2,10.29,10.29,0,0,1-3.2.85,11.91,11.91,0,0,1-3.33-.08,4.31,4.31,0,0,1-2.18-.82,13.06,13.06,0,0,0,.35-4.76,5.83,5.83,0,0,0-1.15-3,2.3,2.3,0,0,0-2.12-.84,4.23,4.23,0,0,0-2.55,1.74,17.19,17.19,0,0,0-2.49,4.68,38.63,38.63,0,0,0-1.92,8,26.46,26.46,0,0,0,0,6.62,9.67,9.67,0,0,0,1.25,3.8,2.53,2.53,0,0,0,2,1.29,3.24,3.24,0,0,0,2.27-.89,8.68,8.68,0,0,0,2.08-2.8A17.15,17.15,0,0,0,331.92,96.43Z"/><path class="cls-17" d="M371.11,74.21a21.91,21.91,0,0,1,4.59,1.61,9.37,9.37,0,0,1,3.46,2.9,12.64,12.64,0,0,1,2,4.92,29.76,29.76,0,0,1,.4,7.66,85.05,85.05,0,0,1-1.48,11.13q-1.23,6.5-3.67,15.36a3.88,3.88,0,0,1-1.49,2.07,5.19,5.19,0,0,1-2.28.89,6.49,6.49,0,0,1-2.58-.17,7.11,7.11,0,0,1-2.33-1.07,4.85,4.85,0,0,1-1.54-1.8,3.69,3.69,0,0,1-.28-2.43l.48-2,.39-1.63.36-1.51c.12-.5.25-1.06.4-1.66a22.66,22.66,0,0,1-5.54-.72c-1.54-.43-3-.86-4.51-1.3a27.87,27.87,0,0,0-1.18,3.2c-.32,1.09-.63,2.07-.92,2.93a4.58,4.58,0,0,1-1.46,2.21,4.74,4.74,0,0,1-2.12,1,4.83,4.83,0,0,1-2.29-.13,4.66,4.66,0,0,1-2-1.15,4.79,4.79,0,0,1-1.23-2.08,5.59,5.59,0,0,1,0-3A155.59,155.59,0,0,1,351.45,92a50.91,50.91,0,0,1,5.64-11.44,16,16,0,0,1,6.46-5.8A11.66,11.66,0,0,1,371.11,74.21ZM360.44,99.35a22.62,22.62,0,0,0,4,1.1,30.87,30.87,0,0,0,4.57.51,86.16,86.16,0,0,0,2.3-12.56q.33-4.29-1.79-4.8c-1.48-.35-3.05.8-4.69,3.48S361.76,93.84,360.44,99.35Z"/><path class="cls-18" d="M339.08,68.45c-1.29-.3-2.53-.62-3.72-.94s-2.44-.64-3.73-1c-.33-.72,6.75-4.79,7.25-5.08a4.4,4.4,0,0,1,2.66-.8,2.86,2.86,0,0,1,2,.91,2.39,2.39,0,0,1,.49,2,4.28,4.28,0,0,1-1.78,2.49c-.43.31-.92.68-1.45,1.11S339.68,68,339.08,68.45Z"/></g><rect class="cls-1" width="628.41" height="772.23"/></g></g></svg>