<svg xmlns="http://www.w3.org/2000/svg" xmlns:xlink="http://www.w3.org/1999/xlink" viewBox="0 0 540.82 718.44"><defs><style>.cls-1,.cls-3{fill:none;}.cls-2,.cls-4{fill:#fff;}.cls-3{stroke:#2e3192;stroke-width:66.64px;}.cls-3,.cls-4{stroke-miterlimit:10;}.cls-4{stroke:#000;stroke-width:4.31px;}.cls-5{fill:#ede6e6;}.cls-6{opacity:0.24;}.cls-7{clip-path:url(#clip-path);}.cls-8{fill:#1c1b1b;}.cls-9{opacity:0.2;}.cls-10{clip-path:url(#clip-path-2);}.cls-11{fill:#c6c6c6;}.cls-12{opacity:0.56;}.cls-13{clip-path:url(#clip-path-3);}.cls-14{fill:#9b9797;}.cls-15{clip-path:url(#clip-path-4);}.cls-16{clip-path:url(#clip-path-5);}.cls-17{fill:#ed4040;}.cls-18{clip-path:url(#clip-path-6);}.cls-19{clip-path:url(#clip-path-7);}.cls-20{fill:#54140b;}.cls-21{clip-path:url(#clip-path-8);}.cls-22{fill:#ed9fb7;}.cls-23{fill:#d67c9d;}.cls-24{fill:#176d8e;}.cls-25{fill:#104c56;}.cls-26{fill:#282828;}</style><clipPath id="clip-path"><rect class="cls-1" x="103.93" y="106.26" width="42.16" height="58.76"/></clipPath><clipPath id="clip-path-2"><rect class="cls-1" x="407.87" y="77.93" width="47.96" height="105.41"/></clipPath><clipPath id="clip-path-3"><rect class="cls-1" x="374.91" y="174.84" width="23.5" height="74.25"/></clipPath><clipPath id="clip-path-4"><rect class="cls-1" x="346.62" y="404.11" width="36.26" height="74.17"/></clipPath><clipPath id="clip-path-5"><rect class="cls-1" x="194.89" y="428.43" width="31.14" height="59.46"/></clipPath><clipPath id="clip-path-6"><rect class="cls-1" x="44.37" y="414.17" width="167.59" height="137.12"/></clipPath><clipPath id="clip-path-7"><rect class="cls-1" x="361.01" y="413.44" width="135.8" height="136.47"/></clipPath><clipPath id="clip-path-8"><rect class="cls-1" x="112.59" y="108.22" width="167.42" height="52.51"/></clipPath></defs><title>Asset 19petko</title><g id="Layer_2" data-name="Layer 2"><g id="Layer_1-2" data-name="Layer 1"><path class="cls-2" d="M466,297.48c0,109.25-88.57,197.83-197.83,197.83S70.35,406.73,70.35,297.48,158.93,99.65,268.18,99.65,466,188.22,466,297.48"/><circle class="cls-3" cx="270.41" cy="298.92" r="232.64" transform="translate(-132.17 278.76) rotate(-45)"/><path class="cls-2" d="M95.79,143.75a13.1,13.1,0,1,1-18.41,2.07,13.1,13.1,0,0,1,18.41-2.07"/><path d="M94.42,145.12a11.38,11.38,0,0,1,3.83,12.29,11.16,11.16,0,1,1-3.83-12.29,2,2,0,0,0,2.74,0,2,2,0,0,0,0-2.74A15,15,0,0,0,72.9,157a15,15,0,1,0,24.26-14.66,2,2,0,0,0-2.74,0,1.94,1.94,0,0,0,0,2.74"/><path class="cls-2" d="M39.56,339a13.09,13.09,0,1,1-9.85,15.68A13.09,13.09,0,0,1,39.56,339"/><path d="M40.07,340.89a11.16,11.16,0,1,1-8.75,11.31,11.24,11.24,0,0,1,8.75-11.31c2.43-.59,1.4-4.33-1-3.74a15,15,0,1,0,17.15,8.51A15.17,15.17,0,0,0,39,337.15c-2.44.52-1.4,4.26,1,3.74"/><path class="cls-2" d="M157.17,504.72a13.1,13.1,0,1,1,6.12,17.49,13.1,13.1,0,0,1-6.12-17.49"/><path d="M158.85,505.7a11.16,11.16,0,0,1,20.93,1.93,11.16,11.16,0,1,1-20.93-1.93,2,2,0,0,0-.7-2.65,2,2,0,0,0-2.65.69A15,15,0,0,0,175.28,524a15,15,0,1,0-19.78-20.3c-1.11,2.23,2.23,4.2,3.35,2"/><path class="cls-2" d="M360.05,516.09a13.1,13.1,0,1,1,17.49,6.12,13.12,13.12,0,0,1-17.49-6.12"/><path d="M361.73,515.11a11.17,11.17,0,1,1,12.84,6.12,11.26,11.26,0,0,1-12.84-6.12c-1.11-2.24-4.46-.27-3.35,2a15,15,0,1,0,4.39-18.63,15.13,15.13,0,0,0-4.39,18.63,1.94,1.94,0,0,0,2.65.69,2,2,0,0,0,.7-2.65"/><path class="cls-2" d="M495.44,364.55a13.09,13.09,0,1,1,15.68-9.85,13.09,13.09,0,0,1-15.68,9.85"/><path d="M496,362.68a11.15,11.15,0,1,1,12.7-6.57,11.32,11.32,0,0,1-12.7,6.57c-2.43-.52-3.47,3.22-1,3.74a15.26,15.26,0,0,0,16-6.36,15,15,0,1,0-16,6.36c2.43.59,3.46-3.15,1-3.74"/><path class="cls-2" d="M461.37,164.23a13.1,13.1,0,1,1,2.07-18.41,13.09,13.09,0,0,1-2.07,18.41"/><path d="M460,162.86A11.18,11.18,0,1,1,463.18,149,11.28,11.28,0,0,1,460,162.86a2,2,0,0,0,0,2.74,2,2,0,0,0,2.74,0,15,15,0,1,0-19.24-.13,15.14,15.14,0,0,0,19.24.13,1.94,1.94,0,0,0,0-2.74,2,2,0,0,0-2.74,0"/><path class="cls-4" d="M212.08,72.21a15.08,15.08,0,0,1,.65,5.82,16,16,0,0,1-1.67,5.9,17.79,17.79,0,0,1-4.15,5.29,22.46,22.46,0,0,1-6.75,4c.51,1.49,1,2.93,1.44,4.33s.88,3,1.3,4.7a2,2,0,0,1-.43,1.5,6.06,6.06,0,0,1-1.47,1.42,9.68,9.68,0,0,1-2.1,1.09,8.4,8.4,0,0,1-2.24.52,4.5,4.5,0,0,1-2-.3,2.6,2.6,0,0,1-1.4-1.42q-1.69-3.88-3.15-7.95c-1-2.71-1.84-5.33-2.63-7.86s-1.47-4.86-2.06-7-1.08-3.94-1.47-5.43c-.18.28-.38,1.17-.9,1.36a3.16,3.16,0,0,1-1.86,0,8.29,8.29,0,0,1-2.2-1,8.83,8.83,0,0,1-2-1.66,5.18,5.18,0,0,1-1.12-2,2.25,2.25,0,0,1,.32-2,23.36,23.36,0,0,1,12.66-9.73,21.54,21.54,0,0,1,7.25-1,19.63,19.63,0,0,1,6.82,1.48,16.8,16.8,0,0,1,5.6,3.78A14.79,14.79,0,0,1,212.08,72.21ZM197.77,85.36a7.56,7.56,0,0,0,3.29-2.64,9,9,0,0,0,1.51-3.67,9.47,9.47,0,0,0-.16-3.86,7,7,0,0,0-1.7-3.21,6.24,6.24,0,0,0-3.23-1.74,8.34,8.34,0,0,0-4.62.53,24.61,24.61,0,0,1,1.19,2.91c.44,1.23.87,2.54,1.31,3.91s.87,2.77,1.29,4.15S197.44,84.34,197.77,85.36Z"/><path class="cls-4" d="M247.63,83.82c.57-.13,1.13.18,1.69.93a9.71,9.71,0,0,1,1.35,2.65,9.4,9.4,0,0,1,.54,3,2.34,2.34,0,0,1-.78,2,12.79,12.79,0,0,1-3.16,1.31c-1.57.5-3.38,1-5.43,1.42s-4.19.85-6.44,1.2-4.33.59-6.26.7a27.84,27.84,0,0,1-4.92-.07c-1.34-.17-2.1-.55-2.28-1.15q-.65-2.1-1.36-5.66c-.48-2.38-1-5-1.44-7.79s-.95-5.7-1.4-8.67-.8-5.74-1.09-8.34-.47-4.84-.59-6.75a19.91,19.91,0,0,1,0-4c.08-.3.77-.64,2.07-1s2.92-.74,4.85-1.11,4-.72,6.31-1,4.41-.61,6.4-.82,3.72-.34,5.16-.4a6,6,0,0,1,2.5.17,2.54,2.54,0,0,1,1,1.6,13.69,13.69,0,0,1,.58,2.89,11.57,11.57,0,0,1,0,2.9c-.13.88-.43,1.42-.91,1.62-1.41.34-2.85.67-4.34,1s-2.91.55-4.3.77-2.71.42-4,.59-2.35.32-3.3.42c.11,1.24.23,2.38.35,3.41s.2,1.75.31,2.55a6.63,6.63,0,0,0,.34,1.61c.94-.18,2.1-.38,3.49-.58a27.08,27.08,0,0,1,4.23-.25c.26,0,.55.42.87,1.12a12.8,12.8,0,0,1,.81,2.57,13.19,13.19,0,0,1,.31,3.16,7.67,7.67,0,0,1-.58,2.92c-1.08.29-2.3.56-3.64.79s-2.74.42-4.19.56q.09,1.36.39,3.24c.19,1.25.35,2.38.47,3.41,1.37-.09,2.89-.25,4.57-.5s3.31-.52,4.9-.83,3-.6,4.25-.89S247.15,84,247.63,83.82Z"/><path class="cls-4" d="M275.18,90a2.51,2.51,0,0,1-.81,1.78A5.62,5.62,0,0,1,272.49,93a7,7,0,0,1-2.41.44,7.63,7.63,0,0,1-2.46-.36,5.58,5.58,0,0,1-2-1.15,3.32,3.32,0,0,1-1.06-2q0-2.23,0-6.08t-.16-8.25q-.11-4.41-.3-8.84t-.38-7.91l-2.1.16c-.79.05-1.55.08-2.3.09s-1.46,0-2.14,0a11.25,11.25,0,0,1-1.71-.13c-.66-.11-1.15-.72-1.46-1.84a12.38,12.38,0,0,1-.4-3.62,10.43,10.43,0,0,1,.69-3.55c.42-1.06,1-1.6,1.81-1.61l3.28-.06,4.32-.07,4.84-.07,4.9-.08,4.44-.08,3.47-.05a2.07,2.07,0,0,1,1.66.75,5.31,5.31,0,0,1,1,1.9,9.32,9.32,0,0,1,.41,2.48,10.86,10.86,0,0,1-.17,2.52,6.64,6.64,0,0,1-.71,2,1.63,1.63,0,0,1-1.23.92,23.82,23.82,0,0,1-3.82.12q-2-.09-3.81,0,0,3.16.15,7.41c.11,2.84.2,5.72.29,8.66s.16,5.76.2,8.47S275.31,88.16,275.18,90Z"/><path class="cls-4" d="M309.37,74.59q2.47,4.66,4.65,8.62t4.1,8.08c0,.3-.15.68-.58,1.13a9.47,9.47,0,0,1-1.7,1.4,22.11,22.11,0,0,1-2.35,1.39A16.59,16.59,0,0,1,311,96.27a6.44,6.44,0,0,1-2,.38c-.59,0-1-.22-1.1-.61Q306,91.58,304,87.39T300.39,79c0-.09-.12.37-.28,1.37s-.35,2.26-.59,3.77-.52,3.1-.87,4.76-.69,3.12-1,4.36c-.06.33-.35.58-.88.74a6.68,6.68,0,0,1-1.86.28,14,14,0,0,1-2.33-.18,9.06,9.06,0,0,1-2.28-.64,5.52,5.52,0,0,1-1.69-1.08,1.64,1.64,0,0,1-.52-1.49c.21-1.9.49-4,.82-6.44s.69-4.89,1.08-7.49.79-5.21,1.22-7.82.86-5.08,1.28-7.4.84-4.42,1.24-6.31.77-3.39,1.12-4.51a1.6,1.6,0,0,1,1.13-.82,10.31,10.31,0,0,1,2.17-.42,15.43,15.43,0,0,1,2.64,0,15.25,15.25,0,0,1,2.58.37,6.18,6.18,0,0,1,1.9.73,1.21,1.21,0,0,1,.67,1.08c-.46,2.44-.9,5.06-1.31,7.84s-.89,5.35-1.43,7.69A37.36,37.36,0,0,0,306,64.46c1.16-1.29,2.4-2.64,3.71-4.07s2.65-2.84,4-4.25a46,46,0,0,1,3.68-3.47,1.4,1.4,0,0,1,1.95,0,7.93,7.93,0,0,1,1.9,2.34,19.74,19.74,0,0,1,1.53,3.44,19.37,19.37,0,0,1,.86,3.31c-1.11,1.25-2.21,2.42-3.28,3.51s-2.16,2.15-3.29,3.19-2.32,2-3.59,3S310.83,73.53,309.37,74.59Z"/><path class="cls-4" d="M353.42,63.75a17.5,17.5,0,0,1,2.85,7.84,27.59,27.59,0,0,1-.44,8.85,35.9,35.9,0,0,1-3.07,8.73,33,33,0,0,1-5,7.42,22.67,22.67,0,0,1-6.33,5,11.5,11.5,0,0,1-6.87,1.33,13.87,13.87,0,0,1-5.41-2,11.82,11.82,0,0,1-4.19-4.42,16.61,16.61,0,0,1-1.89-7,27.54,27.54,0,0,1,1.43-9.84q.76-2.35,1.6-4.8a32.09,32.09,0,0,1,2-4.58,20.5,20.5,0,0,1,2.63-3.88,10,10,0,0,1,3.55-2.65,1.84,1.84,0,0,1,1.09-.17c.42,0,.82.11,1.18.18a8.19,8.19,0,0,1,1.3.41,10.79,10.79,0,0,1,5-4,9.32,9.32,0,0,1,4.77-.34,8.57,8.57,0,0,1,3.74,1.74A9.06,9.06,0,0,1,353.42,63.75ZM345,82.18a28,28,0,0,0,1.82-5.93c.37-2,.26-4.88-.57-5.79-.08.14.13,1,0,1.83a7.59,7.59,0,0,1-.73,2.28,6,6,0,0,1-1.44,1.88,2.73,2.73,0,0,1-2.16.65,3.87,3.87,0,0,1-1.32-.26,3.59,3.59,0,0,1-1.18-.7c-.34-.3-.75-.63-.79-1.1a4.59,4.59,0,0,0-.19-1.33,34.83,34.83,0,0,0-2.38,4.49,44.76,44.76,0,0,0-1.65,4.26q-1.95,6.15-1.59,9.33c.23,2.11.95,3.18,2.14,3.18s2.7-1,4.52-3.15A37.94,37.94,0,0,0,345,82.18Z"/><path class="cls-5" d="M209.5,592.41c-2.44,6.22-3.09,13.44-.24,19.48s9.77,10.34,16.27,8.83c-2.41,8.26,2.28,18,10.26,21.23s18.13-.44,22.17-8.05c4,5,11.46,6.3,17.53,4.27s10.87-6.86,14.25-12.3a19,19,0,0,0,27.52-24,9.13,9.13,0,0,0,4.29-6.73,27.19,27.19,0,0,0-.39-8.24c-.54-3.61-1.16-7.41-3.41-10.29-2.6-3.33-6.87-4.8-10.92-6-23.23-6.64-48-8.38-71.74-4.13-6,1.08-11.32,3-14.78,8.26-3.8,5.79-8.25,11.08-10.81,17.6"/><g class="cls-6"><g class="cls-7"><path class="cls-8" d="M125.38,122.87c-7.56-1.17-15.16-11.34-19.85-16.61-4.64,13.68,1.6,34.37,8.48,46.63,1.57,2.8,5.41,10.77,8.8,12,3,1,6-3,8.18-5.35,4-4.31,8.58-8.14,12.51-12.52,9.79-10.92-10.8-14.73-18.12-24.11"/></g></g><g class="cls-9"><g class="cls-10"><path class="cls-8" d="M407.88,158.78c16.94-12.62,17.92-45.58,14.65-64-1-5.43-3.92-11.45-3.63-16.83,8.23,9,22.67,13.68,30,23.41,12,15.91,6.69,46.39-3.26,61.63-4.87,7.46-10,15.14-17.21,20.37-6.12-9.11-14.29-17.34-20.57-24.56"/></g></g><path class="cls-11" d="M207.41,250.72c0-19.84,7-42.42,20.68-57.09,14.4-15.37,34.77-32.37,54.51-39,13.13-4.38,28-8.43,42-7.9-1,3.59-6.68,5.92-9.06,8.77,15.84-3.43,30.42-5,42.87,1.06,9.18,4.46,22.49,19.28,28.64,27.31,10.56,13.79,13.37,36.18,9.28,53.6-2,8.69-4.06,9.77-12.94,11.29-12.82,2.2-21.49,7.49-32.17,13.63-6.62-8.41-34.1,2.1-42.31,5.72-9.38,4.13-20.36,2.09-30.79,2.11-15,0-29.08-4.82-44-4-8.55.47-6.34-.66-11.69-6.27-5.06-5.31-13.39-6.67-15-9.28"/><path class="cls-5" d="M231.83,265.37c-2.5-7.34-.85-16.85.22-24.38.71-5,.48-9.9,1.57-14.84a76.38,76.38,0,0,1,5.46-15.94c4.94-10.47,11.25-19.19,23.48-20.9,6.32-.89,12.61-.47,16.9,4.74,5.47,6.65,9.52,16.21,10,24.49.69,11.31-2.07,24.27-4,35.38-1,5.52-.22,9.08-1.33,15.68-2.08-.8-7.19-.49-9.39-.49-5.42,0-10.49-.65-15.87-1.15-5.94-.55-11.75-1.28-17.64-2.09-3.51-.48-7.78-.33-9.39-.5"/><path class="cls-5" d="M308.89,268.15c-4.66-17.93-7.1-36-4.27-54.7,1.59-10.43,6.6-22,16-27.88a20.29,20.29,0,0,1,14.89-2.34c6.7,1.46,10.24,6.8,13.43,12.39,6.69,11.72,9.16,25.2,11,38.39.82,5.74,1.4,11.16,1.7,16.94.12,2.38-.07,5.21.5,7.47-5.2,1.76-11.47.73-16.91,1.48a104.53,104.53,0,0,0-17.93,4.4c-4.07,1.33-14.85,3.15-18.5,3.85"/><g class="cls-12"><g class="cls-13"><path class="cls-14" d="M374.91,175c3.32,3.07,4.43,11.26,5.65,15.51,1.32,4.55,2.45,9.19,3.37,13.8a82.38,82.38,0,0,1,0,30c-.9,5.15-2.72,9.86-4.25,14.78,3.19-.67,11.68-2.75,14.11-5.21,4.34-4.39,4.63-17.91,4.62-23.5a76.62,76.62,0,0,0-7-31.93c-2.94-6.32-6.52-14.94-16.48-13.44"/></g></g><path class="cls-11" d="M236.71,359.9c-18.34,10-39.27,22.73-51.17,40.83a47.57,47.57,0,0,0-6.38,15.4c-17.87-2.07-9.51,29.75-6.47,37.73,4.64,12.16,12.84,18.9,23.92,25,6.29,3.45,12.25,7.24,19.38,8.77,8.89,1.91,18.33,2.15,27.33,3.3a237.47,237.47,0,0,0,61,0c15.22-2,28.55-5.3,42.13-12.08,6.77-3.38,13.43-6.78,20.18-10.19a115.43,115.43,0,0,0,24.91-16.8c7.4-6.55,20.31-16.91,23.35-26.67,2.36-7.59-1.21-12.42-7.39-15.72s-8-7.4-11.65-13.22c-9.57-15.33-23.69-35.13-40.51-43.79-1.52-.78-1.37-3.15-3.1-2.95-3.76.42-8,4.26-11.35,5.69a58,58,0,0,1-24.36,4.66c-7.54-.32-16.77,2.31-24.26,1.64-11.15-1-16.37,1.4-30.8,0-5.9-.58-14.08,1.19-24.79-1.6"/><g class="cls-12"><g class="cls-15"><path class="cls-14" d="M370.05,419.51c-.32.51-.63,1-.94,1.55,4.75-2.86,8.1-5.82,13.77-7-6.67,4.47-12.77,14.67-16.55,21.66-6.34,11.72-4.62,22.65-2.25,35.31-5.68,2.49-11.79,5.17-17.46,7.28,9.73-12.77,10.82-35.17,5.82-50,1.26,2,1.85,4.26,3.29,6.12.15-5.7,2.65-11.9,3.23-17.77-.46,3.49.78,7.11,1,10.57,4.84-10.27,10.87-18.52,21.86-23.13-3.76,5.13-8.25,9.89-11.72,15.4"/></g></g><g class="cls-12"><g class="cls-16"><path class="cls-14" d="M215.88,428.42c-3.32,5.19-16.49,10.64-16.07,16.4.23,3,3.13,6.87,3.79,10.11a25.67,25.67,0,0,1-.27,12.07c-1.38,4.93-3.79,9.39-8.44,11.63,9.18,6.25,20.76,6.08,31.15,9.25a38.69,38.69,0,0,1-14.46-31.76c2.33,4,5.13,8.23,9,10.82-4.65-9.83-7.58-21.28-3.8-31.83a34.67,34.67,0,0,0,2.93,7.36c-1-4.28-2.21-9.08-3.86-14.05"/></g></g><path class="cls-2" d="M349.6,352.53c8.75,4.91,16.27,15.93,15.3,26.28-4.22-2-12.79-3-16.09-5.9a40,40,0,0,1,12.85,23.17q-2.16-1.59-4.31-3.19a32.08,32.08,0,0,1,.55,19.1l-9.48-14.85a39.31,39.31,0,0,1,1.49,25.13l-6.21-11.79a135.9,135.9,0,0,1,3.16,53.68c-.89,6.29-2.45,12.94-7.06,17.32-3.68,3.5-8.79,5-13.72,6.26a220.62,220.62,0,0,1-68.3,6.14c-4.14-.27-8.62-.82-11.59-3.7a14.36,14.36,0,0,1-3.6-7.26c-4.88-21.13,12.09-42.87,6.88-63.93a14.3,14.3,0,0,0-11.88,5.28c2.82-4,5.95-8.82,7.22-13.58,1.64-6.25-2-4.55-6.41-2.17-4.09,2.21-17.28,11.41-16.42,17.16a51,51,0,0,1,9.61-37.8A37.44,37.44,0,0,0,214,399.26a59.57,59.57,0,0,1,27.37-38.15"/><path class="cls-8" d="M349,353.65c8.65,5,15.44,14.91,14.66,25.16l1.95-1.12a52.4,52.4,0,0,0-7.83-2.49c-2.68-.73-5.82-1.39-8-3.2-1.26-1-3.08.7-1.83,1.83a39.35,39.35,0,0,1,12.52,22.6l1.9-1.46L358,391.78c-.91-.67-2.24.44-1.9,1.46a31.65,31.65,0,0,1,.56,18.41l2.36-.31q-4.74-7.43-9.49-14.85c-.74-1.17-2.93-.43-2.36,1a38.84,38.84,0,0,1,1.5,24.44l2.36-.31-6.22-11.79a1.3,1.3,0,0,0-2.36,1,135.61,135.61,0,0,1,3.44,50.9c-.86,6.95-2.14,15-7.92,19.64-2.94,2.38-6.61,3.62-10.21,4.61-4,1.1-8.07,2-12.14,2.81a219.48,219.48,0,0,1-51.21,4.15c-3.93-.14-8-.13-11.88-1a10.5,10.5,0,0,1-8.15-7.35c-2.19-6.63-1.53-14-.17-20.72,3-14.87,10.16-29.77,6.51-45.2a1.32,1.32,0,0,0-1.25-.95,15.79,15.79,0,0,0-12.79,5.66l2,1.56a58.71,58.71,0,0,0,5.72-9.5c1-2.31,2.55-5.53,2-8.14-.95-4.41-6.72-1-8.9.25a58.14,58.14,0,0,0-10.5,7.69c-2.75,2.51-6.77,6.33-6.34,10.46l2.54-.34a50.21,50.21,0,0,1,9.49-36.81c.68-.92-.45-2.21-1.46-1.9a39.48,39.48,0,0,0-18.18,11.72l2.16,1.26A58.62,58.62,0,0,1,242,362.23a1.29,1.29,0,0,0-1.31-2.23,61.19,61.19,0,0,0-27.95,38.92c-.26,1.17,1.25,2.29,2.16,1.26a36.94,36.94,0,0,1,17-11.05c-.48-.64-1-1.27-1.46-1.9a52.78,52.78,0,0,0-9.74,38.8c.2,1.43,2.69,1.1,2.54-.35-.33-3.17,2.92-6.14,5-8.1a58,58,0,0,1,8.87-6.8,39.42,39.42,0,0,1,3.81-2.13,6.91,6.91,0,0,1,2.32-.92c.79-.05.63-.17.64.68,0,2.57-1.54,5.52-2.7,7.72a69.39,69.39,0,0,1-4.73,7.49c-.84,1.19,1.08,2.69,2,1.56a13.35,13.35,0,0,1,11-4.89l-1.24-1c3.57,15.1-3.81,29.91-6.64,44.49-1.35,6.9-1.9,14.28.2,21.1a13,13,0,0,0,5.81,7.89c3.08,1.75,6.71,2.12,10.18,2.36a221,221,0,0,0,54.05-3.05q6.74-1.22,13.38-2.84A49.47,49.47,0,0,0,336,485.71c6.58-3.36,9.86-9.63,11.36-16.63,4.12-19.18,2.56-40.09-2.37-58.95l-2.36,1,6.21,11.79a1.31,1.31,0,0,0,2.37-.31,41.12,41.12,0,0,0-1.5-25.81l-2.36,1,9.49,14.85a1.31,1.31,0,0,0,2.36-.31,34.19,34.19,0,0,0-.56-19.78l-1.9,1.46L361,397.2c1,.74,2.07-.48,1.9-1.46A41.54,41.54,0,0,0,349.72,372l-1.83,1.83c4.59,3.78,11.1,3.73,16.36,6.1a1.32,1.32,0,0,0,1.95-1.12c.84-11.12-6.57-22-15.95-27.39a1.29,1.29,0,0,0-1.3,2.23"/><path class="cls-14" d="M162.58,543.78c-13.25,29.69-6.33,69-1.19,99.68.51,3.06.33,10.79,2.91,13,5,4.22,5.77-10.26,7.07-13.7,6.07-16.1,14.44-34.3,26.27-47.26,8.05-8.82,15.47-16.27,27.05-19.19a154.44,154.44,0,0,1,41.76-4.75c18.92.51,40.6-.29,56.43,10.88,9.55,6.75,18.54,17.65,21.57,29,1.83,6.89,2.55,17.8,5.08,24.28,7-12.91,12.26-30.94,15-45.24,3-15.45,7.08-30.77,9.31-46.06-3.91.38-7.06,2.93-10.55,4.55a164.41,164.41,0,0,1-26,9c-23.21,6.16-49.19,8.59-73.17,7.57C229.25,564,196.55,558,162.58,543.78"/><path class="cls-17" d="M277.65,333c.1,2.77,2.63,6.74,4.63,8.58,3,2.76,6.8,3,10.74,2.62,4.58-.45,10.4-2,12.9-6.28,1.22-2.1,1.59-3.73-.37-5.35a8.19,8.19,0,0,0-6.78-1.43,16.07,16.07,0,0,0-5.1,2.07c-1.46.82-1.34,1.14-2.68.54-4.65-2.09-9.13-3.81-13.34-.75"/><g class="cls-9"><g class="cls-18"><path class="cls-8" d="M54,453c-2.94-2.54-7.77-8.41-9.07-12.07-1.77-5,1-9.26,5-12.78,7.77-6.79,19.7-5.65,28.64-2.79,4.33-7.7,14.6-10.75,22.79-11.15,12.62-.61,13.93,7.67,21.92,16.36,5.82,6.34,11.33,14.27,18.59,19,8.2,5.31,17.58,9.81,26.48,14.38,14.59,7.49,28.78,15.17,43.6,21.95-2.23,5.3-12.82,9.57-18,10.55-8.11,1.51-14.87-1.32-19.67-7.94-1,3.73-4.11,7.74-8,8.38,8.67,16.63,9.56,37.19,16.71,54.44-8.07-6.12-18.75-8.21-27.77-12.72-19.71-9.83-37.85-23-55.88-35.58-12-8.41-26.77-18.92-35.52-30.95-3.83-5.26-5-12.12-9.75-19.05"/></g></g><g class="cls-9"><g class="cls-19"><path class="cls-8" d="M460.75,440.59a36.43,36.43,0,0,0-13.24,8.75c-3.15,3.28-2.74,3.62-6.45,4.12-3,.4-7.66,1.84-9.74-1,5.08-4.17,10-5.65,11.4-13.06,1.32-6.83-1.89-13.05-5.24-18.76a32.34,32.34,0,0,0-5.46-7.15c-2.79,3-5.06,6.57-7.55,9.8a165.11,165.11,0,0,1-26.7,27.19A251.32,251.32,0,0,1,361.12,475c-1.66,10.44,16.53,13.47,23.27,11.31a17.3,17.3,0,0,0,5.82-3.13,60,60,0,0,0-5,8.46c-9,18.92-15.49,39.16-23.67,58.31,3.18-.21,9.93-2.1,12-4.7,4.89-3.82,10.69-5.76,14.86-8,9.17-4.89,18.22-9.47,26.95-15.09,15.9-10.24,29.5-23.63,43.18-36.58,8.95-8.47,17.72-17.71,24.9-27.73,4.27-6,10-11.69,13.3-18.25-10.32-6.84-25.33-3.11-36.05,1m-65.81,36.54c-.35.4-.68.82-1,1.22a11.3,11.3,0,0,1,1-1.22"/></g></g><path class="cls-5" d="M333,345c-2,5.67-8.27,11.7-13.42,14.65,5.42,2,15.48-2.3,20.61-4.52a117,117,0,0,1,18.9-6.69c13.24-3.25,26.46-6.9,39.12-12a42.2,42.2,0,0,0,11.08-6.56c3.34-2.85,5.05-7.17,7.16-10.9,2.9,3.84,1.24,9.42.53,13.68,2.6.14,6.3-3.41,8.18-5a68.62,68.62,0,0,0,10.26-12c4.48-6.3,4.72-13.61,6.57-20.7,2.69,1.64,4.07,3.86,5.66,6.3,2.22-5.47.46-9.35-.88-15-1.16-4.85-1.84-11.2-5-15.22-3.33-4.27-10.3-7.06-15.63-7,4.07,2.46,10.43,7.4,12.49,11.74-4.8-1.74-11.15-2.74-15.88-.44,9.66,2.58,11,18.84,6.83,25.82a16.66,16.66,0,0,0-9.81-10.11c-.81,7.7-6,15.62-10.81,21.4a88.32,88.32,0,0,1-31.29,24.34c3.33-2.78,5.17-7.16,8.38-10.14-9.42,6.86-18.27,12-29.54,15.23,2.53-2,6.22-5.38,6.06-8.89-6.63,7.68-19.22,18-29.58,12.08"/><path class="cls-20" d="M263.43,313.79c1.34,2.38,3.1,4.69,4.67,7,1.83,2.64,3.4,5.45,5.21,8.13.84,1.23,1.65,2.49,2.5,3.7a17,17,0,0,1,16.07,2c.95-2.15,3.49-3,5.73-3.22a13.3,13.3,0,0,1,4,.25A20.49,20.49,0,0,1,304.8,333c1.18.42,1.5-.16,2.61-1.23a30.47,30.47,0,0,0,6-9.46,60.65,60.65,0,0,1,3.91-7.66c1-1.57,3.2-3.37,3.55-5.14-1.66-1-4.3.26-6.12.41a9.66,9.66,0,0,0-3.3.37c-1.63.75-1.07,2.1-1.19,3.83-.3,4.21-1.37,9.86-5.13,12.35a9.58,9.58,0,0,1-7.11,1.48c-1.07-.18-2.74-1-3.69-.59s-1.32,1.43-2.4,1.76a12.81,12.81,0,0,1-3.49.33c-3.29,0-5.73-.83-7.88-3.34a32.7,32.7,0,0,1-4.19-7c-.76-1.52-.9-3.65-1.88-5s-1.52-.78-3.23-.72c-2.33.09-5.06-.39-7.84.47"/><path class="cls-8" d="M535.65,298.92A265.17,265.17,0,0,1,124.76,520.63a267.27,267.27,0,0,1-58.91-52.84A263.82,263.82,0,0,1,6,319.55a267.42,267.42,0,0,1,6.75-83.67A265.07,265.07,0,0,1,239.81,35.42,268.22,268.22,0,0,1,323.52,39a265.26,265.26,0,0,1,209,219.05,267.66,267.66,0,0,1,3.11,40.87c0,3.33,5.18,3.34,5.17,0A270.33,270.33,0,0,0,122.15,72.75,270.7,270.7,0,0,0,7.64,363,269,269,0,0,0,39,438.84,270.67,270.67,0,0,0,324.54,563.91a270.28,270.28,0,0,0,213.1-223.47,277.36,277.36,0,0,0,3.18-41.52c0-3.32-5.16-3.33-5.17,0"/><path class="cls-8" d="M464.64,298.92A194.23,194.23,0,0,1,120.55,422.5,193.2,193.2,0,0,1,76.75,314a196.14,196.14,0,0,1,4.94-61.17,193.7,193.7,0,0,1,22.56-54.52,195,195,0,0,1,86.15-76.42A191.87,191.87,0,0,1,247.92,106a196.65,196.65,0,0,1,61.47,2.63,194.28,194.28,0,0,1,153,160.6,197.15,197.15,0,0,1,2.24,29.72c0,3.33,5.18,3.34,5.17,0A199.52,199.52,0,0,0,215.92,107.07a199.5,199.5,0,0,0-99.21,64.84A200.85,200.85,0,0,0,85.8,223.48a198.39,198.39,0,0,0-14.19,60.08,200.76,200.76,0,0,0,5,62.56,198.23,198.23,0,0,0,23.16,56,199.63,199.63,0,0,0,210.69,92.13,198.19,198.19,0,0,0,56.79-21A200.27,200.27,0,0,0,449,387.73a198.07,198.07,0,0,0,18.45-58,206.36,206.36,0,0,0,2.38-30.81c0-3.32-5.17-3.33-5.17,0"/><path class="cls-2" d="M149.44,495.06c-1.69,5.49-1.07,12.44-.58,18.08.32,3.7.45,7.67,1.67,11.17,1,2.94,2.74,7.9,6.39,5.09,2.89-2.22,3.05-7.36,3.8-10.55a46.72,46.72,0,0,0,1.06-16.24c-.29-2.41-.65-7-2.44-8.84-3.12-3.18-8,.62-9.9,1.29"/><path class="cls-2" d="M479.55,455.55c-3,.05-5.35,2.89-7.8,4.85-20.63,16.46-38.17,37.21-60.83,51.32a161.92,161.92,0,0,0-21.26,15.94c-3.51-1.82-8.63-1-10.2,3.88a51.57,51.57,0,0,1-5.14,11.13c-4,6.68,5.35,14,10.83,8.35,5.87-6,14.74-8.12,21.27-13.44,6.89-5.6,16-5.69,23.33-10.63,10.33-6.93,18.64-18.16,26.65-27.49,10.39-12.1,20.21-24.52,31.36-35.84,1.19-1.21,3.09-2.38,2.44-4.08-.89-2.32-7.94-3.78-10.14-4a4.35,4.35,0,0,0-.51,0"/><path class="cls-2" d="M416.54,417.14c-7.29,10-13.83,21.29-24.66,27.79-8.49,5.1-17.37,8.93-24.51,16-6.31,6.26,3.45,16,9.75,9.75,8-7.93,19.07-11.25,27.89-18.05,9.67-7.47,16.31-18.81,23.44-28.55,5.25-7.17-6.71-14.06-11.91-7"/><path class="cls-11" d="M82.74,443.47c-27.8-3.05-45.83,23.32-46,48.28-.09,13.69,5,26.89,12.1,38.38,10.79,17.44,22.35,32.8,29.51,52.44,8.58,23.55,12.29,48.84,21.36,72.12,7,17.93,19.46,33.51,39.29,36.16,6.86.93,15.07,1.63,19.85-4.26,6-7.34,8.25-21,7.77-30.12-.8-15.29-9.49-29.26-10.91-44.55-1.6-17,1.34-33.29,2.3-50.22,1.58-28.05,4.75-59.7-4.06-86.9-3.77-11.63-13.42-22.05-22.45-29.92-8-7-23.28-12.61-34.26-9.53-5,1.41-15.55,4-14.5,8.12"/><path class="cls-14" d="M76.39,467.93c-10.48-4.86-22.21,5.3-26.88,13.79-5.44,9.89-4.85,20.49.3,30.46,7.72,14.91,20.26,28.05,29.16,42.57,9.56,15.59,13.76,35.79,19.24,53.17,5.35,17,6.22,36.5,13.8,52.7,5.16,11,18.6,26.71,32.18,23.89,15.36-3.18,14.62-25.11,12.67-36.92-3.8-23-16.94-41.27-16.09-65.32.85-24.27,7.7-48.24,9.62-72.41.87-10.93,1.32-22-2.14-32.56-3.14-9.59-12.52-23.43-24.16-23.19-4.26.09-8.11,3-10.51,6.33-5.36-15.18-34.81-6-37.19,7.49"/><path class="cls-11" d="M278.69,166.37c-4.77,7.79-14.15,11.2-23.09,9.32-5.66-1.2-12-.9-16.91-.63-11.81.63-22.3,2.2-34.16,1.11-13.33-1.23-25.22-3.89-37.83-9.61-14.37-6.52-26.7-13.89-37.59-25.67-4.62-5-9.42-10.34-13.07-16.16-2.75-4.38-8.53-11.08-8.92-16.21,3.16-.91,8.1,2.24,11.23,3.26A65.65,65.65,0,0,0,137,115c13.78.56,26.51.57,40.2-1.69,11.71-1.94,20.9-3.45,32.72-4.9,15.53-1.91,34.37,3.59,47.28,11.52,8.89,5.46,14.54,10.83,19.46,20.14,2.73,5.17,6.38,11.6,5.33,17.72a24.08,24.08,0,0,1-3.25,8.54"/><g class="cls-12"><g class="cls-21"><path class="cls-14" d="M112.59,111.09c7.43,8.78,23.52,11.85,34,13.82,6.28,1.18,12.42,2.18,18.84,2.83,5.35.54,16.26,2.73,21.18.49-.32-2.5-2.47-4.35-4.23-6.14a189.74,189.74,0,0,1,31.23,3.8c10.28,2.27,20.83,10.27,31,11,.5-3.39-1.53-7.13-2.61-10,5.21,4.38,9.42,12.36,15.39,15.24.66-2.86-.3-6.44-.89-9.48a55.24,55.24,0,0,1,20.2,28.08c8.77-7-2.41-25-7.85-30.66-10.56-11-19.5-17.88-34.71-20.42-24.59-4.11-47.78,1.57-72.36,4.9-15.49,2.1-36.26,2.07-49.25-3.46"/></g></g><path class="cls-22" d="M260.68,165.48c-2.2,1.85-6,1-8.6.5-3.9-.75-7.61-.24-11.63-.45s-8.36.09-12.29-.63c-4.74-.88-10.64-2.59-14.72-5.12-2.21-1.37-4.28-3-6.39-4.47-.6-.43-6.1-3.53-6.09-3.85-.13,3.94,2.32,8.07,3.31,11.75-5.43-.49-11.21-3.61-16.37-5.45a161,161,0,0,1-17.52-7c-6.29-3.13-12.74-6.1-18.75-9.74-4-2.42-7.88-5.14-11.73-7.76-2-1.37-4.72-2.9-6-5,10.12,4.17,19.94,3.83,30.78,4.47,12.68.75,25.27,1.07,37.93,2.16s24.83.84,36.31,7c5.8,3.11,10.9,7.22,16.54,10.46,3.51,2,8.53,7,6.29,11.73a4.27,4.27,0,0,1-1.1,1.44"/><path d="M282.37,155.53c-.65-11.29-7.18-21.31-15.11-29a67.81,67.81,0,0,0-30.6-17c-13-3.32-26.3-3-39.46-1-13.85,2-27.48,5.62-41.47,6.7A93.21,93.21,0,0,1,131.91,114a239.56,239.56,0,0,1-23.64-5.93,1.31,1.31,0,0,0-1.46,1.9,125,125,0,0,0,42.68,48.87c18.62,12.29,41.89,20,64.36,18.57,4.65-.29,9.23-1.12,13.86-1.54A61,61,0,0,1,245.08,177c1.63.32,2.33-2.17.69-2.49a64,64,0,0,0-14.86-1.37c-4,.15-8,.8-12,1.27a92.49,92.49,0,0,1-32-2.11A114.46,114.46,0,0,1,130,139,126.2,126.2,0,0,1,109,108.69l-1.46,1.9c13,3.74,26.19,7.44,39.82,7.52,13.19.08,26.15-2.74,39-5.14,13.1-2.45,26.35-4.4,39.68-2.78,12.38,1.5,24.41,5.94,34.24,13.71s18.68,18.8,19.43,31.63c.09,1.65,2.68,1.66,2.58,0"/><path d="M132.52,128.75A178.07,178.07,0,0,0,204,165a1.31,1.31,0,0,0,1.46-1.9,39.19,39.19,0,0,1-4-12l-2.16,1.26c7.45,7.25,17.36,11,27.4,13a79.4,79.4,0,0,0,15.61,1.49c5.66,0,11.16.12,16.68,1.53a1.29,1.29,0,0,0,.68-2.49c-10.15-2.6-20.64-.84-30.9-2.76-10.07-1.88-20.16-5.33-27.64-12.61a1.3,1.3,0,0,0-2.16,1.26,41,41,0,0,0,4.26,12.65l1.46-1.89a175.25,175.25,0,0,1-70.33-35.57c-1.27-1.06-3.11.76-1.83,1.83"/><path d="M133.42,128.75c8.06,3.26,16.71,4.27,25.31,5,9.39.79,18.79,1.57,28.22,1.82s19-.1,28.4,1.27a77.42,77.42,0,0,1,22.88,7,79.07,79.07,0,0,1,21.89,15.84,1.31,1.31,0,0,0,2.16-.57q.6-3,1.19-5.9l-2.36.3a23.45,23.45,0,0,1,3.95,10c.25,1.64,2.74.94,2.49-.69a25,25,0,0,0-4.21-10.61,1.31,1.31,0,0,0-2.36.31l-1.2,5.9,2.17-.57a81.14,81.14,0,0,0-41.33-22.75c-8.88-1.85-18-2-27-2.06-9.61-.1-19.18-.67-28.76-1.43-10.4-.83-21-1.45-30.76-5.41-1.54-.62-2.21,1.88-.69,2.5"/><path d="M208.71,252.45a84.4,84.4,0,0,1,22.43-61.14,103.58,103.58,0,0,1,14.35-12.85c1.32-1,0-3.23-1.31-2.23-18.45,13.75-32.42,33.06-36.68,56a90.48,90.48,0,0,0-1.38,20.26c.07,1.66,2.66,1.66,2.59,0"/><path d="M375.72,174.61c10.95,7.48,17.3,20,19.46,32.81a81.78,81.78,0,0,1,1.07,19.07c-.44,6.3-2.25,12.37-4.18,18.35-.51,1.58,2,2.26,2.5.68,2-6.2,3.81-12.49,4.27-19a84.22,84.22,0,0,0-1.28-20.42c-2.38-13.3-9.23-26-20.53-33.7-1.38-.94-2.67,1.3-1.31,2.24"/><path class="cls-5" d="M163.3,280.6a56.23,56.23,0,0,0,4.42,29.3c1.19-2.69,1.67-5.6,3.76-7.92,4.68,5.82,7.41,12.55,13.07,18.07,7.07,6.89,14.52,14.66,23.5,18.94.21-4.11-.83-8.08-.05-12.05,1.48,5.38,5.81,8.95,9.66,12.76,6.22,6.17,14,13.43,22,17.26.49-3.57-3.37-7.42-3.43-11.24,10.8,2,23.19,4.4,29,14.51-4.67-2.36-9.85-4.9-15.17-4.09,2.95,3.52,7,6.18,10,9.7-6.32-2.62-11-5.17-17.92-5.82-9.1-.87-16.39-4.2-24.52-8.09-9.75-4.67-19.83-9.2-28.65-15.55-7-5-10.27-11.79-16.14-17.31-1.59,3-1.64,7.16-1.82,10.52-10.57-13.2-21.7-39.13-11.5-55.36a39.1,39.1,0,0,0,0,9.3c.77-2.82,1.73-6.54,4.55-7.55a12.4,12.4,0,0,0-.72,4.62"/><path d="M248.33,285.07a91.83,91.83,0,0,0-47.05-36.36c-9.36-3.12-19.76-4.52-29.45-2.12a33.36,33.36,0,0,0-21.47,17c-5,9.35-6.42,20.23-6.48,30.69a1.3,1.3,0,0,0,2.54.35,16.45,16.45,0,0,1,8.48-9.83L153,283.68a72.42,72.42,0,0,0,17.49,47.23c.77.91,2.16.13,2.2-.91a24.9,24.9,0,0,1,2.18-9.19H172.6c5.85,12.54,17.86,20.6,30.1,26.13,7.28,3.29,14.82,5.92,22.19,8.95,3.73,1.54,7.28,3.36,10.94,5a25.1,25.1,0,0,0,10.22,1.86,1.3,1.3,0,0,0,0-2.59,23.5,23.5,0,0,1-10.85-2.48c-3.14-1.58-6.37-3-9.62-4.32-7.17-2.95-14.5-5.5-21.57-8.69-11.88-5.37-23.5-13-29.18-25.21a1.3,1.3,0,0,0-2.23,0,28.24,28.24,0,0,0-2.53,10.5l2.2-.91a69.8,69.8,0,0,1-16.73-45.41,1.3,1.3,0,0,0-1.94-1.11,19,19,0,0,0-9.67,11.37l2.54.34c.09-17.39,4.92-38.3,23.51-44.46,18.14-6,39,2.75,53.7,13.27a89,89,0,0,1,22.41,23.29c.92,1.38,3.16.08,2.24-1.31"/><path d="M340.21,355.86c3-1.78,6.57-2.47,10-3.2,3.62-.77,7.21-1.68,10.77-2.67,8-2.23,15.89-4.85,23.8-7.41,6.84-2.22,13.66-4.3,19.86-8.05a40,40,0,0,0,14.2-14.11l-2.37-.31a12.84,12.84,0,0,1-1.82,12.21c-.64.86.44,2.33,1.46,1.9a48.2,48.2,0,0,0,29-39.68l-2.21.91,4.89,5.41a1.31,1.31,0,0,0,2.17-.57,43.95,43.95,0,0,0-44.27-51.74c.12.84.23,1.69.35,2.54l15.75-5.32a1.3,1.3,0,0,0-.34-2.54,114.82,114.82,0,0,0-70,18.93,112.22,112.22,0,0,0-16.13,13c-1.2,1.16.63,3,1.83,1.83a112.22,112.22,0,0,1,63.88-30.57,109.27,109.27,0,0,1,20.38-.62c-.11-.85-.23-1.69-.34-2.54l-15.76,5.31a1.3,1.3,0,0,0,.34,2.54,41.36,41.36,0,0,1,41.77,48.47l2.16-.56-4.89-5.42a1.31,1.31,0,0,0-2.21.92,45.47,45.47,0,0,1-27.12,37.19c.49.63,1,1.26,1.46,1.9a15.25,15.25,0,0,0,2.09-14.21,1.31,1.31,0,0,0-2.36-.31,38,38,0,0,1-14.71,14c-6.55,3.68-13.78,5.64-20.87,7.95C373.48,343.53,366,346,358.31,348c-6.31,1.7-13.69,2.25-19.41,5.6a1.29,1.29,0,0,0,1.31,2.23"/><path class="cls-23" d="M268.49,282.17a66.93,66.93,0,0,0,12.74,13.46c3.3,2.64,7,5,11.25,5.45s8.22-1.15,11.62-3.5a52.71,52.71,0,0,0,8.95-8.53c2.83-3.15,5.87-7.3,4.28-11.24-1.25-3.12-4.88-4.48-8.16-5.24-9.35-2.18-19.06-2.34-28.64-1.67-3.16.22-6.47.58-9.08,2.37s-4.21,5.48-2.65,8.24"/><path d="M266.77,283.17a71,71,0,0,0,9.66,11c3.24,2.95,6.76,5.86,10.82,7.58,9.41,4,18.13-1.55,24.5-8.29,3-3.19,6.64-6.73,7.72-11.13a8.62,8.62,0,0,0-4.46-9.71c-3.9-2.2-8.76-2.75-13.12-3.31a101.2,101.2,0,0,0-16.42-.63c-4.8.17-10.54,0-14.74,2.72-3.74,2.4-5.64,7-3.65,11.15,1.11,2.3,4.54.29,3.43-2-1.66-3.44,2.34-6.19,5.14-6.94,3.66-1,7.71-.91,11.46-1,7.77-.18,16.12.08,23.58,2.47,3.39,1.1,6.1,3.44,4.6,7.27-1.34,3.42-4.36,6.24-6.86,8.83-5.05,5.25-11.94,10.07-19.47,7-3.88-1.57-7.24-4.51-10.26-7.33a66.74,66.74,0,0,1-8.5-9.66c-1.48-2.05-4.93-.07-3.43,2"/><path d="M333.17,295.84l.9,4.73a2,2,0,0,0,.92,1.19,2,2,0,0,0,2.72-.72,2.24,2.24,0,0,0,.2-1.53l-.9-4.73a2,2,0,0,0-3.64-.48,2.28,2.28,0,0,0-.2,1.54"/><path class="cls-2" d="M242.11,264.18c-1-11.36-2.07-22.85-.44-34.14s6.23-22.53,14.78-30.07c4.09-3.6,10.16-6.28,14.85-3.52,4.07,2.38,5.17,7.69,5.66,12.38a159.7,159.7,0,0,1-5.58,61.45"/><path class="cls-8" d="M243.41,264.18c-1.81-19.71-3.68-42.47,9.72-58.89,2.92-3.58,6.6-7.06,11.18-8.31,5-1.37,8.84,1.52,10.3,6.26,1.39,4.5,1.49,9.48,1.72,14.14.26,5.3.26,10.62,0,15.93a159.82,159.82,0,0,1-6.2,36.63,1.29,1.29,0,0,0,2.49.68,163.06,163.06,0,0,0,6.21-35.68,158.42,158.42,0,0,0,.06-18c-.26-5-.34-10.5-2.07-15.26-1.4-3.86-4.23-7.05-8.47-7.6-4.51-.58-8.94,1.72-12.31,4.52-7.72,6.39-12.36,16.06-14.6,25.67-3.05,13.08-1.83,26.64-.62,39.88.15,1.64,2.74,1.65,2.59,0"/><path class="cls-2" d="M316.4,265.5c-3.25-18.8-6.43-38.62.08-56.55,1.69-4.64,4.11-9.19,8-12.29s9.35-4.5,13.88-2.51c5.59,2.45,8,8.93,9.6,14.83a166.66,166.66,0,0,1,5.34,50.11"/><path class="cls-8" d="M317.65,265.16c-3.31-19.15-7.27-41.17,1.59-59.48,2-4.07,4.82-7.92,9-9.88s9.34-1.67,12.79,1.79c2.82,2.83,4.24,6.79,5.31,10.55a150,150,0,0,1,3.34,15,166.35,166.35,0,0,1,2.27,36c-.07,1.66,2.52,1.66,2.59,0a170,170,0,0,0-2.09-35,143.72,143.72,0,0,0-3.71-16.89c-1.15-4-2.75-8.12-5.68-11.18-6.85-7.17-17.51-3.72-22.94,3.31-6.18,8-8.15,19.19-8.63,29-.61,12.61,1.51,25.16,3.65,37.53.29,1.64,2.78,1,2.5-.68"/><path class="cls-24" d="M319.85,211.28c3.5-4.18,8.81-6.63,14.25-5.21,6,1.57,9.44,6.81,11.53,12.36a46.25,46.25,0,0,1,2.91,23.47c-.57,3.9-.73,7.79-2.65,11.35-2.25,4.14-5.95,9-10.94,9.61-4,.47-8.77-.37-11.78-3.05-6-5.4-8.65-15.16-9.23-22.93-.66-8.75-.06-18.3,5.73-25.38l.18-.22"/><path class="cls-25" d="M324.22,219.07c-3.5,1.67-5,8.48-5.45,11.83-.63,4.85.81,10.65,2.8,15,2.26,5,5.94,10,12.09,8.65,3.5-.76,7.1-2.23,8.64-5.67,2-4.49,2.13-10.53,1.75-15.38-.43-5.53-2.35-13.15-7.58-16.11-2.45-1.39-9-2.74-12.25,1.66"/><path class="cls-2" d="M329.17,240.44a2.64,2.64,0,0,0-.1-.3c-.07-.16-.18-.35-.28-.54a2.26,2.26,0,0,0-.11-.22c-.05-.08-.07-.16-.12-.23s-.2-.21-.29-.33a3,3,0,0,0-.51-1.62c-.2-.22-.4-.45-.59-.68a3.57,3.57,0,0,0-1.63-.83,3.23,3.23,0,0,0-.88-.13,3.54,3.54,0,0,0-.86,0,5.92,5.92,0,0,0-2.46.78,8.1,8.1,0,0,0-1.32,1,5.55,5.55,0,0,0-.66.71,9.39,9.39,0,0,0-2.25,4.91,5.57,5.57,0,0,0,.14,2,4,4,0,0,0,.67,1.42,5.25,5.25,0,0,0,1.79,1.58l.22.1a7.65,7.65,0,0,0,.95.34,6.07,6.07,0,0,0,1.35.14,6.72,6.72,0,0,0,3.37-1,11.06,11.06,0,0,0,1.38-1.07,5.7,5.7,0,0,0,.7-.69c0-.06.07-.12.11-.17s0,0,0,0,0-.1.08-.14a5.31,5.31,0,0,0,.79-1.22c.06-.14,0-.28.09-.41a5.3,5.3,0,0,0,.42-.78,10.55,10.55,0,0,0,.15-1.44,8,8,0,0,0-.19-1.09"/><path class="cls-2" d="M335.55,253.56a.83.83,0,0,0,0-.15c0-.09-.1-.19-.15-.29l-.06-.12a.67.67,0,0,0-.06-.12c0-.06-.1-.12-.15-.18a1.66,1.66,0,0,0-.26-.86l-.31-.36a1.94,1.94,0,0,0-.85-.45,5.13,5.13,0,0,0-.9-.08,3.06,3.06,0,0,0-1.27.41,3.94,3.94,0,0,0-.68.54,2.05,2.05,0,0,0-.34.38,5,5,0,0,0-1.17,2.61,3,3,0,0,0,.08,1.07,2.17,2.17,0,0,0,.34.76,2.89,2.89,0,0,0,.93.84l.12.05a4.09,4.09,0,0,0,.49.18,3.27,3.27,0,0,0,.7.08,3.51,3.51,0,0,0,1.74-.56,5.63,5.63,0,0,0,.72-.57,2.53,2.53,0,0,0,.36-.37s0-.06.06-.09h0a.2.2,0,0,1,0-.08,3.39,3.39,0,0,0,.41-.65,1.55,1.55,0,0,0,0-.21,3.36,3.36,0,0,0,.22-.42,2.32,2.32,0,0,0,.05-.38,2.48,2.48,0,0,0,0-.39,2.94,2.94,0,0,0-.1-.58"/><path class="cls-24" d="M252.84,216.58c4-3.09,9.37-4.25,14-1.85,5.19,2.66,7.22,8.12,8,13.6a43.13,43.13,0,0,1-2.12,22c-1.31,3.43-2.25,6.95-4.72,9.79-2.89,3.31-7.26,7-11.92,6.53-3.73-.38-7.91-2.12-10.1-5.18-4.4-6.14-4.8-15.56-3.75-22.75,1.19-8.1,3.67-16.68,10.39-21.95l.2-.16"/><path class="cls-25" d="M255.24,224.56c-3.53.81-6.3,6.7-7.37,9.66-1.56,4.29-1.43,9.87-.51,14.25,1,5,3.38,10.29,9.26,10.33,3.34,0,6.91-.58,9-3.4,2.75-3.68,4.08-9.16,4.73-13.65.72-5.12.53-12.45-3.63-16.21-2-1.76-7.65-4.32-11.49-1"/><path class="cls-2" d="M255.74,243.64a1.43,1.43,0,0,0,0-.29c0-.16-.09-.36-.14-.55l-.06-.22c0-.08,0-.16-.06-.24s-.14-.23-.2-.35a2.84,2.84,0,0,0-.13-1.58l-.4-.74a3.33,3.33,0,0,0-1.32-1.09,3.24,3.24,0,0,0-.77-.3,4.28,4.28,0,0,0-.78-.21,5.74,5.74,0,0,0-2.4.22,7.13,7.13,0,0,0-1.4.65,5.5,5.5,0,0,0-.75.51,8.91,8.91,0,0,0-3.05,4,5.27,5.27,0,0,0-.28,1.87,3.86,3.86,0,0,0,.31,1.43,5,5,0,0,0,1.31,1.8,1.33,1.33,0,0,0,.19.14,8.09,8.09,0,0,0,.79.5,5.75,5.75,0,0,0,1.21.41,6.32,6.32,0,0,0,3.28-.27,11,11,0,0,0,1.47-.69,4.92,4.92,0,0,0,.78-.5l.14-.13,0,0s.06-.09.1-.12a5.09,5.09,0,0,0,1-.94c.08-.12.09-.25.16-.36a5.41,5.41,0,0,0,.55-.62,4.88,4.88,0,0,0,.23-.64,4.45,4.45,0,0,0,.19-.65,7,7,0,0,0,.05-1"/><path class="cls-2" d="M258.89,256.89a.77.77,0,0,0,0-.15,1.74,1.74,0,0,0-.07-.29c0-.05,0-.08,0-.12a.61.61,0,0,0,0-.13c0-.06-.07-.12-.1-.19a1.47,1.47,0,0,0-.07-.83l-.2-.4a1.71,1.71,0,0,0-.68-.57,2,2,0,0,0-.4-.16,3,3,0,0,0-.4-.11,3.1,3.1,0,0,0-1.25.12,4.89,4.89,0,0,0-.73.35,3.37,3.37,0,0,0-.38.28,4.69,4.69,0,0,0-1.59,2.14,2.48,2.48,0,0,0-.15,1,2,2,0,0,0,.16.76,2.53,2.53,0,0,0,.67.95l.09.07a4.81,4.81,0,0,0,.41.27,2.74,2.74,0,0,0,.63.21,3.18,3.18,0,0,0,1.7-.15,5.33,5.33,0,0,0,.76-.37,3.54,3.54,0,0,0,.41-.26l.07-.08h0l.05-.06a3,3,0,0,0,.51-.5c0-.07.05-.13.08-.19a2.37,2.37,0,0,0,.29-.34,3.21,3.21,0,0,0,.12-.33,3.57,3.57,0,0,0,.1-.35,3.38,3.38,0,0,0,0-.55"/><path d="M140.35,692.21c-20.93-3-33.44-22.24-39.38-40.9-3.34-10.45-5.23-21.27-7.55-32S88,597.94,83.29,587.89c-9.53-20.23-23.85-37.71-33.82-57.7C40,511.12,34.33,487.88,44,467.72c4.5-9.46,12.16-17.57,22.22-21s21.55-2.45,30,4.13c1.29,1,3.14-.8,1.83-1.83-15.41-12-37.74-7.1-49.76,7.26-14.06,16.78-14.1,40.08-7.41,60C48.4,538.77,63.56,557.51,75.19,578A133.87,133.87,0,0,1,88.91,611.4c2.93,11.52,4.73,23.29,7.85,34.77s7.64,23,15.41,32.22c7,8.33,16.59,14.74,27.49,16.31,1.63.24,2.33-2.25.69-2.49"/><path d="M82.92,444c7.49-7,18.3-9.35,28.24-7.38s18.59,7.46,25.57,14.5c13.74,13.89,20.39,33.46,22.34,52.56,2.4,23.43-1.36,46.84-3.26,70.16a220.07,220.07,0,0,0-.56,34.54c.86,11.33,3.63,22.08,6.5,33,3,11.53,5.53,24,1.59,35.68-1.65,4.91-4.52,9.36-9,12.14A22.33,22.33,0,0,1,140,692.16c-1.65-.17-1.64,2.42,0,2.59,8.79.93,17.44-2.45,22.46-9.89,5.75-8.52,6.19-19.8,4.85-29.65-1.65-12.11-6.12-23.61-8.14-35.65-2-12.2-2.09-24.65-1.38-37,1.41-24.89,6-49.71,4.23-74.71-1.45-20.17-7.48-40.78-21.16-56.14-7.59-8.51-17.7-15.39-29-17.61-10.88-2.14-22.55.36-30.76,8.05-1.22,1.14.61,3,1.83,1.82"/><path class="cls-22" d="M115.47,612.09a40.48,40.48,0,0,0,3.9,35.77c2.78,4.26,6.94,8.24,12,8.37,5.46.15,10.2-4.46,11.71-9.71s.41-10.9-1.4-16.06c-2.81-8.06-8.2-21.18-17.14-24-4.2-1.34-7.53,1.5-9.09,5.66"/><path class="cls-8" d="M114.22,611.75a42,42,0,0,0,.29,29.4c2.94,7.54,9.47,17.88,19,16.21a14,14,0,0,0,9.53-7.37c2.4-4.46,2.4-9.73,1.39-14.58a64.36,64.36,0,0,0-4.24-12.35,49.68,49.68,0,0,0-6.12-10.81c-2.55-3.29-6.08-6.65-10.36-7.34-4.68-.76-7.92,2.88-9.51,6.84-.62,1.54,1.88,2.21,2.49.68,1.57-3.88,4.76-6.14,8.84-4.23a19.41,19.41,0,0,1,7.18,6.53A62,62,0,0,1,141.18,633c2.24,7.55,2,19.6-7.76,21.71-8.41,1.82-14.26-8.44-16.66-14.93a39.75,39.75,0,0,1-.05-27.39c.57-1.56-1.92-2.24-2.49-.68"/><path class="cls-22" d="M54.65,494.19a26.33,26.33,0,0,0,13.23,27.64,14.87,14.87,0,0,0,6.89,1.92,8.14,8.14,0,0,0,6.37-2.85c2-2.55,1.84-6.15,1.08-9.29a30.39,30.39,0,0,0-11.73-17.4A17.41,17.41,0,0,0,63.32,491a9.45,9.45,0,0,0-7.49,1.74"/><path class="cls-8" d="M53.4,493.85c-2.32,12.36,4.82,26.61,17.21,30.53,3.14,1,6.79,1,9.61-.92A9.26,9.26,0,0,0,84,515.19c-.21-6.69-3.87-13.45-8.4-18.22-4.92-5.17-13.68-10.55-20.45-5.38-1.31,1,0,3.25,1.3,2.24,5.36-4.1,12.1,0,16.24,3.89A29.07,29.07,0,0,1,81,512.2c.64,2.82.83,6.32-1.45,8.49s-5.56,2.06-8.28,1.19c-5.19-1.64-9.53-5.71-12.25-10.33a24.75,24.75,0,0,1-3.15-17c.3-1.62-2.19-2.32-2.5-.68"/><path class="cls-22" d="M96.5,471.33a26.32,26.32,0,0,0-2.42,30.54,14.86,14.86,0,0,0,5,5.12,8.15,8.15,0,0,0,6.94.73c3-1.2,4.67-4.4,5.59-7.49a30.41,30.41,0,0,0-1.42-20.94,17.33,17.33,0,0,0-4.57-6.4,9.49,9.49,0,0,0-7.36-2.25"/><path class="cls-8" d="M95.59,470.41c-8.14,9.49-9,24.8-.83,34.57,4.29,5.1,11.87,6.38,15.95.36,3.87-5.7,4.09-14,2.66-20.55-1.57-7.13-6.44-16.48-15.1-15.44-1.64.19-1.66,2.78,0,2.58,6.76-.81,10.53,6.12,12.13,11.66a28.29,28.29,0,0,1-.56,17.84c-1,2.56-2.8,5.1-5.73,5.43-3.28.37-6.1-1.81-8-4.29a23.73,23.73,0,0,1-4.53-14.48,24.77,24.77,0,0,1,5.82-15.85c1.07-1.25-.75-3.09-1.83-1.83"/><path class="cls-22" d="M130.52,471.33a26.32,26.32,0,0,0-2.42,30.54,14.83,14.83,0,0,0,5,5.12,8.17,8.17,0,0,0,6.95.73c3-1.2,4.67-4.4,5.59-7.49a30.41,30.41,0,0,0-1.42-20.94,17.44,17.44,0,0,0-4.57-6.4,9.49,9.49,0,0,0-7.36-2.25"/><path class="cls-8" d="M129.61,470.41c-8.14,9.49-9.06,24.8-.83,34.57,4.29,5.1,11.87,6.38,15.95.36,3.87-5.7,4.09-14,2.66-20.55-1.57-7.13-6.44-16.48-15.11-15.44-1.63.19-1.65,2.78,0,2.58,6.77-.81,10.54,6.12,12.14,11.66a28.29,28.29,0,0,1-.56,17.84c-1,2.56-2.8,5.1-5.73,5.43-3.28.37-6.1-1.81-8-4.29a23.67,23.67,0,0,1-4.53-14.48,24.82,24.82,0,0,1,5.81-15.85c1.08-1.25-.74-3.09-1.82-1.83"/><path d="M168,659.79a139.23,139.23,0,0,1,19.46-47A150.09,150.09,0,0,1,204,591.87c5.9-6.29,11.77-12.22,20.17-15,8.11-2.63,16.87-3.18,25.33-3.67,9.53-.54,19.09-.55,28.63-.18,16.6.64,35.63,1,48.72,12.7,14.85,13.29,18.39,34,21.46,52.68.27,1.64,2.76.94,2.5-.69-2.86-17.35-6.09-35.65-17.88-49.45a44.48,44.48,0,0,0-20-13.34c-8.22-2.73-17-3.49-25.55-4-10.09-.62-20.21-.89-30.32-.61-9.19.27-18.59.71-27.63,2.54a47.4,47.4,0,0,0-11.31,3.69,39.09,39.09,0,0,0-9.88,7.31,163.2,163.2,0,0,0-18.34,20.87A141.4,141.4,0,0,0,165.5,659.1c-.35,1.63,2.15,2.32,2.49.69"/><path d="M216.36,578.16c-6.71,9.29-13.15,21.17-8.77,32.87C210.94,620,222.48,626.61,231,620c4-3.09,6.1-8.36,4.49-13.24a1.31,1.31,0,0,0-1.9-.77c-9.41,5.17-13.58,17.92-8.17,27.42s18.5,13.48,28,7.43a21.25,21.25,0,0,0,9.18-12.66c.59-2.37,1-5.33,0-7.63a3.85,3.85,0,0,0-4.94-2.21c-5,2-4.32,9.05-2.54,13a17.13,17.13,0,0,0,12.29,9.65c12.6,2.23,22.84-8.3,24.43-20.13.48-3.56,1.19-12.43-4.13-13-5.58-.62-5.61,7.5-4.55,11a17.79,17.79,0,0,0,10.4,11.14c5.35,2.14,11.56,1.17,16.41-1.78,10.06-6.1,13.5-21.25,6.78-31.1-2.75-4-8.41-7.77-13.05-4.25-3.51,2.68-3.64,8.32-.95,11.61,3.38,4.12,9.9,3.82,13.93.9,4.85-3.51,6.38-10,5.92-15.66a56.38,56.38,0,0,0-2.26-10.74,1.29,1.29,0,0,0-2.49.68c1.46,5.18,3,10.7,1.84,16.09-1,4.31-3.76,8.38-8.38,9.14-4.36.72-8.61-2.29-7.75-7,1-5.22,6.62-4.13,9.5-1.23,6.52,6.59,5.67,19.21-.24,25.86s-16.56,8.36-23.27,1.87c-2.84-2.75-5.37-7.46-4.27-11.53.69-2.56,2.88-3.17,3.75-.44a18.31,18.31,0,0,1,.41,6.76c-.73,9.38-7.1,18.29-16.91,19.45a14.6,14.6,0,0,1-12.12-4.12c-2.66-2.66-5.13-7.36-3.79-11.2.29-.82,1.14-2.46,2.16-2.57,1.46-.16,1.76,1.67,1.81,2.73a15.51,15.51,0,0,1-1.16,6.38,18.74,18.74,0,0,1-7.78,9.14c-8.34,5-19.51,1.32-24.08-7.08s-.68-19.18,7.4-23.62l-1.9-.77c1.65,5-1.7,10.53-6.59,12.16-5.34,1.77-11.29-1.28-14.39-5.64-7.92-11.09-.19-25.07,6.59-34.46,1-1.36-1.26-2.65-2.23-1.31"/><path class="cls-11" d="M448.47,464.8a3.26,3.26,0,0,1-.71.54c-.86.43-3.1-.22-4.16-.27a36.5,36.5,0,0,0-5.21.18A37.7,37.7,0,0,0,428,468.19c-5,2.05-10.34,3.8-14.57,7.31-3.72,3.1-7.58,6.42-11.07,9.85a70.92,70.92,0,0,0-16,25.06,413.53,413.53,0,0,0-14.73,46.46c-5.37,20.6-7.7,44.3-16.07,63.9-9.1,21.29-20.37,41.67-18.13,65.63,1.8,19.3,14.81,32.71,35.26,30.29,8-1,15.48-4,22.73-7.42,11.65-5.48,16.18-16.22,23.6-26,4.77-6.27,9.5-11.88,12.25-19.35,2.85-7.76,5.16-15.74,7.75-23.58,5.22-15.76,9-29.92,18.38-44a225.3,225.3,0,0,1,17.54-22.27c8.7-10.09,17.67-20.06,24.95-31.26,6.75-10.39,13.65-23.82,13.16-36.58a44.83,44.83,0,0,0-2.14-12.42c-1.14-3.25-3.6-5.4-5.07-8.35-.78-1.57-.19-3-.31-4.93-.67-11.32-13.24-22.53-23.53-25.4a36,36,0,0,0-20.78.93,32.1,32.1,0,0,0-8.92,4.25c-1.31,1-2.58,3.32-3.8,4.49"/><path class="cls-14" d="M439.55,479.71c-31.86.7-45.61,22.62-53.54,51.72-4.12,15.11-4.61,30.44-7,45.87-2.55,16.57-7.56,32.29-13.79,48.08-9,22.83-32,67.73,4.5,78.48,18.72,5.52,33.5-12.74,43.07-26.94,17.17-25.47,21.44-56.69,32.95-84.44A134.06,134.06,0,0,1,469.53,554c10.06-11.25,22.27-20,29.52-33.59,10.43-19.6.14-41.46-22.29-32.37-1-8.5-9.25-16.5-17.55-17.82-9.93-1.58-15.44,4.45-19.66,9.46"/><path d="M448.16,462.53c-19.66-.35-37.79,10.37-50.25,25-14.05,16.53-21,37.81-25.48,58.68-4.94,22.73-7.31,46.08-14.66,68.24-6.86,20.65-20,39.88-21.61,62-.69,9.83,1.29,20,6.95,28.22a31.41,31.41,0,0,0,24.48,13.63c19.67,1.15,36.7-12,47.72-27.07,12.86-17.65,18.56-39,25.91-59.22a170.23,170.23,0,0,1,14.57-31.15,294.83,294.83,0,0,1,19-26.65c13-16.67,27.46-33.54,35.21-53.46,3.68-9.45,5-20.09.88-29.63-3.57-8.21-11.26-14.12-20.44-14a17.75,17.75,0,0,0-11.32,4.19c-1.27,1.07.56,2.89,1.83,1.83,7.31-6.18,18.5-3.46,24.23,3.47,6.59,8,6.75,19.21,3.95,28.7-2.94,10-8.58,19.25-14.34,27.87s-11.95,16.55-18.24,24.58c-12.56,16.07-24.94,32.25-33,51.14-8.36,19.61-13.06,40.8-23.32,59.6-8.58,15.73-21.56,30.66-39.39,35.67-10,2.82-21.56,2.18-29.87-4.65-7.46-6.14-11.44-15.7-12.22-25.18-1.71-20.8,9.74-39.87,17.41-58.4,8.6-20.75,11.91-42.92,15.92-64.88,3.74-20.46,8.39-41.3,19-59.44,9.55-16.35,24.71-30.33,43.41-35a51.88,51.88,0,0,1,13.65-1.56,1.29,1.29,0,0,0,0-2.58"/><path d="M507.36,484.8a37.13,37.13,0,0,0-19.05-27.91c-11.66-6.25-25.95-5-36.78,2.41-5.08,3.46-9.64,8.26-10.42,14.6-.2,1.64,2.39,1.63,2.59,0,.82-6.71,7.16-11.57,12.71-14.53A33,33,0,0,1,479,456.16c13.47,3,24.08,15,25.78,28.64.2,1.63,2.79,1.65,2.58,0"/><path class="cls-22" d="M421.67,488.81A35.25,35.25,0,0,0,407.91,513c-.35,3.26.09,7.17,2.93,8.81,2.22,1.29,5,.64,7.4-.38a27.62,27.62,0,0,0,16.26-25.1c0-3-.66-6.14-2.73-8.29s-8-1.34-10.1.79"/><path class="cls-8" d="M421,487.7a37,37,0,0,0-12.81,17.84c-1.74,5.23-3.92,15.63,3.27,17.93,3.53,1.14,7.5-.73,10.48-2.53a28.5,28.5,0,0,0,7.78-7c4.3-5.59,6.82-13,5.87-20.07-.46-3.5-2.09-7.49-5.93-8.21a10.65,10.65,0,0,0-8.92,2.26c-1.21,1.14.62,3,1.83,1.83a8,8,0,0,1,6.4-1.6c3.05.51,3.95,4.21,4.16,6.86a25.64,25.64,0,0,1-4.76,16.43,26.36,26.36,0,0,1-6.09,6.2c-2.36,1.7-5.38,3.49-8.36,3.59-7.14.24-4.64-10.57-3.4-14.49a34.15,34.15,0,0,1,11.79-16.79c1.31-1,0-3.24-1.31-2.23"/><path class="cls-22" d="M455.66,490.13c-6,2.76-14,13.2-15.65,20.86-.72,3.34-.56,7.2,1.79,9.67a8.59,8.59,0,0,0,7.95,2.12,16.28,16.28,0,0,0,7.4-4.16,30.2,30.2,0,0,0,8.7-14c1-3.65,1.32-7.77-.53-11.1s-6.39-5.29-9.66-3.36"/><path class="cls-8" d="M455,489c-5.46,2.62-9.73,8.16-12.73,13.26s-6,12.6-2.34,18.09a9.31,9.31,0,0,0,8.38,3.9c3.56-.22,6.71-2.09,9.34-4.38a30,30,0,0,0,10.22-19.06c.37-3.85-.54-8-3.65-10.59A8.28,8.28,0,0,0,455,489c-1.47.79-.16,3,1.3,2.23,2.42-1.3,5.33-.21,7.06,1.73,2.11,2.35,2.28,5.9,1.78,8.87a28.14,28.14,0,0,1-8.53,15.5c-2.21,2.08-4.95,4-8.06,4.31-2.9.28-5.85-.95-7-3.76-2-4.82.74-10.63,3.22-14.73,2.77-4.58,6.61-9.55,11.55-11.92,1.5-.72.19-2.95-1.3-2.23"/><path class="cls-22" d="M478,510.68A45.71,45.71,0,0,0,462.62,529c-1.12,2.4-2,5.32-.65,7.6a6.14,6.14,0,0,0,5.75,2.58,17.76,17.76,0,0,0,6.26-2.06,48.51,48.51,0,0,0,9.92-5.82,17.53,17.53,0,0,0,6.29-9.42c.84-3.75-.18-8-3.13-10.51s-7.82-2.57-10.45.24"/><path class="cls-8" d="M477.37,509.57a47.53,47.53,0,0,0-13.86,14.89c-1.64,2.8-3.56,6.15-3.51,9.49a6.5,6.5,0,0,0,5.41,6.31c3.43.69,6.66-.84,9.67-2.29a48.15,48.15,0,0,0,9.74-5.81c4.87-4,8.41-10.43,6.36-16.8a10.16,10.16,0,0,0-6.46-6.75,9,9,0,0,0-9,2c-1.17,1.18.66,3,1.83,1.83A6.36,6.36,0,0,1,484,511.1a7.5,7.5,0,0,1,4.71,5.14c1.6,5.32-1.45,10.45-5.41,13.81a37.69,37.69,0,0,1-7.75,4.8c-2.58,1.29-5.47,3-8.45,3s-4.93-2-4.47-4.94c.42-2.74,2-5.4,3.43-7.73a44.53,44.53,0,0,1,12.59-13.38c1.35-.95.06-3.19-1.31-2.23"/><path class="cls-22" d="M387.37,613.71a45.59,45.59,0,0,0-17.55,27.42c-1.22,6-1,12.91,3.18,17.44,3.22,3.51,8.34,4.92,13.06,4.31a24.81,24.81,0,0,0,12.7-6.11,36.91,36.91,0,0,0,12.73-26c.32-6.79-1.6-14.14-6.89-18.4s-14.39-3.89-17.92,1.92"/><path class="cls-8" d="M386.71,612.59a47.27,47.27,0,0,0-17.77,26.58c-1.26,5.18-1.68,10.92.4,16a14.89,14.89,0,0,0,11.5,8.92c11.22,1.87,21.48-6.83,26.78-15.94s7.37-21.16,2.55-30.77a15.86,15.86,0,0,0-12-9c-4.89-.65-9.89,1-12.64,5.27-.91,1.4,1.33,2.7,2.23,1.31,2.2-3.39,6.37-4.58,10.24-4a13.34,13.34,0,0,1,9.76,7.43c4.27,8.17,2.62,18.76-1.43,26.66-4.26,8.33-12.87,17-22.9,16.71a12.8,12.8,0,0,1-11.49-7c-2-4.27-1.74-9.39-.76-13.88a44.41,44.41,0,0,1,16.81-26c1.32-1,0-3.23-1.31-2.24"/><path d="M400.48,405.51c-4.45-10.54-10.8-20.29-17.85-29.27-7.37-9.37-15.8-18.12-25.65-24.89-1.38-1-2.67,1.29-1.31,2.23,9.66,6.64,17.92,15.3,25.13,24.49a127.56,127.56,0,0,1,17.45,28.75c.65,1.53,2.87.21,2.23-1.31"/><path d="M177.73,419.29a108.55,108.55,0,0,1,59.43-57.71c1.54-.6.87-3.1-.68-2.49A111.42,111.42,0,0,0,184.69,401a108.61,108.61,0,0,0-9.2,17c-.65,1.51,1.58,2.83,2.24,1.31"/><path class="cls-11" d="M365.52,437.42c-1.74,5.47-3.31,11.08-3.4,16.82s1.44,11.7,5.25,16,10.15,6.57,15.56,4.63,8.93-8.59,6.64-13.85a20.44,20.44,0,0,0,17.24,5.58c6.17-1.06,11.73-5.72,13.36-11.77s-1.09-13.14-6.59-16.13c5.6,4.19,14.51,1.78,18.18-4.18s2.42-14.14-2-19.59-11.37-8.36-18.33-9-14,.71-20.71,2.58"/><path d="M364.28,437.07c-3.81,12-6.88,29.46,6.13,37.34,4.79,2.91,11.24,3.5,15.93.06,4.21-3.09,6.45-8.82,4.48-13.81l-2.17,1.26c7.92,7.35,20.66,8.73,28.56.53,7-7.25,6-19.7-3-24.88a1.29,1.29,0,0,0-1.31,2.23,13.73,13.73,0,0,0,13.73.81,14.86,14.86,0,0,0,8.41-11.82c1.59-12.66-9.38-21.88-20.9-23.83-8-1.36-16,.15-23.75,2.26a1.3,1.3,0,0,0,.69,2.5c12.79-3.51,31.35-5.46,39.19,8.23,3,5.33,3.46,12.87-1,17.61-3.82,4.09-10.43,5.32-15.1,2l-1.31,2.23c7.8,4.48,8.25,15.25,2,21.25-7,6.72-17.73,5.29-24.47-1-.86-.8-2.67,0-2.16,1.26A9.62,9.62,0,0,1,383.84,473c-4.68,2.58-10.68.87-14.43-2.57-9.15-8.41-5.89-22.41-2.64-32.7.5-1.59-2-2.27-2.49-.69"/><path class="cls-11" d="M177.31,414c-6.58-2.12-13.94-2.52-20.28.23s-11.37,9-11.39,15.93,5.85,13.67,12.76,13.52c-13.51,4.58-12.15,23.47,1.73,26.29,5.57,1.14,11.52-.95,15.72-4.78-1.27,5.3,2.26,11.1,7.35,13s11.16.2,15-3.63a20,20,0,0,0,5.44-14.9,31.52,31.52,0,0,0-5.17-15.3"/><path d="M177.65,412.74c-11.29-3.52-25.6-1.77-31.43,9.89a15.66,15.66,0,0,0,0,14.69A14.16,14.16,0,0,0,158.4,445c-.11-.85-.23-1.69-.34-2.54-8.51,3-12.86,12.37-8.88,20.7A15,15,0,0,0,159,471c6.37,1.61,12.91-.71,17.72-4.94l-2.16-1.26a13,13,0,0,0,5.8,13.37c4.88,3.17,11.49,2.44,16.2-.68,5-3.3,7.69-9,8.27-14.81.66-6.74-1.77-13.35-5.25-19-.87-1.42-3.11-.12-2.24,1.3,5.28,8.58,7.94,21.07-.3,28.86-3.5,3.3-8.94,4.85-13.53,3.07a10.4,10.4,0,0,1-6.45-11.41,1.3,1.3,0,0,0-2.16-1.26c-6.82,6-19.17,6.94-23.53-2.45a12.39,12.39,0,0,1,7.33-16.91,1.3,1.3,0,0,0-.34-2.54c-4.57,0-8.46-3.08-10.34-7.14a13.49,13.49,0,0,1,1.31-12.93c5.95-9.29,18-10.07,27.6-7.06,1.59.49,2.27-2,.68-2.5"/><path d="M199.66,445.2a74.85,74.85,0,0,1,13-13.24,1.29,1.29,0,1,0-1.83-1.83,77.69,77.69,0,0,0-13.42,13.76,1.29,1.29,0,0,0,2.23,1.31"/><path d="M155.76,455.86a7.6,7.6,0,0,0,3.57,6,2.07,2.07,0,0,0,1.54.2,2,2,0,0,0,1.18-.91,2,2,0,0,0-.71-2.72c-.15-.1-.29-.19-.43-.3l.41.31a5.37,5.37,0,0,1-1-1l.31.4a6.33,6.33,0,0,1-.73-1.23l.21.47a5.5,5.5,0,0,1-.4-1.44c0,.18.05.35.07.53l0-.33a2.1,2.1,0,0,0-.58-1.4,2,2,0,0,0-1.41-.58,2,2,0,0,0-2,2"/><path d="M153.58,425.13a6.12,6.12,0,0,0-.09,3.34,6,6,0,0,0,1.64,2.86,2.06,2.06,0,0,0,1.41.58,2,2,0,0,0,1.4-.58,2,2,0,0,0,.59-1.4,2.05,2.05,0,0,0-.59-1.41,5.14,5.14,0,0,1-.38-.42c.11.13.21.26.31.4a4.8,4.8,0,0,1-.54-.93l.2.47a4.62,4.62,0,0,1-.29-1.09c0,.17,0,.35.07.52a4.26,4.26,0,0,1,0-1.07c0,.18-.05.35-.07.53a4.67,4.67,0,0,1,.17-.74,2,2,0,0,0-1.39-2.45,2,2,0,0,0-2.44,1.39"/><path d="M185.24,469.85l3.44.86a2.07,2.07,0,0,0,1.54-.2,2,2,0,0,0,.91-1.19,2,2,0,0,0-1.39-2.44l-3.45-.87a2.1,2.1,0,0,0-1.53.21,2,2,0,0,0-.71,2.72,2.09,2.09,0,0,0,1.19.91"/><path d="M374,467.67a13.65,13.65,0,0,0,3.88.15,14.81,14.81,0,0,0,4.13-1.13,2,2,0,0,0,.92-1.19,2,2,0,0,0-1.39-2.45,2.38,2.38,0,0,0-1.53.2l-.11.05.48-.2a12.32,12.32,0,0,1-2.91.8l.53-.07a12.21,12.21,0,0,1-3,0l.53.07-.46-.07a2.14,2.14,0,0,0-1.53.2,2,2,0,0,0,.48,3.63"/><path d="M405.7,458l3.45-2.15a2,2,0,0,0,.91-1.19,2,2,0,0,0-1.38-2.45,2.11,2.11,0,0,0-1.54.2l-3.45,2.16a2.09,2.09,0,0,0-.91,1.19,2,2,0,0,0,.2,1.53,2,2,0,0,0,2.72.71"/><path d="M422.12,422.8a4.6,4.6,0,0,1,.28,1.09c0-.17,0-.35-.07-.53a5.08,5.08,0,0,1,0,1.35c0-.18.05-.36.07-.53a5.13,5.13,0,0,1-.35,1.29l.2-.47a5.93,5.93,0,0,1-.29.56,2.07,2.07,0,0,0-.2,1.54,2,2,0,0,0,3.63.47,7.1,7.1,0,0,0,.94-3.07,4.83,4.83,0,0,0,0-1.14,6.89,6.89,0,0,0-.35-1.62,2.17,2.17,0,0,0-.91-1.19,2.07,2.07,0,0,0-1.54-.2,2,2,0,0,0-1.19.92,2,2,0,0,0-.2,1.53"/><path class="cls-26" d="M270.17,275.09A424.31,424.31,0,0,0,144,305.68q-16.75,6.92-32.87,15.26c-.74.38-.08,1.49.66,1.11a423.29,423.29,0,0,1,122-41q18.08-3.14,36.38-4.66c.82-.07.83-1.37,0-1.3"/><path class="cls-26" d="M270.36,284.61a349.83,349.83,0,0,0-79.51,33.45q-10.68,6.15-20.92,13.05c-.68.46,0,1.58.66,1.11a349.12,349.12,0,0,1,77-39q11.43-4.1,23.12-7.39a.64.64,0,0,0-.34-1.24"/><path class="cls-26" d="M277.05,292.77a307.43,307.43,0,0,0-67.84,33.61q-9,6-17.65,12.59c-.66.5,0,1.63.65,1.12A307.17,307.17,0,0,1,277.39,294c.78-.27.45-1.52-.34-1.24"/><path class="cls-26" d="M312.82,291.54a395.07,395.07,0,0,1,91,33.61c.74.38,1.4-.74.66-1.12a397,397,0,0,0-91.36-33.74c-.81-.19-1.15,1.06-.34,1.25"/><path class="cls-26" d="M317.63,283.42a578.5,578.5,0,0,1,91.73,28.15q12.9,5.16,25.54,11c.75.34,1.41-.77.65-1.12a579.38,579.38,0,0,0-90.79-32.73q-13.32-3.58-26.78-6.51c-.81-.18-1.16,1.07-.35,1.25"/><path class="cls-26" d="M316.15,276A477.55,477.55,0,0,1,452,287.2q18.67,4.29,36.95,10.08c.8.25,1.14-1,.35-1.25a479.48,479.48,0,0,0-134.44-22.12q-19.37-.37-38.7.81c-.83,0-.84,1.35,0,1.29"/><path class="cls-8" d="M245.85,196.14a28.12,28.12,0,0,1,16.62-16.48c1.84-.65,4.54-1.73,6.49-1.15.75.22,1.31.67,1.06,1.49-.33,1.11-1.66,1.61-2.65,1.91-4.78,1.47-9.83,1.81-14.52,3.6-4.49,1.72-8.74,4.59-10.84,9.05-.88,1.88,1.59,4.29,3.12,2.41a62.42,62.42,0,0,1,11.08-10.71,55.35,55.35,0,0,1,6.48-4.22c2.17-1.2,4.62-2.21,7.12-1.52l-.48-3.63a30.23,30.23,0,0,1-8.36,4c-2.44.73-1.4,4.57,1.06,3.83a33.54,33.54,0,0,0,9.31-4.4,2,2,0,0,0-.47-3.63c-5.76-1.61-11.45,2.36-15.89,5.56a66.2,66.2,0,0,0-12.66,11.91l3.13,2.41c2.21-4.69,7-7,11.79-8.29,2.9-.78,5.87-1.26,8.79-1.93,2.67-.61,5.58-1.36,7.16-3.82a5,5,0,0,0-1-6.75c-2.37-1.89-5.48-1.43-8.21-.73a32.1,32.1,0,0,0-22,20c-.88,2.41,3,3.45,3.83,1.06"/><path class="cls-8" d="M352.16,195.08a32.34,32.34,0,0,0-20.37-19.58c-2.43-.77-5.31-1.55-7.83-.77a5.16,5.16,0,0,0-3.69,6.17c.72,2.7,3.19,4.18,5.71,4.91,2.85.83,5.82,1.27,8.71,1.93,5.52,1.24,11.46,3.36,14,8.83l3.13-2.41a66.49,66.49,0,0,0-12.66-11.91c-4.45-3.2-10.13-7.17-15.89-5.56a2,2,0,0,0-.47,3.63,33.54,33.54,0,0,0,9.31,4.4c2.45.74,3.5-3.1,1.05-3.83a30,30,0,0,1-8.35-4l-.48,3.63c2.5-.69,4.94.32,7.12,1.52a55.35,55.35,0,0,1,6.48,4.22A62,62,0,0,1,349,197c1.52,1.87,4-.51,3.13-2.41-4.24-9-14.93-10.16-23.47-12.16-1.1-.26-5.57-1.18-4.53-3.21.9-1.76,4.61-.44,6,0a28.19,28.19,0,0,1,18.18,17c.88,2.38,4.72,1.35,3.84-1.06"/><path d="M282.45,157.78a96.32,96.32,0,0,1,42.26-10.47l-.66-2.41a77.66,77.66,0,0,0-11.19,10.41c-.77.86-.05,2.68,1.26,2.16a58.35,58.35,0,0,1,42.7-.3c1.55.6,2.23-1.9.69-2.49a60.58,60.58,0,0,0-44.08.29l1.26,2.17a74.91,74.91,0,0,1,10.67-10,1.31,1.31,0,0,0-.65-2.41,99.17,99.17,0,0,0-43.57,10.83c-1.48.76-.17,3,1.31,2.23"/><path class="cls-11" d="M358.1,159.07c0-9.65.86-18.78.86-28.42,0-10-1.68-19.41-1.72-29.15-.06-13.92,3.2-25.53,6.89-38.92,3.79-13.71,10.11-23.08,20-33,6-6,11.4-12.4,17.9-17.87,4.42-3.73,8.7-10.31,15-10.32C418,7,413.86,13,412.93,18.49c-1.2,7.15-.87,14.21-.56,21.4.66,15.76,3.8,30.52,8.23,45.71,6.79,23.26,7.72,54-10,73.13-6,6.51-12.22,12.44-21.21,14.25-12.46,2.5-28.72.2-31.27-13.91"/><path class="cls-22" d="M367.57,163.19c-3.17-4.44-1.31-12-1.49-17.05-.29-8.29.87-16.68,1.29-25,.91-18.17,2.42-35.92,9.15-53.45,3.58-9.34,7.16-18.6,12.6-27.07a57,57,0,0,1,8.19-10.23c2.06-2,4.29-5.08,6.93-6.24,1.06,2.25-1.89,6.1-2.41,8.39a61.86,61.86,0,0,0-1.07,11c-.38,10.28,4,20,5.72,29.92,1,5.58,1.8,11.21,3,16.76,1.25,5.76,3.07,11.18,3,17.14-.22,13.5-6,27.8-13.25,39-2.48,3.86-6.56,6.72-9.76,10-1.69,1.73-3.14,3.55-4.94,5.17-2.47,2.23-5.54,5.83-8.57,7-.13-1.56,3.22-5.26,4.2-6.67,2.18-3.14,5-5.82,7.19-9,2.4-3.41,5.65-7.65,5.9-12,.17-2.93-.82-6.14-1.67-8.91-4.61,3.55-5.43,10.59-8.64,15-1.11-3.05-1.38-6.18-2-9.37-2.28,4.52-4.24,9.5-6.52,14.14a78,78,0,0,1-4.1,7c-.9,1.43-1.44,3.39-2.7,4.44"/><path d="M380.51,177.69c11.08-1.15,20.66-7.9,27.94-16a67.63,67.63,0,0,0,15.83-31.35c2.79-13.16,1.9-26.55-.65-39.66C421,77,416.75,63.52,415,49.63a94.45,94.45,0,0,1-.08-23.22,224.85,224.85,0,0,1,4.94-24.78A1.31,1.31,0,0,0,418,.17,125.14,125.14,0,0,0,371.42,44.5a115,115,0,0,0-13.33,32.4,120.74,120.74,0,0,0-2.76,35.31c.84,14.73,3.05,29.57.86,44.29-.25,1.62,2.25,2.33,2.49.68,1.86-12.47.71-25-.25-37.5-.93-12.12-1.3-24.16.9-36.17a114.48,114.48,0,0,1,31.09-59.27A126.15,126.15,0,0,1,419.26,2.4L417.36.94c-3.16,13.28-6.28,26.74-5.66,40.48.58,13.16,4,26,7,38.72,3.06,13,5.59,26.17,4.53,39.58a68.21,68.21,0,0,1-12.06,34.48c-7.15,10-17.91,19.58-30.64,20.91-1.64.17-1.66,2.76,0,2.58"/><path d="M400.28,24.74c-26.44,27-34.66,65.69-35.48,102.3-.26,11.68.14,23.36.74,35,.08,1.65,2.67,1.66,2.58,0-1.93-37.77-1.68-77.66,16.71-111.83a104.74,104.74,0,0,1,17.28-23.68c1.16-1.19-.67-3-1.83-1.82"/><path d="M375.09,170.11a74.7,74.7,0,0,0,34.06-43A71.24,71.24,0,0,0,412,99.09c-1.19-11.67-4.89-22.84-7.54-34.21-2.93-12.62-4.54-26.4.69-38.67.64-1.51-1.59-2.83-2.24-1.3-9.1,21.4.75,43.75,5.06,65a71.22,71.22,0,0,1-10.87,56.43,70.1,70.1,0,0,1-23.3,21.56,1.29,1.29,0,0,0,1.3,2.23"/><path d="M375.36,155l6.3-17.23h-2.49a44.92,44.92,0,0,1,2.37,9.48,1.3,1.3,0,0,0,2.54.34,47.71,47.71,0,0,1,9-14.34l-2.2-.91c.14,1.4.29,2.81.43,4.22.17,1.63,2.76,1.65,2.59,0-.15-1.41-.29-2.82-.44-4.22-.1-1-1.38-1.82-2.2-.92a51.28,51.28,0,0,0-9.7,15.49l2.54.34a48.7,48.7,0,0,0-2.47-10.17,1.3,1.3,0,0,0-2.49,0q-3.15,8.63-6.31,17.23c-.57,1.57,1.93,2.24,2.5.69"/><path d="M231.35,267a111.65,111.65,0,0,1,39.82,4.25,1.29,1.29,0,0,0,.68-2.49,113.58,113.58,0,0,0-40.5-4.34c-1.65.12-1.66,2.7,0,2.58"/><path d="M306.74,270.84a128.37,128.37,0,0,1,49.58-9.75,1.3,1.3,0,0,0,0-2.59,130.27,130.27,0,0,0-50.26,9.85c-1.52.63-.86,3.13.68,2.49"/><path d="M244.65,303.25c8,7.33,18.18,13,29.26,13,9.84,0,19.74-4.78,24.75-13.43,1.28-2.22-2.16-4.22-3.44-2-4.43,7.66-13.28,11.62-21.93,11.46-9.78-.18-18.8-5.33-25.83-11.8-1.88-1.73-4.7,1.08-2.81,2.81"/><path d="M293.73,303c3,8.37,12.1,11.89,20.39,10.21,9.74-2,16.66-9.71,22.81-16.9,1.66-1.93-1.14-4.76-2.81-2.81-5.16,6-10.7,12.62-18.5,15.19-6.62,2.19-15.44.59-18.06-6.74-.85-2.4-4.7-1.36-3.83,1.05"/><path d="M273.36,313.75c1.59,5.94,3.54,12.41,9,15.91,4.47,2.84,10.71,2.31,13.82-2.26l-1.77.47c3.95,2.93,9.67,1.72,13-1.65,3.92-4,4.17-10.19,3-15.35-.38-1.62-2.87-.93-2.49.69,1,4.12.95,9.11-2,12.49-2.5,2.87-7,3.94-10.15,1.59a1.31,1.31,0,0,0-1.77.46c-2.75,4-8.43,3.14-11.66.27-3.83-3.41-5.18-8.54-6.46-13.31a1.29,1.29,0,0,0-2.49.69"/><path d="M296.26,326.15a77.64,77.64,0,0,1-2-18,1.29,1.29,0,0,0-2.58,0,81.21,81.21,0,0,0,2.06,18.65c.38,1.62,2.87.94,2.5-.68"/><path d="M244,305.08a18.64,18.64,0,0,1,3.17-3.17l-.41.31a18.42,18.42,0,0,1,3.28-2A2,2,0,0,0,251,299a2,2,0,0,0-2.92-2.25,19.52,19.52,0,0,0-6.85,5.51,2.2,2.2,0,0,0-.58,1.4,2.06,2.06,0,0,0,.58,1.41,2,2,0,0,0,1.41.58,1.9,1.9,0,0,0,1.41-.58"/><path d="M256.91,312c6.38,3.24,10.13,9.36,13.59,15.37s6.83,13.07,13,16.74c6.46,3.83,14.2,1.8,19.79-2.59,6.41-5,9.56-12.74,13.33-19.7a70.9,70.9,0,0,1,18.09-21.6c2-1.6-.84-4.4-2.82-2.82a73.85,73.85,0,0,0-15.52,17.05c-4.34,6.63-7,14.43-12.06,20.56-4.39,5.29-12.16,9.57-18.8,5.67-5.85-3.45-8.92-10.77-12.21-16.4-3.61-6.21-7.8-12.37-14.38-15.72-2.28-1.15-4.29,2.28-2,3.44"/><path d="M281.89,349.14a21,21,0,0,0,27.74-2.82c1.11-1.23-.71-3.07-1.83-1.83a18.42,18.42,0,0,1-24.61,2.41c-1.34-1-2.63,1.26-1.3,2.24"/><path d="M278.6,333.71a11.41,11.41,0,0,1,13.23,3.62,1.32,1.32,0,0,0,1.77.47,1.31,1.31,0,0,0,.47-1.77,14.05,14.05,0,0,0-16.77-4.55,1.29,1.29,0,0,0-.46,1.77,1.31,1.31,0,0,0,1.76.46"/><path d="M292.79,335.24a9.15,9.15,0,0,1,12.65-.4c1.23,1.11,3.06-.71,1.82-1.83a11.63,11.63,0,0,0-16.3.4c-1.17,1.19.66,3,1.83,1.83"/><path d="M252.69,349.89a24.23,24.23,0,0,1,9.23,5c2.79,2.56,4.57,5.81,6.76,8.84,4.41,6.12,10.73,11.05,18.33,12.24a1.31,1.31,0,0,0,1.26-2.16,17.4,17.4,0,0,1-4.41-7.85l-2.16,1.26a26.06,26.06,0,0,0,33,.37,1.3,1.3,0,0,0-.26-2l-9.82-4.42-.65,2.41a30.26,30.26,0,0,0,30.2-18.75l-2.54-.34-.15,7.34a1.3,1.3,0,0,0,2.59,0c.05-2.45.09-4.89.14-7.34,0-1.56-2-1.62-2.54-.35A27.65,27.65,0,0,1,304,361a1.3,1.3,0,0,0-.65,2.41l9.81,4.42c-.09-.67-.17-1.35-.26-2a23.41,23.41,0,0,1-29.36-.37,1.3,1.3,0,0,0-2.16,1.26,20,20,0,0,0,5.07,9l1.26-2.16c-8.63-1.34-14.33-7.34-18.94-14.28a27.89,27.89,0,0,0-15.38-11.8c-1.59-.52-2.27,2-.69,2.49"/></g></g></svg>