<svg xmlns="http://www.w3.org/2000/svg" xmlns:xlink="http://www.w3.org/1999/xlink" viewBox="0 0 538.8 531.4"><defs><style>.cls-1,.cls-9{fill:none;}.cls-2{opacity:0.22;}.cls-3{clip-path:url(#clip-path);}.cls-4{fill:#1c1b1b;}.cls-5{fill:#969492;}.cls-14,.cls-6{fill:#fff;}.cls-7{fill:#c6c6c6;}.cls-8{fill:#ed4040;}.cls-9{stroke:#ff8a8a;stroke-width:65.44px;}.cls-14,.cls-9{stroke-miterlimit:10;}.cls-10{clip-path:url(#clip-path-2);}.cls-11{fill:#158baf;}.cls-12{fill:#176d8e;}.cls-13{fill:#c16767;}.cls-14{stroke:#000;stroke-width:4.31px;}</style><clipPath id="clip-path"><rect class="cls-1" x="461" y="215.6" width="66.77" height="76.26"/></clipPath><clipPath id="clip-path-2"><rect class="cls-1" x="123.21" y="446.63" width="219.35" height="44.98"/></clipPath></defs><title>CISTOAsset 43SOFIJA</title><g id="Layer_2" data-name="Layer 2"><g id="Layer_1-2" data-name="Layer 1"><g id="Sofija"><g class="cls-2"><g class="cls-3"><path class="cls-4" d="M526.86,241.31c-1.67,2.55-4.44,2.72-6.46,4.63-3.85,3.67,1.64,3.45,0,6.75-1.12,2.29-11.54,5.32-14,6.5-10.51,4.93-23.17,9.87-32.46,17.14-5.52,4.33-8.82,10.12-12.94,15.53-.14-9.47,2.14-19.67,2.92-29.18.8-9.74,6.78-12.43,15.22-16.61,7.52-3.72,14.49-8.55,22.47-11.24,3.37-1.14,6.86-1.93,10.16-3.25,8.69-3.47,8.72-8.9,13.91-16,3.12,7.84,2.05,17.12,1.18,25.71"/></g></g><path class="cls-5" d="M518.86,214.67c-7.89-12.26-24-22.14-38.53-24.76a12,12,0,0,0-5.42,0c-4.17,1.22-6.84,6.4-10.05,9,7.93,2.95,18.59,1.51,27.09,3.93,6.86,1.95,21.85,6.55,26.91,11.81"/><path class="cls-4" d="M462.82,200.39a96,96,0,0,1,55.71,14.84.65.65,0,0,0,.89-.88c-10-14.84-27.28-25.2-45.45-24.84a.65.65,0,0,0,0,1.29c17.7-.35,34.55,9.74,44.33,24.2l.89-.88a97.24,97.24,0,0,0-56.37-15c-.83,0-.84,1.33,0,1.29"/><path class="cls-6" d="M463.53,265.62c0,109.25-88.57,197.82-197.83,197.82S67.87,374.87,67.87,265.62,156.45,67.79,265.7,67.79s197.83,88.57,197.83,197.83"/><path class="cls-6" d="M462.52,263.66c0,109.26-88.57,197.83-197.83,197.83S66.86,372.92,66.86,263.66,155.43,65.83,264.69,65.83,462.52,154.4,462.52,263.66"/><path class="cls-7" d="M181.19,406.5c1.46,18.78,11.8,37.42,28.7,45.73,10,4.91,21.37,6,32.47,7,15.46,1.37,31,2.74,46.5,1.61s30.06-3.59,43.24-11.8c7.57-4.71,15.17-12.09,21.27-18.58,4.5-4.79,8.92-10.21,9.86-16.72.85-5.91-1.32-11.81-3.44-17.4l-14.52-38.16c-1.28-3.35-2.63-6.82-5.21-9.33-3.47-3.38-8.54-4.41-13.33-5.18a307.92,307.92,0,0,0-118.45,4.18c-11.48,2.69-14,6.57-18.83,17.21-5.89,12.94-9.38,27.2-8.26,41.48"/><path class="cls-7" d="M198.25,182c-22.85,15.21-36.49,43.28-34.33,70.65.55,7,1.66,19.45,2.31,26.38.34,3.63-16.8,26.78-19.64,44.49l9.94-1.86-5,7.34h9.06l-6,4.72c32.14,21.14,71.95,28.51,110.35,26.26s75.72-13.55,111.65-27.28L367,328.44a58,58,0,0,0,19-7.88,20.47,20.47,0,0,1-11.24-11.44,12.32,12.32,0,0,0,8.06-2.26c-12-15.88-8.66-38-11.71-57.69-5.71-36.88-36.66-67.09-72.58-77.19s-75.4-1.93-107.72,16.74"/><path class="cls-8" d="M244,331.08a17.4,17.4,0,0,0,13.11,5.59c6.47-.34,11.91-4.9,16.17-9.76a13.5,13.5,0,0,0,2.75-4.13,5.26,5.26,0,0,0-.37-4.78c-1.55-2.19-4.72-2.23-7.39-2.05l-19.31,1.28c-3.25.22-6.5.42-9.74.65-1.87.14-1.87.29-1.36,2.07a31.17,31.17,0,0,0,1.35,3.76,27,27,0,0,0,2.06,3.91c.43.66,2.73,2.83,2.73,3.46"/><path class="cls-6" d="M256,307.23a5.84,5.84,0,0,1,2.38-1c1.9-.21,3.45,1.36,4.91,2.58a18.19,18.19,0,0,0,8.71,4,2.62,2.62,0,0,1,1.2.39.84.84,0,0,1,.23,1.12,1.19,1.19,0,0,1-.85.29l-20.72,1.53A11.8,11.8,0,0,1,248,316c-.7-.18-2.5-.91-2.52-1.84s2.35-1.85,3-2.27l7.53-4.63"/><path class="cls-7" d="M319,140.55c11.37-12.31,25.42-21.81,39.74-30.54,8.14,17,11.39,36.15,10.41,55s-6.08,37.3-13.89,54.45c-1.39,3-3.34,6.43-6.65,6.94-2.83.43-5.45-1.47-7.56-3.4a59.19,59.19,0,0,1-12.85-17.11c-1.85-3.72-3.35-7.71-6.17-10.77-3.4-3.68-8.17-5.39-13-6.23-3.82-.65-8-.89-9.89-4.86-3.81-8,4.33-21.55,8.32-28.18A93.18,93.18,0,0,1,319,140.55"/><path class="cls-7" d="M177.19,213a147.32,147.32,0,0,1-15.32-106.22c15.94,7.83,32.27,16,44.3,29,9,9.7,15,21.62,21,33.38,1.85,3.64,3.75,7.59,3.1,11.61-.7,4.32-4.2,7.64-7.84,10.06-12.77,8.48-29.95,10.54-39.78,22.29"/><path class="cls-5" d="M351.83,130.09a125.91,125.91,0,0,1-3.59,78.82c-.57,1.47-1.34,3.1-2.84,3.58-1.74.55-3.61-.85-4.3-2.54a13.24,13.24,0,0,1-.44-5.44c.07-1.83,0-3.79-1.07-5.28-2.15-3-7.21-2.71-9.26-5.78-1.12-1.68-1.13-4.11-2.76-5.29-1.22-.89-2.9-.72-4.35-.35-2.35.6-7.2,1.6-6.88-2.44-5.88,1.46-.12-9.93.62-11.46a126.52,126.52,0,0,1,21.37-31.3c1.27-1.36,13.69-11.84,13.5-12.52"/><path class="cls-5" d="M156.11,127.54c.36-2.53,1.09-5.44,3.43-6.48s5.25.57,7.38,2.24A102.5,102.5,0,0,1,201,171.94c.91,2.8,1.7,5.83.83,8.65-1.48,4.81-6.92,6.91-11.35,9.33a36.66,36.66,0,0,0-7.59,5.5c-2.35,2.18-4,5.69-6.34,7.63-5.31,4.33-9.42-7.6-11-11.1a117.87,117.87,0,0,1-10.23-40.71,114.54,114.54,0,0,1,.83-23.7"/><path class="cls-5" d="M343.31,265c3.56,2.34,8.2,1.94,12.43,1.45l11.81-1.36c1.46-.17,3.1-.44,4-1.64a5.34,5.34,0,0,0,.49-3.71c-.27-2.49.17-10.77-1.71-12.46s-6.18,4-8,5.49a84.64,84.64,0,0,1-9.09,6.76c-1.05.67-9,6.14-9.92,5.47"/><path class="cls-5" d="M334.27,286.88c3.13,3.54,8.14,4.57,12.79,5.4l25.3,4.53c1.26.23,2.85.32,3.52-.78a3.26,3.26,0,0,0,.05-2.46c-.58-2.32-1.3-10.75-3.48-11.83-1.71-.83-10.21,3.13-12.37,3.62a81.47,81.47,0,0,1-13,1.81c-2,.11-11.45,1.29-12.8-.29"/><path class="cls-5" d="M315.76,320.75c16.36-.72,31.05,7.8,40.46,19.7-5.24,1.84-11.3,3-16.55,4.87-4.53,1.59-6.31,4.05-8.46-.83a92.32,92.32,0,0,0-7-13.32c-1.26-1.91-6-7.3-8.47-10.42"/><path class="cls-5" d="M163,335.47a3.84,3.84,0,0,0-.64,2.54c.27,1.19,1.5,1.85,2.61,2.36l12.54,5.76a2,2,0,0,0,1.61.24c.79-.35.76-1.46.65-2.31a29.77,29.77,0,0,1,2.42-15.79,30.72,30.72,0,0,1,4.39-7.09c1.28-1.55,4.29-3.65,1.09-4.92-3.44-1.37-11.58,4.8-14.13,6.78A39.53,39.53,0,0,0,163,335.47"/><path class="cls-5" d="M147.94,320.61a2.28,2.28,0,0,0-.24,2.17c.51.79,1.68.68,2.57.39,6.15-2,10.21-7.64,14.74-12.26a55.36,55.36,0,0,1,8.94-7.37c2-1.29,8.06-3.38,8.56-5.44-13.92-1.12-28.76,10.66-34.57,22.51"/><path class="cls-5" d="M188.14,270.66c-.94,1.56-3,1.87-4.85,1.9a40.58,40.58,0,0,1-10.42-1.15c-2.57-.62-5.24-1.61-6.77-3.76a11.09,11.09,0,0,1-1.6-4.28c-.8-3.94-1.53-8.91-.47-12.84,1.89.72,3.59,4.26,5,5.91a54.11,54.11,0,0,0,5.63,5.7c1,.9,12.87,9.56,13.5,8.52"/><path class="cls-5" d="M207.73,396.23A62.52,62.52,0,0,1,186.35,390c-1.25-.63-2.59-1.41-3.07-2.73a5.89,5.89,0,0,1,.39-3.81c.88-2.62,2.3-10.92,4.64-12,2.88,4.53,5,9.37,8.34,13.67,2,2.55,7.67,10.67,11.08,11.1"/><path class="cls-5" d="M222.37,413.65a24.64,24.64,0,0,0,7.49-8.11A38.45,38.45,0,0,0,246,436c.45-3.2.91-6.41,1.37-9.61a21.51,21.51,0,0,0,16,15.93,53.51,53.51,0,0,1-13-28q-3.8,5.3-7.58,10.61a66,66,0,0,1-8.37-30.2l-10,10.65c-.15-1.95.24-5.6-1.07-7-.57,1.74-.3,14.88-1,15.22"/><path class="cls-5" d="M259,350.87a14.22,14.22,0,0,0,12.2-9.61c-.58,1.81-7.86,3.15-9.49,3.45a34.53,34.53,0,0,1-10.69,0c-3.62-.46-5.35.15-1.7,3.05a14.09,14.09,0,0,0,9.68,3.08"/><circle class="cls-9" cx="265.7" cy="265.7" r="228.43"/><path class="cls-4" d="M526.23,265.7a260.48,260.48,0,0,1-403.6,217.77,262.56,262.56,0,0,1-57.86-51.9A259.28,259.28,0,0,1,5.94,286a263.09,263.09,0,0,1,6.64-82.19,259.63,259.63,0,0,1,30.18-72.95A261.69,261.69,0,0,1,158.19,28.31,257.94,257.94,0,0,1,235.64,6.87a263.62,263.62,0,0,1,82.23,3.52A259.56,259.56,0,0,1,392.48,38,259.88,259.88,0,0,1,526.23,265.7c0,3.33,5.18,3.34,5.17,0a265.24,265.24,0,1,0-3.12,40.8,271.82,271.82,0,0,0,3.12-40.8c0-3.33-5.16-3.33-5.17,0"/><path class="cls-4" d="M459.93,265.7A194.33,194.33,0,0,1,212.58,452.57a193.66,193.66,0,0,1-53.49-24.49,196.06,196.06,0,0,1-43.25-38.8A193.09,193.09,0,0,1,72.05,280.77,195.81,195.81,0,0,1,77,219.6a193.76,193.76,0,0,1,22.56-54.53,195,195,0,0,1,86.15-76.41,191.94,191.94,0,0,1,57.53-15.91,196.29,196.29,0,0,1,61.46,2.63,194.28,194.28,0,0,1,153,160.6,195.86,195.86,0,0,1,2.24,29.72c0,3.33,5.18,3.34,5.17,0a199.44,199.44,0,0,0-384-75.44A198.25,198.25,0,0,0,66.9,250.34a200.38,200.38,0,0,0,5,62.55,198.15,198.15,0,0,0,23.15,56.05,199.63,199.63,0,0,0,210.69,92.13,198.08,198.08,0,0,0,56.79-21,200.37,200.37,0,0,0,81.72-85.53,198,198,0,0,0,18.44-58,205,205,0,0,0,2.38-30.81c0-3.33-5.16-3.33-5.17,0"/><path class="cls-6" d="M490.21,331.16a13.07,13.07,0,1,1,15.64-9.84,13.07,13.07,0,0,1-15.64,9.84"/><path class="cls-4" d="M490.9,328.66A10.48,10.48,0,0,1,488.5,309a10.49,10.49,0,1,1,2.4,19.66c-3.25-.69-4.64,4.29-1.38,5A15.92,15.92,0,0,0,506.2,327a15.65,15.65,0,1,0-16.68,6.65c3.23.78,4.61-4.2,1.38-5"/><path class="cls-6" d="M91.48,110.86a13.06,13.06,0,1,1-18.36,2.07,13.07,13.07,0,0,1,18.36-2.07"/><path class="cls-4" d="M89.65,112.69a11.91,11.91,0,0,1,2.37,2.5,14.48,14.48,0,0,1,.82,1.44c.06.12.12.24.17.37-.14-.31,0,.1,0,.14.12.3.22.6.31.9a10.36,10.36,0,0,1-.06,6.28,10.9,10.9,0,0,1-1.56,3,11.4,11.4,0,0,1-.89,1q-.35.36-.72.69l-.32.27c-.36.29.23-.16-.14.11A11.11,11.11,0,0,1,86.76,131a12.65,12.65,0,0,1-1.58.41,6.67,6.67,0,0,1-1.46.15,10.17,10.17,0,0,1-6.17-1.73A11,11,0,0,1,75,127.45c.15.2-.21-.3-.26-.37-.16-.23-.3-.47-.44-.71a8.68,8.68,0,0,1-.46-.85c-.06-.12-.12-.24-.17-.37L73.6,125a16.44,16.44,0,0,1-.51-1.69c-.06-.26-.11-.53-.15-.8s0,0,0,0c0-.23,0-.45-.06-.68a11.09,11.09,0,0,1,0-1.63c0-.11.1-.88,0-.53,0-.31.11-.62.19-.94a10.39,10.39,0,0,1,3.42-5.67,8.09,8.09,0,0,1,1.39-1c.27-.17.56-.32.84-.47l.5-.23c-.25.1,0,0,.14-.05a13.2,13.2,0,0,1,1.95-.57c.12,0,.88-.15.52-.1A9.81,9.81,0,0,1,83,110.6a10.37,10.37,0,0,1,6.7,2.09,2.68,2.68,0,0,0,3.66,0c.89-.9,1.11-2.8,0-3.66A15.64,15.64,0,0,0,68,124.3,15.65,15.65,0,1,0,93.31,109a2.67,2.67,0,0,0-3.66,0,2.61,2.61,0,0,0,0,3.66"/><path class="cls-6" d="M35.38,305.68a13.07,13.07,0,1,1-9.83,15.64,13.06,13.06,0,0,1,9.83-15.64"/><path class="cls-4" d="M36.07,308.17a10.49,10.49,0,1,1-8.26,10.66,10.55,10.55,0,0,1,8.26-10.66c3.23-.78,1.87-5.77-1.37-5A15.66,15.66,0,1,0,52.54,312c-3-6.87-10.66-10.33-17.84-8.8-3.26.7-1.88,5.68,1.37,5"/><path class="cls-6" d="M152.72,471a13.07,13.07,0,1,1,6.11,17.44A13.07,13.07,0,0,1,152.72,471"/><path class="cls-4" d="M155,472.31a10.48,10.48,0,1,1,3.2,12.74,10.52,10.52,0,0,1-3.2-12.74,2.66,2.66,0,0,0-.93-3.54,2.61,2.61,0,0,0-3.54.93,15.64,15.64,0,0,0,20.63,21.14,15.68,15.68,0,0,0,9-15.32,15.64,15.64,0,0,0-29.61-5.82,2.59,2.59,0,0,0,4.47,2.61"/><path class="cls-6" d="M355.14,482.34a13.06,13.06,0,1,1,17.44,6.11,13.07,13.07,0,0,1-17.44-6.11"/><path class="cls-4" d="M357.37,481a10.47,10.47,0,0,1,2.05-11.7,10.48,10.48,0,0,1,17.92,8.48,10.75,10.75,0,0,1-2.3,5.49A10.52,10.52,0,0,1,357.37,481a2.58,2.58,0,1,0-4.46,2.61,15.65,15.65,0,0,0,29.22-3.31,15.64,15.64,0,1,0-29.22,3.31,2.6,2.6,0,0,0,3.53.92,2.63,2.63,0,0,0,.93-3.53"/><path class="cls-6" d="M456.22,131.29a13.06,13.06,0,1,1,2.07-18.36,13.06,13.06,0,0,1-2.07,18.36"/><path class="cls-4" d="M454.39,129.46a10.61,10.61,0,0,1-5.75,2.08,10.3,10.3,0,0,1-6.1-1.56,10.85,10.85,0,0,1-4.19-4.93c-.11-.28-.35-1-.47-1.53-.07-.27-.12-.53-.17-.8,0,0-.07-.44,0-.2s0-.41,0-.47a12.67,12.67,0,0,1,0-1.63c0-.18,0-.36,0-.54,0,0,.05-.44,0-.19s0-.2,0-.2c0-.17.06-.35.1-.53a10.25,10.25,0,0,1,3.19-5.61,10.64,10.64,0,0,1,2.91-1.91,2.05,2.05,0,0,1,.41-.16l.79-.26c.31-.09.62-.16.93-.23.12,0,.88-.15.53-.11a12.89,12.89,0,0,1,1.76-.08c.27,0,.54,0,.81,0l.41,0c-.4-.05.18,0,.25,0,.53.11,1.06.24,1.58.4a6.27,6.27,0,0,1,1.4.58,10.48,10.48,0,0,1,4.69,4.69,6.77,6.77,0,0,1,.63,1.58q.14.47.24.93c0,.1.19,1,.14.66a12.54,12.54,0,0,1,.08,2,6.26,6.26,0,0,1-.2,1.6,9.5,9.5,0,0,1-1.3,3.3,10.85,10.85,0,0,1-2.66,3,2.62,2.62,0,0,0,0,3.66,2.65,2.65,0,0,0,3.66,0,15.64,15.64,0,1,0-20.12-.13,15.63,15.63,0,0,0,20.12.13,2.61,2.61,0,0,0,0-3.66,2.67,2.67,0,0,0-3.66,0"/><g class="cls-2"><g class="cls-10"><path class="cls-4" d="M123.21,449.86c1.69,7.51,11.12,15.24,17.91,19.74,3.11,2,11.1,7.64,37,12.57,6.66,1.26,23.85-14.69,26.25-14.26a210.54,210.54,0,0,0,41.15,3.56c20.18,0,25.58,8.85,29.37,11.14,7,4.24,12.22,7.28,20.91,8.32,10.73,1.29,22.65,1.28,31.85-5,9.65-6.56,17.78-24.18,13.91-36.06-3.42,1.45-7.47,2-11.2,2.64-11.69,1.87-23.2,4.27-34.85,6.3-12.6,2.2-25,2.22-37.7,2.64-7.45.24-14,1.31-21.22-1-14.74-4.76-29.58-7.71-44.87-10.06-10-1.53-20-1.28-30.09-1.35-8.11-.07-15.76-1.61-23.77-2.29-7-.58-9.65.83-14.65,3.1"/></g></g><path class="cls-5" d="M325.91,432.55a2.42,2.42,0,0,1,.08,1.77,1.72,1.72,0,0,1-2.15.64,5.6,5.6,0,0,1-1.92-1.51,31.35,31.35,0,0,0-23.05-9.32c-1.15,0-2.47.06-3.24-.8-4.15-4.65,12.42-9.71,16-8.62,6.92,2.08,12.21,11.49,14.26,17.84"/><path class="cls-4" d="M240.44,285c-29.83-2.46-59.87,2.4-87.95,12.55A258.49,258.49,0,0,0,128,307.9c-.61.29-.08,1.19.53.9C156,295.59,185.71,287,216.19,285.6a190.53,190.53,0,0,1,24.25.45c.68.06.67-1,0-1"/><path class="cls-4" d="M239.33,285.94c-26.84,5.26-52.11,16.64-75,31.53-.56.37,0,1.28.53.91,22.78-14.85,47.94-26.18,74.71-31.44.66-.13.38-1.13-.28-1"/><path class="cls-4" d="M239.33,290c-23.71,6.73-45.64,18.59-65.32,33.29-.54.4,0,1.31.53.91C194.15,309.57,216,297.75,239.61,291a.52.52,0,0,0-.28-1"/><path class="cls-4" d="M275.12,289.79a208.06,208.06,0,0,1,57.15,36.42c.5.44,1.25-.3.74-.74a209.36,209.36,0,0,0-57.62-36.69c-.62-.26-.89.75-.27,1"/><path class="cls-4" d="M276.86,287.53A295.19,295.19,0,0,1,356,320.09a.53.53,0,0,0,.53-.91,296.18,296.18,0,0,0-79.36-32.66.52.52,0,0,0-.27,1"/><path class="cls-4" d="M277.8,284.88A209.09,209.09,0,0,1,365,300.1a229.13,229.13,0,0,1,24.26,11.55c.59.33,1.12-.58.52-.9-26.64-14.61-56-24-86.36-26.44a207.25,207.25,0,0,0-25.66-.48c-.67,0-.67,1.08,0,1.05"/><path d="M190.37,187.3c-21.84,14.28-27.89,41.71-27,66.19.3,8.56,1.29,17.07,2.38,25.56.21,1.63,2.79,1.65,2.58,0-3.24-25.37-5.59-53.44,9.51-75.74a49.65,49.65,0,0,1,13.86-13.77c1.39-.91.1-3.15-1.3-2.24"/><path d="M374.08,270.6c1-20.5-5.1-39.9-15.81-57.24-.87-1.42-3.11-.12-2.23,1.3,10.49,17,16.46,35.86,15.45,55.94-.08,1.66,2.5,1.66,2.59,0"/><path d="M299.59,182.82c4.53-25.14,22.88-44.33,42.34-59.45,6-4.65,12.17-9.05,18.35-13.44l-1.9-.78A132.16,132.16,0,0,1,359.77,203a126.68,126.68,0,0,1-12,24.4c-.89,1.41,1.35,2.71,2.24,1.3,17.38-27.53,23.79-61.38,18.41-93.44a128,128,0,0,0-7.57-26.8,1.31,1.31,0,0,0-1.9-.78c-21.11,15-43.23,30.93-55.18,54.68a72.73,72.73,0,0,0-6.69,19.76c-.3,1.62,2.19,2.32,2.49.69"/><path d="M314,183.12a141.62,141.62,0,0,1,39.12-52.79l-2.16-.58a139,139,0,0,1-4.58,83.55c-.59,1.56,1.91,2.23,2.5.69a141.46,141.46,0,0,0,4.57-84.92,1.3,1.3,0,0,0-2.16-.57,143.36,143.36,0,0,0-39.52,53.31c-.65,1.52,1.58,2.84,2.23,1.31"/><path d="M323.68,185.69l5.41-8.69a1.29,1.29,0,0,0-2.23-1.31q-2.72,4.35-5.42,8.69a1.3,1.3,0,0,0,2.24,1.31"/><path d="M330.15,192.2l3.54-7.08a1.29,1.29,0,1,0-2.23-1.31l-3.54,7.08a1.32,1.32,0,0,0,.46,1.77,1.31,1.31,0,0,0,1.77-.46"/><path class="cls-4" d="M339,198.65l2-5.06a2,2,0,0,0-2.92-2.24l-.41.31a2.11,2.11,0,0,0-.51.88l-2,5.05a2,2,0,0,0,.2,1.54,2,2,0,0,0,2.72.71l.4-.31a1.91,1.91,0,0,0,.51-.88"/><path d="M174,204.32a124.85,124.85,0,0,1-14.89-74.92,121.66,121.66,0,0,1,4.56-21.63l-1.59.9a107.46,107.46,0,0,1,56.71,47.62,103.2,103.2,0,0,1,8.64,19.5c.51,1.57,3,.9,2.49-.69a110.19,110.19,0,0,0-47.28-59.5,105.66,105.66,0,0,0-19.87-9.42,1.31,1.31,0,0,0-1.59.9,127.12,127.12,0,0,0,1.42,78.09,124.62,124.62,0,0,0,9.17,20.46c.81,1.45,3.05.15,2.23-1.31"/><path d="M230.26,176.26a103.26,103.26,0,0,1,69.17-3.92,1.3,1.3,0,0,0,.69-2.5A106.09,106.09,0,0,0,229,174c-1.53.65-.21,2.88,1.31,2.23"/><path d="M160.14,121.06a80.83,80.83,0,0,1,40.44,59.23c.23,1.65,2.72,1,2.5-.68a83.29,83.29,0,0,0-41.63-60.79c-1.46-.8-2.76,1.43-1.31,2.24"/><path d="M184,186.67a25.75,25.75,0,0,0-12.86-16.9c-.33.79-.66,1.58-1,2.37L186,178.47a1.3,1.3,0,0,0,1.59-1.59,17.74,17.74,0,0,1,.94-15.39l-2.37-.3,3.8,10.59c.55,1.55,3.05.88,2.49-.69l-3.79-10.59a1.31,1.31,0,0,0-2.36-.31,20.16,20.16,0,0,0-1.2,17.37l1.59-1.59-15.79-6.33c-1.36-.54-2.27,1.68-1,2.37a23.19,23.19,0,0,1,11.68,15.35c.37,1.62,2.86.94,2.49-.69"/><path class="cls-4" d="M164,251.54c5.12,9.68,15.29,16.73,25.54,20v-1.24a25.57,25.57,0,0,1-22.38-2.45c-.71-.45-1.36.67-.65,1.11a26.78,26.78,0,0,0,23.38,2.58.65.65,0,0,0,0-1.24c-10-3.22-19.81-10.08-24.77-19.46-.39-.74-1.5-.09-1.12.65"/><path class="cls-4" d="M368.56,245A101.7,101.7,0,0,1,356,256.72a70.11,70.11,0,0,1-14.56,8.4c-.53.23-.35,1.05.15,1.19a47,47,0,0,0,31.33-2.8c.75-.35.1-1.46-.65-1.12a45.57,45.57,0,0,1-30.34,2.67c.06.39.11.79.16,1.18A70.58,70.58,0,0,0,357,257.57a104.14,104.14,0,0,0,12.48-11.64c.57-.61-.34-1.52-.91-.92"/><path class="cls-6" d="M209.56,232.88a28.22,28.22,0,0,0-10.18,25.3c.77,5.72,3.56,11.39,8.4,14.53,4.19,2.71,9.48,3.28,14.4,2.53,9.61-1.46,18.45-8.15,21.71-17.31s.33-20.37-7.46-26.18-20.3-6-26.87,1.13"/><path class="cls-4" d="M208.65,232a29.49,29.49,0,0,0-10.19,28.47,21.42,21.42,0,0,0,7.88,12.85c4.62,3.38,10.66,4.07,16.19,3.21,10-1.55,19.17-8.59,22.6-18.21,3.35-9.38.45-20.94-7.43-27.17-8.21-6.49-21.55-7-29,.85-1.15,1.21.68,3,1.83,1.83,6-6.27,16.19-6.37,23.39-2.18,7.8,4.53,11.4,14.4,9.59,23.06s-9,15.65-17.39,18.33a22.65,22.65,0,0,1-14.79.05c-4.78-1.83-8.08-6-9.65-10.81-3.35-10.24.64-21.73,8.85-28.45,1.29-1-.55-2.87-1.83-1.83"/><path class="cls-11" d="M223.81,242c-8.46,1.93-12.18,9.42-13,15.88s2.93,13.69,9.24,15.3c3.61.92,7.5-.07,10.74-1.91a19.16,19.16,0,0,0,9-11.18,15.45,15.45,0,0,0-2.77-13.9A13,13,0,0,0,223.81,242"/><path class="cls-12" d="M224.49,248.38c-2.21.13-4.87,3.15-5.69,5-1.16,2.7-2.05,5.86-.71,8.61,2.22,4.56,7.48,5.69,12,3.81a7.91,7.91,0,0,0,5.06-6.12,14.23,14.23,0,0,0-1.48-8.26,7.77,7.77,0,0,0-4.79-3.61,9.05,9.05,0,0,0-6,1.18"/><path class="cls-6" d="M286.08,233.76c-7.44,5.93-11.79,15-10.53,24.39.76,5.72,3.55,11.39,8.4,14.53,4.18,2.7,9.47,3.28,14.4,2.53,9.6-1.47,18.44-8.16,21.7-17.31s.34-20.38-7.45-26.18-20-5.11-26.52,2"/><path class="cls-4" d="M285.16,232.85c-8.39,6.84-13.05,17.75-10.31,28.49A21,21,0,0,0,283,273.61c4.72,3.2,10.78,3.71,16.28,2.74,9.85-1.73,18.83-8.83,22.09-18.39,3.16-9.28.31-20.58-7.41-26.78-8.32-6.69-21.42-6.12-28.83,1.67-1.14,1.21.68,3,1.83,1.83,5.83-6.13,15.71-7.24,23-3.11,7.76,4.39,11.35,14.22,9.68,22.77-1.71,8.78-8.81,15.76-17.16,18.53a23.1,23.1,0,0,1-14.4.38,16.53,16.53,0,0,1-10-10.14c-4-10.49.48-21.6,8.87-28.43,1.29-1.05-.55-2.87-1.83-1.83"/><path class="cls-11" d="M300,242c-8.34,1.78-12.18,9.41-13,15.87s2.93,13.7,9.24,15.3a14.76,14.76,0,0,0,10.74-1.9,19.12,19.12,0,0,0,9-11.18,15.44,15.44,0,0,0-2.76-13.9A13,13,0,0,0,300,242"/><path class="cls-12" d="M299.29,248.05c-2.2.13-4.86,3.15-5.68,5-1.17,2.7-2.05,5.85-.72,8.6,2.23,4.57,7.48,5.69,12,3.81a7.86,7.86,0,0,0,5.05-6.11,14.15,14.15,0,0,0-1.48-8.26,7.71,7.71,0,0,0-4.79-3.61,9,9,0,0,0-6,1.18"/><path class="cls-13" d="M237.75,282.19a58.06,58.06,0,0,1,35.84-2.57c2,.5,4.28,1.46,4.62,3.48s-1.56,3.71-3.25,4.91l-11.45,8.1a13.93,13.93,0,0,1-4.57,2.44c-2.66.65-5.43-.32-7.88-1.54a37.86,37.86,0,0,1-9.11-6.34c-2.18-2.05-4.26-5-3.24-7.81"/><path class="cls-4" d="M238.27,284.11a57.22,57.22,0,0,1,21.85-4.21A54.18,54.18,0,0,1,271,281.06a15,15,0,0,1,4.1,1.18c1.74.95,1.12,2.15-.13,3.28-2.78,2.48-6.21,4.47-9.25,6.62-2.78,2-5.89,5.08-9.57,4.56-3.39-.48-6.7-2.68-9.42-4.65-2.48-1.8-7.09-5.08-6.07-8.66.7-2.46-3.14-3.52-3.84-1.05-1.93,6.81,6.11,12.33,11.12,15.23,3,1.74,6.47,3.43,10,3.13s6.33-2.7,9.12-4.68c3.26-2.3,6.62-4.5,9.77-6.95,2.22-1.72,4.18-4.28,3.07-7.22s-4.17-3.79-6.83-4.4a59.9,59.9,0,0,0-35.85,2.82c-2.35,1-1.32,4.8,1.05,3.84"/><path class="cls-4" d="M255.09,300.58a8.22,8.22,0,0,1-3.17,7.61,11.28,11.28,0,0,1-9.41,2c-7.22-1.44-12.3-7.13-17-12.36-1.72-1.91-4.52.91-2.82,2.81,5.85,6.52,12.6,13.43,21.94,13.77,8.09.3,15.91-6.37,14.29-14.88-.48-2.51-4.31-1.45-3.84,1.06"/><path class="cls-4" d="M224.69,295.17a11.12,11.12,0,0,0-4.91,5.12,2.2,2.2,0,0,0-.2,1.53,2.07,2.07,0,0,0,.92,1.19,2,2,0,0,0,2.72-.71,9.41,9.41,0,0,1,1.09-1.83l-.31.41a9.77,9.77,0,0,1,1.7-1.7l-.4.31a9.64,9.64,0,0,1,1.39-.89,2,2,0,0,0,.92-1.18,2.07,2.07,0,0,0-.2-1.54,2,2,0,0,0-2.72-.71"/><path class="cls-4" d="M256.26,300.2c-.26,8.45,7.67,14.27,15.56,14.29,9.38,0,16.87-6.17,23.54-12,1.93-1.69-.89-4.5-2.81-2.82-5.42,4.75-11.41,10-18.9,10.76-6.29.65-13.63-3.08-13.41-10.22.08-2.56-3.9-2.56-4,0"/><path class="cls-4" d="M291.13,300.61a13.71,13.71,0,0,1,2,1.27l-.4-.31a13.35,13.35,0,0,1,2.41,2.4c-.11-.13-.21-.27-.31-.4a14.71,14.71,0,0,1,1.14,1.76,2,2,0,0,0,2.72.71,2,2,0,0,0,.71-2.72,15,15,0,0,0-6.25-6.14,2.17,2.17,0,0,0-1.54-.2,2,2,0,0,0-.47,3.63"/><path class="cls-4" d="M228.56,307l9.77,19c2.72,5.28,5.73,10.15,11.62,12.2a21.29,21.29,0,0,0,15.81-1.09c4.43-2.12,7.62-6,10.19-10.05,3.83-6.07,6.67-12.78,11.57-18.1,1.73-1.89-1.07-4.71-2.81-2.82-4.94,5.38-7.94,12-11.71,18.14-3.08,5-6.9,9.31-12.89,10.57A16.39,16.39,0,0,1,250,334c-3.12-1.44-5.08-4.17-6.7-7.09-4-7.16-7.53-14.59-11.27-21.87-1.17-2.28-4.6-.26-3.44,2"/><path class="cls-4" d="M239.51,321.66c7.12.16,16.08.91,19.66,8.15,1.14,2.29,4.57.28,3.44-2-4.25-8.57-14.58-9.92-23.1-10.12-2.56-.06-2.56,3.92,0,4"/><path class="cls-4" d="M254.4,323.51a18.85,18.85,0,0,1,19,1.61,2,2,0,0,0,2.72-.72,2,2,0,0,0-.71-2.72,22.83,22.83,0,0,0-23-1.6c-2.3,1.14-.28,4.57,2,3.43"/><path class="cls-4" d="M236.65,317.42a101.06,101.06,0,0,0,41,.91q-1.25-2.16-2.51-4.32l-3.78,4.12,4.06,3.13a29.53,29.53,0,0,1,4.78-5.39c2.49-2.22-1.18-5.86-3.66-3.65a35,35,0,0,0-5.59,6.43c-1.65,2.43,2.08,5.29,4.06,3.13l3.78-4.11a2.6,2.6,0,0,0-2.51-4.32,94.76,94.76,0,0,1-38.28-.92c-3.24-.75-4.62,4.24-1.37,5"/><path class="cls-4" d="M236.49,311.36h-.07l.69.09a.86.86,0,0,1-.23-.06l.62.26a.82.82,0,0,1-.2-.12l.52.4a.91.91,0,0,1-.17-.17c.13.18.27.35.4.52a1.18,1.18,0,0,1-.11-.19c.09.21.17.42.26.62a.74.74,0,0,1,0-.14A3,3,0,0,0,237,311a2,2,0,0,0-1-.31,2,2,0,0,0-1,.05l-.61.26a2.59,2.59,0,0,0-.93.93c-.09.2-.17.41-.26.62a2.65,2.65,0,0,0,0,1.37c0,.05,0,.1,0,.15s.18.46.3.68l0,.06a4.85,4.85,0,0,0,.49.63.57.57,0,0,0,.11.11,5.91,5.91,0,0,0,.63.49l.07,0c.22.11.45.2.68.29l.14,0a4.6,4.6,0,0,0,.83.11,1.87,1.87,0,0,0,1-.22,1.91,1.91,0,0,0,.84-.53,2.87,2.87,0,0,0,.75-1.83l-.09-.69a2.52,2.52,0,0,0-.66-1.14l-.53-.4a2.47,2.47,0,0,0-1.3-.36"/><path d="M224.7,372.64q-1.66,16.78-3.35,33.56a1.31,1.31,0,0,0,2,1.12,34.68,34.68,0,0,0,11.5-12.27l-2.41-.65a65.6,65.6,0,0,0,10.21,32.84,1.3,1.3,0,0,0,2.41-.65,19.7,19.7,0,0,1,6.59-12.43l-2.21-.92A34.18,34.18,0,0,0,260,437.71c1.21,1.14,3-.68,1.83-1.83A31.51,31.51,0,0,1,252,413.24a1.31,1.31,0,0,0-2.21-.91,22.35,22.35,0,0,0-7.35,14.26l2.41-.65A63,63,0,0,1,235,394.4a1.3,1.3,0,0,0-2.41-.66A31.76,31.76,0,0,1,222,405.08l1.95,1.12q1.67-16.79,3.35-33.56c.16-1.66-2.42-1.64-2.59,0"/><path d="M282.18,370.67a60.05,60.05,0,0,0,5.25,34.07l1.46-1.9a25.68,25.68,0,0,1-12.73-11.18,1.3,1.3,0,0,0-2.41.66,48.62,48.62,0,0,0,12,35.17c1.1,1.25,2.93-.59,1.83-1.83a46,46,0,0,1-11.28-33.34l-2.41.65a28.42,28.42,0,0,0,14.27,12.36c1.15.47,1.89-1,1.46-1.9a56.78,56.78,0,0,1-5-32.07c.22-1.63-2.27-2.33-2.5-.69"/><path d="M194.17,354.34A78.19,78.19,0,0,0,183,419.49a1.29,1.29,0,0,0,2.49-.69,75.72,75.72,0,0,1,10.92-63.16c1-1.35-1.27-2.65-2.23-1.3"/><path class="cls-5" d="M343.88,359.12C340.7,375.63,325,389.68,313.18,399a77.16,77.16,0,0,0,38.92-18.71"/><path class="cls-4" d="M343.26,358.94c-3.39,16.81-17.67,29.45-30.54,39.56-.57.45.08,1.18.63,1.08a78.48,78.48,0,0,0,39.21-18.87c.62-.56-.29-1.47-.91-.92A77.28,77.28,0,0,1,313,398.34l.63,1.08c13.05-10.25,27.44-23.11,30.87-40.13.17-.82-1.08-1.16-1.24-.35"/><path class="cls-4" d="M187.14,370a50,50,0,0,0,22,27.77l.33-1.2a56.58,56.58,0,0,1-26.34-9.63c-.68-.47-1.33.65-.65,1.11a57.77,57.77,0,0,0,27,9.81c.66.06.84-.9.32-1.21a48.64,48.64,0,0,1-21.37-27c-.25-.79-1.5-.45-1.25.34"/><path class="cls-4" d="M169.6,329.81a33.3,33.3,0,0,1,25-14.29c-.11-.4-.21-.8-.32-1.2a28.18,28.18,0,0,0-15.57,30.3c.14.82,1.39.47,1.25-.34a26.87,26.87,0,0,1,15-28.84.66.66,0,0,0-.33-1.21,34.69,34.69,0,0,0-26.09,14.93c-.47.69.65,1.33,1.12.65"/><path class="cls-4" d="M314.38,321A66.11,66.11,0,0,1,332,346.85c.28.78,1.53.44,1.24-.34a67.44,67.44,0,0,0-18-26.42c-.62-.55-1.54.36-.92.91"/><path class="cls-4" d="M314.87,321.38a57.69,57.69,0,0,1,21,4.55c7.55,3.07,14.79,7.63,19.8,14.16.5.65,1.63,0,1.12-.65-5-6.56-12.13-11.2-19.69-14.39a59.16,59.16,0,0,0-22.22-5,.65.65,0,0,0,0,1.29"/><path class="cls-4" d="M372.6,280.32a67.85,67.85,0,0,1-42.15,5.77.65.65,0,0,0-.5,1.18c6.93,4.24,15.11,6.35,23,7.85a131.59,131.59,0,0,0,24.57,2.41.65.65,0,0,0,0-1.29,130.29,130.29,0,0,1-24.22-2.36c-7.8-1.49-15.88-3.54-22.71-7.72l-.49,1.18a69.38,69.38,0,0,0,43.14-5.9c.75-.36.09-1.48-.65-1.12"/><path class="cls-4" d="M163,306.43a34.91,34.91,0,0,1,23.72-7.32l-.17-1.27a57.26,57.26,0,0,0-23.67,14.27.65.65,0,0,0,.91.92,55.92,55.92,0,0,1,23.1-13.95.65.65,0,0,0-.17-1.27,36.27,36.27,0,0,0-24.63,7.71c-.65.51.27,1.42.91.91"/><path class="cls-4" d="M203.38,223.78a28.3,28.3,0,0,1,18.72-15c1.81-.43,4.61-1.2,6.37-.34,2.32,1.14-.52,2.8-1.82,3.11-5,1.17-10.29.83-15.31,2.18-4.66,1.25-9.05,3.79-11.6,8a2,2,0,0,0,3.12,2.41,62.11,62.11,0,0,1,12.21-9.49c3.88-2.3,9.44-5.92,14.08-4.1-.16-1.21-.31-2.42-.47-3.63a30.46,30.46,0,0,1-8.75,3.06c-2.51.47-1.45,4.31,1.06,3.83a33.67,33.67,0,0,0,9.7-3.46c1.64-.88,1-3-.48-3.63-5.46-2.15-11.6,1.33-16.26,4a66.22,66.22,0,0,0-13.9,10.63l3.12,2.41c2.72-4.48,8-6.17,12.94-6.92,3-.47,6.1-.63,9.15-1,2.6-.34,5.3-.89,7-3.13a5,5,0,0,0-.41-6.66c-2-1.94-4.82-2-7.41-1.64a31.5,31.5,0,0,0-13.69,5.17,32,32,0,0,0-10.77,12.27c-1.12,2.29,2.31,4.31,3.44,2"/><path class="cls-4" d="M319.57,213a29.44,29.44,0,0,0-18.85-15.18c-3.26-.84-9.47-2.23-11.29,1.72-1.07,2.32.34,4.73,2.3,6,2.12,1.36,4.78,2.13,7.1,3.1l17.4,7.3a2,2,0,0,0,2.24-.92,2.06,2.06,0,0,0-.31-2.41,41.73,41.73,0,0,0-23.23-13.83c-2.49-.52-3.56,3.31-1.05,3.83a38.26,38.26,0,0,1,21.47,12.82l1.93-3.33L305,206.93l-6.28-2.64-2.9-1.21c-.75-.32-2.14-.69-2.57-1.47-.58-1,1.83-.68,2.37-.64a23.43,23.43,0,0,1,4.84.88,25.69,25.69,0,0,1,8.64,4.43,25.13,25.13,0,0,1,7.07,8.72c1.14,2.3,4.57.28,3.44-2"/><path d="M166.64,278.74C153.3,289.77,153.8,308.2,145,322a1.3,1.3,0,0,0,1.12,1.94,38.52,38.52,0,0,0,11.06-1.88l-1.59-1.59a17,17,0,0,1-5.51,7.47c-.82.64-.26,1.89.57,2.16a20.68,20.68,0,0,0,10.21.63l-1-2.37-5.83,4.5c-.93.71-.77,2.46.65,2.41-.69,0-.42-.13.12.22s1,.58,1.47.88c1.45.88,2.89,1.79,4.34,2.69,2.77,1.74,5.52,3.52,8.32,5.21a82.22,82.22,0,0,0,14.11,6.31A117.52,117.52,0,0,0,202.69,356a118.81,118.81,0,0,0,19.89,2.27,1.29,1.29,0,0,0,0-2.58,118.56,118.56,0,0,1-37.67-7.13A80.26,80.26,0,0,1,170.16,342c-2.82-1.71-5.6-3.5-8.4-5.26-1.55-1-3.09-2-4.66-2.89-.64-.39-1.58-1.16-2.38-1.13.22.8.44,1.6.65,2.4l5.84-4.49a1.3,1.3,0,0,0-1-2.37,17.81,17.81,0,0,1-8.84-.63c.2.72.39,1.44.58,2.16a19.27,19.27,0,0,0,6.17-8.6,1.3,1.3,0,0,0-1.59-1.59,36.17,36.17,0,0,1-10.37,1.79l1.11,1.95c8.61-13.58,8.14-32,21.19-42.76,1.29-1.06-.55-2.88-1.82-1.83"/><path d="M371.49,270.6a52.48,52.48,0,0,0,11,36.71c.08-.68.17-1.36.26-2a22.05,22.05,0,0,1-8.44,2,1.31,1.31,0,0,0-1.12,1.95A29.08,29.08,0,0,0,385.94,322v-2.23a45.78,45.78,0,0,1-20.05,6.92,1.3,1.3,0,0,0-.65,2.4A26.27,26.27,0,0,0,377,333.23l-.65-2.41a215.36,215.36,0,0,1-65.54,20.85c-1.64.24-.94,2.73.69,2.49a217.15,217.15,0,0,0,66.16-21.11c1.26-.64.5-2.28-.66-2.41a23.51,23.51,0,0,1-10.43-3.79c-.22.8-.44,1.61-.65,2.41A48.45,48.45,0,0,0,387.24,322a1.3,1.3,0,0,0,0-2.23,26.76,26.76,0,0,1-11.8-11.82l-1.11,1.95a25.28,25.28,0,0,0,9.74-2.38,1.31,1.31,0,0,0,.27-2,49.87,49.87,0,0,1-10.26-34.88c.14-1.66-2.45-1.65-2.59,0"/><path class="cls-4" d="M298.7,425.67a38.25,38.25,0,0,1,28.42,12.42.65.65,0,0,0,1.1-.46A27.44,27.44,0,0,0,310,413c-.78-.27-1.12,1-.34,1.25a26.12,26.12,0,0,1,17.23,23.36l1.1-.46a39.49,39.49,0,0,0-29.33-12.79.65.65,0,0,0,0,1.29"/><path class="cls-6" d="M227.15,250.34l-.06-.19c0-.11-.11-.23-.16-.36a1,1,0,0,0-.07-.15s0-.11-.07-.15-.12-.15-.17-.22a2,2,0,0,0-.28-1.08l-.36-.46a2.25,2.25,0,0,0-1-.59,2.53,2.53,0,0,0-.56-.11,2.56,2.56,0,0,0-.55-.05,3.68,3.68,0,0,0-1.58.45,4.44,4.44,0,0,0-.87.62,3.05,3.05,0,0,0-.44.44,6.24,6.24,0,0,0-1.57,3.15,3.67,3.67,0,0,0,0,1.32,2.85,2.85,0,0,0,.39.95,3.54,3.54,0,0,0,1.09,1.09l.14.06a4.47,4.47,0,0,0,.6.25,3.59,3.59,0,0,0,.86.14,4.26,4.26,0,0,0,2.17-.59,10.06,10.06,0,0,0,.91-.66,4.78,4.78,0,0,0,.46-.44,1,1,0,0,0,.08-.11l0,0s0-.06.06-.09a3.69,3.69,0,0,0,.54-.77,2.61,2.61,0,0,0,.06-.27,2.76,2.76,0,0,0,.3-.5,3.65,3.65,0,0,0,.07-.46,3.78,3.78,0,0,0,.06-.47,6.06,6.06,0,0,0-.09-.73"/><path class="cls-6" d="M231,254.32s0,0,0-.08-.05-.09-.07-.14a.14.14,0,0,0,0-.06l0-.06-.07-.08a.76.76,0,0,0-.11-.42l-.14-.18a.9.9,0,0,0-.4-.23.79.79,0,0,0-.22,0l-.22,0a1.7,1.7,0,0,0-.62.18,1.72,1.72,0,0,0-.34.24,1.53,1.53,0,0,0-.18.18,2.36,2.36,0,0,0-.61,1.22,1.3,1.3,0,0,0,0,.52,1,1,0,0,0,.15.37,1.33,1.33,0,0,0,.43.42l.06,0,.23.1a2,2,0,0,0,.34.05,1.66,1.66,0,0,0,.86-.23,4.06,4.06,0,0,0,.36-.26,1.41,1.41,0,0,0,.18-.17l0,0h0l0,0a1.3,1.3,0,0,0,.21-.31s0-.07,0-.1.09-.12.11-.19a.63.63,0,0,0,0-.19,1,1,0,0,0,0-.18,2.7,2.7,0,0,0,0-.28"/><path class="cls-6" d="M303.73,253.6a.14.14,0,0,0,0-.07.94.94,0,0,0-.06-.15l0,0s0-.05,0-.06l-.07-.09a.7.7,0,0,0-.11-.42l-.14-.18a.84.84,0,0,0-.4-.23.78.78,0,0,0-.22,0,.75.75,0,0,0-.21,0,1.56,1.56,0,0,0-.63.17,2,2,0,0,0-.34.25,1.37,1.37,0,0,0-.17.17,2.33,2.33,0,0,0-.62,1.23,1.46,1.46,0,0,0,0,.51,1.2,1.2,0,0,0,.15.37,1.47,1.47,0,0,0,.43.43l.06,0a1.15,1.15,0,0,0,.23.1,1,1,0,0,0,.34.05,1.61,1.61,0,0,0,.86-.23c.13-.07.24-.17.36-.25s.13-.11.18-.17l0-.05h0l0,0a1.48,1.48,0,0,0,.21-.3.54.54,0,0,0,0-.1,2,2,0,0,0,.11-.2,1.16,1.16,0,0,0,0-.18c0-.06,0-.13,0-.19a1.35,1.35,0,0,0,0-.28"/><path class="cls-6" d="M301.06,248.84a1.52,1.52,0,0,0-.06-.2c0-.1-.11-.23-.16-.36l-.07-.15a.69.69,0,0,0-.07-.15,1.84,1.84,0,0,0-.17-.22,2.05,2.05,0,0,0-.28-1.08l-.36-.46a2.25,2.25,0,0,0-1-.59,2.53,2.53,0,0,0-.56-.11,3.31,3.31,0,0,0-.55-.05,3.68,3.68,0,0,0-1.58.45,4.44,4.44,0,0,0-.87.62,3.05,3.05,0,0,0-.44.44,6.28,6.28,0,0,0-1.57,3.15,3.46,3.46,0,0,0,0,1.32,2.63,2.63,0,0,0,.38,1,3.54,3.54,0,0,0,1.09,1.09l.14.07a6.25,6.25,0,0,0,.6.24,3.59,3.59,0,0,0,.86.14,4.17,4.17,0,0,0,2.17-.59,7.26,7.26,0,0,0,.91-.66,3.81,3.81,0,0,0,.46-.44,1,1,0,0,0,.08-.11l0,0s0-.06.05-.09a3.44,3.44,0,0,0,.54-.77c0-.09,0-.18.07-.27a4,4,0,0,0,.29-.49,4.11,4.11,0,0,0,.07-.47,3.78,3.78,0,0,0,.06-.47,5.67,5.67,0,0,0-.09-.72"/><path class="cls-4" d="M245,342.77a25.92,25.92,0,0,0,25.64-.75c.57-.35,0-1.25-.53-.9a24.87,24.87,0,0,1-24.58.75c-.6-.32-1.13.58-.53.9"/><path class="cls-7" d="M401.12,322.15c-13.64-29.4-10.84-65.81,7.15-92.77a35.84,35.84,0,0,0,.61,16.12A80.31,80.31,0,0,1,455,200.73q-1.08,3.6-2.18,7.22c17.43-14.12,34.21-29.71,51.64-43.83,4.1-3.32,8.72-7.38,14-7.32,6.6.08,12.47,7.88,15,14a32.92,32.92,0,0,1-4.88,32.41l8.7-2.69a51.59,51.59,0,0,1-31.46,34l10.37,2.14c-12.52,8.69-27.9,11.9-42.15,17.31s-28.68,14.42-33.38,28.92c-3.34,10.31-1.57,23.07,3.22,32.79,2.46,5,6.15,8.65,6.24,14.21.06,3.25-4.57,10.58-7.39,16.1-3.52,6.87-8.74,17.06-12.79,23.63-3.95,6.4-3.09,2.37-5.69-3.94-5.93-14.39-16.47-29.4-23-43.54"/><path class="cls-5" d="M420.83,336.57c6.6,1.09,13.42-1.16,19-4.86,2.45-1.63,4.83-3.71,5.65-6.53.6-2.05-.05-6.31-2.81-6.5-2.37-.16-5.07,4.46-6.57,6-2.37,2.41-11.67,12.5-15.27,11.91"/><path class="cls-5" d="M428.06,298c-2.73.21-12.31,10.47-14.44,12.62-4.11,4.17-8.08,9-12.62,12.61C394.34,310,417.18,298.9,428.06,298"/><path class="cls-5" d="M440.13,285.07c.11-1.6,1.05-1.86,1.89-3.23s1.34-3.3.24-4.47a4.13,4.13,0,0,0-2.48-1c-5.38-.81-16.28.07-21.12,2.76,14.2-1,17.85,4.34,21.47,5.94"/><path class="cls-5" d="M415.19,255.83c9.28-4.76,20.53-6.45,30.25-2.66a79.87,79.87,0,0,0-51.72,30.69c.07-.09-2.34-6.23-1.73-7.93.86-2.43,4.34-5.09,6.1-6.91a65.87,65.87,0,0,1,17.1-13.19"/><path class="cls-5" d="M475.53,227.21c13.53,1.23,25.4,6.09,38.36,10.18-7.43,4-14.67,10-23.08,9.2-4.15-.4-8.84-3.82-12.78-5.17a108.18,108.18,0,0,0-19.77-4.72c-6.3-.89-17.56-.73-26-.17,5.42-5.74,36.33-9.95,43.26-9.32"/><path d="M427.67,375.32c-2.86-21.32-18.95-36.42-27.09-55.53a85.53,85.53,0,0,1-6.44-28,119.14,119.14,0,0,1,1.54-30.23c2.17-11.26,6.57-22.11,14.25-30.76l-2.21-.91,0,15.9a1.3,1.3,0,0,0,2.54.34A80.24,80.24,0,0,1,456,201.46l-1.26-2.16a30.54,30.54,0,0,0-6,10.4c-.44,1.33,1.26,2,2.16,1.26L500,169.56c4-3.41,8-7.21,12.32-10.27s9-2.25,13,1.16c5.77,5,8.85,12.92,9.25,20.4.46,8.37-2.34,16.74-8.73,22.34-1.14,1,.31,2.7,1.57,2l10.82-5.71-1.9-1.46a49.42,49.42,0,0,1-31.55,34.74c-1.09.38-1.37,2.27,0,2.5l12.1,2-.31-2.36c-17.13,10-37.3,13-54.25,23.39-6.75,4.13-12.95,9.33-17.41,15.93a42.12,42.12,0,0,0-7,23.84,45.83,45.83,0,0,0,11.77,30.1c1.12,1.25,2.94-.59,1.83-1.82-12.25-13.65-14.85-34.8-4.63-50.35,8.62-13.13,24-20.25,38.28-25.39,11.11-4,22.49-7.49,32.76-13.47a1.31,1.31,0,0,0-.31-2.36l-12.11-2v2.5a52.09,52.09,0,0,0,33.36-36.56,1.31,1.31,0,0,0-1.9-1.46L526,203l1.57,2c12.18-10.67,12.29-30.68,2.62-43-2.64-3.38-6.3-6.51-10.67-7.21-4.63-.75-8.25,1.87-11.61,4.69-9.18,7.69-18.31,15.45-27.47,23.18l-31.39,26.49,2.16,1.26a26.85,26.85,0,0,1,5.31-9.26c.77-.88.05-2.65-1.26-2.16a83,83,0,0,0-47.56,46.51l2.54.34,0-15.9a1.31,1.31,0,0,0-2.21-.92c-13.67,15.4-17.16,36.55-16.8,56.51A97.16,97.16,0,0,0,395.67,314c3.2,9.79,8.41,18.4,14,27,6.83,10.52,13.72,21.61,15.42,34.29.22,1.62,2.81,1.64,2.59,0"/><path class="cls-4" d="M393.77,276A52.11,52.11,0,0,1,451,253.16l.17-1.27a81.9,81.9,0,0,0-57.29,30.43c-.51.64.4,1.56.92.91a80.68,80.68,0,0,1,56.37-30.05.65.65,0,0,0,.17-1.27,53.42,53.42,0,0,0-58.66,23.45c-.44.7.68,1.35,1.11.65"/><path class="cls-4" d="M490.44,246a83.07,83.07,0,0,0-60.8-8.8c.16.4.33.79.49,1.18a85.24,85.24,0,0,1,75.73-3.14c.75.34,1.41-.77.65-1.12a86.6,86.6,0,0,0-77,3.15.65.65,0,0,0,.5,1.18,81.7,81.7,0,0,1,59.81,8.67.65.65,0,0,0,.65-1.12"/><path class="cls-4" d="M398.77,316.84A53,53,0,0,1,430.82,297c-.17-.39-.33-.79-.5-1.18a95.12,95.12,0,0,0-28.91,27.05c-.48.68.64,1.33,1.12.65A93.5,93.5,0,0,1,431,297a.65.65,0,0,0-.5-1.19,54.31,54.31,0,0,0-32.81,20.4c-.51.66.62,1.3,1.11.65"/><path class="cls-4" d="M442.27,277a29.09,29.09,0,0,0-26.3,3,.65.65,0,0,0,.5,1.19,27.93,27.93,0,0,1,21.53,2.9.65.65,0,0,0,.66-1.12,29.28,29.28,0,0,0-22.53-3l.49,1.18a27.85,27.85,0,0,1,25.31-2.86c.78.3,1.12-.95.34-1.25"/><path class="cls-4" d="M442.63,316.06a47.46,47.46,0,0,1-25.72,21.17.65.65,0,0,0,.17,1.27,39.4,39.4,0,0,0,31.32-14.4c.52-.64-.39-1.56-.92-.92a38.15,38.15,0,0,1-30.4,14l.17,1.27a48.82,48.82,0,0,0,26.49-21.77.64.64,0,0,0-1.11-.65"/><path class="cls-7" d="M152.31,413.16c-11.24,3.24-20.36,11.9-26.22,22-2,3.5-3.77,7.53-2.91,11.48.74,3.39,3.25,6.08,5.74,8.49,9.27,9,20.27,16.89,33,19,5.39.89,11.09.67,16.1-1.51a44.21,44.21,0,0,0,9.38-6.17c4.29-3.38,8.61-6.8,12.06-11s6-9.42,6.11-14.88a18.9,18.9,0,0,0-6.64-14.68c-3.65-3.06-7.79-4-12.4-4.33-4.15-.3-5.94-3.41-9.5-5.5a32,32,0,0,0-24.7-2.88"/><path class="cls-5" d="M142.59,445.84a21.31,21.31,0,0,1,13.91-8.77,15.7,15.7,0,0,0-23.59,12.39c-.17,2.23,1.66,13.19,5.12,10.92,1.46-1,1-5.51,1.32-7a21.11,21.11,0,0,1,3.24-7.51"/><path class="cls-5" d="M151.84,454.06a16.44,16.44,0,0,0,3.23,17.41,19.55,19.55,0,0,1,6.79-20.13c1.36-1,5-2.92,4.81-5-.23-2.77-3.54-1.72-5.22-1.12a16.4,16.4,0,0,0-9.61,8.88"/><path class="cls-5" d="M188.7,463.76a14.81,14.81,0,0,0,6.32-5.58c1.41-2.43,1.54-13.45-3.16-10.21-3,2.07-2.15,12.52-3.16,15.79"/><path d="M183.73,418.82c-6.86-8.29-18.5-10.54-28.62-8.16-11.51,2.71-20.45,11.53-26.86,21a80.85,80.85,0,0,0-4.92,8.25c-1.33,2.62-2.38,5.53-1.31,8.42,1,2.65,3.39,4.76,5.34,6.71a87.22,87.22,0,0,0,7.3,6.55c9.53,7.63,21,13.37,33.28,14.27,6.63.49,13.45-1,17.73-6.45,4.7-6,5.15-13.81,5.42-21.13.07-1.67-2.52-1.66-2.58,0-.24,6.22-.49,12.82-3.94,18.24-3.32,5.19-8.92,7-14.84,6.84-10.91-.23-21.42-5-30.16-11.26a85.66,85.66,0,0,1-12.33-10.89c-2.31-2.46-3.8-4.73-2.52-8.15A44.58,44.58,0,0,1,129,435.3c5.61-8.95,13.35-17.66,23.61-21.22,10-3.48,22.26-1.94,29.29,6.56,1.06,1.29,2.88-.55,1.83-1.82"/><path d="M189.13,466A38.34,38.34,0,0,0,206,422.38a1.29,1.29,0,0,0-2.49.69,35.71,35.71,0,0,1-15.69,40.68,1.29,1.29,0,0,0,1.3,2.23"/><path d="M140.18,461.42a18.88,18.88,0,0,1,8-19c1.38-.91.09-3.15-1.31-2.23a21.57,21.57,0,0,0-9.17,21.88c.32,1.63,2.81.95,2.49-.68"/><path d="M156.91,470.89a18.23,18.23,0,0,1,7.43-19.71c1.38-.9.09-3.14-1.31-2.23a20.86,20.86,0,0,0-8.61,22.63,1.29,1.29,0,0,0,2.49-.69"/><path class="cls-7" d="M293.74,482.84A41.53,41.53,0,0,0,308,486.91a20.91,20.91,0,0,0,14.08-3.76c7.08-5.4,7.67-16.26,8.67-25.11.44-3.8,4.84-9.45,3.36-13s-7.78-3.53-11.15-5.5a46.13,46.13,0,0,0-30.17-5.71c-9.49,1.49-21.6,6.72-27.38,14.85-6.36,8.94,5,18.63,11.33,23.66a82.08,82.08,0,0,0,17,10.49"/><path class="cls-5" d="M274,459.24a14,14,0,0,0,3.9,15.84c-1.67-1.37.5-9.09,1.05-10.74a26.7,26.7,0,0,1,5.86-9.71c3.18-3.49,1.16-4.38-2.9-2.84a14,14,0,0,0-7.91,7.45"/><path class="cls-5" d="M292.7,466.73c-2.69,4.94-2.43,11.78,1.72,15.58a29.42,29.42,0,0,1,10.22-20.73c4.1-3.48.63-5.4-3.2-3.26a22,22,0,0,0-8.74,8.41"/><path d="M286.86,426.42c-7.29,3.15-12.91,8.48-17.35,15A85.27,85.27,0,0,0,263,452.53c-1.89,4-1.83,7.5,1.06,10.92,10.89,12.86,27.49,23.45,44.62,24.37,4.77.26,9.82-.45,13.77-3.34,3.66-2.67,5.87-6.76,7.12-11a1.29,1.29,0,0,0-2.49-.69c-1.08,3.68-2.93,7.25-6.07,9.58-3.33,2.46-7.57,3.06-11.62,2.93a51.05,51.05,0,0,1-22.12-6.44A78.92,78.92,0,0,1,269,464.88a27.81,27.81,0,0,1-3.86-4.33c-1.59-2.45-.72-5,.49-7.42a96.46,96.46,0,0,1,5.29-9.12c4.36-6.7,9.88-12.16,17.29-15.36,1.52-.66.21-2.88-1.31-2.23"/><path d="M280.21,473.28a18.89,18.89,0,0,1,8-19c1.38-.91.08-3.15-1.31-2.23A21.57,21.57,0,0,0,277.71,474c.32,1.63,2.82.94,2.5-.69"/><path d="M296.94,482.75a18.22,18.22,0,0,1,7.42-19.7c1.39-.91.09-3.15-1.31-2.23a20.88,20.88,0,0,0-8.61,22.62,1.3,1.3,0,0,0,2.5-.69"/><path d="M284.17,445.5a47.5,47.5,0,0,1,29.38,21.79,1.29,1.29,0,0,0,2.23-1.31,50.18,50.18,0,0,0-30.93-23c-1.61-.39-2.3,2.1-.68,2.5"/><path d="M330.09,471.18c2.14-4.4,1-9.23,2.12-13.85a26.44,26.44,0,0,1,6.66-11.39c6.24-6.76,14.32-11.53,20.2-18.66,5.7-6.9,8.34-15,5-23.69-1.68-4.38-4-8.51-5.9-12.8s-3.72-8.76-5.43-13.21A274.62,274.62,0,0,1,343,347.47a1.29,1.29,0,0,0-2.49.69,266.22,266.22,0,0,0,18.38,50.2c2.25,4.63,4.65,9.35,4.17,14.65-.42,4.65-2.9,8.9-5.81,12.45-5.59,6.79-13.19,11.42-19.29,17.69a32.91,32.91,0,0,0-7.49,11.09,22.79,22.79,0,0,0-1.37,7c-.14,2.91.08,5.9-1.24,8.6-.72,1.49,1.51,2.81,2.24,1.31"/><path class="cls-14" d="M195.91,39.53a1.68,1.68,0,0,1-.39,1.59,5.5,5.5,0,0,1-1.74,1.3,12.86,12.86,0,0,1-2.44.93,15.57,15.57,0,0,1-2.52.5,6.19,6.19,0,0,1-2.1-.08c-.6-.14-.94-.39-1-.76a4.91,4.91,0,0,0-1.44-3.6,3.25,3.25,0,0,0-2.63-.82,3.81,3.81,0,0,0-2.39,1.51,4,4,0,0,0-.74,3.22,3.32,3.32,0,0,0,1.91,2.88,9.8,9.8,0,0,0,3.83.59c1.5,0,3.13-.09,4.87-.18a15.5,15.5,0,0,1,5.12.59A10.36,10.36,0,0,1,198.74,50a14.08,14.08,0,0,1,3.08,6.57,12.87,12.87,0,0,1,.06,6,13.29,13.29,0,0,1-2.37,5,15.67,15.67,0,0,1-4.13,3.76,17.83,17.83,0,0,1-10.79,2.8,12.8,12.8,0,0,1-9.66-5.14,15.25,15.25,0,0,1-2.69-6.22c-.21-.58.21-1.13,1.26-1.63A16.14,16.14,0,0,1,177.19,60a19.79,19.79,0,0,1,3.95-.47c1.22,0,1.9.17,2,.56a6.42,6.42,0,0,0,2.47,3.83,3.66,3.66,0,0,0,3,.48A4.3,4.3,0,0,0,191,62.52a4.51,4.51,0,0,0,.58-3.36,2.78,2.78,0,0,0-2-2.31,14.62,14.62,0,0,0-4-.46l-5.08.06a16.16,16.16,0,0,1-5.24-.78,10.66,10.66,0,0,1-4.52-2.91,13.14,13.14,0,0,1-2.92-6.37,12.46,12.46,0,0,1,.58-7.68,15.46,15.46,0,0,1,4.29-5.83,17.3,17.3,0,0,1,6.49-3.42,15.54,15.54,0,0,1,7.1-.4,11.83,11.83,0,0,1,6.09,3.17A13,13,0,0,1,195.91,39.53Z"/><path class="cls-14" d="M223.1,20.34a17.4,17.4,0,0,1,6.22,5.56,27.67,27.67,0,0,1,3.79,8A35.54,35.54,0,0,1,234.54,43a33,33,0,0,1-.93,8.92,22.88,22.88,0,0,1-3.23,7.36A11.48,11.48,0,0,1,225,63.74a13.72,13.72,0,0,1-5.68.84,11.87,11.87,0,0,1-5.79-1.92,16.81,16.81,0,0,1-5-5.31A27.72,27.72,0,0,1,205.1,48q-.47-2.43-.87-5a30.41,30.41,0,0,1-.42-5,21,21,0,0,1,.48-4.67,10.06,10.06,0,0,1,1.87-4,1.93,1.93,0,0,1,.89-.67c.39-.16.76-.29,1.12-.4a7.71,7.71,0,0,1,1.34-.25,10.81,10.81,0,0,1,2.53-5.9,9.31,9.31,0,0,1,4-2.56,8.69,8.69,0,0,1,4.12-.23A8.94,8.94,0,0,1,223.1,20.34Zm1.31,20.21a27.85,27.85,0,0,0-1.2-6.09A10.32,10.32,0,0,0,220,29.63c-.18-.17.61.86.87,1.61a7.7,7.7,0,0,1,.44,2.35,6,6,0,0,1-.38,2.34,2.68,2.68,0,0,1-1.6,1.59,4,4,0,0,1-1.28.4,3.49,3.49,0,0,1-1.37-.06,3.37,3.37,0,0,1-1.22-.59c-.36-.29-.78-1.33-.8-1.09a35.93,35.93,0,0,0,0,5.08c.14,1.72.33,3.24.57,4.54q1.19,6.35,3,9t3.4,1.79q1.58-.83,2.49-4.91A38.29,38.29,0,0,0,224.41,40.55Z"/><path class="cls-14" d="M251.38,59c0,.37-.25.71-.79,1a7.46,7.46,0,0,1-2.08.68,17.63,17.63,0,0,1-2.75.31,17.42,17.42,0,0,1-2.74-.06,8,8,0,0,1-2.1-.47c-.57-.22-.87-.54-.88-.95q-.19-3-.38-7.07c-.12-2.72-.24-5.58-.35-8.55s-.21-6-.28-8.94-.11-5.71-.12-8.19,0-4.61.09-6.37a14,14,0,0,1,.38-3.4c.11-.26.74-.49,1.89-.71s2.58-.4,4.29-.56,3.56-.28,5.55-.35,3.84-.08,5.59-.06,3.23.09,4.48.2a5.19,5.19,0,0,1,2.19.46,2.54,2.54,0,0,1,.83,1.74,15.4,15.4,0,0,1,.22,2.94,12.3,12.3,0,0,1-.37,2.87c-.23.88-.59,1.38-1.08,1.48-1.44.19-2.72.34-3.83.45s-2.15.19-3.1.23-1.87.08-2.76.09-1.81.06-2.76.1c0,1.57,0,3,0,4.41,0,1.16,0,2.26.09,3.32a9.79,9.79,0,0,0,.21,2c.46-.06,1-.12,1.8-.18s1.53-.09,2.38-.1,1.71,0,2.58,0,1.66.11,2.37.2c.25.07.5.48.74,1.21a13,13,0,0,1,.52,2.62,15,15,0,0,1,0,3.14,6.72,6.72,0,0,1-.93,2.83,16.55,16.55,0,0,1-2,.25l-2.45.17c-.84.06-1.69.09-2.54.11l-2.32.07c0,.17,0,.57,0,1.21s0,1.41,0,2.3,0,1.84.07,2.86,0,2,.09,2.88.08,1.7.11,2.39S251.37,58.7,251.38,59Z"/><path class="cls-14" d="M294.07,51.15a1.61,1.61,0,0,1,.95,1.08,6.31,6.31,0,0,1,.39,2.16,15,15,0,0,1-.15,2.63,12.79,12.79,0,0,1-.62,2.56,6.16,6.16,0,0,1-1,1.9,1.57,1.57,0,0,1-1.4.65l-4.91-.46L281,61.08l-6.37-.6L269.48,60a2.11,2.11,0,0,1-1.59-1,5.34,5.34,0,0,1-.83-2.11,10.77,10.77,0,0,1-.13-2.63,12.48,12.48,0,0,1,.47-2.6,6.28,6.28,0,0,1,1-2,1.69,1.69,0,0,1,1.35-.81,32.24,32.24,0,0,1,3.56.28c1.17.15,2.35.28,3.55.39.17-1.77.34-3.66.53-5.68l.57-6.06c.19-2,.36-4,.5-5.93s.27-3.72.38-5.33l-3.48-.11a11.31,11.31,0,0,1-2.95-.49,1.69,1.69,0,0,1-1-1.09A6.74,6.74,0,0,1,271,22.7a15.25,15.25,0,0,1,.16-2.63,12.17,12.17,0,0,1,.61-2.56,5.94,5.94,0,0,1,1.05-1.87,1.64,1.64,0,0,1,1.43-.64L297,17.13a2.15,2.15,0,0,1,1.59,1,5.32,5.32,0,0,1,.83,2.08,9.78,9.78,0,0,1,.13,2.63,11.81,11.81,0,0,1-.46,2.6,7,7,0,0,1-.94,2,1.57,1.57,0,0,1-1.32.81,22.13,22.13,0,0,1-3.5-.23q-1.69-.26-3.48-.42-.26,2.65-.51,5.68t-.54,6.06q-.28,3-.53,5.94c-.16,1.93-.27,3.71-.34,5.32l3.39.11A9.28,9.28,0,0,1,294.07,51.15Z"/><path class="cls-14" d="M337.73,26a3.62,3.62,0,0,1,.82,2.4,11.13,11.13,0,0,1-.35,3.18A10.66,10.66,0,0,1,337,34.43a2.76,2.76,0,0,1-1.66,1.45,4.57,4.57,0,0,1-1.21,0q-.67-.09-1.41-.24l-1.36-.3a5.85,5.85,0,0,0-1-.17q-.3,3.06-.93,6.7a65.66,65.66,0,0,1-1.7,7.29A44.91,44.91,0,0,1,325.09,56a22.11,22.11,0,0,1-3.78,5.59A12.8,12.8,0,0,1,316.22,65a11.37,11.37,0,0,1-6.52.14,8.6,8.6,0,0,1-4.47-2.49,11,11,0,0,1-2.37-4.19,18.64,18.64,0,0,1-.77-5.1,40.46,40.46,0,0,1,.25-5.24,44.22,44.22,0,0,1,.77-4.61c.32-1.39.57-2.47.76-3.23a13.39,13.39,0,0,1,3.14-1,15.67,15.67,0,0,1,3.66-.33,5.57,5.57,0,0,1,2.84.79,2.05,2.05,0,0,1,.77,2.36q-.5,2.31-1.14,4.8c-.42,1.66-.76,3.2-1,4.61A15.67,15.67,0,0,0,311.8,55c0,1,.37,1.48,1,1.55.46,0,1-.42,1.51-1.33A24.68,24.68,0,0,0,316,51.71q.85-2.19,1.63-4.88c.52-1.79,1-3.55,1.42-5.3s.77-3.36,1-4.83a23.8,23.8,0,0,0,.45-3.4q-1.37-.19-3-.54c-1.1-.22-2.18-.45-3.25-.69s-2.08-.49-3-.74a16.92,16.92,0,0,1-2.42-.82,3.26,3.26,0,0,1-1.6-2.23,7.46,7.46,0,0,1,.07-3.18,12.51,12.51,0,0,1,1.34-3.41,16.71,16.71,0,0,1,2.19-3.08,18,18,0,0,0,6.12,2.93,55.11,55.11,0,0,0,6.56,1.24q3.38.43,6.95,1A28.2,28.2,0,0,1,337.73,26Z"/><path class="cls-14" d="M357.46,33.13a22.64,22.64,0,0,1,4.3,2.28,9.36,9.36,0,0,1,3,3.39A12.73,12.73,0,0,1,366,44a30,30,0,0,1-.76,7.63,85.34,85.34,0,0,1-3.15,10.78q-2.21,6.24-6,14.63a4,4,0,0,1-1.78,1.82,5.32,5.32,0,0,1-2.39.53,6.31,6.31,0,0,1-2.52-.56,7.2,7.2,0,0,1-2.15-1.4,4.81,4.81,0,0,1-1.25-2,3.7,3.7,0,0,1,.09-2.45q.45-1.08.78-1.92l.64-1.55.58-1.44c.2-.48.41-1,.65-1.58a22.25,22.25,0,0,1-5.37-1.55c-1.45-.66-2.87-1.31-4.26-2a27.87,27.87,0,0,0-1.65,3c-.49,1-.94,2-1.36,2.77a4.59,4.59,0,0,1-1.77,2,4.94,4.94,0,0,1-2.24.66,4.85,4.85,0,0,1-2.25-.49,4.57,4.57,0,0,1-2.69-3.67,5.46,5.46,0,0,1,.45-2.93,157.6,157.6,0,0,1,7.69-16.5,50.74,50.74,0,0,1,7.31-10.46,15.94,15.94,0,0,1,7.26-4.75A11.69,11.69,0,0,1,357.46,33.13ZM343.11,56.37a22.5,22.5,0,0,0,3.83,1.69,31.27,31.27,0,0,0,4.44,1.2,87.06,87.06,0,0,0,4.17-12.07q1-4.19-1-5c-1.41-.58-3.14.33-5.16,2.72S345.25,51.12,343.11,56.37Z"/></g></g></g></svg>