<svg xmlns="http://www.w3.org/2000/svg" xmlns:xlink="http://www.w3.org/1999/xlink" viewBox="0 0 628.41 772.23"><defs><style>.cls-1,.cls-6{fill:none;}.cls-2,.cls-26{fill:#fff;}.cls-3{fill:#467200;}.cls-4{fill:#a3b218;}.cls-5{fill:#b2643d;}.cls-6{stroke:#5cbdff;stroke-width:66.65px;}.cls-26,.cls-6{stroke-miterlimit:10;}.cls-7{opacity:0.2;}.cls-8{clip-path:url(#clip-path);}.cls-9{fill:#1c1b1b;}.cls-10{clip-path:url(#clip-path-2);}.cls-11{fill:#ddc662;}.cls-12{fill:#ed4040;}.cls-13{opacity:0.42;}.cls-14{clip-path:url(#clip-path-3);}.cls-15{fill:#cad133;}.cls-16{clip-path:url(#clip-path-4);}.cls-17{clip-path:url(#clip-path-5);}.cls-18{clip-path:url(#clip-path-6);}.cls-19{fill:#5c9b04;}.cls-20{fill:#2e4405;}.cls-21{clip-path:url(#clip-path-7);}.cls-22{fill:#158baf;}.cls-23{fill:#176d8e;}.cls-24{clip-path:url(#clip-path-8);}.cls-25{clip-path:url(#clip-path-9);}.cls-26{stroke:#000;stroke-width:4.31px;}</style><clipPath id="clip-path"><rect class="cls-1" x="175.87" y="461.41" width="83.12" height="57.6"/></clipPath><clipPath id="clip-path-2"><rect class="cls-1" x="373.56" y="464.69" width="81.94" height="53.58"/></clipPath><clipPath id="clip-path-3"><rect class="cls-1" x="235.9" y="202.93" width="41.82" height="52.91"/></clipPath><clipPath id="clip-path-4"><rect class="cls-1" x="292.1" y="207.5" width="45.59" height="57.35"/></clipPath><clipPath id="clip-path-5"><rect class="cls-1" x="361.68" y="183.38" width="46.52" height="125.15"/></clipPath><clipPath id="clip-path-6"><rect class="cls-1" x="184.8" y="269.19" width="101.97" height="68.26"/></clipPath><clipPath id="clip-path-7"><rect class="cls-1" x="199.52" y="557.88" width="243.17" height="52.79"/></clipPath><clipPath id="clip-path-8"><rect class="cls-1" x="303.13" y="654.22" width="57.26" height="80.65"/></clipPath><clipPath id="clip-path-9"><rect class="cls-1" x="246.92" y="367.53" width="135.95" height="53.92"/></clipPath></defs><title>transparentniAsset 34TRTA</title><g id="Layer_2" data-name="Layer 2"><g id="Layer_1-2" data-name="Layer 1"><g id="Trta"><path class="cls-2" d="M504.35,321.91c0,109.26-88.57,197.83-197.83,197.83S108.69,431.17,108.69,321.91s88.57-197.83,197.83-197.83,197.83,88.57,197.83,197.83"/><path class="cls-3" d="M167,540.13c1.3,13.31,8,25.33,9.48,38.79.76,7.05-.77,14.17,2.56,20.65,4,7.74,10.73,8.62,16.69,13.77,7.81,6.73,4.92,15.18,7.44,23.9,2.95,10.17,14,12.1,23,12.07,11.51,0,16.36,1.79,21.92,11.61,9.47,16.71,11.89,14.4,34.84,7.38,16.54-5,23.06,6.39,38.83,10.4,9.07,2.31,22.34-2.22,31.1-4.28,6.22-1.46,15.15.48,20.79,3.17,15.59,7.44,15.6-8.72,27.55-15.9,10.43-6.27,22.53,4.22,31.1-4.77,5.15-5.41,4.36-14.5,9.47-20,3.62-3.9,11.64-5.42,16-8,11.52-6.93-.7-22.77,6.57-33.39,9.79-14.29,24.65-21.61,17-41-1.62-4.08-3.33-6-2.79-10.41.39-3.18,4.41-7.6,4.09-10.72-.92-8.91-15.89,5.23-19.68,7.63-12.24,7.76-25.09,16.57-38.51,22.15-15.91,6.62-33.22,10.82-49.91,15-28.06,6.95-61,9.31-89.65,5.28C250.53,578.53,215,569,184.7,552.05,178,548.34,171,543.87,167,540.13"/><path class="cls-4" d="M301.44,658.5c-2.79,6.09,8.38,22.67,10.63,29,3.61,10.18,6.62,20.22,5,30.89-.54,3.66-5.84,11.29-3.73,14.81,3.59,6,11.73-1.26,15.1-4.74,13.07-13.5,19.29-25,26.75-42.32,4.53-10.49,9-25.45,2.55-35-5.81-8.54-18.51-8.32-27.94-9.23-17.42-1.7-26.78,2.24-28.39,16.54"/><path class="cls-3" d="M176.8,458.73c-4.83-2.68-10.82-6.15-8.56-12.41,1.88-5.16,7.32-8.68,9.17-14s-1.56-10.85-1.54-16.16c0-6.42,7.82-9,12.52-12,7.27-4.67,9.81-10.72,14.22-18.19,4.81-8.16,9.85-11.48,19.18-13,6.88-1.1,15.43,1.1,21.67-2,7.58-3.78,12.72-9.33,21.56-10.56,7.2-1,12.91-1.36,19.89.77,9.26,2.82,18.28,2.78,28,2.79,11.94,0,24.62.91,36.33-1.8,5-1.15,9-4.26,13.81-5,3-.47,5.92-.37,8.81-1A20,20,0,0,1,389,360c3.51,2.6,4.77,6.95,7.29,10.27a27.4,27.4,0,0,0,11,8.44c8.64,3.15,16.7-2.27,25.47,2.7,6.86,3.9,13,13,13.93,20.9,1.1,9.57,3,15.91,12.66,20.45,4.26,2,9.76,5.23,11.49,9.91,2.33,6.28-2.85,9.1-6.58,13-9.4,9.75-16.7,20.87-28.09,28.65-10.9,7.44-20.44,18.18-33.24,23-30.37,11.57-62.26,18.59-94.83,18.34C293.52,515.51,277,510.67,263,507c-12.62-3.32-25.55-4.6-37.93-9.92-9.72-4.18-16.06-12.2-23.89-18.75-7.08-5.92-13.69-13-21.53-17.93-.84-.53-1.84-1.08-2.89-1.66"/><path class="cls-5" d="M287.65,370c-7.89,4.11-20.39,4.33-29.32,6.91-10.24,3-18.82,7.51-28.12,12.91-21.4,12.43-36.65,31.67-47.57,53.73-2.14,4.33-6,12.11-4.22,17.1,3.48,9.83,19.21,6.08,26.31,4.42,24.59-5.76,45.2-20.09,62.86-37.68,10.73-10.67,21.19-19.91,36.69-22.12,13.16-1.88,27.9,2.63,39.6,8.45C363,423.29,379,438.2,396.51,450c9.08,6.11,27.46,22.49,39.71,16.31,9-4.55.68-17.34-1.46-24.31a94.13,94.13,0,0,0-15.07-29.27c-28.52-37.21-73.3-49.31-118.61-43.31-5.69.76-11.73,1.63-13.43.64"/><circle class="cls-6" cx="314.21" cy="318.5" r="232.64" transform="translate(-133.19 315.46) rotate(-45)"/><g class="cls-7"><g class="cls-8"><path class="cls-9" d="M180.49,461.41c-3.91,2.53-4.44,9.56-4.6,13.64a24.24,24.24,0,0,0,4.25,14.8c3.16,4.48,6.74,5.8,12.06,4.95,4.39-.71,2.77.11,4.27,4a15.85,15.85,0,0,0,6.63,7.46,22.4,22.4,0,0,0,11.64,2.59c4.74-.27,7.5-3.13,11.53-4.74-1,6.35,6.77,12.44,12.12,14.07a18.14,18.14,0,0,0,15.37-2.1c1.59-1,6-4.21,5.11-6.61-.65-1.75-8.88-5-10.68-6.08-8.2-4.76-16.32-9.75-24.6-14.38-14.59-8.15-33.15-14-43.1-27.58"/></g></g><g class="cls-7"><g class="cls-10"><path class="cls-9" d="M373.56,504.79c2,6.15,9.54,9.57,15.08,11.64,7.33,2.73,14.54,2.75,20.84-2.17,3.43-2.68,3.7-5.26,4.94-9.08,7,2.52,12.13,5,19.71,1.7,6.32-2.75,6.26-8,7.06-13.77,6.57,2.78,13.41.72,14.24-7.3.71-6.86-4.05-12.05-7-17.65-3.06-5.8-5-3.33-10.25.14-14.59,9.69-31.64,15.3-45.94,25.36-4,2.81-7.94,5.58-12,8.27a19.51,19.51,0,0,1-6.67,2.86"/></g></g><path class="cls-11" d="M196.29,450.49c3.22-22.18,23.92-41,42.45-51.63,18.08-10.4,37.14-14.73,57.61-17.83,12.95-2,23.85-.92,36.79-.65,13.78.29,25,4.59,37.71,10.11,16.61,7.21,35,17.24,44.63,32.7,8.44,13.52,25.14,38.4,11.86,55.51-7.93,10.22-21.35,10.69-32.68,15.9-10.93,5-21.1,11.52-32.87,14.45-24.85,6.18-53.34,11.27-78.5,4.92-17.07-4.31-30.83-13.8-47.42-19-18.24-5.68-40.84-12.75-39.53-35.29.22-3.91.72-8.49-.05-9.23"/><path class="cls-4" d="M282.77,415.72c2.14-4.82,5.23-8.67,6.89-13.79,1.85-5.68,1.41-11,.84-16.81-1.13-11.62-5.33-23.05-8.16-34.26-1.33-5.23-1.93-10.49-4.67-15.32-1.88-3.32-2.25-3.54-6.1-3.64-5.09-.14-9.87,3.15-14.88,4.14-13.92,2.75-29.43,2.57-43-2.73-7.33-2.85-14.41-8.61-20.11-13.94-7.9-7.39-11.16-17.57-8.52-28.05,3.79-15,21.86-20.24,33.89-21.86a122.81,122.81,0,0,1,11.84-61.79,108.26,108.26,0,0,1,14.74-22.85c6.69-7.89,14.06-11.68,23.89-15.3,6-2.2,12.12-3.44,18.35-5.17,14.78-4.1,29.86-3.85,45.23-2.9A239.61,239.61,0,0,1,362.17,165c7.07,1.31,14.16,1.8,20.37,5.74a55.32,55.32,0,0,1,23.7,32.54,66.36,66.36,0,0,1-.38,35.72c-1.78,6.24-4,12.25-5.65,18.55-3.17,11.93-6.1,22.88-10.48,34.45-4.52,12-10.18,23.45-15.86,34.9-4,8.08-7.27,15.92-11.26,24s-4.56,17.52-7,25.68c-7.51,24.71.46,27.25,3.88,40.36-13.38,3.95-25,5-38.93,4.82-13.7-.17-27.62-3.43-37.75-6"/><path class="cls-2" d="M268.33,332.55c1.85,9.22,18.06.61,22.72-1,9.32-3.27,21.35-8.86,25.93-18.31,2.29-4.74,4-12.9,1.3-17.71-1.39.93-2.38,3.06-3.4,4.46-1.54,2.08-3.24,4.14-4.94,6.08-4.27,4.85-8.61,10-13.73,14-7.21,5.62-16.64,12.46-27.88,12.5"/><path class="cls-12" d="M284.28,344.18c2.83.48,5.91,3.05,8.45,4.47a18,18,0,0,0,9,2.22c5.88-.42,8.76-7.21,9.7-12.08.65-3.36,2.83-6.75,2.06-10.22-1.47-6.58-11.87-2.77-15.72-.55-3.69,2.12-17.47,9.45-13.54,16.16"/><path class="cls-11" d="M279,584.38c-3.23,12.11-22.55,28.67-17.51,41.66,6.19,16,31,30.48,46.58,34.82,21.43,6,47.65-.65,65.33-13.85,7.89-5.89,17.93-15.26,18.79-25.86.43-5.31-3.41-11-4.44-16.56-1.11-6-1.13-12.38-3.58-18.07-3.56-8.33-7.74-7.72-16.11-6a273.12,273.12,0,0,1-35.65,5c-11.65.81-23,1.57-34.57-.14-7-1-14.19-4.29-18.84-1"/><path class="cls-4" d="M223.87,571.16c-3.09,23-28.68,36.82-14.08,61.49,5.47,9.23,20.24,11,29.88,7.2,15.4-6.11,27.8-28.16,33.79-42.56,1.1-2.64,5.26-10.8,4-13.5-1.73-3.82-15-5-18.59-5.81-11.59-2.44-23-6.84-35-6.82"/><path class="cls-4" d="M378.44,578.63C391,595.44,385.5,618.45,401.6,631c20.42,15.92,43.63-8,42.78-28.4-.36-8.68.19-17.92-1.72-26.31-1.53-6.7-1.72-14.87-4-21.15-4.44.11-9.46,3.32-13.67,5.05-7.61,3.14-15,7.08-22.66,9.82-8.09,2.87-18.59,4.06-23.92,8.6"/><path class="cls-11" d="M199.52,561c-.61,6.45,8.48,34.41,18.6,28.8,3.75-2.08,5.64-13.47,4.61-17.15C220.35,564.21,206,559.8,199.52,561"/><path class="cls-11" d="M439.93,555.64c-.36,4.3.55,18.11,5.82,11.81,2.69-3.23,3.31-12.32,2.71-16.31-3.1-.28-6.36,2.14-8.53,3.93"/><path class="cls-11" d="M373.43,647c5.61-7.62,13.2-19.79,19.38-26.79,4.77,3.12,8.81,12.08,14.72,13.62-6.26,3.8-9.74,6-16.73,8-5.39,1.52-13.32,8.29-17.37,5.15"/><path class="cls-11" d="M249.73,633.79c4.62,1.17,8.35,5.41,12.77,7.31s9.45,2.35,14.19,3c-3.15-7.89-12.39-12.82-16.05-20.44-2.53,3.73-5.75,6.67-10.91,10.17"/><path class="cls-5" d="M188.41,555.05c.11,11.35,3.67,19.91,9.89,29.32,2.44,3.69,6.39,10.64,9.9,13.53,5.6,4.61,1.62-.79,5.93-5.48-5.68-6.35-9.49-14.53-12.89-22.62-3.26-7.75-1.48-16.89-12.83-14.75"/><path class="cls-5" d="M450.85,547.6c.27,9.71-8.42,18-8.33,26.73,0,3.71,1.63,8.12,2,12.11.44,4.67-.58,9.42.81,13.72,10.1-13.07,17.1-40.51,13.34-55.95a65.52,65.52,0,0,0-7.83,3.39"/><g class="cls-13"><g class="cls-14"><path class="cls-15" d="M238.38,220.49c-5.25,13.47-3,35.14,15,35.34,13.65.16,23.35-12.25,24.19-25.3.7-11.06-1.55-24.51-14.14-27.29-10.45-2.3-20,8.37-25.09,17.25"/></g></g><g class="cls-13"><g class="cls-16"><path class="cls-15" d="M304.43,211.86c-14.72,10.28-17.1,37.21-2.59,48.7,9.22,7.3,23.32,4.83,30.81-4,6.54-7.74,6-24.26,2.48-33.45-5.08-13.38-20.85-20.84-30.7-11.21"/></g></g><g class="cls-13"><g class="cls-17"><path class="cls-15" d="M379.5,187c-2,4.37.41,11.13.29,15.11-7-2.82-9.57,3.95-7.41,10-11.64,2.2.78,23.49,2.7,28.11-11.24-.05-14.62,16.1-13,24.48,1.72,9,7.24,13,14.62,16.94-2.56,4.56-6.84,9.07-6.85,14.65,0,6.16,8.16,16.44,13.45,10.3,3.37-3.9,5.19-11.68,6.94-16.49,2.61-7.2,4.32-14.64,6.74-21.89s5.74-14.33,7.39-21.89c3.47-15.89,6.79-31.43-.47-46.78a30.86,30.86,0,0,0-11.65-13.13c-2.92-2-6.57-4.43-10.26-2.19A6.07,6.07,0,0,0,379.5,187"/></g></g><g class="cls-13"><g class="cls-18"><path class="cls-15" d="M220.13,269.19c-8.27,0-16.26.49-23,5.46-5.77,4.22-13,12.64-12.23,20.18.93,9.16,2.88,20.05,10.12,26.65,12.06,11,26.81,14.65,42.93,15.82,10.68.77,21.28-1.44,31.21-5.34A52.49,52.49,0,0,0,286,321.19a2.41,2.41,0,0,0-2.79-3.88l-.15.08c-6.44,3.34-12.72,6.8-19.68,9a65.4,65.4,0,0,1-39.16.28c-12.55-4-26.64-12.46-29.52-26.42-2-9.49,2.29-20.25,10.59-25.3,4.22-2.57,12.8-1.9,14.86-5.75"/></g></g><path d="M360.26,414.47c-8.43-12.59-6-29.62-2.61-43.5C362,353.2,370.37,337,378,320.53a437.65,437.65,0,0,0,19.62-49.23c5.17-16,9.92-32.75,11.08-49.59,1-15.24-2.1-30.93-13.5-41.86-12.35-11.83-29.51-15.76-45.89-18.18-31.5-4.67-67.32-6.09-94.8,12.81-12.3,8.46-21,20.33-27.23,33.78a123.27,123.27,0,0,0-11.05,60.43c.18,2.54,4.16,2.56,4,0a120.86,120.86,0,0,1,6.39-48.2c4.93-14.17,12.42-27.89,23.83-37.85,24.09-21,58.69-21.95,88.8-18.35,16.68,2,34.68,4.43,48.62,14.57a39.67,39.67,0,0,1,13.78,17.52c2.78,7.16,3.52,14.88,3.24,22.5-.6,16.38-5.25,32.8-10.12,48.35a413.46,413.46,0,0,1-18.86,48.41c-7.19,15.72-15.3,31.05-20.29,47.68-4.14,13.79-7.3,29.86-3.07,44a33.68,33.68,0,0,0,4.28,9.15c1.41,2.12,4.86.13,3.43-2"/><path d="M252.49,270a100,100,0,0,0-28.91-3.18c-9.2.37-18.92,1.66-27.14,6.06-6.87,3.68-12.62,9.95-14.17,17.76-1.65,8.34,1,16.58,5.11,23.78a44.09,44.09,0,0,0,17.38,17.38c7.69,4.17,16.21,6.38,24.85,7.5a91.74,91.74,0,0,0,91.27-45.16c1.29-2.22-2.15-4.22-3.44-2A88.67,88.67,0,0,1,240.24,336c-15.32-.17-33.54-3.83-44.05-15.95-5-5.74-9.22-13.28-10.24-20.9a21.46,21.46,0,0,1,8.56-20.4c7.48-5.7,17.47-7.3,26.61-7.89a95.83,95.83,0,0,1,30.31,2.91c2.48.64,3.54-3.19,1.06-3.84"/><path d="M276.55,341.13a263.7,263.7,0,0,1,7.8,26c2.36,9,5.29,18.37,3.9,27.75a53.76,53.76,0,0,1-6.94,19.62c-1.32,2.21,2.12,4.21,3.43,2,5.93-9.89,9.28-22.37,7.28-33.85a269.53,269.53,0,0,0-7.19-28.71c-1.36-4.65-2.73-9.31-4.44-13.84-.9-2.38-4.74-1.35-3.84,1.05"/><path d="M247.57,407.65a168.81,168.81,0,0,0,107.94,10.86A164.1,164.1,0,0,0,385,408.62c1.52-.67.2-2.9-1.3-2.23a166,166,0,0,1-106.1,9.07,160.69,160.69,0,0,1-28.76-10c-1.5-.69-2.82,1.53-1.3,2.23"/><path d="M354,385.94c25.6,5.17,48.85,22.17,62.8,44.09a84.26,84.26,0,0,1,9.33,19.87c.5,1.58,3,.9,2.49-.69-8.07-25.69-28.68-47.1-52.76-58.6a90.57,90.57,0,0,0-21.18-7.16c-1.62-.33-2.32,2.16-.68,2.49"/><path d="M356.55,373c32.88,7.28,61,31.45,75.89,61.29A100.62,100.62,0,0,1,441.91,467c.2,1.63,2.79,1.65,2.58,0-1.32-10.35-3.58-20.45-7.9-30a117.8,117.8,0,0,0-13.1-22.11,121.93,121.93,0,0,0-38.9-34.06,104.13,104.13,0,0,0-27.35-10.34c-1.62-.36-2.31,2.13-.69,2.49"/><path d="M361.2,361.23c5.37,0,10-2.67,15.16-3.65s10.24-.35,13.78,3.77c5.61,6.54,7.07,16.51,16.49,19.08s20.73-4.26,28.73,3.46c7.23,7,5.92,17.65,9.74,26.24a33.61,33.61,0,0,0,10.14,13c5,3.83,12.79,6.39,13.93,13.43.4,2.52,4.24,1.45,3.83-1.06-1-5.94-6-9.53-10.77-12.49s-9-6.4-11.92-11.39c-5.17-8.78-3.71-19.62-9.93-27.95a18,18,0,0,0-12.05-7.34c-5.22-.7-10.38.67-15.59.8s-9.15-1.66-12-5.94c-2.56-3.81-4.22-8.15-7.07-11.78a16.25,16.25,0,0,0-14.33-6.15,35.4,35.4,0,0,0-9.48,2c-2.9,1-5.49,2-8.62,2-2.56,0-2.56,4,0,4"/><path d="M287.94,382.38c-31.68,1.15-61.29,17.76-80.33,42.9a108.73,108.73,0,0,0-13.34,23.08c-.64,1.52,1.58,2.83,2.23,1.31,12-28.16,36.24-51,65.51-60.3A97.12,97.12,0,0,1,287.94,385c1.66-.06,1.67-2.64,0-2.58"/><path d="M285,370.93c-39.27,2.12-77.64,25.13-95,61a144.68,144.68,0,0,1-8.28,14.86c-2.77,4.36-5.18,8.81-6.28,13.9-.35,1.63,2.15,2.32,2.5.69,2-9.16,8.55-16.41,12.61-24.68a117.9,117.9,0,0,1,6.86-12.9,111.48,111.48,0,0,1,55.31-43.7A113.11,113.11,0,0,1,285,373.51c1.65-.09,1.66-2.67,0-2.58"/><path d="M285.46,361.89c-5.56-1.15-10-4.9-16-4.61-6.13.3-11.71,3-16.88,6.12s-10.51,6.82-16.64,7.94c-6.37,1.16-12.85-1-19.24.21-12.21,2.25-16.68,15.18-22.57,24.37-1.64,2.54-3.39,4.89-6,6.42-2.34,1.35-4.92,2.24-7.27,3.59a14.63,14.63,0,0,0-7.61,12.83c.06,3.47,1.64,6.54,2.34,9.88.8,3.88-1.12,6.6-3.62,9.37-3.91,4.34-8,10.17-3.62,15.69,1.58,2,4.38-.82,2.81-2.81-3.59-4.55,4.46-10.48,6.61-13.77,3.31-5.05,1.45-9.79,0-15.09-1.58-5.79.95-10.57,6.19-13.26,2.12-1.09,4.38-1.92,6.44-3.15a19.13,19.13,0,0,0,5.49-5.23c6.06-8.17,9.43-21.62,20.43-24.67,5.87-1.63,12,.35,18-.18,5.43-.48,10.34-2.8,15-5.51,5.57-3.26,10.94-7.11,17.37-8.42a15.28,15.28,0,0,1,9.16.85c2.85,1.16,5.5,2.63,8.54,3.27,2.5.52,3.57-3.32,1.06-3.84"/><path d="M257.16,439.59a187.36,187.36,0,0,0,103.56,8.7,182.86,182.86,0,0,0,28.85-8.3c1.54-.58.87-3.08-.69-2.49a184.83,184.83,0,0,1-103,7.91,182.46,182.46,0,0,1-28-8.31c-1.55-.6-2.23,1.9-.69,2.49"/><path d="M282.68,482.81a114.59,114.59,0,0,0,69.76-.42c1.58-.51.9-3-.69-2.49a112.2,112.2,0,0,1-68.38.42c-1.59-.5-2.27,2-.69,2.49"/><path d="M301.13,189.89A25.53,25.53,0,0,1,316.58,184a29.69,29.69,0,0,1,28.4,16.7,25.42,25.42,0,0,1,2.35,16.37,46,46,0,0,0-7-13.57,35.41,35.41,0,0,0-24-14.1,45.63,45.63,0,0,0-15.25.51"/><path d="M240.07,197.86a19.43,19.43,0,0,1,6-11.52,23.54,23.54,0,0,1,25.55-4.73,19.29,19.29,0,0,1,9.75,8.61,43.33,43.33,0,0,0-11.29-3.41,31.08,31.08,0,0,0-20.72,3.82,43.34,43.34,0,0,0-9.31,7.23"/><path d="M259.34,624.29a76.36,76.36,0,0,0,107.79,27.65,77.94,77.94,0,0,0,24.95-24.66c.89-1.41-1.35-2.71-2.23-1.3a76.87,76.87,0,0,1-49.15,33.78A73.77,73.77,0,0,1,261.57,623c-.8-1.46-3-.15-2.23,1.31"/><path d="M286.66,622.92a126.38,126.38,0,0,0,65.8,5.45c1.63-.3.94-2.79-.69-2.49a124,124,0,0,1-64.43-5.45c-1.56-.57-2.24,1.93-.68,2.49"/><path d="M299.56,659.86c4,12.52,11.11,23.8,15,36.37A50.29,50.29,0,0,1,317,715.51a34.08,34.08,0,0,1-2.32,9.44c-.9,2.31-1.91,4.91-1.19,7.41,1.37,4.73,6.63,4.32,10.14,2.45,4.71-2.5,8.64-7.23,12.1-11.19a105.42,105.42,0,0,0,25.92-66.39,1.3,1.3,0,0,0-2.59,0,103,103,0,0,1-21,59.48,99,99,0,0,1-10.84,12,20.33,20.33,0,0,1-5.69,4.24c-3,1.28-6.22.44-5.61-3.43.41-2.56,1.77-4.93,2.47-7.41a36,36,0,0,0,1.32-8.51,53.13,53.13,0,0,0-2.34-17c-3.78-13-11.18-24.59-15.32-37.48-.5-1.57-3-.9-2.49.69"/><path d="M378.05,579.36a31.68,31.68,0,0,1,6.73,14c1.12,5.4,1.78,10.87,3.25,16.2,2.73,9.89,7.73,20.72,17.38,25.53s21.13,1.63,29-5.39c9.39-8.39,12.36-21.33,12.12-33.48a98.44,98.44,0,0,0-3-21.4c-1.57-6.36-3.15-12.5-3.63-19.07-.12-1.65-2.7-1.66-2.58,0,.8,11.15,4.8,21.62,6.06,32.71,1.37,12.08.65,26-7.39,35.82-6.63,8.13-18.16,13.46-28.37,9C397.8,629,393,618,390.36,608.26c-1.46-5.47-2-11.1-3.3-16.61a34.1,34.1,0,0,0-7.18-14.12c-1.06-1.29-2.88.55-1.83,1.83"/><path d="M484.48,524.73c-2,4.37-4.81,8.38-6.38,12.94A20.22,20.22,0,0,0,478,550c2.29,8,8,16.38,2.9,24.48-3.77,6-10.45,9.4-15,14.69a19.27,19.27,0,0,0-4.64,9.33c-.71,4.21-.11,8.46.32,12.66s.87,8.56-1,12.33-6,5.56-9.77,7.06c-3.41,1.35-7,2.66-9.69,5.25-2.9,2.8-3.91,6.68-4.86,10.45-1.05,4.12-2.37,8.2-6.39,10.29-3.32,1.73-7.28,1.78-10.94,1.78-7.07,0-15-.75-20.9,3.91-3,2.4-5.22,5.69-7.49,8.78s-4.74,6.52-8.57,7.27c-4.94,1-9.42-3.23-13.82-4.86-3.26-1.21-7.83-2.29-10.56.58-1.15,1.2.68,3,1.83,1.82,2.69-2.81,8.61.17,11.35,1.6,3.6,1.89,7.19,4.12,11.43,3.43,6.84-1.11,10.2-8.57,14.2-13.35a16.37,16.37,0,0,1,9.09-5.95c3.83-.89,7.83-.7,11.73-.66,6.87.08,14.74-.17,18.82-6.64,2.21-3.5,2.58-7.73,3.89-11.57,1.49-4.39,4.65-6.75,8.78-8.51,3.52-1.51,7.28-2.63,10.36-5a13.83,13.83,0,0,0,5.22-9.1c1.25-8.24-3-17.3.83-25.14,3.22-6.54,10.18-10.22,15.05-15.36a18.73,18.73,0,0,0,5.33-9.78c.76-4.74-.84-9.33-2.52-13.69-1.84-4.79-4.07-9.88-3.05-15.12,1.06-5.44,4.59-10,6.85-15,.69-1.5-1.54-2.81-2.23-1.3"/><path d="M307.63,673.15c-3.5-4.82-10.16-6.13-15.76-6.51a42,42,0,0,0-9.56.46c-3.3.56-6.24,1.92-9.38,3.06-4.07,1.48-8.65,2.93-13,2.17-4.2-.73-6.93-3.6-8.77-7.27-3-6-4.34-13.44-11-16.54s-14.45-.7-21.55-1.13c-3.75-.23-7.36-1.47-9.79-4.47-2.11-2.6-3-5.95-3.76-9.15-1.46-6.46-2-13.59-6.53-18.83-5.16-6-14.26-7.61-18.27-14.74-4.58-8.14-1.47-18.58-2.89-27.42-1.7-10.57-9.35-19.34-8.83-30.38.08-1.66-2.5-1.66-2.58,0-.46,9.69,5,17.55,7.8,26.44,2.64,8.36.62,17,1.93,25.53a19.43,19.43,0,0,0,4.57,10.22c2.59,2.88,6.06,4.76,9.34,6.72,3.45,2.06,6.77,4.31,8.76,7.9,1.72,3.09,2.47,6.64,3.16,10.08,1.25,6.24,2.26,13.44,7.69,17.57,6,4.55,13.86,2.92,20.79,2.7,3.7-.13,7.68.07,10.8,2.3s4.62,6,6,9.46c2.64,6.58,5.92,12.85,13.75,13.68,8.71.92,16-4.79,24.42-5.66a38,38,0,0,1,11.41.47c3.26.66,7,1.83,9.08,4.65,1,1.33,3.22,0,2.23-1.31"/><path d="M221.49,570.31A29.86,29.86,0,0,1,217.18,586c-3,5.09-6.14,10-8.47,15.43-4.33,10.09-6.83,22.87.25,32.37,5.92,7.93,16.58,10.51,26,8.9,11.08-1.89,19.87-10,26-19,8.25-12,11.69-26.36,18.7-39,.8-1.45-1.43-2.76-2.24-1.3-5.86,10.61-9.08,22.42-15,33C257.18,625.8,249.59,635.25,239,639c-8.87,3.1-20.12,1.91-26.76-5.25-8.23-8.89-5.21-22.38-.75-32.28,2.42-5.4,5.75-10.22,8.61-15.37a31.6,31.6,0,0,0,4-15.75,1.3,1.3,0,0,0-2.59,0"/><path d="M235.91,574.08a45.6,45.6,0,0,0-10.39,17.33,74.43,74.43,0,0,0-2.36,10.34c-.58,3.44-1.22,7.14-.06,10.54,2.68,7.9,11.76,6.86,17.64,3.53a52.45,52.45,0,0,0,15.54-13.19A49.79,49.79,0,0,0,265.4,582c.33-1.63-2.16-2.32-2.5-.69-2.46,11.86-8.49,21.87-18.38,29a33.35,33.35,0,0,1-8.85,5c-3.54,1.13-8,.72-9.79-3-1.44-3-.76-6.68-.23-9.86a80.49,80.49,0,0,1,1.95-9,43,43,0,0,1,10.14-17.55c1.13-1.22-.69-3-1.83-1.83"/><path d="M396.33,575.29c.58,12.55,2.23,29.31,16.05,34.4,5.79,2.13,12.64,1.11,16.82-3.65s5-11.18,4.14-17.17c-1.35-9.14-6.5-17.24-7.55-26.43-.19-1.64-2.77-1.66-2.58,0,1,8.53,5.23,16,7.11,24.35,1.61,7.09.85,16.68-6.62,20.26s-15.77-1.39-19.68-7.87c-4.33-7.17-4.73-15.75-5.1-23.89-.08-1.65-2.66-1.66-2.59,0"/><path class="cls-2" d="M248.47,220.6c-5.27,3.44-8.87,9.29-8.49,15.57a16.27,16.27,0,0,0,10.65,14.23c6,2,13.2-.35,16.59-5.64,3.06-4.79,2.8-11.14.61-16.38a17,17,0,0,0-7.14-8.55c-3.33-1.81-9.17-1.47-12.22.77"/><path d="M247.82,219.49c-5.84,3.9-9.94,10.57-9,17.77.84,6.68,5.69,12.89,12.32,14.63a16,16,0,0,0,17.22-6.48c4.05-6.3,2.76-15-1.15-21-2-3.12-5-5.91-8.72-6.68a14.22,14.22,0,0,0-10.64,1.81c-1.36.94-.06,3.18,1.31,2.23a11.46,11.46,0,0,1,7.73-1.69,10.8,10.8,0,0,1,7.18,4.36c3.83,4.81,5.54,12.25,3,18-2.3,5.19-8.18,8-13.72,7.3s-10.17-5.44-11.59-10.85c-1.77-6.74,1.84-13.41,7.42-17.13,1.37-.92.08-3.16-1.31-2.23"/><path class="cls-2" d="M309.69,224.78c-5.27,3.43-10.34,9.75-10,16A16.28,16.28,0,0,0,310.38,255c6,2,13.2-.35,16.59-5.64,3.07-4.79,2.8-11.14.61-16.38a16.89,16.89,0,0,0-7.14-8.55c-3.32-1.81-7.7-1.93-10.75.31"/><path d="M309,223.66c-5.7,3.79-11.2,10.32-10.57,17.59a17.64,17.64,0,0,0,11.16,14.89,16,16,0,0,0,17.51-4.79c4.63-5.73,4.08-14,1-20.28a16.79,16.79,0,0,0-8.14-8.25,11.45,11.45,0,0,0-10.93.84c-1.36.94-.07,3.19,1.3,2.24,5.52-3.82,11.93.17,14.86,5.22s4,12.15.78,17.42a13.31,13.31,0,0,1-14,5.6c-5.41-1.24-9.49-6-10.66-11.29-1.52-6.94,3.56-13.31,9-16.95,1.38-.92.09-3.16-1.3-2.24"/><path d="M268.52,335.8a130.69,130.69,0,0,0,17.54,11.77c3.06,1.69,6.19,3.3,9.39,4.7,2.92,1.28,6.13,2.26,9.26,1.11,5.23-1.92,7.09-8,8.54-12.78a205.9,205.9,0,0,0,5.31-22,213.23,213.23,0,0,0,3.06-25.06c.16-2.56-3.82-2.55-4,0-1,16.57-3.75,33.65-9.28,49.36-.92,2.6-2.36,5.95-5.23,6.85-3.6,1.14-8.23-2-11.28-3.57A125.37,125.37,0,0,1,271.33,333c-2-1.57-4.82,1.23-2.81,2.81"/><path d="M286.26,342.77a24.94,24.94,0,0,1,26.6-11.46c2.49.58,3.55-3.25,1.06-3.83a29,29,0,0,0-31.1,13.28c-1.29,2.21,2.14,4.21,3.44,2"/><path d="M315.72,288.76a21.36,21.36,0,0,0,9.89,9.38,2,2,0,1,0,2-3.43,19.35,19.35,0,0,1-2.74-1.53c-.22-.14-.43-.29-.64-.45a1.54,1.54,0,0,1-.29-.21c.36.35,0,0-.05,0-.41-.33-.8-.67-1.18-1s-.75-.74-1.1-1.13c-.16-.17-.32-.35-.47-.54l-.27-.33c-.26-.31.22.31,0-.05a20.8,20.8,0,0,1-1.68-2.65,2,2,0,0,0-2.72-.71,2,2,0,0,0-.71,2.72"/><path d="M292.8,358c5.87,3.21,13.53,6.73,19.68,2.09,2.7-2,4.37-5.05,5.92-8a114.44,114.44,0,0,0,5.07-11c.62-1.55-1.88-2.22-2.49-.69-1.28,3.21-2.72,6.37-4.3,9.44-1.39,2.68-2.79,5.55-5,7.62-5.18,4.77-12.4,1.13-17.54-1.68-1.46-.8-2.77,1.44-1.3,2.23"/><path d="M202.77,312.44A17.73,17.73,0,0,0,216,321.35a1.31,1.31,0,0,0,1.3-1.29,1.32,1.32,0,0,0-1.3-1.29,15.09,15.09,0,0,1-11-7.63c-.81-1.46-3-.16-2.24,1.3"/><path class="cls-19" d="M369.46,251.5c5.63,4,11.89-4.8,6.63-8.9-5.42-4.23-12.46,4.71-6.63,8.9"/><path class="cls-20" d="M369.14,252.05a5.68,5.68,0,0,0,7-.29,6.75,6.75,0,0,0,2.39-6.5,5.85,5.85,0,0,0-5.69-4.41,6.71,6.71,0,0,0-5.55,3.79,6.18,6.18,0,0,0-.61,3.87,5.77,5.77,0,0,0,2.42,3.54c.67.5,1.32-.63.65-1.11a4.33,4.33,0,0,1-1.55-5.16,5.63,5.63,0,0,1,4.05-3.58,4.53,4.53,0,0,1,4.84,2.77,5.19,5.19,0,0,1-1.28,5.33,5,5,0,0,1-2.73,1.53,4.48,4.48,0,0,1-3.33-.89c-.68-.48-1.33.64-.65,1.11"/><path class="cls-19" d="M372.91,266.82h0c2.82-1.65,1.76-3.78-1.07-2.5-3,1.38-2.24,4.4,1.05,2.51"/><path class="cls-20" d="M373.23,267.38A5.1,5.1,0,0,0,374.8,266a2,2,0,0,0,.43-1.34,1.5,1.5,0,0,0-.81-1.2,2.78,2.78,0,0,0-1.71-.14,5,5,0,0,0-1.82.76,3.92,3.92,0,0,0-1.19,1.14,1.86,1.86,0,0,0,.1,2.37c1,.87,2.45.32,3.43-.24a.66.66,0,0,0,.24-.89.67.67,0,0,0-.89-.23l-.39.21-.17.08s-.16.05,0,0l-.13,0a3.58,3.58,0,0,1-.64.18c-.16,0,.16,0,0,0h-.36l-.11,0-.09,0c-.09,0,.17.08.09,0l-.05,0-.09-.05c-.1-.06.14.12.05,0l-.06-.06,0,0c-.08-.08.09.14.05.07a.64.64,0,0,0-.08-.14c.12.19,0,.12,0,0l0-.09c0-.12,0,.19,0,.07v-.2c0-.16,0,.18,0,0a1.6,1.6,0,0,1,.05-.21l0-.09c-.08.23,0,.06,0,0l.12-.2a.83.83,0,0,0,.08-.12s.08-.09,0,.07l.06-.08a3.64,3.64,0,0,1,.45-.43c.1-.07-.13.1,0,0l.06-.05.15-.1a3.37,3.37,0,0,1,.32-.19l.37-.18h0l.08,0a2.67,2.67,0,0,1,.26-.09,2.3,2.3,0,0,1,.35-.1l.2,0h.07c.11,0-.19,0,0,0h.45c.11,0-.18,0-.07,0h.07l.24.07c-.21-.06-.1,0,0,0l.11.07c.06,0-.15-.13-.08-.06l0,0,.06.07c-.15-.15-.07-.1,0,0l0,0c.06.1-.05-.16,0-.08l0,.11c0,.16,0-.16,0,0v.12s0,0,0,.06c0-.23,0-.14,0-.07l0,.13,0,.06c0,.06-.07.11,0-.06-.06.1-.1.2-.16.3s-.17.2,0,0l-.12.14a3.31,3.31,0,0,1-.33.32l-.17.14c.11-.11.06,0,0,0L373,266a3.87,3.87,0,0,1-.43.27.65.65,0,0,0,.65,1.12"/><path class="cls-19" d="M372.15,292.37h0a2.68,2.68,0,0,0,.3-.12c5.7-2.65,3.29-9.61-2.87-7s-3.73,9.61,2.57,7.16"/><path class="cls-20" d="M372.33,293a5.84,5.84,0,0,0,4-4.84,3.94,3.94,0,0,0-3-4,6.09,6.09,0,0,0-3.43.26,7.64,7.64,0,0,0-3.16,2,4.41,4.41,0,0,0-.79,5.19c1.35,2.22,4.23,2.25,6.41,1.42a.68.68,0,0,0,.45-.8.66.66,0,0,0-.8-.45,6,6,0,0,1-2.88.45,2.83,2.83,0,0,1-1.78-.9,1.26,1.26,0,0,1-.25-.32,2,2,0,0,1-.11-.2s-.13-.27-.08-.15a2.3,2.3,0,0,1-.15-.49l0-.2a1.84,1.84,0,0,1,0-.23,4.1,4.1,0,0,1,0-.5c0-.19,0,.08,0,0a.77.77,0,0,1,0-.15c0-.1,0-.2.08-.3a3.38,3.38,0,0,1,.47-1,6.2,6.2,0,0,1,5.09-2.43,3,3,0,0,1,1.85.73,2.14,2.14,0,0,1,.55.74c0,.05,0,.09.07.13s-.05-.11,0,0a2.25,2.25,0,0,1,.08.24,2.5,2.5,0,0,1,.07.26c0,.05,0,.3,0,.17a4,4,0,0,1,0,.6.49.49,0,0,1,0,.12c0,.15,0-.07,0,.07s0,.21-.07.31a3.28,3.28,0,0,1-.53,1.18,5.38,5.38,0,0,1-2.43,1.88.68.68,0,0,0-.45.8.65.65,0,0,0,.8.45"/><path class="cls-19" d="M360.24,262.54c3.46-1,3-3.64-.49-2.93s-3.61,4.07.49,2.93"/><path class="cls-20" d="M360.41,263.16a5.37,5.37,0,0,0,2-1,2.21,2.21,0,0,0,.82-1.27,1.57,1.57,0,0,0-.47-1.45,2.72,2.72,0,0,0-1.67-.61,5.63,5.63,0,0,0-2.11.3,4.52,4.52,0,0,0-1.64.89,2,2,0,0,0-.63,2.49c.68,1,2.11,1,3.17.76l.54-.13a.65.65,0,1,0-.34-1.25,4.54,4.54,0,0,1-.5.12l-.22.05h-.12c-.14,0,.14,0,0,0a5,5,0,0,1-.77,0c-.07,0-.26-.06,0,0l-.15,0A1.38,1.38,0,0,1,358,262c-.17-.06.13.07,0,0l-.1-.06-.1-.06.07.06,0,0-.08-.08c-.08-.09.11.16,0,0l0-.08c-.08-.13.05.16,0,0l0-.09c0-.13,0,0,0,.06v-.2c0-.1,0,.19,0,.1a.13.13,0,0,0,0-.06l0-.1,0-.1c0-.09-.07.16,0,.08l0-.06a1.48,1.48,0,0,1,.13-.21l0-.05c.06-.09-.11.14,0,.06l.09-.11.21-.21c.05,0,.2-.13,0,0l.14-.1a4.77,4.77,0,0,1,.63-.34c.12-.06-.15.05,0,0l.1,0,.19-.07.41-.12.48-.09.11,0c.16,0-.15,0,0,0l.25,0a3.09,3.09,0,0,1,.43,0h.29c.13,0-.16,0,0,0l.33.08.14,0c.1,0-.16-.07-.06,0l.06,0,.13.08.06,0c.08.05-.13-.11-.07-.06s.06.05.08.08l.05,0c.07.09-.06,0-.05-.06s.05.08.06.1l0,.05c0,.07-.06-.16,0-.1l0,.1s0,0,0,.06,0-.19,0-.1v.14c0,.16,0-.17,0,0a.58.58,0,0,1,0,.14c-.06.17.07-.13,0,0a.64.64,0,0,1-.08.14c0,.06-.15.18,0,0-.08.08-.15.18-.24.26l-.14.12c-.09.08.13-.1,0,0l-.11.07a3.26,3.26,0,0,1-.4.24l-.21.1h0c-.06,0-.05,0,.05,0s-.13.05-.16.06a5.22,5.22,0,0,1-.56.18.65.65,0,0,0,.34,1.25"/><path d="M292.75,419.51a34,34,0,0,0,7.89-15.34c.36-1.62-2.13-2.31-2.49-.68a31.3,31.3,0,0,1-7.23,14.19c-1.11,1.23.71,3.07,1.83,1.83"/><path d="M311.08,420.5A56.08,56.08,0,0,0,315.39,403c.13-1.66-2.46-1.65-2.59,0a52.17,52.17,0,0,1-3.95,16.22,1.35,1.35,0,0,0,.46,1.77,1.3,1.3,0,0,0,1.77-.47"/><path d="M330.88,371.52a90.2,90.2,0,0,0,8.46,47.62c.72,1.5,3,.19,2.24-1.31a87.59,87.59,0,0,1-8.11-46.31c.16-1.66-2.42-1.65-2.59,0"/><path d="M272.08,337.33a65.42,65.42,0,0,0,45.53-26.48c1-1.35-1.26-2.64-2.23-1.3a62.62,62.62,0,0,1-43.3,25.19c-1.63.19-1.65,2.77,0,2.59"/><path d="M276.57,337.45l5.77,3.83c1.23.81,2.62-1,1.56-2a13.48,13.48,0,0,1-2.82-3.83l-1.76,1.76,3.84,2.13a1.3,1.3,0,0,0,1.77-1.77l-1-2.23-1.77,1.77,2.73,1.28a1.31,1.31,0,0,0,1.94-1.12,5.8,5.8,0,0,0-.95-3.26l-2.23,1.31c1,1.26,2.58,2.54,4.12,1.24a5.06,5.06,0,0,0,.7-1c.41-.57-.37.17.55-.65a25.06,25.06,0,0,1,3.21-2.4,25.73,25.73,0,0,1,7.14-3c2-.52,4.18-1.25,4.54-3.61l-2.54-.34c0,.83,0,1.66,0,2.48a1.3,1.3,0,0,0,2.54.35c.54-1.38,1.08-2.75,1.63-4.12h-2.5c.27,1.13.53,2.27.8,3.41.32,1.35,2.06,1.09,2.49,0q1.13-2.85,2.23-5.7l-2.54-.34.3,4.7c.09,1.35,2.32,1.87,2.54.34a23.25,23.25,0,0,1,2.17-7l-2.41-.65.21,6.27c0,1.41,2.22,1.83,2.54.35l1.68-7.82-2.54-.34-.24,4.39c0,.73-.07,1.47-.12,2.2a15.09,15.09,0,0,0,.14,2.23l-2.41.65c1.69,2.61,5.12,1.65,6.47-.76,2-3.49,2.22-8.5,2.4-12.41a1.3,1.3,0,0,0-2.41-.65l-4,6.91,2.23,1.31,2.39-4.21-2.41-.66-1,9.27c-.17,1.58,2,1.55,2.54.34a13.06,13.06,0,0,0,1-5.75,1.31,1.31,0,0,0-2.41-.66,5.59,5.59,0,0,0-.84,3c0,1.42,2.26,1.81,2.54.35a3.87,3.87,0,0,0-.54-3.12,1.3,1.3,0,0,0-2.4.65l0,3.76a1.3,1.3,0,0,0,2.59,0c0-1.25,0-2.51,0-3.76l-2.41.65c.09.38.19.75.28,1.13l2.54.34a2.28,2.28,0,0,1,.49-1.72l-2.41-.65a11.41,11.41,0,0,1-.92,5.06l2.54.35q.51-4.64,1-9.27c.15-1.31-1.81-1.7-2.4-.65L310.35,320a1.29,1.29,0,0,0,2.23,1.31l4-6.91-2.41-.66a43,43,0,0,1-.92,7.33c-.13.6-1.72,6.71-3.13,4.54-.64-1-2.51-.71-2.41.65a2.34,2.34,0,0,0,4.29,1.12c.75-1.06.7-2.48.77-3.72.11-2.07.23-4.15.34-6.22a1.3,1.3,0,0,0-2.54-.35l-1.68,7.82,2.54.34-.21-6.27c0-1.21-1.81-1.86-2.41-.66a25,25,0,0,0-2.43,7.63l2.54.34-.3-4.7a1.3,1.3,0,0,0-2.54-.34q-1.12,2.83-2.23,5.69h2.49c-.26-1.14-.53-2.27-.79-3.41-.32-1.36-2.07-1.09-2.5,0l-1.62,4.12,2.53.34c0-.82,0-1.65,0-2.48,0-1.4-2.32-1.83-2.55-.34-.26,1.76-3.13,1.86-4.53,2.32a26.41,26.41,0,0,0-8.51,4.59,16.6,16.6,0,0,0-1.86,1.59c-.18.19-.33.44-.49.62-.52.55.66.77-.14-.27-1-1.27-3.16-.14-2.23,1.31a3.29,3.29,0,0,1,.6,2l1.94-1.11-2.72-1.28a1.3,1.3,0,0,0-1.77,1.77c.33.74.67,1.48,1,2.23l1.77-1.77-3.85-2.13a1.3,1.3,0,0,0-1.77,1.77,15.36,15.36,0,0,0,3.23,4.36l1.56-2-5.76-3.83c-1.39-.92-2.69,1.32-1.31,2.24"/><g class="cls-7"><g class="cls-21"><path class="cls-9" d="M199.52,562.47c.33,4.15,3.94,12.06,7.28,15,3.89,3.41,10.35,2.13,13.92,5,4.36,3.53,1.26,10.17,4.29,14.67,5.59,8.32,21.33,14.26,31,13.45,9.08-.76,12.94-4.74,16.46-12,3.47,2.34,7.91,3.06,12,3.71,13.87,2.23,28.52,1.24,42.53,1.29,14.87,0,29.12-3,43.26-7.33,5.29-1.62,10.53-4.25,15.86-5.34.2,3.16,1.15,10,4.38,11.41,2.9,1.31,10-1.76,12.89-2.5,6.67-1.7,11.67-4.5,17.63-7.72,6.48-3.49,13-6.53,18.6-11.46,5.2-4.56,2.39-6.92,1.39-13.58-1.6-10.71-.12-10.93-10.72-6.59a464.07,464.07,0,0,1-55.09,18.87c-41.86,11.21-82.56,4.79-124.38-2.06-13.37-2.19-24.24-6.72-36.62-11.64-4.07-1.62-10.86-5.61-14.7-3.22"/></g></g><path d="M579.09,318.5A264.83,264.83,0,0,1,168.73,539.9a267.08,267.08,0,0,1-58.83-52.78,263.54,263.54,0,0,1-59.8-148,267.42,267.42,0,0,1,6.74-83.58,264.49,264.49,0,0,1,30.69-74.18A266,266,0,0,1,204.92,77.12,262.1,262.1,0,0,1,283.6,55.35a267.65,267.65,0,0,1,83.62,3.57A263.79,263.79,0,0,1,443.09,87,266,266,0,0,1,551.46,200.57,264.11,264.11,0,0,1,576,277.72a267.75,267.75,0,0,1,3.1,40.78c0,3.78,5.89,3.79,5.88,0a270.76,270.76,0,0,0-540.72-21,272.65,272.65,0,0,0,6.84,85.16A269.49,269.49,0,0,0,82.46,458.6a271.06,271.06,0,0,0,286,125.23A270.62,270.62,0,0,0,581.77,360.12,277.59,277.59,0,0,0,585,318.5c0-3.78-5.87-3.79-5.88,0"/><path d="M508.43,318.5A194.36,194.36,0,0,1,261.08,505.37a193.66,193.66,0,0,1-53.49-24.49,196.06,196.06,0,0,1-43.25-38.8,193.09,193.09,0,0,1-43.79-108.51,196.11,196.11,0,0,1,4.93-61.17A194.07,194.07,0,0,1,291.72,125.55a196.29,196.29,0,0,1,61.46,2.63,194.22,194.22,0,0,1,153,160.6,195.86,195.86,0,0,1,2.24,29.72c0,3.33,5.18,3.33,5.17,0a199.43,199.43,0,0,0-384-75.44,198.27,198.27,0,0,0-14.2,60.07,200.74,200.74,0,0,0,5,62.56,198.27,198.27,0,0,0,23.15,56.05,199.63,199.63,0,0,0,210.69,92.13,199.28,199.28,0,0,0,157-164.56,203.74,203.74,0,0,0,2.38-30.81c0-3.33-5.16-3.33-5.17,0"/><path class="cls-2" d="M136.79,160.53a13.1,13.1,0,1,1-18.41,2.08,13.11,13.11,0,0,1,18.41-2.08"/><path d="M135.42,161.9a11.39,11.39,0,0,1,3.83,12.29,11.16,11.16,0,1,1-3.83-12.29,2,2,0,0,0,2.74,0,2,2,0,0,0,0-2.74,15,15,0,1,0,3.72,18.72,15.24,15.24,0,0,0-3.72-18.72,2,2,0,0,0-2.74,0,1.94,1.94,0,0,0,0,2.74"/><path class="cls-2" d="M80.56,355.8a13.1,13.1,0,1,1-9.85,15.69,13.1,13.1,0,0,1,9.85-15.69"/><path d="M81.08,357.67A11.16,11.16,0,1,1,72.32,369a11.26,11.26,0,0,1,8.76-11.31c2.42-.59,1.4-4.33-1-3.74a15,15,0,1,0,17.15,8.52,15.18,15.18,0,0,0-17.15-8.52c-2.44.52-1.41,4.26,1,3.74"/><path class="cls-2" d="M201,524.3a13.1,13.1,0,1,1,6.12,17.48A13.1,13.1,0,0,1,201,524.3"/><path d="M202.64,525.28a11.37,11.37,0,0,1,11.16-6.42,11.17,11.17,0,1,1-11.16,6.42,2,2,0,0,0-.7-2.65,1.94,1.94,0,0,0-2.65.69,15,15,0,0,0,19.78,20.3,15,15,0,1,0-19.78-20.3c-1.11,2.23,2.23,4.2,3.35,2"/><path class="cls-2" d="M403.85,535.66a13.1,13.1,0,1,1,17.48,6.12,13.09,13.09,0,0,1-17.48-6.12"/><path d="M405.52,534.69a11.17,11.17,0,1,1,12.84,6.12,11.27,11.27,0,0,1-12.84-6.12c-1.11-2.24-4.46-.28-3.35,1.95A15,15,0,1,0,406.56,518a15.12,15.12,0,0,0-4.39,18.62,1.94,1.94,0,1,0,3.35-1.95"/><path class="cls-2" d="M539.23,384.13a13.1,13.1,0,1,1,15.68-9.86,13.09,13.09,0,0,1-15.68,9.86"/><path d="M539.75,382.26a11.15,11.15,0,1,1,12.7-6.57,11.33,11.33,0,0,1-12.7,6.57c-2.44-.52-3.48,3.22-1,3.74a15.3,15.3,0,0,0,16-6.36,15,15,0,1,0-16,6.36c2.43.59,3.46-3.15,1-3.74"/><path class="cls-2" d="M505.16,183.8a13.1,13.1,0,1,1,2.08-18.4,13.09,13.09,0,0,1-2.08,18.4"/><path d="M503.79,182.43A11.18,11.18,0,1,1,507,168.54a11.24,11.24,0,0,1-3.18,13.89,2,2,0,0,0,0,2.74,2,2,0,0,0,2.75,0A15,15,0,1,0,487.3,185a15.11,15.11,0,0,0,19.24.13,2,2,0,0,0,0-2.74,2,2,0,0,0-2.75,0"/><path class="cls-4" d="M212,449.34c-6.92.17-14,.53-20.37,3.32s-11.82,8.56-12.28,15.47a14.42,14.42,0,0,0,26,9.57c-4.09,3.59-4.18,10.5-.85,14.81s9.28,6.08,14.67,5.29,10.26-3.78,14.25-7.49c-3.78,5.16-1.29,13.35,4.36,16.33s13.14,1,17.41-3.71,5.56-11.71,4.32-18-4.74-11.91-9-16.67a57.68,57.68,0,0,0-39.3-18.94"/><path d="M212,447.35c-11.84.31-25.93,1.81-32.39,13.32-5.45,9.7.13,22.9,11.5,24.58a16.91,16.91,0,0,0,15.61-6.14c1.54-2-.89-4.62-2.81-2.82-6.86,6.44-3.75,17.65,4.1,21.64,9.38,4.78,19.58.36,26.77-6.21l-3.12-2.41c-4.24,6.17-1.54,15.31,4.84,18.91,7.39,4.18,16.94.81,21.6-5.83,5.22-7.42,4.55-17.24.86-25.14-3.87-8.26-10.87-15.12-18.4-20.11a60.07,60.07,0,0,0-29.39-9.79c-2.56-.16-2.55,3.82,0,4a55.7,55.7,0,0,1,39.29,20c4.83,5.92,8.43,13.5,7.26,21.32-1.07,7.15-6.46,13.5-14.11,13.45-7.28,0-12.94-8.32-8.52-14.76,1.33-1.93-1.52-3.87-3.12-2.41-5.53,5.05-13.18,9-20.71,6.14-6.29-2.35-10.07-10.75-4.54-15.93l-2.81-2.82a13,13,0,0,1-14.63,4.42,12.84,12.84,0,0,1-7.89-13.2c.74-5.66,5.21-10.12,10.1-12.6,6.27-3.18,13.64-3.4,20.51-3.58,2.56-.07,2.57-4.05,0-4"/><path class="cls-11" d="M234.4,493.09a2.1,2.1,0,0,0-.69,1,7.27,7.27,0,0,0-.12,2.55,10,10,0,0,0,.53,2.87,10.74,10.74,0,0,0,2.84,4,11.14,11.14,0,0,0,4.2,2.27,9.21,9.21,0,0,0,6-.33,5.38,5.38,0,0,0,2.71-1.39,3.75,3.75,0,0,0,.8-1.12,3,3,0,0,0-.15-2.08,9.8,9.8,0,0,0-2.6-4.19c-.89-.75-2-1.26-2.87-2a7.72,7.72,0,0,0-2.73-1.37c-1.09-.29-2.25-.37-3.35-.61a11.29,11.29,0,0,0-2.32-.18,3.67,3.67,0,0,0-2.2.55"/><path class="cls-11" d="M204.19,482.81c-3.17,1.2-.74,6.74.58,8.39a15,15,0,0,0,7.07,5.11,15.78,15.78,0,0,0,9.08.07c5.59-1.72-2.24-8.72-4.38-10.45s-4.81-3.21-7.41-3.41c-1.95-.14-3.47.58-4.94.29"/><path class="cls-11" d="M181.78,465.72c-3.83-.32-2.06,6.53-1.32,8.18a17,17,0,0,0,6.31,7.15c3,2.07,6.83,1.91,10.24,1.36,1.58-.25,3.73-.78,3.56-2.86s-3-5.74-4.32-7.55a14.1,14.1,0,0,0-8.59-5.46c-2.09-.5-4.42-1.43-5.88-.82"/><path d="M180.43,467.87a17.92,17.92,0,0,1,18.63,11.33c.57,1.55,3.07.88,2.5-.69a20.58,20.58,0,0,0-21.81-13.13,1.3,1.3,0,0,0-.91,1.59,1.33,1.33,0,0,0,1.59.9"/><path d="M203.31,484.47a18,18,0,0,1,18.36,9.67c.74,1.49,3,.18,2.23-1.31A20.56,20.56,0,0,0,202.62,482a1.3,1.3,0,0,0-.9,1.59,1.33,1.33,0,0,0,1.59.91"/><path d="M232.57,495.5a15,15,0,0,1,16.7,6c.9,1.38,3.14.09,2.23-1.31A17.66,17.66,0,0,0,231.88,493c-1.58.49-.91,3,.69,2.49"/><path class="cls-4" d="M372.45,471.76a33.58,33.58,0,0,0,.17,28.06c4.09,8.48,13.81,14.37,23.05,12.55s16.19-12.39,12.91-21.22c.51,7.25,9.71,12.28,16.08,8.8S431.78,486,426,481.67c3.11,3.66,7.06,6.88,11.76,7.89s10.21-.68,12.57-4.87c2.57-4.57.8-10.37-1.85-14.89a43.38,43.38,0,0,0-76,2"/><path d="M370.74,470.76c-5.38,11.5-4.4,27.26,4.83,36.6,8.38,8.48,22.63,10.35,30.94.75,4.13-4.78,6.1-11.38,4-17.49-.69-2-4.14-1.83-3.91.53.88,8.73,11.37,15,19.29,10.39,7.33-4.27,8.11-16,1.49-21.28a2,2,0,0,0-2.81,2.81c6,6.88,16.49,12.47,24.75,5.76,8.58-6.95,2.38-19-3.12-25.71-12.32-15.06-33.75-20.88-51.83-13.52a46.44,46.44,0,0,0-23.62,21.16c-1.2,2.26,2.24,4.27,3.43,2,7.74-14.69,24.21-24,40.84-22.27a42.42,42.42,0,0,1,22.25,9.33,41.1,41.1,0,0,1,8.11,8.8c2.37,3.53,4.77,8,4.11,12.41-.7,4.59-5.11,7-9.44,6.82-5.18-.17-9.44-3.87-12.67-7.59l-2.81,2.81c4.46,3.54,4.62,11.44-.26,14.77-5.09,3.48-13.13-.7-13.73-6.69l-3.9.53c1.95,5.65-.39,11.64-4.8,15.45-4.92,4.26-11.83,4.51-17.54,1.69-12.87-6.34-15.87-23.83-10.16-36.06,1.08-2.3-2.35-4.32-3.43-2"/><path class="cls-11" d="M401.25,491.45c-9.66,2-21.43,11.77-14.62,17.17,4.25,3.36,12.34,2.11,15.92-2.39s6.56-9.58,1.68-13.51"/><path class="cls-11" d="M425.42,483.17c-4.89-7.06-14.89-.62-14.87,6.46,0,6.74,8.89,12.51,14.43,7.34,3.81-3.54,2.9-11,.44-13.8"/><path class="cls-11" d="M433.61,471.75c-2.68,1.12-6.72,4.87-5.72,8.08.88,2.84,5.59,5.82,8.08,7,3.81,1.81,6.56,1.15,9.93-1.28,3.64-2.63,3.71-8,2.21-12.06-.79-2.13-1.79-4.55-4.13-5.19-3.77-1-9.14.83-10.37,3.45"/><path d="M382.47,509.27c2.2-4.09,3.95-8.62,7.4-11.85,4.95-4.61,12.3-5.12,18.71-5a1.3,1.3,0,0,0,0-2.59c-7-.16-14.69.58-20.18,5.41-3.86,3.4-5.78,8.27-8.16,12.7-.79,1.46,1.44,2.77,2.23,1.3"/><path d="M411.06,490.62c.27-3.34,1.76-6.61,5-7.67a12.2,12.2,0,0,1,9,1.12c1.48.74,2.79-1.49,1.3-2.23-5.32-2.67-12.81-3-16.24,2.77a13.92,13.92,0,0,0-1.7,6c-.13,1.66,2.46,1.65,2.59,0"/><path d="M427.26,481.67c-.26-2.26,1-4.37,2.36-6.09a17.51,17.51,0,0,1,4.82-4.5c3.32-1.91,8.55-2.89,12-.81a1.29,1.29,0,0,0,1.3-2.23c-4.26-2.56-10.5-1.56-14.63.81a20.3,20.3,0,0,0-5.74,5.42c-1.58,2.08-3,4.7-2.71,7.4.19,1.63,2.78,1.65,2.58,0"/><path d="M196.12,558.87a73.34,73.34,0,0,0,17.1,35c1.1,1.26,2.92-.58,1.83-1.83a70.92,70.92,0,0,1-16.44-33.86c-.3-1.64-2.79-.94-2.49.68"/><path d="M187.12,555.05a75,75,0,0,0,21.23,44.85,1.29,1.29,0,0,0,1.83-1.83,72.09,72.09,0,0,1-20.47-43c-.18-1.63-2.77-1.65-2.59,0"/><path d="M248.53,636a102.06,102.06,0,0,0,26.13,10c1.62.37,2.31-2.12.69-2.49a99.74,99.74,0,0,1-25.52-9.71c-1.46-.8-2.77,1.43-1.3,2.23"/><path d="M371.87,650.45a126.93,126.93,0,0,0,34.3-14.29,1.29,1.29,0,0,0-1.31-2.23,124.54,124.54,0,0,1-33.68,14,1.29,1.29,0,0,0,.69,2.49"/><path d="M457.83,544.74a147.35,147.35,0,0,1-14,55.56c-.71,1.5,1.52,2.81,2.23,1.31a150.72,150.72,0,0,0,14.38-56.87c.08-1.66-2.5-1.66-2.59,0"/><path d="M446.7,551.05a39.44,39.44,0,0,1-5.6,20.6,1.29,1.29,0,0,0,2.23,1.3,42,42,0,0,0,5.95-21.9,1.29,1.29,0,0,0-2.58,0"/><path class="cls-22" d="M308.59,228.3c-5.72,2.11-7.68,8.08-7.6,12.9s3.44,9.76,8.07,10.33a10.26,10.26,0,0,0,7.42-2.44,14.08,14.08,0,0,0,5.28-9.06,11.75,11.75,0,0,0-3.34-9.93,9.09,9.09,0,0,0-9.83-1.8"/><path class="cls-23" d="M308.71,232.8c-1.55.31-3.13,2.78-3.52,4.24-.56,2.09-.87,4.5.35,6.38,2,3.14,5.87,3.46,8.9,1.64a5.77,5.77,0,0,0,3-5,10.75,10.75,0,0,0-1.87-5.92,5.52,5.52,0,0,0-3.75-2.18,6.21,6.21,0,0,0-4.16,1.44"/><path class="cls-2" d="M312.41,236.45a.14.14,0,0,1,0-.06l-.06-.09,0-.05,0,0-.06-.05a.62.62,0,0,0-.12-.3l-.12-.12a.66.66,0,0,0-.31-.13h-.31a1.05,1.05,0,0,0-.42.18.92.92,0,0,0-.22.22.76.76,0,0,0-.11.14,1.74,1.74,0,0,0-.31,1,1,1,0,0,0,.06.38.94.94,0,0,0,.14.26,1,1,0,0,0,.35.26l0,0,.18.05h.24a1.11,1.11,0,0,0,.59-.25,2.28,2.28,0,0,0,.22-.22,1.34,1.34,0,0,0,.11-.14l0,0h0s0,0,0,0a.82.82,0,0,0,.12-.25s0-.05,0-.07a1,1,0,0,0,.06-.16.57.57,0,0,0,0-.13.65.65,0,0,0,0-.14,1.17,1.17,0,0,0,0-.2"/><path class="cls-2" d="M310,233.21l-.06-.14-.15-.25-.06-.1-.07-.11c0-.05-.1-.09-.14-.14a1.56,1.56,0,0,0-.31-.76l-.3-.31a1.6,1.6,0,0,0-.77-.33,1.42,1.42,0,0,0-.41,0,1.7,1.7,0,0,0-.39,0,2.57,2.57,0,0,0-1.08.48,2.81,2.81,0,0,0-.55.54,2.51,2.51,0,0,0-.27.37,4.67,4.67,0,0,0-.8,2.45,3,3,0,0,0,.16,1,2.22,2.22,0,0,0,.36.66,2.49,2.49,0,0,0,.89.69l.1,0a3.74,3.74,0,0,0,.45.12,2.58,2.58,0,0,0,.62,0,2.87,2.87,0,0,0,1.48-.65,4.46,4.46,0,0,0,.58-.57,2.48,2.48,0,0,0,.28-.36l0-.09h0a.26.26,0,0,0,0-.08A2.77,2.77,0,0,0,310,235c0-.07,0-.13,0-.2a2.26,2.26,0,0,0,.15-.39,1.37,1.37,0,0,0,0-.35,2,2,0,0,0,0-.35,3,3,0,0,0-.13-.52"/><path class="cls-22" d="M248.62,223c-5.72,2.11-7.68,8.07-7.61,12.89s3.45,9.76,8.08,10.33a10.27,10.27,0,0,0,7.41-2.43,14.07,14.07,0,0,0,5.29-9.07,11.74,11.74,0,0,0-3.35-9.93,9.07,9.07,0,0,0-9.82-1.79"/><path class="cls-23" d="M248.74,227.45c-1.55.31-3.13,2.78-3.53,4.25-.55,2.09-.86,4.49.36,6.38,2,3.13,5.86,3.45,8.9,1.63a5.78,5.78,0,0,0,3-5,10.78,10.78,0,0,0-1.87-5.92,5.56,5.56,0,0,0-3.76-2.18,6.3,6.3,0,0,0-4.15,1.44"/><path class="cls-2" d="M252.44,231.1l0-.06-.06-.09a.05.05,0,0,0,0,0l0,0-.05-.06a.66.66,0,0,0-.12-.3l-.12-.12a.66.66,0,0,0-.31-.13h-.31a1,1,0,0,0-.43.19,1,1,0,0,0-.21.21.76.76,0,0,0-.11.14,1.83,1.83,0,0,0-.32,1,1.27,1.27,0,0,0,.07.38.73.73,0,0,0,.14.26,1.17,1.17,0,0,0,.35.27h0l.18,0h.24a1.14,1.14,0,0,0,.58-.26,1.2,1.2,0,0,0,.23-.22.76.76,0,0,0,.11-.14s0,0,0,0h0a0,0,0,0,1,0,0c0-.08.09-.16.12-.24s0-.06,0-.08,0-.1.06-.15a.65.65,0,0,0,0-.14.65.65,0,0,0,0-.14,1.17,1.17,0,0,0-.05-.2"/><path class="cls-2" d="M250.06,227.86a.5.5,0,0,0-.05-.13c0-.08-.1-.17-.15-.25l-.06-.11s0-.07-.07-.1a1.06,1.06,0,0,0-.15-.15,1.49,1.49,0,0,0-.3-.76l-.3-.31a1.6,1.6,0,0,0-.78-.33,1.75,1.75,0,0,0-.4,0,1.67,1.67,0,0,0-.39,0,2.7,2.7,0,0,0-1.08.48,2.81,2.81,0,0,0-.55.54,2,2,0,0,0-.27.37,4.67,4.67,0,0,0-.8,2.46,2.69,2.69,0,0,0,.16,1,1.85,1.85,0,0,0,.36.66,2.49,2.49,0,0,0,.89.69l.1,0a2.3,2.3,0,0,0,.45.12,2.58,2.58,0,0,0,.62,0,2.94,2.94,0,0,0,1.48-.64,6.25,6.25,0,0,0,.58-.57,3.27,3.27,0,0,0,.28-.37s0-.06.05-.08v0a.36.36,0,0,0,0-.07,3,3,0,0,0,.31-.62,1.23,1.23,0,0,1,0-.2,2.74,2.74,0,0,0,.15-.4,2,2,0,0,0,0-.35,2,2,0,0,0,0-.35,3.34,3.34,0,0,0-.14-.52"/><g class="cls-7"><g class="cls-24"><path class="cls-9" d="M304,659a1.89,1.89,0,0,0-.85,1.63,10.53,10.53,0,0,0,.89,5.14c.79,1.83,1.41,5.12,2.67,6.57.69.79,2.51,1.27,3.47,1.63,6.12,2.26,13,4.06,19.5,4.13A29.75,29.75,0,0,0,343,675.6c2.82-1.36,5.4-3.29,8-4.77-1.56,7.77-4.11,17.06-8.36,23.71-8.62,13.52-15.08,14.1-25.57,25.74-2.39,2.66-2.33,9.9-.27,13.09,3.28,5.11,12.43-4.32,15-6.66a63.32,63.32,0,0,0,8.08-9.22c3.81-5.28,6.16-11.16,9-17,2.94-6.06,6.46-11.71,8.43-18.22,2.67-8.8,3.37-18.91,3-28.08-5.19,1.95-10.05,4.41-15.46,6-6,1.8-11.11,2.16-17.25,2.41-5.35.22-11,.06-16.11-1.54-1.27-.4-2.56-1-3.86-1.55s-2.74-1.05-3.61-.6"/></g></g><g class="cls-7"><g class="cls-25"><path class="cls-9" d="M289.59,394.9c-4.92-.64-10.41.1-15.33.57-3.42.32-6.72,1.32-10.1,1.9-2.58.45-4.94.44-7.39,1.38s-9.66,2.94-9.85,6.15c-.23,4,11.66,6.6,14.31,7.25,22.24,5.43,45.08,10.64,68.24,9,10.57-.74,20.45-1.64,30.71-4.68,8-2.38,15.12-6.26,22.69-9.32-.31.12-5.85-4.51-6.91-5-2.35-1.14-5.1-1.49-7.62-2a33.21,33.21,0,0,0-14.48.1c-3.23-6.83-.1-14.73-.77-21.84-3.71,5.65-2.28,14-3.51,20.37-.56,2.88-2.19,6-5,7.41-2.39,1.19-3.73-.33-5.38-2-8.48-8.62-8.51-25.5-6.27-36.58-6.16,4.66-4.63,16.41-3.81,22.91.93,7.42,1.65,14.6-3.69,20.52-2.7,3-7.37,5.85-9.14.5-1.29-3.93-.79-9.31-.8-13.41,0-3.55,2.4-11.63,0-14.38-2,2.73-3.89,38.14-14.1,29.76-2.74-2.25-2.15-7.48-2.06-10.71.14-5.2,2.4-10.36,2.17-15.56-2.2,6.18-1.91,17.23-8.85,20.46-7.55,3.51-3.57-9.69-3.09-12.73"/></g></g><path class="cls-20" d="M237.62,222.3a28.78,28.78,0,0,1,5-11.94,24.15,24.15,0,0,1,4.64-4.84,22.89,22.89,0,0,1,6-3.27,19.79,19.79,0,0,1,6.8-1.1,15.81,15.81,0,0,1,6.69,1.73c4.06,2.06,7.22,6.14,7.4,10.51a14.67,14.67,0,0,0-8.51-8.06,16.25,16.25,0,0,0-11.23.17,24,24,0,0,0-9.67,6.56,52,52,0,0,0-7,10.24"/><path class="cls-20" d="M299.26,217.33a19.9,19.9,0,0,1,10.63-10.67,18.58,18.58,0,0,1,15.64.55,21.58,21.58,0,0,1,9.9,12,33.64,33.64,0,0,1,1.41,15c-.87-4.91-1.88-9.73-3.9-14s-5.06-8-9-10a17.48,17.48,0,0,0-13.12-1.08,24.19,24.19,0,0,0-11.54,8.15"/><path class="cls-19" d="M223,288.91c-.49,1.76-3.55,2.44-6.84,1.52s-5.55-3.09-5.06-4.85,3.55-2.43,6.84-1.52,5.55,3.09,5.06,4.85"/><path class="cls-20" d="M222.39,288.74c-.5,1.57-3.1,1.53-4.37,1.4a9.13,9.13,0,0,1-5.55-2.49,2.28,2.28,0,0,1-.77-1.75,1.79,1.79,0,0,1,1.22-1.24,8.45,8.45,0,0,1,6.09.45c1.24.52,3.8,1.9,3.38,3.63-.2.8,1,1.15,1.24.34.53-2.12-1.53-3.85-3.19-4.72a10.27,10.27,0,0,0-7.66-1,3.47,3.47,0,0,0-2.15,1.7,2.83,2.83,0,0,0,.24,2.63c1.23,2.08,3.9,3.21,6.17,3.62s5.78.38,6.59-2.21c.25-.8-1-1.14-1.24-.34"/><path class="cls-19" d="M249.58,292.09c0,1.83-2.76,3.3-6.17,3.3s-6.18-1.47-6.18-3.3,2.77-3.3,6.18-3.3,6.17,1.47,6.17,3.3"/><path class="cls-20" d="M248.94,292.09c-.05,1.59-2.41,2.26-3.64,2.49a9.12,9.12,0,0,1-6.14-.83,2.32,2.32,0,0,1-1.27-1.49,1.71,1.71,0,0,1,.78-1.5c1.55-1.25,3.9-1.46,5.8-1.28a7.76,7.76,0,0,1,3.12.91,2.27,2.27,0,0,1,1.35,1.7c0,.83,1.32.83,1.29,0-.07-2.24-2.61-3.34-4.49-3.72-2.46-.49-5.51-.31-7.62,1.19a3.34,3.34,0,0,0-1.51,2.21,2.84,2.84,0,0,0,.94,2.38c1.79,1.73,4.77,2.08,7.13,1.82,2.13-.24,5.47-1.24,5.55-3.88,0-.83-1.27-.83-1.29,0"/><path class="cls-26" d="M267,115a2.52,2.52,0,0,1-.39,1.92,5.49,5.49,0,0,1-1.57,1.54,7.13,7.13,0,0,1-2.25,1,7.25,7.25,0,0,1-2.48.2,5.86,5.86,0,0,1-2.21-.66,3.36,3.36,0,0,1-1.48-1.72c-.32-1.45-.78-3.42-1.4-5.91s-1.29-5.16-2-8-1.48-5.69-2.28-8.54-1.5-5.39-2.14-7.62l-2,.62c-.75.23-1.49.44-2.21.62s-1.42.34-2.09.48a11.15,11.15,0,0,1-1.69.26c-.67,0-1.29-.45-1.84-1.46a12.36,12.36,0,0,1-1.2-3.44,10.62,10.62,0,0,1-.13-3.62c.17-1.12.63-1.78,1.4-2l3.19-.79,4.19-1,4.69-1.17,4.76-1.18,4.31-1.07,3.37-.83a2.06,2.06,0,0,1,1.79.36,5.26,5.26,0,0,1,1.42,1.62,9.27,9.27,0,0,1,1,2.32,10.74,10.74,0,0,1,.4,2.5,6.72,6.72,0,0,1-.24,2.13,1.64,1.64,0,0,1-1,1.18,23.92,23.92,0,0,1-3.69,1c-1.32.25-2.56.53-3.72.86.47,2.06,1.07,4.46,1.82,7.19s1.48,5.53,2.23,8.37,1.45,5.58,2.1,8.2S266.69,113.15,267,115Z"/><path class="cls-26" d="M304.7,99c.9,1.28,1.83,2.41,2.84,3.68l2.91,3.68a1.68,1.68,0,0,1,.32,1.66,6.32,6.32,0,0,1-1,1.93,11.51,11.51,0,0,1-1.88,1.88,11.85,11.85,0,0,1-2.25,1.43,6.39,6.39,0,0,1-2.08.62,1.41,1.41,0,0,1-1.37-.51q-1.62-2.34-3.28-4.6l-3.27-4.48c.07,1.16.12,2.32.17,3.47s.07,2.4.06,3.73a2.66,2.66,0,0,1-1.63,1.93,9.26,9.26,0,0,1-3.36,1,8,8,0,0,1-3.47-.36,2.65,2.65,0,0,1-1.9-2.16q-.68-4.19-1.08-8.49c-.26-2.86-.46-5.62-.59-8.26s-.22-5.09-.27-7.32-.07-4.12-.08-5.65c-.32.14-.65,1-1.21,1.12a2.82,2.82,0,0,1-1.79-.42,8.18,8.18,0,0,1-1.89-1.51,8.71,8.71,0,0,1-1.49-2.09,5.3,5.3,0,0,1-.59-2.23,2.27,2.27,0,0,1,.79-1.85A23.2,23.2,0,0,1,292,68.89a21.5,21.5,0,0,1,7.27.85,20.08,20.08,0,0,1,6.24,3.12,16.94,16.94,0,0,1,4.48,5.06,14.86,14.86,0,0,1,1.94,6.7,16.05,16.05,0,0,1-1.54,7.86,15.44,15.44,0,0,1-5.72,6.35Zm-9.63-5.12a7.56,7.56,0,0,0,3.84-1.74,8.9,8.9,0,0,0,2.37-3.18,9.58,9.58,0,0,0,.81-3.78,7.21,7.21,0,0,0-.86-3.56,6.11,6.11,0,0,0-2.69-2.52,8.32,8.32,0,0,0-4.61-.63c.1.71.31,1.81.43,3.11s.22,2.68.3,4.15.16,2.92.22,4.37S295,92.78,295.07,93.85Z"/><path class="cls-26" d="M335.12,111.31a2.55,2.55,0,0,1-1,1.69,5.55,5.55,0,0,1-2,1,7.49,7.49,0,0,1-2.44.21,7.3,7.3,0,0,1-2.41-.6,5.74,5.74,0,0,1-1.89-1.34,3.33,3.33,0,0,1-.86-2.09q.24-2.22.55-6.05c.2-2.56.41-5.3.62-8.24s.4-5.87.55-8.82.28-5.59.38-7.91l-2.11,0c-.79,0-1.56-.07-2.3-.12s-1.45-.13-2.13-.21a11,11,0,0,1-1.69-.29c-.65-.17-1.07-.83-1.27-2a12.31,12.31,0,0,1-.06-3.65,10.58,10.58,0,0,1,1-3.47c.51-1,1.16-1.49,1.95-1.43l3.28.26,4.3.34,4.82.39,4.89.39,4.42.35,3.47.28a2.06,2.06,0,0,1,1.58.9,5.25,5.25,0,0,1,.83,2,9.67,9.67,0,0,1,.18,2.5,10.79,10.79,0,0,1-.42,2.49,6.77,6.77,0,0,1-.9,2,1.61,1.61,0,0,1-1.31.8,22.94,22.94,0,0,1-3.81-.24c-1.34-.19-2.6-.31-3.8-.37q-.32,3.15-.56,7.4T336.52,96c-.19,2.93-.4,5.75-.61,8.45S335.43,109.46,335.12,111.31Z"/><path class="cls-26" d="M368.16,74.32a22.19,22.19,0,0,1,4.6,1.58,9.24,9.24,0,0,1,3.47,2.87,12.67,12.67,0,0,1,2.08,4.91,29.87,29.87,0,0,1,.46,7.66,85.55,85.55,0,0,1-1.4,11.14q-1.19,6.51-3.56,15.38a3.93,3.93,0,0,1-1.47,2.08,5.27,5.27,0,0,1-2.28.91,6.48,6.48,0,0,1-2.58-.15,7.34,7.34,0,0,1-2.34-1,4.8,4.8,0,0,1-1.55-1.8,3.66,3.66,0,0,1-.3-2.42c.18-.77.33-1.44.47-2s.26-1.13.37-1.63.24-1,.35-1.51.25-1.06.39-1.66a22.83,22.83,0,0,1-5.54-.68c-1.54-.42-3.05-.84-4.52-1.27a27.76,27.76,0,0,0-1.16,3.2c-.31,1.1-.62,2.08-.9,3a4.53,4.53,0,0,1-1.44,2.21,4.69,4.69,0,0,1-2.11,1,5,5,0,0,1-2.3-.12,4.78,4.78,0,0,1-2-1.13,4.86,4.86,0,0,1-1.24-2.07,5.61,5.61,0,0,1,0-3,154.87,154.87,0,0,1,5-17.51,50.62,50.62,0,0,1,5.55-11.48,16,16,0,0,1,6.42-5.84A11.71,11.71,0,0,1,368.16,74.32ZM357.67,99.54a21.89,21.89,0,0,0,4.05,1.06,30.78,30.78,0,0,0,4.57.49,87.55,87.55,0,0,0,2.21-12.58c.2-2.86-.41-4.46-1.82-4.78s-3.05.82-4.67,3.5S358.94,94,357.67,99.54Z"/></g><rect class="cls-1" width="628.41" height="772.23"/></g></g></svg>