<svg xmlns="http://www.w3.org/2000/svg" xmlns:xlink="http://www.w3.org/1999/xlink" viewBox="0 0 541.53 541.53"><defs><style>.cls-1,.cls-14,.cls-5{fill:none;}.cls-15,.cls-2{fill:#fff;}.cls-3{fill:#f08d25;}.cls-4{fill:#efbb26;}.cls-5{stroke:#9371bc;stroke-width:66.65px;}.cls-14,.cls-15,.cls-5{stroke-miterlimit:10;}.cls-6{fill:#1c1b1b;}.cls-7{fill:#279aa0;}.cls-8{fill:#3edddd;}.cls-9{opacity:0.19;}.cls-10{clip-path:url(#clip-path);}.cls-11{clip-path:url(#clip-path-2);}.cls-12{fill:#ed4040;}.cls-13{fill:#c1610a;}.cls-14{stroke:#110e0e;stroke-width:1.47px;}.cls-15{stroke:#000;stroke-width:4.31px;}</style><clipPath id="clip-path"><rect class="cls-1" x="279.13" y="440.47" width="95.95" height="84.41"/></clipPath><clipPath id="clip-path-2"><rect class="cls-1" x="454.03" y="169.76" width="68.01" height="207.94"/></clipPath></defs><title>CISTOAsset 40ZAKLINA</title><g id="Layer_2" data-name="Layer 2"><g id="Layer_1-2" data-name="Layer 1"><g id="Zaklina"><path class="cls-2" d="M468.59,273.43c0,109.25-88.57,197.82-197.82,197.82S72.94,382.68,72.94,273.43,161.51,75.6,270.77,75.6s197.82,88.57,197.82,197.83"/><path class="cls-3" d="M176.54,384.33c-12.23,2.59-18.65,16.07-21.18,28.31S152,438.3,144,447.89c-6.27,7.52-15.93,11.32-23.18,17.9-14.12,12.82-16.48,36.61-5.16,52,0-9.71,7.24-18.23,15.83-22.74s18.45-5.83,28.06-7.27,19.46-3.2,27.65-8.41c6-3.84,11.13-10,11.44-17.18.46-10.51-8.92-18.5-13.45-28a32.78,32.78,0,0,1,4.8-34.81c5.25-6,13.36-11.71,12-19.55-1-5.8-7.44-9.36-13.32-9.27s-6.91,11-12.11,13.8"/><path class="cls-4" d="M110,499.15c3.88-10.93,13.67-19,24.52-23.12s22.74-4.6,34.33-4c7.89.42,16.78,1,22.66-4.28,4.63-4.16,6-11.05,5-17.19s-4-11.74-7-17.22a29.93,29.93,0,0,1-17.73,22.76,30.72,30.72,0,0,1-22.84-.15c-5.8-2.42-5.43-3.08-11.05.23-2.95,1.74-5.82,2.51-8.84,3.9C115,466.58,107,484.18,110,499.15"/><path class="cls-4" d="M182.27,414.58a25,25,0,0,1,8-17.74c-6.89-1-13-5.84-20-5.66-5.92.15-14.58,8.38-8.83,14.1,2.75,2.72,7.71,1.24,11.15,2.27a18.22,18.22,0,0,1,9.68,7"/><path d="M178.1,383.38c-10.11.95-16.82,9.34-20.21,18.29-4.2,11.07-3.63,23.24-7.14,34.49a32.24,32.24,0,0,1-8.64,14.34c-3.52,3.26-7.69,5.73-11.8,8.18-8.53,5.1-16.74,10.51-20.26,20.29-4.56,12.64-.61,26.11,4,38.09.59,1.54,3.09.87,2.49-.69-4.15-10.74-7.88-22.52-4.85-34.05,2.67-10.2,10.52-15.8,19.1-20.93,8-4.77,15.76-9.69,20-18.34,4.86-9.94,5-21.15,7.12-31.81s7.78-24.1,20.18-25.28c1.64-.15,1.66-2.74,0-2.58"/><path d="M119.11,516.92c-1.11-6.87,2.18-13.56,7-18.26,5.32-5.14,12.55-7.71,19.65-9.29,13.88-3.09,29.46-2.6,41.45-11.3,5.5-4,9.85-9.57,11.12-16.36.3-1.63-2.19-2.33-2.5-.69-2.86,15.39-19.56,20.76-33,22.94-13.9,2.25-30.18,3.19-40.16,14.54-4.64,5.28-7.25,12.06-6.11,19.1.27,1.64,2.76.95,2.49-.68"/><path d="M198.31,388.19c-9.92,6.33-16.85,18.52-16.41,30.39.57,15.31,16.92,26.25,14.68,42-.23,1.62,2.26,2.33,2.5.68,1-7.1-1.5-13.75-4.89-19.89s-8.06-12.4-9.37-19.61c-2.14-11.83,4.91-25,14.79-31.3,1.4-.9.11-3.13-1.3-2.23"/><path d="M123.18,498.8c-2.8-9.49,3-18.8,9.65-25.16s14.36-11,20-18.1c11.21-14.07,8-33.19,14.1-49.22,3.07-8.07,8.29-16.76,16.91-19.65.79-.26.45-1.51-.34-1.25-7.17,2.41-12.13,8.62-15.45,15.16-3.89,7.67-5.44,15.87-6.59,24.32-1.32,9.73-2.6,20-8.4,28.2-5.61,8-14.23,13-21.15,19.62s-12.92,16.49-10,26.42a.64.64,0,0,0,1.24-.34"/><path d="M146.65,487c-.74-15.84,17.12-23.24,24.59-34.9,8.78-13.72,2.94-30.64,6.54-45.61,1.84-7.65,6.81-15.14,14.79-17.19a.65.65,0,0,0-.34-1.25c-6.3,1.62-11,6.53-13.69,12.31-3.37,7.26-3.42,15.44-3.36,23.28.06,8.51.27,17.55-3.65,25.35-3.61,7.17-10.28,12-15.9,17.49S145,478.8,145.36,487c0,.83,1.33.83,1.29,0"/><path d="M183.93,429.6c.77,10.2,1.55,21.69-4.35,30.64-5.27,8-17.23,13.63-15.25,24.86.14.82,1.39.47,1.24-.35-1.1-6.29,3.34-11.47,7.54-15.55,3.53-3.43,7.07-6.74,9.24-11.24,4.22-8.76,3.58-18.94,2.87-28.36-.06-.83-1.35-.84-1.29,0"/><circle class="cls-5" cx="270.77" cy="270.76" r="232.64"/><path d="M535.65,270.76A264.83,264.83,0,0,1,125.29,492.17a267.12,267.12,0,0,1-58.83-52.79,263.44,263.44,0,0,1-59.79-148,265.27,265.27,0,0,1,154.81-262A262.12,262.12,0,0,1,240.16,7.61a268.25,268.25,0,0,1,83.62,3.57A263.81,263.81,0,0,1,399.65,39.3a264.27,264.27,0,0,1,136,231.46c0,3.79,5.89,3.79,5.88,0A271,271,0,0,0,196.82,10.22a271,271,0,0,0-135,88.31,272.92,272.92,0,0,0-41.79,69.84A269.47,269.47,0,0,0,.81,249.76a272.65,272.65,0,0,0,6.84,85.16,270.59,270.59,0,0,0,231.78,204.8A272.77,272.77,0,0,0,325,536.09a269,269,0,0,0,77.32-28.61,271.83,271.83,0,0,0,111-116.13,269,269,0,0,0,25.07-79,277.49,277.49,0,0,0,3.2-41.62c0-3.78-5.87-3.78-5.88,0"/><path d="M465,270.76A194.17,194.17,0,0,1,164.15,433.14a196,196,0,0,1-43.25-38.79A193.27,193.27,0,0,1,77.11,285.83,196.13,196.13,0,0,1,82,224.66,194.13,194.13,0,0,1,248.28,77.81a196.59,196.59,0,0,1,61.46,2.63,194.22,194.22,0,0,1,153,160.6A195.86,195.86,0,0,1,465,270.76c0,3.33,5.18,3.34,5.18,0a200.85,200.85,0,0,0-9.73-61.68,198.83,198.83,0,0,0-27-53.61,201.88,201.88,0,0,0-41.5-43,199.27,199.27,0,0,0-274.89,31.31,201,201,0,0,0-30.91,51.57A198.41,198.41,0,0,0,72,255.4,200.76,200.76,0,0,0,77,318a198.21,198.21,0,0,0,23.15,56,199.63,199.63,0,0,0,210.69,92.13,198.25,198.25,0,0,0,56.8-21,200.28,200.28,0,0,0,81.71-85.53,197.86,197.86,0,0,0,18.44-58,205,205,0,0,0,2.39-30.81c0-3.32-5.17-3.33-5.18,0"/><path class="cls-2" d="M96.14,115.59a13.1,13.1,0,1,1-18.41,2.07,13.1,13.1,0,0,1,18.41-2.07"/><path d="M94.77,117a11.36,11.36,0,0,1,3.83,12.29A11.16,11.16,0,1,1,94.77,117a2,2,0,0,0,2.74,0,2,2,0,0,0,0-2.74,15,15,0,0,0-24.25,14.66,15,15,0,1,0,24.25-14.66,2,2,0,0,0-2.74,0,2,2,0,0,0,0,2.74"/><path class="cls-2" d="M39.91,310.86a13.09,13.09,0,1,1-9.85,15.68,13.1,13.1,0,0,1,9.85-15.68"/><path d="M40.43,312.73A11.16,11.16,0,1,1,31.68,324a11.22,11.22,0,0,1,8.75-11.31c2.42-.59,1.4-4.33-1-3.74a15,15,0,1,0,17.15,8.51A15.19,15.19,0,0,0,39.4,309c-2.44.52-1.41,4.26,1,3.74"/><path class="cls-2" d="M157.53,476.56a13.09,13.09,0,1,1,6.11,17.49,13.09,13.09,0,0,1-6.11-17.49"/><path d="M159.2,477.54a11.16,11.16,0,0,1,20.93,1.93,11.16,11.16,0,1,1-20.93-1.93,2,2,0,0,0-.7-2.65,2,2,0,0,0-2.65.69,15,15,0,0,0,19.79,20.3,15,15,0,1,0-19.79-20.3c-1.11,2.23,2.24,4.2,3.35,2"/><path class="cls-2" d="M360.41,487.93a13.1,13.1,0,1,1,17.48,6.12,13.09,13.09,0,0,1-17.48-6.12"/><path d="M362.08,487a11.17,11.17,0,1,1,12.84,6.12A11.26,11.26,0,0,1,362.08,487c-1.11-2.24-4.46-.27-3.35,2a15,15,0,1,0,4.39-18.63,15.14,15.14,0,0,0-4.39,18.63,2,2,0,0,0,2.66.69,2,2,0,0,0,.69-2.65"/><path class="cls-2" d="M495.79,336.39a13.09,13.09,0,1,1,15.68-9.85,13.09,13.09,0,0,1-15.68,9.85"/><path d="M496.31,334.52A11.15,11.15,0,1,1,509,328a11.33,11.33,0,0,1-12.7,6.57c-2.44-.52-3.48,3.22-1,3.74A15,15,0,1,0,483.68,323a15.27,15.27,0,0,0,11.6,15.23c2.42.59,3.45-3.15,1-3.74"/><path class="cls-2" d="M461.72,136.07a13.1,13.1,0,1,1,2.08-18.41,13.09,13.09,0,0,1-2.08,18.41"/><path d="M460.35,134.7a11.18,11.18,0,1,1,3.18-13.89,11.28,11.28,0,0,1-3.18,13.89,2,2,0,0,0,0,2.74,2,2,0,0,0,2.75,0,15,15,0,1,0-19.24-.13,15.13,15.13,0,0,0,19.24.13,2,2,0,0,0,0-2.74,2,2,0,0,0-2.75,0"/><path class="cls-2" d="M141.61,213.74c-2-2.51-5.72-3.16-8.82-2.29s-5.69,3-8,5.24a55,55,0,0,0-16.12,37.46,13.38,13.38,0,0,0,.84,5.77,5.38,5.38,0,0,0,4.46,3.35"/><path class="cls-6" d="M142.52,212.83c-4.42-5-11.5-3-16,.63a50.58,50.58,0,0,0-12.8,16.3,57,57,0,0,0-5.94,19.53c-.62,5.43-1.14,14.53,6.26,15.28,1.66.16,1.65-2.43,0-2.59-6.12-.62-3.9-11.93-3.21-15.79a54.45,54.45,0,0,1,5.44-15.74A52.51,52.51,0,0,1,126,217.37c3.7-3.61,10.32-7.7,14.71-2.71,1.11,1.24,2.93-.59,1.83-1.83"/><path class="cls-7" d="M125,218.78c2.33-2.35,5.58-4.24,7.55-2.25,1.6,1.61,1.53,5,1.1,7.9a51.39,51.39,0,0,1-11.92,26,30.36,30.36,0,0,1-3.27,3.58,9.16,9.16,0,0,1-4,1.94,3.48,3.48,0,0,1-2.49-.3,4.55,4.55,0,0,1-1.67-2.83c-.79-3.27.14-7.19,1.3-10.71a65.29,65.29,0,0,1,5.71-12.76,53.79,53.79,0,0,1,7.7-10.6"/><path d="M131.87,231.63h0a9.79,9.79,0,0,0,.8-5,2.92,2.92,0,0,0-3-2.45,7,7,0,0,0-3.91,2.07c-3.25,3-5.63,7.43-7.48,12a21.71,21.71,0,0,0-1.62,5.65c-.57,5.17,3,7.51,6.25,4.22,3.8-3.9,7-10.92,9-16.44"/><path class="cls-8" d="M113.42,251.51l-1,1a17,17,0,0,1,.26-7.68,41.32,41.32,0,0,1,4.13-11.65,68.76,68.76,0,0,1,6.49-9.5c.57-.69,1.15-1.37,1.74-2a9.71,9.71,0,0,1,.16,5.63,11.53,11.53,0,0,1-1.87,3,31.15,31.15,0,0,0-4.22,7.73,29.63,29.63,0,0,0-2.23,8.83,3.78,3.78,0,0,1-.2,1.29,2.91,2.91,0,0,1-.7.91l-2.52,2.49"/><path class="cls-2" d="M121.81,248.55a3.72,3.72,0,0,0,0-3,1.54,1.54,0,0,0-2.25-.45,5.15,5.15,0,0,0-1.87,2.56,5.8,5.8,0,0,0-.45,2.44,2.18,2.18,0,0,0,.91,1.82c1.31.69,3-1.91,3.62-3.41"/><path class="cls-2" d="M122.4,240.94a1.13,1.13,0,0,1-1.58-1,2.41,2.41,0,0,1,1-2.33,1.11,1.11,0,0,1,1.6.94,2.41,2.41,0,0,1-1,2.34"/><g class="cls-9"><g class="cls-10"><path class="cls-6" d="M295.9,511.61a51.84,51.84,0,0,0,46.89,11.77c-4.62-8.69-.38-19.61,5.95-27.16s14.65-13.39,20.06-21.62a39.12,39.12,0,0,0,4.09-34.13c.74,2.08-24,13.19-26.43,14.21a153.88,153.88,0,0,1-29.62,8.93c-10.18,2-20.17,1.86-30.4,2.82-9.69.91-7.51,10.58-5.87,18.14a51.6,51.6,0,0,0,15.33,27"/></g></g><g class="cls-9"><g class="cls-11"><path class="cls-6" d="M495.32,377.7c.32-8.15,8.41-13.4,13.15-20a27.28,27.28,0,0,0,1.39-28.83c-3-5.17-7.73-9.39-9.54-15.08-2.11-6.66.28-14,3.91-19.94s8.47-11.15,12-17.2a46.41,46.41,0,0,0-2.28-48.8c-3.9-5.52-9.36-11.12-8.5-17.83.77-6,6.37-10.09,9.83-15.1a23.9,23.9,0,0,0,.94-25.12c-18.26,11.6-28.81,32.91-31.32,54.39-2.65,22.68,2.51,46.7-6.15,67.82-2.36,5.75-5.68,11.08-7.7,16.95s-2.57,12.67.53,18c.95,1.65,2.27,3.26,2.28,5.16,0,2.67-2.61,4.68-5.22,5.26-3.67.82-17.25-.65-14.1,6.54,1.93,4.4,12.54,4.84,16.57,6.67,11.35,5.15,20.69,15.06,24.25,27.11"/></g></g><path class="cls-3" d="M395.45,250.1c1.61-3.28,1.91-7,3.05-10.52,3.25-9.89,12.85-16.23,22.37-20.44s21.9-7.24,29.86-13.94c12.25-10.3,15.4-28.1,29.55-35.58C485,167.1,490.4,166,495.38,164s9.86-5.46,11.5-10.58a42.55,42.55,0,0,1,2.34,42.72c-3.37,6.4-8.47,12.09-10,19.17-3.05,14.48,10,28.51,7.77,43.14-1.36,9.11-8.27,16.2-14.29,23.16s-11.79,15.61-10.16,24.67c1.37,7.61,7.56,13.25,13,18.75s8.91,12,7.84,19.66a33.47,33.47,0,0,1-5.81,14.76c-3.13,4.47-5.79,10.1-3.95,15.24a53.62,53.62,0,0,0-39-25.76c-5.47-.76-11.27.85-16.69-.16s-10.84-5.35-14.07-9.83c-5.5-7.6-2.76-18.18-4.58-27.38a28,28,0,0,0-24.89-21.84c-2.59-.17-5.47-.07-7.39-1.81s-2.11-5-2-7.74c.17-5.55-1.71-16.93.71-21.84,2-4,7.4-3.51,9.71-8.2"/><path class="cls-3" d="M192,155.69c19.37-7.19,43.38-.15,60-12.47,10-7.41,14.84-20.4,25.34-27,6.1-3.83,13.43-5,20.55-6.18s14.45-2.31,20.59-6.08S329.3,93.15,328.1,86a25.1,25.1,0,0,1,10.54,18.84c.71,12.21-4.6,18.18-13.72,24.23-9.48,6.29-26.68,7.68-29.6,17.46,5.56-1.76,11.57-1.22,17.36-.53s11.72,1.49,17.41.24,11.25-5.05,12.77-10.68c3.51,12.15-3.22,26.4-14.83,31.4-5.38,2.31-11.34,2.77-17,4.2-5.27,1.33-13.32,4.56-14.26,10.71,3.08-2.28,10-2.35,13.05,0s3.31,7.36,1.79,10.91c5.83-2.47,11.59-1.66,16.21,2.68a16.86,16.86,0,0,1,4.27,17.43c8.17,1.2,13.14,12,8.73,19,4.89-2.62,11.66,3.11,9.88,8.36-1.21,3.57-5.21,5.59-9,5.68s-7.4-1.35-10.9-2.77c-18.43-7.45-37.05-15-53.26-26.5-11.39-8.06-22-18.25-35.59-21.39-11.37-2.63-23.3.11-34.31,4-7.65,2.68-15.37,5.94-23.47,5.7-35.56-1-11.34-42.15,7.82-49.26"/><path class="cls-3" d="M137.79,220.75a149.88,149.88,0,0,0-15.59,27.34c-2.18,4.87-4.18,9.81-6,14.81a76.13,76.13,0,0,0-2.73,7.53c-.59,2.28-.46,4.82-.85,7.17a50.67,50.67,0,0,1-5.34,15.73c-1.3,2.41-2.68,4.22-3.22,6.91a35.62,35.62,0,0,0-.76,9.66c.51,7.1,3.74,13.73,7.44,19.82a126.75,126.75,0,0,0,79.21,57.06c28.11,6.39,57.7,2.67,84.57-7.16,25.91-9.47,49.61-19.9,69.08-40,13.11-13.56,25.29-30.18,40.94-40.71,7.17-4.82,15.21-7.45,19.13-15.15,4.41-8.68,1.47-20.19-6.12-26.3-9.07-7.29-17.49-.09-32.47-6.23-31.41-12.88-54.31-39.9-79.88-59.44C273,182.44,258,174,242.47,172.89a121,121,0,0,0-54.88,9.25,118.38,118.38,0,0,0-49.8,38.61"/><path class="cls-4" d="M114.23,269.44c-2.47,8.55-4.15,17.54-7.9,24.34-2,3.71-1.59,8.35-1.66,12.59-.21,11.76,5.16,23,12.34,32.34s16,18.55,25.41,25.25,17.67,12.55,30,10.25a31.36,31.36,0,0,0,16.87-52.54c-1.52-1.59-3.29-3.15-3.76-5.3-.53-2.43.76-4.84,2-7,6.22-11.46,9.44-23.75,13.93-35.8,4.68-12.56,7.15-26.69,7.88-40,.45-8.12-2.26-15.77-6.94-22.43-5-7-11.7-11.35-20.29-10.8s-15.7,5.52-22.87,10.28c2.11-1.4.9-11-1.4-11.43S149.5,205.5,148,207a142.63,142.63,0,0,0-15.3,18.16c-9.17,12.93-14.1,29.1-18.51,44.32"/><path class="cls-3" d="M299,388.66a28.23,28.23,0,0,1,1.17,8c0,6.49-2.43,12.75-5.42,18.51s-6.61,11.19-9.34,17.09c-8.69,18.76-7.8,41,3.33,58.54a63.61,63.61,0,0,0,46.16,28.72c-2.15-8.24,1.5-17,6.6-23.79s11.67-12.46,16.7-19.33a55.86,55.86,0,0,0,8.68-46.9c-.73-2.69-1.84-5.55-4.24-7-2.84-1.68-6.41-.81-9.66-.24-9.8,1.72-20.45-2.77-24.43-11.89C326.08,404.77,326,400,326,393.83c-.24-20.62-17.81-39.6-38.35-41.43-2-.18-4.13-.16-5.67,1.08s-1.78,4.1,0,5c-1.22-2.1-6.27-4-7.72-1a3.71,3.71,0,0,0,.62,3.81,11.69,11.69,0,0,0,3.15,2.55,58.26,58.26,0,0,1,15.36,13.73A35.56,35.56,0,0,1,299,388.66"/><path class="cls-12" d="M110.73,298.27a17.72,17.72,0,0,1,3.33,2.22c4,3.14,8,6.54,13,7.63a22.38,22.38,0,0,1,3.53.84,3.88,3.88,0,0,1,2.45,2.48c.79,3.32-3.77,6.73-6,8.41-3.42,2.61-6.5,4-10.91,3.65-3-.25-6-.84-8.85,0-2.23.64-4.45,2.13-6.68,1.5a4.92,4.92,0,0,1-3-2.76,12.21,12.21,0,0,1-.94-4.06,51.6,51.6,0,0,1,0-10.47c.27-2.63.8-5.39,2.54-7.38,2.76-3.16,7.86-3.73,11.52-2"/><path class="cls-4" d="M444.64,248.48A39.18,39.18,0,0,1,430,282.23c-3.52,2.75-7.6,4.95-10.26,8.53-4.41,5.93-3.91,14.18-1.88,21.28s5.37,13.9,6.09,21.25c4-16.21,14.24-30,22.39-44.59S460.77,257,456.05,241c-3.24-11-11.26-19.9-19-28.35-12.9,4.09-8.61,6.05-1.7,14.1a38.92,38.92,0,0,1,9.32,21.78"/><path class="cls-4" d="M462.65,195.54c.25,13.6,13.6,24.54,13.11,38.13-.27,7.59-4.9,14.43-5.61,22-1,11,6.35,21.88,3.81,32.63-2.85,12-16.65,18.32-21.42,29.7-4.59,10.95.45,22.06,6.37,32.35a43.38,43.38,0,0,1,25.95,13.08c5.36-8,5.91-17.48,2.56-26.5-4-10.76-14-19.22-15-30.64C471,291,486,278.9,488.67,263.74c2.88-16.63-9.73-32.53-8.88-49.39.4-8,3.83-15.54,5.63-23.36,1.55-6.74,2.6-24.69-8.35-19.27-8,4-14.59,15-14.42,23.82"/><path class="cls-4" d="M211.87,160.67c9.62,4,20.55,1.59,31,1.6,27.06,0,53,19,61.31,44.77-13.68-13.31-28.05-27-46.23-32.87-14.22-4.56-29.52-3.86-44.44-3.11-7.11.36-30.72,6.4-29.62-5.58,1.46-15.85,19.93-8.2,28-4.81"/><path class="cls-4" d="M282.75,146.85c2,4.7,2.4,10.13,5.25,14.39,4.35,6.53,13,8.3,20.75,9.53,5.43-.11,11-.25,16.11-2s9.93-5.4,11.66-10.55c-11.72,9.08-30.07,6.34-40.42-4.28S283,126.74,287,112.44c.21-.77-15.62,5-17.2,6.22-4.13,3.2-10.52,9.93-9.72,15.4,9.38-.09,18.73,3.63,22.72,12.79"/><path class="cls-4" d="M317.83,514.2c-5.44-10.18-2.61-23,3.27-32.93s14.45-17.94,21.47-27.09,12.67-20.38,11.12-31.81c-10.79,4.34-24.6-4-25.82-15.54.95,15.88.91,32.59-6.53,46.65s-24.57,24.21-39.5,18.72c1.92.71,3.55,12,4.64,14.31a26.92,26.92,0,0,0,5.54,7.56,111.22,111.22,0,0,0,25.81,20.13"/><path class="cls-4" d="M296,416.41c5.24-3.5,8.64-9.08,12.79-13.82s10-9,16.22-8.13c-.24-5.33-.79-10.72-2.61-15.73s-5-9.69-9.62-12.4c-10.49-6.2-25.36,2.22-18,13.82,7.2,11.33,8.36,24.08,1.21,36.26"/><path d="M107.42,297.33c4.1-5.18,4.84-11.42,6-17.7a149.78,149.78,0,0,1,5.38-20.43,145.6,145.6,0,0,1,17.92-35.87c14.1-20.37,34.09-36.14,57.63-44.11,22.71-7.69,47.72-7.75,69.77,2.14,22.47,10.08,40.17,27.82,58.45,43.82,17.52,15.32,39.2,33.4,64.2,30.45a38.76,38.76,0,0,0,8.56-2c1.56-.55.89-3.05-.68-2.49-12.33,4.41-25.69,1.51-37.19-4s-21.23-13.58-30.73-21.78c-18.32-15.84-35.72-33.65-57.67-44.53-21.34-10.59-45.53-12.35-68.46-6.22a116.15,116.15,0,0,0-59.36,38.47,140.19,140.19,0,0,0-20.1,33,155.21,155.21,0,0,0-7,19.29c-2,6.83-3,13.78-4.52,20.71a22.7,22.7,0,0,1-4.07,9.42c-1,1.29.8,3.13,1.83,1.83"/><path d="M286.47,371.9C262.63,386,234.41,391.74,206.91,389c-25.58-2.52-49.22-13.26-68.58-30.07a130.54,130.54,0,0,1-29.13-35.67c-.8-1.46-3-.16-2.23,1.3a134.67,134.67,0,0,0,57.59,55.07c24.25,12,52.2,15.16,78.76,10.66a130,130,0,0,0,44.46-16.19,1.29,1.29,0,0,0-1.31-2.23"/><path d="M273.72,362.86c9.67,6.72,20.78,14.61,24.23,26.51,4.26,14.7-5.49,28.35-11.65,40.88a63.77,63.77,0,0,0-6.19,38,60.16,60.16,0,0,0,16.32,32.89,62.17,62.17,0,0,0,35.19,18.07c1.63.24,2.33-2.25.68-2.49-25.43-3.75-46.08-24-49.74-49.5a59.41,59.41,0,0,1,.5-20c1.37-6.94,4.18-13.3,7.45-19.53,6.15-11.7,13.74-24.67,10.1-38.4-3.42-12.92-15.17-21.43-25.58-28.66-1.37-1-2.66,1.28-1.31,2.23"/><path d="M335.47,517.05c-4.07-15.44,11-26.7,19.69-37a61.36,61.36,0,0,0,14.24-34.87,60.13,60.13,0,0,0-2.24-21.51,1.29,1.29,0,0,0-2.49.69,58.3,58.3,0,0,1-13.37,56.16c-4.75,5.23-10.06,10.08-13.9,16.06-4,6.24-6.36,13.77-4.42,21.13a1.29,1.29,0,0,0,2.49-.69"/><path d="M290.23,355.46a39,39,0,0,1,32.06,26.87c2.57,8.49,1.46,17.63,4.15,26.08,2,6.41,6.23,12.4,13,14.29,8.59,2.38,18.05-2.25,26.3,1.68,1.49.71,2.81-1.52,1.3-2.24-7.38-3.51-15.29-.86-23.06-1.32-8.69-.52-13.67-7.26-15.63-15.2-2.13-8.67-1.16-17.82-4.34-26.29a41.59,41.59,0,0,0-12.14-17,41.12,41.12,0,0,0-21.63-9.42c-1.65-.19-1.63,2.4,0,2.59"/><path d="M307.41,393.82c10.53,17.16.35,37.16-4.8,54.24-2.55,8.47-4.2,17.56-2.43,26.36a33,33,0,0,0,11.73,18.9,54.35,54.35,0,0,0,22.55,10.44c.81.18,1.16-1.07.35-1.25-15.18-3.42-30.58-12.73-33.52-29.17-3.4-19,8.54-36.19,11.31-54.44,1.32-8.78.66-18-4.08-25.73-.43-.71-1.55-.06-1.11.65"/><path d="M320.34,434c1.46,11.38-5.74,22.51-2.4,33.8s14.52,16.93,24.28,21.63c.74.35,1.4-.76.65-1.12-9.78-4.7-21.46-10.55-24-22.19-2.38-10.78,4.18-21.27,2.79-32.12-.1-.81-1.39-.82-1.29,0"/><path d="M335.69,430.35a26.72,26.72,0,0,0,25.58,34.42.65.65,0,0,0,0-1.29,25.42,25.42,0,0,1-24.34-32.79.64.64,0,0,0-1.24-.34"/><path d="M346.6,436.5c5.72,6,14.53,5.19,22,4.19.81-.11.82-1.4,0-1.29-7.1,1-15.63,1.91-21.08-3.81-.58-.61-1.49.31-.92.91"/><path d="M312,363.51c28.48-10.4,44.06-38,66.26-56.8a97.85,97.85,0,0,1,21.34-13.93c1.5-.71.2-2.94-1.3-2.23-13.21,6.23-24.36,15.77-34.42,26.23s-19.31,22.06-30.7,31.38A75.91,75.91,0,0,1,311.26,361c-1.55.57-.88,3.07.69,2.5"/><path d="M397.37,251.2c-.33-10.68,6.87-19.74,15.36-25.43,9.1-6.11,19.69-9.33,29.46-14.14,8.79-4.33,16.94-10.09,21.87-18.76,2.39-4.21,4.16-8.75,6.76-12.84a23.29,23.29,0,0,1,11.87-9.47c9-3.43,21.39-5.39,24.38-16.25a1.3,1.3,0,0,0-2.5-.69c-2.85,10.39-16,11.6-24.35,15.17a24.77,24.77,0,0,0-10.92,8.85c-2.75,4-4.55,8.52-6.83,12.76-10.78,20-35.24,21.84-52.28,34-8.67,6.17-15.75,15.75-15.4,26.81,0,1.66,2.63,1.66,2.58,0"/><path d="M399.24,292.91c4.52-1.27,9,.53,12.31,3.63,3.67,3.4,5.55,7.91,6.56,12.73,1.93,9.23.92,18.92,4.58,27.79a21.91,21.91,0,0,0,7,9.46c3.62,2.69,8,3.73,12.45,4.1,4.74.39,9.5,0,14.23.32a41.24,41.24,0,0,1,12.71,2.91,42.72,42.72,0,0,1,21.88,19.9c.77,1.47,3,.17,2.24-1.31a45,45,0,0,0-18.52-18.79,44.44,44.44,0,0,0-12.22-4.49,69.06,69.06,0,0,0-13.93-.94c-5,0-10.38,0-15-2.34s-7.41-6.59-9-11.29c-3.31-9.57-1.77-20-4.83-29.63-2.78-8.7-11.24-17.31-21.11-14.54a1.29,1.29,0,0,0,.68,2.49"/><path d="M506.93,153.74a40.26,40.26,0,0,1,6.18,25.09,39,39,0,0,1-3.37,13c-1.87,4.07-4.57,7.65-7,11.39a31.86,31.86,0,0,0-5,11.36,27.85,27.85,0,0,0,.44,11.17c1.78,7.91,5.81,15.12,7.59,23a24.83,24.83,0,0,1-.13,12.58A35.8,35.8,0,0,1,499.06,273c-5.41,6.85-12,12.85-15.59,21a22.23,22.23,0,0,0,1.09,20.92c3.48,5.92,8.66,10.56,12.63,16.13,2.09,2.93,3.91,6.22,4.33,9.85.48,4.15-1,8.09-2.83,11.73-3.34,6.69-8.74,14-5.91,21.82.56,1.56,3.06.89,2.49-.69-2.62-7.24,2.9-14.16,5.91-20.36s4.08-12.43,1.11-18.84c-5.88-12.69-22.75-21.14-17.35-37.27,5.47-16.37,25.79-25.36,24.07-44.52-.73-8.13-4.57-15.47-7.07-23.13a34,34,0,0,1-2-11.64c.17-4.62,2.08-8.73,4.49-12.59,2.67-4.28,5.78-8.27,7.83-12.91a42.08,42.08,0,0,0,3.38-13,42.62,42.62,0,0,0-6.46-27.06c-.9-1.4-3.14-.1-2.24,1.3"/><path d="M419,285.82a27.24,27.24,0,0,1,20.44,26c.13,3.88-.14,7.82.63,11.65,1.41,6.94,6.77,10.63,13.43,11.85,7.24,1.32,14.6.77,21.65,3.23a39.91,39.91,0,0,1,20.95,17.06c.43.71,1.55.06,1.12-.65a41.17,41.17,0,0,0-16.53-15.44c-6.91-3.53-14-4.18-21.64-4.81-3.71-.31-7.63-.74-11-2.45a12.88,12.88,0,0,1-6.85-9.78c-.72-4.3-.21-8.7-.6-13a27.43,27.43,0,0,0-2.77-9.83,29,29,0,0,0-18.48-15.09.65.65,0,0,0-.35,1.25"/><path d="M416.34,253.07c.11-8.93,6-16.15,13-21.19s15.35-8,23.22-11.56,15.05-8,20.43-15,9-15.19,14.7-21.92c6.08-7.18,16.45-13.52,26-9.28.75.34,1.41-.78.65-1.11-7.66-3.43-15.92-.53-22.22,4.39-7.27,5.67-11.39,14-16.27,21.65a51.53,51.53,0,0,1-9.47,11.49,55.08,55.08,0,0,1-12.51,7.74c-8.44,4-17.5,6.9-25.13,12.44-7.31,5.32-13.48,12.89-13.59,22.31a.65.65,0,0,0,1.29,0"/><path d="M431.38,259.94c.84-7.81,7.64-13.11,14.55-15.67,7.42-2.76,15.45-3.26,22.91-5.87,6.42-2.24,11.59-5.93,15.07-11.84,3.65-6.19,6.62-14.76,14.74-16,.82-.13.47-1.38-.35-1.25-5.41.85-9.14,5.21-11.74,9.73-3.26,5.67-5.7,11.45-11.48,15.06-10.93,6.83-25.1,4.94-35.86,12.1-4.8,3.2-8.5,7.93-9.14,13.77-.08.83,1.21.82,1.3,0"/><path d="M435.25,274.15a19.19,19.19,0,0,1,15.36,5.94c4.4,4.67,5,11,6.71,16.9,1.27,4.38,3.59,9,7.81,11.2,5.06,2.61,11.14-1,15.93,2,.71.45,1.35-.67.65-1.11-5.08-3.18-11.33.78-16.45-2.28-5.51-3.29-6.74-10.21-8.14-15.92-1.33-5.4-3.41-10.29-7.92-13.78a20.33,20.33,0,0,0-13.95-4.22c-.82.06-.83,1.35,0,1.29"/><path d="M440.27,264.87a20.24,20.24,0,0,1,16.55-4.68c5.8,1,10.39,5,15.94,6.73a14.29,14.29,0,0,0,7.36.48c2.5-.58,4.55-2.12,6.65-3.51,5.15-3.41,11.48-3.74,16.29.56.61.55,1.53-.36.91-.91a13.94,13.94,0,0,0-14.24-2.75c-2.55,1-4.6,2.84-7,4.16-3.56,2-7.4,1.64-11.1.22-5.88-2.26-10.74-6.26-17.28-6.53a21.61,21.61,0,0,0-15,5.32c-.63.54.29,1.45.92.91"/><path d="M166.54,191.49a43.25,43.25,0,0,1,20.82-31.3c13.61-8.05,29.49-5.4,44.49-7.35,6.28-.82,12.6-2.43,18.08-5.71,5.91-3.54,9.46-8.8,12.64-14.77a42.32,42.32,0,0,1,5.91-9.18,27.15,27.15,0,0,1,8.31-5.91c6.64-3.17,14.06-4.17,21.25-5.4,8-1.37,16.21-3.13,22.77-8.13,5.48-4.18,9.52-10.2,9.63-17.24l-2.63,1.09a25,25,0,0,1,.35,37.3c-10.2,9.2-28.26,7.31-34.81,21.1-.84,1.78,1.81,3.34,2.66,1.55,5.52-11.61,20.87-11.48,30.58-17.63A27.82,27.82,0,0,0,330,85.41a1.56,1.56,0,0,0-2.62,1.09c-.1,6.81-4.63,12.49-10.18,16-6.51,4.17-14.39,5.42-21.88,6.68-7,1.18-14,2.42-20.37,5.54s-10.55,7.86-13.87,13.92-6.43,12-12.68,15.8c-5.85,3.5-12.75,5-19.47,5.61-14.79,1.37-30.08-.39-43.37,7.6a46.54,46.54,0,0,0-22.08,33.8c-.25,2,2.83,1.95,3.08,0"/><path d="M296.49,147.44c4.3-3.14,9.58-1.81,14.34-.61,4.51,1.13,8.92,2.19,13.6,1.71a29.16,29.16,0,0,0,21.42-13.06l-2.37-.3c2.23,11.55-3.53,24-13.46,30.17C319.51,171.9,303,168,295.91,180a1.3,1.3,0,0,0,1.77,1.77A9,9,0,0,1,310.35,194a1.3,1.3,0,0,0,1.77,1.77,13.94,13.94,0,0,1,16.38,1.44,14.1,14.1,0,0,1,3.27,15.42,1.3,1.3,0,0,0,.9,1.59c7.6,2,11.3,11.9,7,18.45-.83,1.26,1,2.54,2,1.56a4.74,4.74,0,1,1,6.5,6.89c-1.19,1.17.64,3,1.83,1.83,2.81-2.75,3.23-7.62.39-10.54a7.64,7.64,0,0,0-10.55,0l2,1.57c5.22-7.94.6-19.81-8.54-22.25l.9,1.59a16.1,16.1,0,0,0-23.45-19.77l1.77,1.77a11.6,11.6,0,0,0-16.21-15.73l1.77,1.77c3.84-6.54,11.85-7.83,18.69-9,6.5-1.12,12.44-2.81,17.64-7A32.44,32.44,0,0,0,346,134.49a1.31,1.31,0,0,0-2.37-.31,26.41,26.41,0,0,1-22.95,11.89c-8.26-.32-17.8-6.47-25.47-.87-1.33,1,0,3.22,1.3,2.24"/><path class="cls-4" d="M272,210.5a13.4,13.4,0,0,1,6.39,3.78,18,18,0,0,1,5,13.95,13.3,13.3,0,0,1-2.53,7,37,37,0,0,0-.16-6.95,31.23,31.23,0,0,0-1.56-6.39,30.48,30.48,0,0,0-2.87-5.92A35.87,35.87,0,0,0,272,210.5"/><path class="cls-4" d="M240.34,222.86a13.4,13.4,0,0,1,6.39,3.78,18,18,0,0,1,5,14,13.33,13.33,0,0,1-2.53,7,36.21,36.21,0,0,0-.16-7,31.28,31.28,0,0,0-4.42-12.31,36.6,36.6,0,0,0-4.3-5.46"/><path class="cls-4" d="M250.35,258.67a13.29,13.29,0,0,1,6,4.33,17.88,17.88,0,0,1,3.77,14.33,13.27,13.27,0,0,1-3.13,6.74,37,37,0,0,0,.45-6.93,31.21,31.21,0,0,0-3.32-12.66,36.54,36.54,0,0,0-3.8-5.81"/><path class="cls-4" d="M258.22,297.31a13.39,13.39,0,0,1,4.09,6.19,17.81,17.81,0,0,1,.8,7.54,17.59,17.59,0,0,1-2.39,7.2,13.25,13.25,0,0,1-5.32,5.18,36.39,36.39,0,0,0,2.88-6.32,31,31,0,0,0,1.41-13,35.61,35.61,0,0,0-1.47-6.78"/><path class="cls-4" d="M284.17,248.31a7.58,7.58,0,0,1,3.74,2.94,10.58,10.58,0,0,1,1.29,9.33,7.61,7.61,0,0,1-2.82,3.84c.1-1.62.18-3,.15-4.32a31.65,31.65,0,0,0-1-7.67c-.33-1.3-.78-2.59-1.31-4.12"/><path class="cls-4" d="M290.06,285.57a6.79,6.79,0,0,1,3,3.28,9.56,9.56,0,0,1-.49,8.8,6.77,6.77,0,0,1-3.37,2.92c.36-1.48.66-2.7.85-3.92a31.27,31.27,0,0,0,.4-3.53,30.2,30.2,0,0,0,0-3.56c-.05-1.23-.21-2.48-.41-4"/><path class="cls-4" d="M295.1,315a7.29,7.29,0,0,1,2.42,3.67,10.06,10.06,0,0,1-1.37,8.54,7.17,7.17,0,0,1-3.44,2.72c.37-1.46.72-2.67,1-3.88s.51-2.34.7-3.5.33-2.33.44-3.55.16-2.49.26-4"/><path class="cls-4" d="M254.3,335a7.28,7.28,0,0,1,.87,4.31,10.06,10.06,0,0,1-4.45,7.41A7.27,7.27,0,0,1,246.5,348c.89-1.22,1.67-2.21,2.37-3.23s1.35-2,2-3,1.17-2,1.73-3.13,1.08-2.25,1.74-3.61"/><path class="cls-4" d="M228.65,194.66a7.28,7.28,0,0,1,4.29,1,10,10,0,0,1,5,7.07,7.2,7.2,0,0,1-.57,4.36c-.76-1.31-1.35-2.43-2-3.48s-1.27-2-1.95-3-1.37-1.89-2.15-2.84-1.62-1.91-2.6-3.06"/><path class="cls-4" d="M251.52,191.49a7.25,7.25,0,0,1,4.28.95,10,10,0,0,1,5,7.08,7.17,7.17,0,0,1-.57,4.35c-.75-1.3-1.35-2.42-2-3.47s-1.27-2-1.94-3-1.38-1.9-2.16-2.85-1.62-1.9-2.59-3.06"/><path class="cls-4" d="M303,260.55a7.49,7.49,0,0,1,4.2,3.11A10.63,10.63,0,0,1,308,274a7.41,7.41,0,0,1-3.67,3.73,22.11,22.11,0,0,0,1.08-4.54,21.24,21.24,0,0,0,.1-4.21,20.85,20.85,0,0,0-.76-4.15,22.16,22.16,0,0,0-1.78-4.31"/><path class="cls-4" d="M310,295.4a4.79,4.79,0,0,1,3.43,1.91,6.84,6.84,0,0,1,1.47,3.74,6.94,6.94,0,0,1-.81,3.95,4.77,4.77,0,0,1-3.07,2.45,16.9,16.9,0,0,0,.49-3.3,20,20,0,0,0,0-2.8,21.52,21.52,0,0,0-.42-2.78A17.15,17.15,0,0,0,310,295.4"/><path class="cls-4" d="M306.75,335.45a4.79,4.79,0,0,1,3,2.51,7.05,7.05,0,0,1,.75,3.91,6.94,6.94,0,0,1-1.46,3.7,4.79,4.79,0,0,1-3.39,1.92,18.07,18.07,0,0,0,1-3.16,21.36,21.36,0,0,0,.44-2.78,20,20,0,0,0,.09-2.81,17.71,17.71,0,0,0-.43-3.29"/><path class="cls-4" d="M312.81,237.49a6.84,6.84,0,0,1,3.63,2.6,9.65,9.65,0,0,1,1.38,8.7,6.89,6.89,0,0,1-2.66,3.59c0-1.53,0-2.79,0-4s-.19-2.38-.36-3.54a32,32,0,0,0-.75-3.49c-.31-1.2-.72-2.39-1.22-3.83"/><path class="cls-4" d="M327.12,260a5.52,5.52,0,0,1,3.45,2.65,8,8,0,0,1,1.1,4.35,7.88,7.88,0,0,1-1.38,4.27,5.49,5.49,0,0,1-3.62,2.42,17.57,17.57,0,0,0,1.17-3.57,19.1,19.1,0,0,0,.39-3.23,18.85,18.85,0,0,0-.17-3.25,18,18,0,0,0-.94-3.64"/><path class="cls-4" d="M329.4,284.14a4.49,4.49,0,0,1,3.09,1.67,6.43,6.43,0,0,1,1.41,3.26,6.27,6.27,0,0,1-.53,3.52,4.47,4.47,0,0,1-2.56,2.41c0-1.23,0-2.15-.08-3s-.15-1.67-.25-2.46-.22-1.59-.38-2.44-.38-1.76-.7-2.94"/><path class="cls-4" d="M322.73,316a6.42,6.42,0,0,1,3.71,3.13,8.21,8.21,0,0,1,1,5,8.32,8.32,0,0,1-2.21,4.62,6.47,6.47,0,0,1-4.4,2.07,18,18,0,0,0,2.18-3.64,13.09,13.09,0,0,0,1-3.49,12.76,12.76,0,0,0-.07-3.64,18.29,18.29,0,0,0-1.19-4.08"/><path class="cls-4" d="M344.52,296a6.21,6.21,0,0,1,3.64,3,7.9,7.9,0,0,1-1.17,9.37,6.14,6.14,0,0,1-4.28,2,18.14,18.14,0,0,0,2.06-3.56,12.76,12.76,0,0,0,.94-3.36,12.51,12.51,0,0,0-.07-3.5,18.36,18.36,0,0,0-1.12-4"/><path class="cls-4" d="M344.92,269.16a6.56,6.56,0,0,1,3.58,3,9.17,9.17,0,0,1,1.26,4.63,9.32,9.32,0,0,1-1.2,4.65,6.59,6.59,0,0,1-3.56,3.06,24,24,0,0,0,1-4,22.11,22.11,0,0,0,0-7.32,23.88,23.88,0,0,0-1.07-4"/><path class="cls-4" d="M360.41,273.9a6.79,6.79,0,0,1,4.66,2.83,8.39,8.39,0,0,1-.66,10.86,6.74,6.74,0,0,1-5,2.24,14,14,0,0,0,2.78-3.83,10.72,10.72,0,0,0,1.08-3.93,10.42,10.42,0,0,0-.59-4,13.9,13.9,0,0,0-2.3-4.14"/><path class="cls-4" d="M377.84,271.25a4.54,4.54,0,0,1,3.44,1.6,6.69,6.69,0,0,1,1.61,3.54,6.62,6.62,0,0,1-.64,3.84,4.45,4.45,0,0,1-2.9,2.43,16.35,16.35,0,0,0,.3-3.18,20.52,20.52,0,0,0-.18-2.64,19.23,19.23,0,0,0-.51-2.6,15.78,15.78,0,0,0-1.12-3"/><path class="cls-4" d="M396.79,266.07a6,6,0,0,1,4.48,1.29,7.76,7.76,0,0,1,2.5,9,6.07,6.07,0,0,1-3.2,3.41,17.28,17.28,0,0,0,.55-4,11.54,11.54,0,0,0-1.8-6.53,17,17,0,0,0-2.53-3.16"/><path class="cls-13" d="M190.14,228.77C187,219.83,175.65,208.7,165.53,215c-1.09.69-2.18,1.8-2,3.08.3,1.92,2.87,2.24,4.81,2.32a23.79,23.79,0,0,1,16.8,8.06c4.2,4.81,6,12.44,7.52,18.48-.18-6.13-.52-12.36-2.54-18.16"/><path class="cls-2" d="M146.16,265.59h0c.05,5.42,1.51,11.38,6,14.41,3.49,2.35,8.22,2.37,12.11.76a23.59,23.59,0,0,0,9.54-8.05,40.14,40.14,0,0,0,7.06-31.06c-.78-4-2.36-8.2-5.67-10.64-7.36-5.41-15.67,2.64-19.92,8.07a43,43,0,0,0-9.13,26.51"/><path class="cls-6" d="M144.87,265.59c0,4.34.9,9,3.53,12.54a12.89,12.89,0,0,0,12,4.94c10.09-1.14,16.89-11.36,20-20.14a41.49,41.49,0,0,0,2.41-15.05c-.13-4.81-.92-10.08-3.52-14.22-2.32-3.68-6.25-6.2-10.7-5.63-4.17.53-7.8,3.27-10.71,6.14a44.51,44.51,0,0,0-13,31.42,1.3,1.3,0,0,0,2.59,0A41.88,41.88,0,0,1,156.25,240c4-5.18,12.12-13.23,18.8-7.42,3.32,2.89,4.46,7.67,5,11.86a38.61,38.61,0,0,1-.63,12.82c-1.78,8.15-6.36,17.26-13.88,21.5-4.28,2.41-10.09,2.78-13.86-.79-3.27-3.1-4.16-8-4.19-12.34a1.3,1.3,0,0,0-2.59,0"/><path d="M98,312c2.23-3.91,7.42-2.53,10.74-1.14,4.22,1.75,8.19,3.38,12.86,3.26s8.68-1.72,12.85-3.45a61.8,61.8,0,0,0,11.92-6.18c1.62-1.13.08-3.8-1.55-2.66a64.93,64.93,0,0,1-13,6.61c-4.95,2-10,3.36-15.33,2.09-4.3-1-8.07-3.84-12.55-4.16-3.4-.24-6.89,1-8.63,4.08A1.54,1.54,0,0,0,98,312"/><path d="M143.33,301.31l4.71,4.87a1.54,1.54,0,0,0,2.17,0,1.56,1.56,0,0,0,0-2.17l-4.71-4.88a1.54,1.54,0,0,0-2.17,2.18"/><path class="cls-7" d="M164.51,239.63c2.27-2.92,5.94-5.65,9.38-4.3,2.77,1.1,4,4.34,4.49,7.28a40.49,40.49,0,0,1-7.2,30.69c-1.67,2.23-3.71,4.36-6.35,5.24-7.92,2.67-9.9-7.06-9.55-12.72A49,49,0,0,1,158.13,252a46,46,0,0,1,6.38-12.33"/><path class="cls-8" d="M160,274.29l-1,1.27c-1.73-2-2.34-4.78-2.59-7.43a29.42,29.42,0,0,1,1.15-12.35,56.61,56.61,0,0,1,5.15-10.94c.51-.83,1-1.64,1.58-2.44,1.25,1.56,2.57,3.35,2.37,5.35a9.31,9.31,0,0,1-1.41,3.37,24.2,24.2,0,0,0-2.75,8.61c-.38,3-.6,6.18.35,9.1a2.91,2.91,0,0,1,.22,1.29,2.46,2.46,0,0,1-.6,1.08L160,274.29"/><path d="M176.51,250h0c.18-1.74.22-3.67-.84-5.07a4.84,4.84,0,0,0-5-1.49,9.28,9.28,0,0,0-4.51,3.08c-3.26,3.75-4.78,8.72-5.54,13.63a15.31,15.31,0,0,0,0,5.88c1.21,5.12,7,6.34,10.08,2.28,3.65-4.81,5.26-12.45,5.87-18.31"/><path class="cls-2" d="M167.64,268.9a3,3,0,0,0-1.07-2.85,2.81,2.81,0,0,0-3.22.21,4.43,4.43,0,0,0-1.57,3,4.34,4.34,0,0,0,.34,2.47A2.63,2.63,0,0,0,164,273.2c2.05.29,3.38-2.69,3.6-4.3"/><path class="cls-2" d="M165.53,261.44a2,2,0,1,1,.05,0"/><path d="M98.18,309.53c-.55-4.59,1.88-9.51,6.73-10.43s8.16,2.61,11.47,5.53c6.2,5.48,15.24,7.85,22.94,4.15,1.78-.86.23-3.51-1.55-2.65-4.57,2.19-10.05,1.64-14.53-.52s-7.39-6.75-12-8.72c-8.55-3.62-17.19,3.64-16.09,12.64.23,1.94,3.31,2,3.07,0"/><path d="M94.71,309.83c-.82,4.85-.48,11.58,3.28,15.26,1.87,1.84,4.29,1.8,6.63,1A18.56,18.56,0,0,1,113,325c5.18.46,10.51,1.27,14.63-2.68,3.84-3.68,5-10,10.13-12.26,1.82-.78.25-3.44-1.55-2.66-4,1.74-6,5.71-8.12,9.26-1.26,2.06-2.75,4.17-5.07,5.1-2.15.88-4.59.7-6.85.49a47.69,47.69,0,0,0-6.64-.45c-2.32.09-4.17,1-6.36,1.56-5.79,1.6-6.06-9.18-5.48-12.68.33-1.93-2.63-2.77-3-.82"/><path class="cls-8" d="M184.25,127.92a10.8,10.8,0,1,1-14.75-4,10.79,10.79,0,0,1,14.75,4"/><path class="cls-14" d="M184.25,127.92a10.8,10.8,0,1,1-14.75-4A10.79,10.79,0,0,1,184.25,127.92Z"/><path class="cls-8" d="M249.69,409.18a10.8,10.8,0,1,1-14.75-4,10.8,10.8,0,0,1,14.75,4"/><path class="cls-14" d="M249.69,409.18a10.8,10.8,0,1,1-14.75-4A10.8,10.8,0,0,1,249.69,409.18Z"/><path class="cls-8" d="M260.46,395.93a4.87,4.87,0,1,1-6.65-1.78,4.87,4.87,0,0,1,6.65,1.78"/><path class="cls-14" d="M260.46,395.93a4.87,4.87,0,1,1-6.65-1.78A4.87,4.87,0,0,1,260.46,395.93Z"/><path class="cls-8" d="M95.86,282.66a5,5,0,1,1-5,5,5,5,0,0,1,5-5"/><path class="cls-14" d="M95.86,282.66a5,5,0,1,1-5,5A5,5,0,0,1,95.86,282.66Z"/><path class="cls-8" d="M74,246.27A11.86,11.86,0,1,1,62.1,258.12,11.86,11.86,0,0,1,74,246.27"/><circle class="cls-14" cx="73.95" cy="258.12" r="11.86" transform="translate(-192.68 289.78) rotate(-80.78)"/><path class="cls-8" d="M95.86,264.29a7,7,0,1,1-7,7,7,7,0,0,1,7-7"/><path class="cls-14" d="M95.86,264.29a7,7,0,1,1-7,7A7,7,0,0,1,95.86,264.29Z"/><path class="cls-15" d="M173.84,75.33c.67-.43,1.61-1,2.82-1.61s2.45-1.26,3.71-1.88l3.5-1.68,2.22-1a2.58,2.58,0,0,1,2.87.71A9.29,9.29,0,0,1,191,73a10.87,10.87,0,0,1,.8,3.72c0,1.22-.33,2-1,2.31L166.91,89.83c-.26.12-.62-.14-1.07-.77a15.83,15.83,0,0,1-1.31-2.37c-.42-1-.81-1.91-1.16-2.88a10.28,10.28,0,0,1-.6-2.25,12.93,12.93,0,0,1,.14-2.85c.16-1.35.38-2.89.67-4.63s.62-3.62,1-5.64.81-4,1.2-6,.77-3.88,1.13-5.65.65-3.3.89-4.59L165,53.57c-.85.43-1.71.85-2.59,1.27s-1.79.83-2.74,1.24l-3.15,1.32a1.67,1.67,0,0,1-1.63-.29,5.53,5.53,0,0,1-1.46-1.65,15.59,15.59,0,0,1-1.2-2.42,12.15,12.15,0,0,1-.74-2.63,8.07,8.07,0,0,1-.08-2.21c.08-.63.32-1,.71-1.14s.87-.46,1.76-.86,1.93-.88,3.12-1.45S159.55,43.6,161,43s2.82-1.25,4.21-1.9,2.72-1.27,4-1.85,2.37-1.09,3.26-1.53a2.84,2.84,0,0,1,2.66.16,7,7,0,0,1,2.37,2.23A11.59,11.59,0,0,1,179,43.54a8.6,8.6,0,0,1,.23,3.82c-.14.79-.35,1.92-.61,3.4l-.87,4.92c-.33,1.81-.67,3.7-1.05,5.69S176,65.24,175.62,67s-.71,3.44-1,4.92S174,74.56,173.84,75.33ZM167,39.85c-1.27.58-2.51,1.11-3.71,1.61s-2.44,1-3.7,1.61a19.73,19.73,0,0,1-2.15-1.29c-.69-.48-1.33-.9-1.89-1.26a4.2,4.2,0,0,1-1.81-2.26,2.49,2.49,0,0,1,.18-2.16,2.59,2.59,0,0,1,2.1-1,7.2,7.2,0,0,1,3.92,1.26,3.44,3.44,0,0,1,.39.19,1,1,0,0,0,1.06,0,1,1,0,0,0,.57-.82,12.73,12.73,0,0,1,.46-1.52,4.28,4.28,0,0,1,1.73-2.37,3,3,0,0,1,2.21-.51A2.4,2.4,0,0,1,168,32.67a4.49,4.49,0,0,1,.1,3.2c-.17.54-.34,1.15-.51,1.85S167.18,39.13,167,39.85Z"/><path class="cls-15" d="M199.31,28.79a22.67,22.67,0,0,1,4.81-.8,9.38,9.38,0,0,1,4.42.89,12.76,12.76,0,0,1,4.16,3.33,30.44,30.44,0,0,1,4,6.53,85.93,85.93,0,0,1,4,10.47q2,6.3,4.16,15.24a3.91,3.91,0,0,1-.31,2.53A5.31,5.31,0,0,1,223,68.86,6.55,6.55,0,0,1,220.7,70a7,7,0,0,1-2.55.18,4.89,4.89,0,0,1-2.23-.84,3.79,3.79,0,0,1-1.41-2l-.55-2c-.15-.58-.3-1.12-.44-1.62s-.27-1-.41-1.5-.28-1.05-.45-1.64a22.74,22.74,0,0,1-5.2,2c-1.55.36-3.08.7-4.58,1a29.77,29.77,0,0,0,.5,3.37c.24,1.11.44,2.12.6,3a4.59,4.59,0,0,1-.21,2.63,4.79,4.79,0,0,1-1.38,1.89,5.08,5.08,0,0,1-2.08,1,4.82,4.82,0,0,1-2.3,0,4.88,4.88,0,0,1-2.07-1.24,5.48,5.48,0,0,1-1.42-2.6,158.2,158.2,0,0,1-3.92-17.78,50.88,50.88,0,0,1-.55-12.75,16,16,0,0,1,2.89-8.18A11.61,11.61,0,0,1,199.31,28.79ZM202,56a21.77,21.77,0,0,0,4.07-1,31.58,31.58,0,0,0,4.26-1.74,86.46,86.46,0,0,0-4-12.12q-1.77-3.91-3.87-3.35c-1.48.4-2.29,2.17-2.45,5.3S200.54,50.5,202,56Z"/><path class="cls-15" d="M244.19,44q3.62,3.84,6.75,7.09T257,57.84a1.57,1.57,0,0,1-.26,1.25,10.55,10.55,0,0,1-1.27,1.79,23.2,23.2,0,0,1-1.91,2,17,17,0,0,1-2.09,1.67,6.45,6.45,0,0,1-1.87.9,1,1,0,0,1-1.22-.31q-3-3.78-6-7.32t-5.69-7.17a4.75,4.75,0,0,0,.09,1.39c.11,1,.25,2.27.42,3.79s.3,3.13.41,4.83.14,3.19.12,4.48c0,.33-.18.64-.64,1a6.77,6.77,0,0,1-1.73.75,13.3,13.3,0,0,1-2.29.44,9.43,9.43,0,0,1-2.38,0,5.36,5.36,0,0,1-1.91-.6,1.62,1.62,0,0,1-.89-1.3q-.44-2.83-.9-6.43c-.31-2.4-.61-4.9-.92-7.52s-.61-5.22-.88-7.86-.5-5.13-.7-7.48-.35-4.48-.46-6.41-.14-3.47-.11-4.64a1.65,1.65,0,0,1,.88-1.09,10.26,10.26,0,0,1,2-1,14.87,14.87,0,0,1,2.54-.72,15.63,15.63,0,0,1,2.59-.32,6.36,6.36,0,0,1,2,.21,1.22,1.22,0,0,1,.94.87c.19,2.47.45,5.11.78,7.9s.54,5.4.64,7.8a35.08,35.08,0,0,0,2-3.53c.79-1.54,1.63-3.18,2.52-4.9s1.81-3.43,2.74-5.14a47.43,47.43,0,0,1,2.64-4.32,1.4,1.4,0,0,1,1.88-.52A7.85,7.85,0,0,1,250.5,22a22.11,22.11,0,0,1,4.08,5.88q-1.12,2.25-2.25,4.25T250,36.08c-.81,1.3-1.7,2.59-2.66,3.89S245.33,42.61,244.19,44Z"/><path class="cls-15" d="M283,54.9a1.91,1.91,0,0,1,1.46.88,4.69,4.69,0,0,1,.72,1.92,8.5,8.5,0,0,1,0,2.42,11.46,11.46,0,0,1-.54,2.37,5.38,5.38,0,0,1-1,1.8,1.81,1.81,0,0,1-1.45.7l-22-.68c-.25,0-.42-.64-.5-1.88s-.13-2.88-.13-4.91,0-4.33.12-6.92.19-5.24.32-8,.27-5.4.43-8,.32-5,.47-7.1.29-3.83.41-5.17a21.77,21.77,0,0,1,.26-2.2,4.28,4.28,0,0,1,2.16-.74,21,21,0,0,1,3.21-.15,20.66,20.66,0,0,1,3.09.32,4.5,4.5,0,0,1,1.9.65c0,2.69,0,5.6-.05,8.72s-.19,6.25-.32,9.37-.3,6.12-.47,9-.34,5.41-.49,7.55c.95,0,1.87,0,2.74,0s1.78-.1,2.73-.14,2,0,3.08,0S281.57,54.77,283,54.9Z"/><path class="cls-15" d="M315.55,58.63a1.63,1.63,0,0,1,.86,1.16,6.45,6.45,0,0,1,.22,2.18,16.84,16.84,0,0,1-.37,2.62,12.86,12.86,0,0,1-.82,2.5,6.15,6.15,0,0,1-1.17,1.81,1.55,1.55,0,0,1-1.45.53L308,68.58l-6.2-1.1-6.29-1.11-5.14-.9a2.14,2.14,0,0,1-1.51-1.09,5.48,5.48,0,0,1-.66-2.16,10.67,10.67,0,0,1,.09-2.63,12.3,12.3,0,0,1,.67-2.56,6.5,6.5,0,0,1,1.13-2,1.67,1.67,0,0,1,1.42-.69A31.47,31.47,0,0,1,295,55c1.16.24,2.32.47,3.5.68.31-1.76.64-3.63,1-5.63l1.05-6c.35-2,.68-3.95,1-5.87s.57-3.69.81-5.28l-3.46-.39a10.92,10.92,0,0,1-2.9-.73,1.63,1.63,0,0,1-.86-1.16,6.3,6.3,0,0,1-.22-2.15,15.2,15.2,0,0,1,.36-2.62,12.64,12.64,0,0,1,.82-2.5,5.72,5.72,0,0,1,1.2-1.77,1.64,1.64,0,0,1,1.48-.53L321.17,25a2.14,2.14,0,0,1,1.51,1.09,5.44,5.44,0,0,1,.66,2.13,9.82,9.82,0,0,1-.09,2.63,11,11,0,0,1-.67,2.56,7,7,0,0,1-1.09,1.92,1.58,1.58,0,0,1-1.39.7,21.19,21.19,0,0,1-3.46-.51c-1.11-.26-2.26-.5-3.44-.7-.31,1.75-.63,3.63-1,5.62s-.68,4-1,6-.68,4-1,5.87-.58,3.68-.78,5.28l3.37.38A10,10,0,0,1,315.55,58.63Z"/><path class="cls-15" d="M360.91,38.66q-.53,1.73-1.55,4.72c-.67,2-1.42,4.19-2.23,6.58s-1.67,4.9-2.56,7.52S352.81,62.61,352,65s-1.59,4.57-2.27,6.57-1.21,3.57-1.6,4.7a3,3,0,0,1-2.22,1.8,8.42,8.42,0,0,1-7.06-1.29,4.37,4.37,0,0,1-1.89-2.93c-.42-2.5-.74-5.27-1-8.3s-.46-6.11-.66-9.24c-.32,1.07-.63,2.15-.93,3.23s-.63,2.19-1,3.34-.74,2.33-1.18,3.56-1,2.52-1.62,3.88a3.65,3.65,0,0,1-2.75,2,8,8,0,0,1-4-.14,6.42,6.42,0,0,1-3.22-2.08,3.71,3.71,0,0,1-.48-3.8q.74-2.17,1.74-5.21T324,54.63l2.34-7.07c.8-2.43,1.59-4.79,2.37-7.06s1.5-4.37,2.18-6.3,1.29-3.57,1.83-4.92c.15-.43.76-.66,1.84-.68a12,12,0,0,1,3.45.45,11.42,11.42,0,0,1,3.33,1.49,2.7,2.7,0,0,1,1.43,2.36q-.09,3.9-.27,7.51t-.33,7c-.11,2.23-.18,4.42-.2,6.55s0,4.23.16,6.28c.73-2,1.52-4.28,2.36-6.76s1.68-4.91,2.5-7.25,1.58-4.48,2.28-6.4,1.28-3.38,1.74-4.36a1.44,1.44,0,0,1,1.19-.78,6,6,0,0,1,2,.07,16,16,0,0,1,2.39.69,14.1,14.1,0,0,1,2.24,1,7.18,7.18,0,0,1,1.57,1.16C360.87,38,361,38.35,360.91,38.66Z"/><path class="cls-15" d="M383.93,47.71a22.38,22.38,0,0,1,4.06,2.7,9.25,9.25,0,0,1,2.63,3.66,12.72,12.72,0,0,1,.76,5.28,30.07,30.07,0,0,1-1.5,7.52,85.28,85.28,0,0,1-4.19,10.42q-2.79,6-7.35,14a3.93,3.93,0,0,1-1.95,1.64,5.31,5.31,0,0,1-2.44.3,6.53,6.53,0,0,1-2.45-.8,7.07,7.07,0,0,1-2-1.61,4.64,4.64,0,0,1-1.05-2.13,3.8,3.8,0,0,1,.32-2.43c.37-.69.69-1.3,1-1.84l.78-1.48.72-1.37.8-1.51A22.4,22.4,0,0,1,366.86,78q-2.07-1.18-4.05-2.37a27.38,27.38,0,0,0-1.93,2.81c-.58,1-1.12,1.85-1.62,2.61a4.58,4.58,0,0,1-1.95,1.78,4.86,4.86,0,0,1-2.3.44,5,5,0,0,1-2.19-.7,4.69,4.69,0,0,1-1.65-1.6,4.93,4.93,0,0,1-.68-2.32,5.63,5.63,0,0,1,.75-2.87,155.66,155.66,0,0,1,9.26-15.67,50.66,50.66,0,0,1,8.29-9.7,16,16,0,0,1,7.69-4A11.68,11.68,0,0,1,383.93,47.71ZM367.38,69.44A23.15,23.15,0,0,0,371,71.5a31.62,31.62,0,0,0,4.3,1.63,86.5,86.5,0,0,0,5.33-11.61c.92-2.72.74-4.41-.54-5.09s-3.16,0-5.41,2.21S370,64.42,367.38,69.44Z"/></g></g></g></svg>